G04 #@! TF.GenerationSoftware,KiCad,Pcbnew,(5.1.2)-1*
G04 #@! TF.CreationDate,2021-07-24T10:23:43+09:00*
G04 #@! TF.ProjectId,PS2USB,50533255-5342-42e6-9b69-6361645f7063,v2.1*
G04 #@! TF.SameCoordinates,Original*
G04 #@! TF.FileFunction,Legend,Top*
G04 #@! TF.FilePolarity,Positive*
%FSLAX46Y46*%
G04 Gerber Fmt 4.6, Leading zero omitted, Abs format (unit mm)*
G04 Created by KiCad (PCBNEW (5.1.2)-1) date 2021-07-24 10:23:43*
%MOMM*%
%LPD*%
G04 APERTURE LIST*
%ADD10C,0.200000*%
%ADD11C,0.120000*%
%ADD12C,0.150000*%
G04 APERTURE END LIST*
D10*
X73761904Y-100952380D02*
X73761904Y-99952380D01*
X74142857Y-99952380D01*
X74238095Y-100000000D01*
X74285714Y-100047619D01*
X74333333Y-100142857D01*
X74333333Y-100285714D01*
X74285714Y-100380952D01*
X74238095Y-100428571D01*
X74142857Y-100476190D01*
X73761904Y-100476190D01*
X74714285Y-100904761D02*
X74857142Y-100952380D01*
X75095238Y-100952380D01*
X75190476Y-100904761D01*
X75238095Y-100857142D01*
X75285714Y-100761904D01*
X75285714Y-100666666D01*
X75238095Y-100571428D01*
X75190476Y-100523809D01*
X75095238Y-100476190D01*
X74904761Y-100428571D01*
X74809523Y-100380952D01*
X74761904Y-100333333D01*
X74714285Y-100238095D01*
X74714285Y-100142857D01*
X74761904Y-100047619D01*
X74809523Y-100000000D01*
X74904761Y-99952380D01*
X75142857Y-99952380D01*
X75285714Y-100000000D01*
X76428571Y-99904761D02*
X75571428Y-101190476D01*
X76714285Y-100047619D02*
X76761904Y-100000000D01*
X76857142Y-99952380D01*
X77095238Y-99952380D01*
X77190476Y-100000000D01*
X77238095Y-100047619D01*
X77285714Y-100142857D01*
X77285714Y-100238095D01*
X77238095Y-100380952D01*
X76666666Y-100952380D01*
X77285714Y-100952380D01*
X107052380Y-100352380D02*
X107052380Y-101161904D01*
X107100000Y-101257142D01*
X107147619Y-101304761D01*
X107242857Y-101352380D01*
X107433333Y-101352380D01*
X107528571Y-101304761D01*
X107576190Y-101257142D01*
X107623809Y-101161904D01*
X107623809Y-100352380D01*
X108052380Y-101304761D02*
X108195238Y-101352380D01*
X108433333Y-101352380D01*
X108528571Y-101304761D01*
X108576190Y-101257142D01*
X108623809Y-101161904D01*
X108623809Y-101066666D01*
X108576190Y-100971428D01*
X108528571Y-100923809D01*
X108433333Y-100876190D01*
X108242857Y-100828571D01*
X108147619Y-100780952D01*
X108100000Y-100733333D01*
X108052380Y-100638095D01*
X108052380Y-100542857D01*
X108100000Y-100447619D01*
X108147619Y-100400000D01*
X108242857Y-100352380D01*
X108480952Y-100352380D01*
X108623809Y-100400000D01*
X109385714Y-100828571D02*
X109528571Y-100876190D01*
X109576190Y-100923809D01*
X109623809Y-101019047D01*
X109623809Y-101161904D01*
X109576190Y-101257142D01*
X109528571Y-101304761D01*
X109433333Y-101352380D01*
X109052380Y-101352380D01*
X109052380Y-100352380D01*
X109385714Y-100352380D01*
X109480952Y-100400000D01*
X109528571Y-100447619D01*
X109576190Y-100542857D01*
X109576190Y-100638095D01*
X109528571Y-100733333D01*
X109480952Y-100780952D01*
X109385714Y-100828571D01*
X109052380Y-100828571D01*
X110814285Y-101352380D02*
X110814285Y-100352380D01*
X110814285Y-100828571D02*
X111385714Y-100828571D01*
X111385714Y-101352380D02*
X111385714Y-100352380D01*
X112052380Y-100352380D02*
X112242857Y-100352380D01*
X112338095Y-100400000D01*
X112433333Y-100495238D01*
X112480952Y-100685714D01*
X112480952Y-101019047D01*
X112433333Y-101209523D01*
X112338095Y-101304761D01*
X112242857Y-101352380D01*
X112052380Y-101352380D01*
X111957142Y-101304761D01*
X111861904Y-101209523D01*
X111814285Y-101019047D01*
X111814285Y-100685714D01*
X111861904Y-100495238D01*
X111957142Y-100400000D01*
X112052380Y-100352380D01*
X112861904Y-101304761D02*
X113004761Y-101352380D01*
X113242857Y-101352380D01*
X113338095Y-101304761D01*
X113385714Y-101257142D01*
X113433333Y-101161904D01*
X113433333Y-101066666D01*
X113385714Y-100971428D01*
X113338095Y-100923809D01*
X113242857Y-100876190D01*
X113052380Y-100828571D01*
X112957142Y-100780952D01*
X112909523Y-100733333D01*
X112861904Y-100638095D01*
X112861904Y-100542857D01*
X112909523Y-100447619D01*
X112957142Y-100400000D01*
X113052380Y-100352380D01*
X113290476Y-100352380D01*
X113433333Y-100400000D01*
X113719047Y-100352380D02*
X114290476Y-100352380D01*
X114004761Y-101352380D02*
X114004761Y-100352380D01*
X84500000Y-98652380D02*
X84500000Y-97652380D01*
X85547619Y-98557142D02*
X85500000Y-98604761D01*
X85357142Y-98652380D01*
X85261904Y-98652380D01*
X85119047Y-98604761D01*
X85023809Y-98509523D01*
X84976190Y-98414285D01*
X84928571Y-98223809D01*
X84928571Y-98080952D01*
X84976190Y-97890476D01*
X85023809Y-97795238D01*
X85119047Y-97700000D01*
X85261904Y-97652380D01*
X85357142Y-97652380D01*
X85500000Y-97700000D01*
X85547619Y-97747619D01*
X85976190Y-98652380D02*
X85976190Y-97652380D01*
X86214285Y-97652380D01*
X86357142Y-97700000D01*
X86452380Y-97795238D01*
X86500000Y-97890476D01*
X86547619Y-98080952D01*
X86547619Y-98223809D01*
X86500000Y-98414285D01*
X86452380Y-98509523D01*
X86357142Y-98604761D01*
X86214285Y-98652380D01*
X85976190Y-98652380D01*
D11*
X103265000Y-91977500D02*
X103265000Y-94262500D01*
X104735000Y-91977500D02*
X103265000Y-91977500D01*
X104735000Y-94262500D02*
X104735000Y-91977500D01*
X80102500Y-83235000D02*
X82387500Y-83235000D01*
X80102500Y-81765000D02*
X80102500Y-83235000D01*
X82387500Y-81765000D02*
X80102500Y-81765000D01*
X80240000Y-87750000D02*
X80240000Y-90200000D01*
X83460000Y-89550000D02*
X83460000Y-87750000D01*
X102310000Y-89662779D02*
X102310000Y-89337221D01*
X101290000Y-89662779D02*
X101290000Y-89337221D01*
X93896078Y-96740000D02*
X93378922Y-96740000D01*
X93896078Y-98160000D02*
X93378922Y-98160000D01*
D12*
X72200000Y-83600000D02*
X71700000Y-83600000D01*
X71700000Y-83600000D02*
X71700000Y-99600000D01*
X71700000Y-99600000D02*
X72200000Y-99600000D01*
X72200000Y-83600000D02*
X72200000Y-99600000D01*
X72200000Y-99600000D02*
X78700000Y-99600000D01*
X78700000Y-99600000D02*
X78700000Y-83600000D01*
X78700000Y-83600000D02*
X72200000Y-83600000D01*
D11*
X97830000Y-101530000D02*
X97830000Y-100200000D01*
X99160000Y-101530000D02*
X97830000Y-101530000D01*
X100430000Y-101530000D02*
X100430000Y-98870000D01*
X100430000Y-98870000D02*
X105570000Y-98870000D01*
X100430000Y-101530000D02*
X105570000Y-101530000D01*
X105570000Y-101530000D02*
X105570000Y-98870000D01*
X84070000Y-101530000D02*
X84070000Y-100200000D01*
X85400000Y-101530000D02*
X84070000Y-101530000D01*
X86670000Y-101530000D02*
X86670000Y-98870000D01*
X86670000Y-98870000D02*
X96890000Y-98870000D01*
X86670000Y-101530000D02*
X96890000Y-101530000D01*
X96890000Y-101530000D02*
X96890000Y-98870000D01*
X81650279Y-96040000D02*
X81324721Y-96040000D01*
X81650279Y-97060000D02*
X81324721Y-97060000D01*
X89910000Y-89675279D02*
X89910000Y-89349721D01*
X88890000Y-89675279D02*
X88890000Y-89349721D01*
X97524721Y-98110000D02*
X97850279Y-98110000D01*
X97524721Y-97090000D02*
X97850279Y-97090000D01*
X89960000Y-94012779D02*
X89960000Y-93687221D01*
X88940000Y-94012779D02*
X88940000Y-93687221D01*
X81374721Y-86210000D02*
X81700279Y-86210000D01*
X81374721Y-85190000D02*
X81700279Y-85190000D01*
X85299721Y-88010000D02*
X85625279Y-88010000D01*
X85299721Y-86990000D02*
X85625279Y-86990000D01*
X81324721Y-92060000D02*
X81650279Y-92060000D01*
X81324721Y-91040000D02*
X81650279Y-91040000D01*
X91910000Y-84050279D02*
X91910000Y-83724721D01*
X90890000Y-84050279D02*
X90890000Y-83724721D01*
X97290000Y-83737221D02*
X97290000Y-84062779D01*
X98310000Y-83737221D02*
X98310000Y-84062779D01*
D12*
X106000000Y-100000000D02*
X106000000Y-83000000D01*
X106000000Y-83000000D02*
X120500000Y-83000000D01*
X120500000Y-83000000D02*
X120500000Y-100000000D01*
X120500000Y-100000000D02*
X106000000Y-100000000D01*
D11*
X78212779Y-81990000D02*
X77887221Y-81990000D01*
X78212779Y-83010000D02*
X77887221Y-83010000D01*
X104510000Y-90350279D02*
X104510000Y-90024721D01*
X103490000Y-90350279D02*
X103490000Y-90024721D01*
X81349721Y-94340000D02*
X81675279Y-94340000D01*
X81349721Y-95360000D02*
X81675279Y-95360000D01*
X81349721Y-92690000D02*
X81675279Y-92690000D01*
X81349721Y-93710000D02*
X81675279Y-93710000D01*
D12*
X100900000Y-88125000D02*
X100325000Y-88125000D01*
X100900000Y-93875000D02*
X100250000Y-93875000D01*
X90250000Y-93875000D02*
X90900000Y-93875000D01*
X90250000Y-88125000D02*
X90900000Y-88125000D01*
X100900000Y-88125000D02*
X100900000Y-93875000D01*
X90250000Y-88125000D02*
X90250000Y-93875000D01*
X100325000Y-88125000D02*
X100325000Y-86525000D01*
X104452380Y-96813095D02*
X103452380Y-96813095D01*
X103452380Y-96575000D01*
X103500000Y-96432142D01*
X103595238Y-96336904D01*
X103690476Y-96289285D01*
X103880952Y-96241666D01*
X104023809Y-96241666D01*
X104214285Y-96289285D01*
X104309523Y-96336904D01*
X104404761Y-96432142D01*
X104452380Y-96575000D01*
X104452380Y-96813095D01*
X103547619Y-95860714D02*
X103500000Y-95813095D01*
X103452380Y-95717857D01*
X103452380Y-95479761D01*
X103500000Y-95384523D01*
X103547619Y-95336904D01*
X103642857Y-95289285D01*
X103738095Y-95289285D01*
X103880952Y-95336904D01*
X104452380Y-95908333D01*
X104452380Y-95289285D01*
X83311904Y-82952380D02*
X83311904Y-81952380D01*
X83550000Y-81952380D01*
X83692857Y-82000000D01*
X83788095Y-82095238D01*
X83835714Y-82190476D01*
X83883333Y-82380952D01*
X83883333Y-82523809D01*
X83835714Y-82714285D01*
X83788095Y-82809523D01*
X83692857Y-82904761D01*
X83550000Y-82952380D01*
X83311904Y-82952380D01*
X84835714Y-82952380D02*
X84264285Y-82952380D01*
X84550000Y-82952380D02*
X84550000Y-81952380D01*
X84454761Y-82095238D01*
X84359523Y-82190476D01*
X84264285Y-82238095D01*
X83352380Y-86461904D02*
X84161904Y-86461904D01*
X84257142Y-86414285D01*
X84304761Y-86366666D01*
X84352380Y-86271428D01*
X84352380Y-86080952D01*
X84304761Y-85985714D01*
X84257142Y-85938095D01*
X84161904Y-85890476D01*
X83352380Y-85890476D01*
X84352380Y-84890476D02*
X84352380Y-85461904D01*
X84352380Y-85176190D02*
X83352380Y-85176190D01*
X83495238Y-85271428D01*
X83590476Y-85366666D01*
X83638095Y-85461904D01*
X102252380Y-92166666D02*
X101776190Y-92500000D01*
X102252380Y-92738095D02*
X101252380Y-92738095D01*
X101252380Y-92357142D01*
X101300000Y-92261904D01*
X101347619Y-92214285D01*
X101442857Y-92166666D01*
X101585714Y-92166666D01*
X101680952Y-92214285D01*
X101728571Y-92261904D01*
X101776190Y-92357142D01*
X101776190Y-92738095D01*
X102252380Y-91214285D02*
X102252380Y-91785714D01*
X102252380Y-91500000D02*
X101252380Y-91500000D01*
X101395238Y-91595238D01*
X101490476Y-91690476D01*
X101538095Y-91785714D01*
X90933333Y-97807142D02*
X90885714Y-97854761D01*
X90742857Y-97902380D01*
X90647619Y-97902380D01*
X90504761Y-97854761D01*
X90409523Y-97759523D01*
X90361904Y-97664285D01*
X90314285Y-97473809D01*
X90314285Y-97330952D01*
X90361904Y-97140476D01*
X90409523Y-97045238D01*
X90504761Y-96950000D01*
X90647619Y-96902380D01*
X90742857Y-96902380D01*
X90885714Y-96950000D01*
X90933333Y-96997619D01*
X91885714Y-97902380D02*
X91314285Y-97902380D01*
X91600000Y-97902380D02*
X91600000Y-96902380D01*
X91504761Y-97045238D01*
X91409523Y-97140476D01*
X91314285Y-97188095D01*
X81116666Y-97978571D02*
X80783333Y-97978571D01*
X80783333Y-98502380D02*
X80783333Y-97502380D01*
X81259523Y-97502380D01*
X82164285Y-98502380D02*
X81592857Y-98502380D01*
X81878571Y-98502380D02*
X81878571Y-97502380D01*
X81783333Y-97645238D01*
X81688095Y-97740476D01*
X81592857Y-97788095D01*
X88357142Y-90092857D02*
X88404761Y-90140476D01*
X88452380Y-90283333D01*
X88452380Y-90378571D01*
X88404761Y-90521428D01*
X88309523Y-90616666D01*
X88214285Y-90664285D01*
X88023809Y-90711904D01*
X87880952Y-90711904D01*
X87690476Y-90664285D01*
X87595238Y-90616666D01*
X87500000Y-90521428D01*
X87452380Y-90378571D01*
X87452380Y-90283333D01*
X87500000Y-90140476D01*
X87547619Y-90092857D01*
X88452380Y-89140476D02*
X88452380Y-89711904D01*
X88452380Y-89426190D02*
X87452380Y-89426190D01*
X87595238Y-89521428D01*
X87690476Y-89616666D01*
X87738095Y-89711904D01*
X87880952Y-88569047D02*
X87833333Y-88664285D01*
X87785714Y-88711904D01*
X87690476Y-88759523D01*
X87642857Y-88759523D01*
X87547619Y-88711904D01*
X87500000Y-88664285D01*
X87452380Y-88569047D01*
X87452380Y-88378571D01*
X87500000Y-88283333D01*
X87547619Y-88235714D01*
X87642857Y-88188095D01*
X87690476Y-88188095D01*
X87785714Y-88235714D01*
X87833333Y-88283333D01*
X87880952Y-88378571D01*
X87880952Y-88569047D01*
X87928571Y-88664285D01*
X87976190Y-88711904D01*
X88071428Y-88759523D01*
X88261904Y-88759523D01*
X88357142Y-88711904D01*
X88404761Y-88664285D01*
X88452380Y-88569047D01*
X88452380Y-88378571D01*
X88404761Y-88283333D01*
X88357142Y-88235714D01*
X88261904Y-88188095D01*
X88071428Y-88188095D01*
X87976190Y-88235714D01*
X87928571Y-88283333D01*
X87880952Y-88378571D01*
X100007142Y-97957142D02*
X99959523Y-98004761D01*
X99816666Y-98052380D01*
X99721428Y-98052380D01*
X99578571Y-98004761D01*
X99483333Y-97909523D01*
X99435714Y-97814285D01*
X99388095Y-97623809D01*
X99388095Y-97480952D01*
X99435714Y-97290476D01*
X99483333Y-97195238D01*
X99578571Y-97100000D01*
X99721428Y-97052380D01*
X99816666Y-97052380D01*
X99959523Y-97100000D01*
X100007142Y-97147619D01*
X100959523Y-98052380D02*
X100388095Y-98052380D01*
X100673809Y-98052380D02*
X100673809Y-97052380D01*
X100578571Y-97195238D01*
X100483333Y-97290476D01*
X100388095Y-97338095D01*
X101292857Y-97052380D02*
X101959523Y-97052380D01*
X101530952Y-98052380D01*
X88377142Y-94492857D02*
X88424761Y-94540476D01*
X88472380Y-94683333D01*
X88472380Y-94778571D01*
X88424761Y-94921428D01*
X88329523Y-95016666D01*
X88234285Y-95064285D01*
X88043809Y-95111904D01*
X87900952Y-95111904D01*
X87710476Y-95064285D01*
X87615238Y-95016666D01*
X87520000Y-94921428D01*
X87472380Y-94778571D01*
X87472380Y-94683333D01*
X87520000Y-94540476D01*
X87567619Y-94492857D01*
X88472380Y-93540476D02*
X88472380Y-94111904D01*
X88472380Y-93826190D02*
X87472380Y-93826190D01*
X87615238Y-93921428D01*
X87710476Y-94016666D01*
X87758095Y-94111904D01*
X87472380Y-92683333D02*
X87472380Y-92873809D01*
X87520000Y-92969047D01*
X87567619Y-93016666D01*
X87710476Y-93111904D01*
X87900952Y-93159523D01*
X88281904Y-93159523D01*
X88377142Y-93111904D01*
X88424761Y-93064285D01*
X88472380Y-92969047D01*
X88472380Y-92778571D01*
X88424761Y-92683333D01*
X88377142Y-92635714D01*
X88281904Y-92588095D01*
X88043809Y-92588095D01*
X87948571Y-92635714D01*
X87900952Y-92683333D01*
X87853333Y-92778571D01*
X87853333Y-92969047D01*
X87900952Y-93064285D01*
X87948571Y-93111904D01*
X88043809Y-93159523D01*
X80957142Y-84707142D02*
X80909523Y-84754761D01*
X80766666Y-84802380D01*
X80671428Y-84802380D01*
X80528571Y-84754761D01*
X80433333Y-84659523D01*
X80385714Y-84564285D01*
X80338095Y-84373809D01*
X80338095Y-84230952D01*
X80385714Y-84040476D01*
X80433333Y-83945238D01*
X80528571Y-83850000D01*
X80671428Y-83802380D01*
X80766666Y-83802380D01*
X80909523Y-83850000D01*
X80957142Y-83897619D01*
X81909523Y-84802380D02*
X81338095Y-84802380D01*
X81623809Y-84802380D02*
X81623809Y-83802380D01*
X81528571Y-83945238D01*
X81433333Y-84040476D01*
X81338095Y-84088095D01*
X82290476Y-83897619D02*
X82338095Y-83850000D01*
X82433333Y-83802380D01*
X82671428Y-83802380D01*
X82766666Y-83850000D01*
X82814285Y-83897619D01*
X82861904Y-83992857D01*
X82861904Y-84088095D01*
X82814285Y-84230952D01*
X82242857Y-84802380D01*
X82861904Y-84802380D01*
X84807142Y-89307142D02*
X84759523Y-89354761D01*
X84616666Y-89402380D01*
X84521428Y-89402380D01*
X84378571Y-89354761D01*
X84283333Y-89259523D01*
X84235714Y-89164285D01*
X84188095Y-88973809D01*
X84188095Y-88830952D01*
X84235714Y-88640476D01*
X84283333Y-88545238D01*
X84378571Y-88450000D01*
X84521428Y-88402380D01*
X84616666Y-88402380D01*
X84759523Y-88450000D01*
X84807142Y-88497619D01*
X85759523Y-89402380D02*
X85188095Y-89402380D01*
X85473809Y-89402380D02*
X85473809Y-88402380D01*
X85378571Y-88545238D01*
X85283333Y-88640476D01*
X85188095Y-88688095D01*
X86711904Y-89402380D02*
X86140476Y-89402380D01*
X86426190Y-89402380D02*
X86426190Y-88402380D01*
X86330952Y-88545238D01*
X86235714Y-88640476D01*
X86140476Y-88688095D01*
X83807142Y-91857142D02*
X83759523Y-91904761D01*
X83616666Y-91952380D01*
X83521428Y-91952380D01*
X83378571Y-91904761D01*
X83283333Y-91809523D01*
X83235714Y-91714285D01*
X83188095Y-91523809D01*
X83188095Y-91380952D01*
X83235714Y-91190476D01*
X83283333Y-91095238D01*
X83378571Y-91000000D01*
X83521428Y-90952380D01*
X83616666Y-90952380D01*
X83759523Y-91000000D01*
X83807142Y-91047619D01*
X84759523Y-91952380D02*
X84188095Y-91952380D01*
X84473809Y-91952380D02*
X84473809Y-90952380D01*
X84378571Y-91095238D01*
X84283333Y-91190476D01*
X84188095Y-91238095D01*
X85378571Y-90952380D02*
X85473809Y-90952380D01*
X85569047Y-91000000D01*
X85616666Y-91047619D01*
X85664285Y-91142857D01*
X85711904Y-91333333D01*
X85711904Y-91571428D01*
X85664285Y-91761904D01*
X85616666Y-91857142D01*
X85569047Y-91904761D01*
X85473809Y-91952380D01*
X85378571Y-91952380D01*
X85283333Y-91904761D01*
X85235714Y-91857142D01*
X85188095Y-91761904D01*
X85140476Y-91571428D01*
X85140476Y-91333333D01*
X85188095Y-91142857D01*
X85235714Y-91047619D01*
X85283333Y-91000000D01*
X85378571Y-90952380D01*
X90357142Y-83966666D02*
X90404761Y-84014285D01*
X90452380Y-84157142D01*
X90452380Y-84252380D01*
X90404761Y-84395238D01*
X90309523Y-84490476D01*
X90214285Y-84538095D01*
X90023809Y-84585714D01*
X89880952Y-84585714D01*
X89690476Y-84538095D01*
X89595238Y-84490476D01*
X89500000Y-84395238D01*
X89452380Y-84252380D01*
X89452380Y-84157142D01*
X89500000Y-84014285D01*
X89547619Y-83966666D01*
X89452380Y-83633333D02*
X89452380Y-82966666D01*
X90452380Y-83395238D01*
X99657142Y-84066666D02*
X99704761Y-84114285D01*
X99752380Y-84257142D01*
X99752380Y-84352380D01*
X99704761Y-84495238D01*
X99609523Y-84590476D01*
X99514285Y-84638095D01*
X99323809Y-84685714D01*
X99180952Y-84685714D01*
X98990476Y-84638095D01*
X98895238Y-84590476D01*
X98800000Y-84495238D01*
X98752380Y-84352380D01*
X98752380Y-84257142D01*
X98800000Y-84114285D01*
X98847619Y-84066666D01*
X98752380Y-83733333D02*
X98752380Y-83114285D01*
X99133333Y-83447619D01*
X99133333Y-83304761D01*
X99180952Y-83209523D01*
X99228571Y-83161904D01*
X99323809Y-83114285D01*
X99561904Y-83114285D01*
X99657142Y-83161904D01*
X99704761Y-83209523D01*
X99752380Y-83304761D01*
X99752380Y-83590476D01*
X99704761Y-83685714D01*
X99657142Y-83733333D01*
X75333333Y-83002380D02*
X75000000Y-82526190D01*
X74761904Y-83002380D02*
X74761904Y-82002380D01*
X75142857Y-82002380D01*
X75238095Y-82050000D01*
X75285714Y-82097619D01*
X75333333Y-82192857D01*
X75333333Y-82335714D01*
X75285714Y-82430952D01*
X75238095Y-82478571D01*
X75142857Y-82526190D01*
X74761904Y-82526190D01*
X75714285Y-82097619D02*
X75761904Y-82050000D01*
X75857142Y-82002380D01*
X76095238Y-82002380D01*
X76190476Y-82050000D01*
X76238095Y-82097619D01*
X76285714Y-82192857D01*
X76285714Y-82288095D01*
X76238095Y-82430952D01*
X75666666Y-83002380D01*
X76285714Y-83002380D01*
X104452380Y-87754166D02*
X103976190Y-88087500D01*
X104452380Y-88325595D02*
X103452380Y-88325595D01*
X103452380Y-87944642D01*
X103500000Y-87849404D01*
X103547619Y-87801785D01*
X103642857Y-87754166D01*
X103785714Y-87754166D01*
X103880952Y-87801785D01*
X103928571Y-87849404D01*
X103976190Y-87944642D01*
X103976190Y-88325595D01*
X103452380Y-87420833D02*
X103452380Y-86801785D01*
X103833333Y-87135119D01*
X103833333Y-86992261D01*
X103880952Y-86897023D01*
X103928571Y-86849404D01*
X104023809Y-86801785D01*
X104261904Y-86801785D01*
X104357142Y-86849404D01*
X104404761Y-86897023D01*
X104452380Y-86992261D01*
X104452380Y-87277976D01*
X104404761Y-87373214D01*
X104357142Y-87420833D01*
X83795833Y-95302380D02*
X83462500Y-94826190D01*
X83224404Y-95302380D02*
X83224404Y-94302380D01*
X83605357Y-94302380D01*
X83700595Y-94350000D01*
X83748214Y-94397619D01*
X83795833Y-94492857D01*
X83795833Y-94635714D01*
X83748214Y-94730952D01*
X83700595Y-94778571D01*
X83605357Y-94826190D01*
X83224404Y-94826190D01*
X84129166Y-94302380D02*
X84795833Y-94302380D01*
X84367261Y-95302380D01*
X83795833Y-93652380D02*
X83462500Y-93176190D01*
X83224404Y-93652380D02*
X83224404Y-92652380D01*
X83605357Y-92652380D01*
X83700595Y-92700000D01*
X83748214Y-92747619D01*
X83795833Y-92842857D01*
X83795833Y-92985714D01*
X83748214Y-93080952D01*
X83700595Y-93128571D01*
X83605357Y-93176190D01*
X83224404Y-93176190D01*
X84367261Y-93080952D02*
X84272023Y-93033333D01*
X84224404Y-92985714D01*
X84176785Y-92890476D01*
X84176785Y-92842857D01*
X84224404Y-92747619D01*
X84272023Y-92700000D01*
X84367261Y-92652380D01*
X84557738Y-92652380D01*
X84652976Y-92700000D01*
X84700595Y-92747619D01*
X84748214Y-92842857D01*
X84748214Y-92890476D01*
X84700595Y-92985714D01*
X84652976Y-93033333D01*
X84557738Y-93080952D01*
X84367261Y-93080952D01*
X84272023Y-93128571D01*
X84224404Y-93176190D01*
X84176785Y-93271428D01*
X84176785Y-93461904D01*
X84224404Y-93557142D01*
X84272023Y-93604761D01*
X84367261Y-93652380D01*
X84557738Y-93652380D01*
X84652976Y-93604761D01*
X84700595Y-93557142D01*
X84748214Y-93461904D01*
X84748214Y-93271428D01*
X84700595Y-93176190D01*
X84652976Y-93128571D01*
X84557738Y-93080952D01*
X93990476Y-81052380D02*
X94657142Y-82052380D01*
X94657142Y-81052380D02*
X93990476Y-82052380D01*
X95561904Y-82052380D02*
X94990476Y-82052380D01*
X95276190Y-82052380D02*
X95276190Y-81052380D01*
X95180952Y-81195238D01*
X95085714Y-81290476D01*
X94990476Y-81338095D01*
X101252380Y-87661904D02*
X102061904Y-87661904D01*
X102157142Y-87614285D01*
X102204761Y-87566666D01*
X102252380Y-87471428D01*
X102252380Y-87280952D01*
X102204761Y-87185714D01*
X102157142Y-87138095D01*
X102061904Y-87090476D01*
X101252380Y-87090476D01*
X101347619Y-86661904D02*
X101300000Y-86614285D01*
X101252380Y-86519047D01*
X101252380Y-86280952D01*
X101300000Y-86185714D01*
X101347619Y-86138095D01*
X101442857Y-86090476D01*
X101538095Y-86090476D01*
X101680952Y-86138095D01*
X102252380Y-86709523D01*
X102252380Y-86090476D01*
M02*
