G04 #@! TF.GenerationSoftware,KiCad,Pcbnew,(5.1.2)-1*
G04 #@! TF.CreationDate,2021-07-24T10:23:43+09:00*
G04 #@! TF.ProjectId,PS2USB,50533255-5342-42e6-9b69-6361645f7063,v2.1*
G04 #@! TF.SameCoordinates,Original*
G04 #@! TF.FileFunction,Copper,L2,Bot*
G04 #@! TF.FilePolarity,Positive*
%FSLAX46Y46*%
G04 Gerber Fmt 4.6, Leading zero omitted, Abs format (unit mm)*
G04 Created by KiCad (PCBNEW (5.1.2)-1) date 2021-07-24 10:23:43*
%MOMM*%
%LPD*%
G04 APERTURE LIST*
%ADD10C,1.524000*%
%ADD11O,3.000000X1.500000*%
%ADD12C,2.000000*%
%ADD13O,1.700000X1.700000*%
%ADD14R,1.700000X1.700000*%
%ADD15C,3.000000*%
%ADD16C,0.050000*%
%ADD17C,0.600000*%
%ADD18C,0.800000*%
%ADD19C,0.300000*%
%ADD20C,0.254000*%
G04 APERTURE END LIST*
D10*
X77700000Y-95100000D03*
X77700000Y-92600000D03*
X77700000Y-90600000D03*
X77700000Y-88100000D03*
D11*
X75300000Y-85700000D03*
X75300000Y-97500000D03*
D12*
X75300000Y-89350000D03*
X75300000Y-93850000D03*
D13*
X104240000Y-100200000D03*
X101700000Y-100200000D03*
D14*
X99160000Y-100200000D03*
D13*
X95560000Y-100200000D03*
X93020000Y-100200000D03*
X90480000Y-100200000D03*
X87940000Y-100200000D03*
D14*
X85400000Y-100200000D03*
D10*
X107000000Y-95000000D03*
X107000000Y-92500000D03*
X107000000Y-90500000D03*
X107000000Y-88000000D03*
D15*
X109600000Y-98070000D03*
X109600000Y-84930000D03*
D16*
G36*
X87509703Y-85025722D02*
G01*
X87524264Y-85027882D01*
X87538543Y-85031459D01*
X87552403Y-85036418D01*
X87565710Y-85042712D01*
X87578336Y-85050280D01*
X87590159Y-85059048D01*
X87601066Y-85068934D01*
X87610952Y-85079841D01*
X87619720Y-85091664D01*
X87627288Y-85104290D01*
X87633582Y-85117597D01*
X87638541Y-85131457D01*
X87642118Y-85145736D01*
X87644278Y-85160297D01*
X87645000Y-85175000D01*
X87645000Y-86925000D01*
X87644278Y-86939703D01*
X87642118Y-86954264D01*
X87638541Y-86968543D01*
X87633582Y-86982403D01*
X87627288Y-86995710D01*
X87619720Y-87008336D01*
X87610952Y-87020159D01*
X87601066Y-87031066D01*
X87590159Y-87040952D01*
X87578336Y-87049720D01*
X87565710Y-87057288D01*
X87552403Y-87063582D01*
X87538543Y-87068541D01*
X87524264Y-87072118D01*
X87509703Y-87074278D01*
X87495000Y-87075000D01*
X87195000Y-87075000D01*
X87180297Y-87074278D01*
X87165736Y-87072118D01*
X87151457Y-87068541D01*
X87137597Y-87063582D01*
X87124290Y-87057288D01*
X87111664Y-87049720D01*
X87099841Y-87040952D01*
X87088934Y-87031066D01*
X87079048Y-87020159D01*
X87070280Y-87008336D01*
X87062712Y-86995710D01*
X87056418Y-86982403D01*
X87051459Y-86968543D01*
X87047882Y-86954264D01*
X87045722Y-86939703D01*
X87045000Y-86925000D01*
X87045000Y-85175000D01*
X87045722Y-85160297D01*
X87047882Y-85145736D01*
X87051459Y-85131457D01*
X87056418Y-85117597D01*
X87062712Y-85104290D01*
X87070280Y-85091664D01*
X87079048Y-85079841D01*
X87088934Y-85068934D01*
X87099841Y-85059048D01*
X87111664Y-85050280D01*
X87124290Y-85042712D01*
X87137597Y-85036418D01*
X87151457Y-85031459D01*
X87165736Y-85027882D01*
X87180297Y-85025722D01*
X87195000Y-85025000D01*
X87495000Y-85025000D01*
X87509703Y-85025722D01*
X87509703Y-85025722D01*
G37*
D17*
X87345000Y-86050000D03*
D16*
G36*
X88779703Y-85025722D02*
G01*
X88794264Y-85027882D01*
X88808543Y-85031459D01*
X88822403Y-85036418D01*
X88835710Y-85042712D01*
X88848336Y-85050280D01*
X88860159Y-85059048D01*
X88871066Y-85068934D01*
X88880952Y-85079841D01*
X88889720Y-85091664D01*
X88897288Y-85104290D01*
X88903582Y-85117597D01*
X88908541Y-85131457D01*
X88912118Y-85145736D01*
X88914278Y-85160297D01*
X88915000Y-85175000D01*
X88915000Y-86925000D01*
X88914278Y-86939703D01*
X88912118Y-86954264D01*
X88908541Y-86968543D01*
X88903582Y-86982403D01*
X88897288Y-86995710D01*
X88889720Y-87008336D01*
X88880952Y-87020159D01*
X88871066Y-87031066D01*
X88860159Y-87040952D01*
X88848336Y-87049720D01*
X88835710Y-87057288D01*
X88822403Y-87063582D01*
X88808543Y-87068541D01*
X88794264Y-87072118D01*
X88779703Y-87074278D01*
X88765000Y-87075000D01*
X88465000Y-87075000D01*
X88450297Y-87074278D01*
X88435736Y-87072118D01*
X88421457Y-87068541D01*
X88407597Y-87063582D01*
X88394290Y-87057288D01*
X88381664Y-87049720D01*
X88369841Y-87040952D01*
X88358934Y-87031066D01*
X88349048Y-87020159D01*
X88340280Y-87008336D01*
X88332712Y-86995710D01*
X88326418Y-86982403D01*
X88321459Y-86968543D01*
X88317882Y-86954264D01*
X88315722Y-86939703D01*
X88315000Y-86925000D01*
X88315000Y-85175000D01*
X88315722Y-85160297D01*
X88317882Y-85145736D01*
X88321459Y-85131457D01*
X88326418Y-85117597D01*
X88332712Y-85104290D01*
X88340280Y-85091664D01*
X88349048Y-85079841D01*
X88358934Y-85068934D01*
X88369841Y-85059048D01*
X88381664Y-85050280D01*
X88394290Y-85042712D01*
X88407597Y-85036418D01*
X88421457Y-85031459D01*
X88435736Y-85027882D01*
X88450297Y-85025722D01*
X88465000Y-85025000D01*
X88765000Y-85025000D01*
X88779703Y-85025722D01*
X88779703Y-85025722D01*
G37*
D17*
X88615000Y-86050000D03*
D16*
G36*
X90049703Y-85025722D02*
G01*
X90064264Y-85027882D01*
X90078543Y-85031459D01*
X90092403Y-85036418D01*
X90105710Y-85042712D01*
X90118336Y-85050280D01*
X90130159Y-85059048D01*
X90141066Y-85068934D01*
X90150952Y-85079841D01*
X90159720Y-85091664D01*
X90167288Y-85104290D01*
X90173582Y-85117597D01*
X90178541Y-85131457D01*
X90182118Y-85145736D01*
X90184278Y-85160297D01*
X90185000Y-85175000D01*
X90185000Y-86925000D01*
X90184278Y-86939703D01*
X90182118Y-86954264D01*
X90178541Y-86968543D01*
X90173582Y-86982403D01*
X90167288Y-86995710D01*
X90159720Y-87008336D01*
X90150952Y-87020159D01*
X90141066Y-87031066D01*
X90130159Y-87040952D01*
X90118336Y-87049720D01*
X90105710Y-87057288D01*
X90092403Y-87063582D01*
X90078543Y-87068541D01*
X90064264Y-87072118D01*
X90049703Y-87074278D01*
X90035000Y-87075000D01*
X89735000Y-87075000D01*
X89720297Y-87074278D01*
X89705736Y-87072118D01*
X89691457Y-87068541D01*
X89677597Y-87063582D01*
X89664290Y-87057288D01*
X89651664Y-87049720D01*
X89639841Y-87040952D01*
X89628934Y-87031066D01*
X89619048Y-87020159D01*
X89610280Y-87008336D01*
X89602712Y-86995710D01*
X89596418Y-86982403D01*
X89591459Y-86968543D01*
X89587882Y-86954264D01*
X89585722Y-86939703D01*
X89585000Y-86925000D01*
X89585000Y-85175000D01*
X89585722Y-85160297D01*
X89587882Y-85145736D01*
X89591459Y-85131457D01*
X89596418Y-85117597D01*
X89602712Y-85104290D01*
X89610280Y-85091664D01*
X89619048Y-85079841D01*
X89628934Y-85068934D01*
X89639841Y-85059048D01*
X89651664Y-85050280D01*
X89664290Y-85042712D01*
X89677597Y-85036418D01*
X89691457Y-85031459D01*
X89705736Y-85027882D01*
X89720297Y-85025722D01*
X89735000Y-85025000D01*
X90035000Y-85025000D01*
X90049703Y-85025722D01*
X90049703Y-85025722D01*
G37*
D17*
X89885000Y-86050000D03*
D16*
G36*
X91319703Y-85025722D02*
G01*
X91334264Y-85027882D01*
X91348543Y-85031459D01*
X91362403Y-85036418D01*
X91375710Y-85042712D01*
X91388336Y-85050280D01*
X91400159Y-85059048D01*
X91411066Y-85068934D01*
X91420952Y-85079841D01*
X91429720Y-85091664D01*
X91437288Y-85104290D01*
X91443582Y-85117597D01*
X91448541Y-85131457D01*
X91452118Y-85145736D01*
X91454278Y-85160297D01*
X91455000Y-85175000D01*
X91455000Y-86925000D01*
X91454278Y-86939703D01*
X91452118Y-86954264D01*
X91448541Y-86968543D01*
X91443582Y-86982403D01*
X91437288Y-86995710D01*
X91429720Y-87008336D01*
X91420952Y-87020159D01*
X91411066Y-87031066D01*
X91400159Y-87040952D01*
X91388336Y-87049720D01*
X91375710Y-87057288D01*
X91362403Y-87063582D01*
X91348543Y-87068541D01*
X91334264Y-87072118D01*
X91319703Y-87074278D01*
X91305000Y-87075000D01*
X91005000Y-87075000D01*
X90990297Y-87074278D01*
X90975736Y-87072118D01*
X90961457Y-87068541D01*
X90947597Y-87063582D01*
X90934290Y-87057288D01*
X90921664Y-87049720D01*
X90909841Y-87040952D01*
X90898934Y-87031066D01*
X90889048Y-87020159D01*
X90880280Y-87008336D01*
X90872712Y-86995710D01*
X90866418Y-86982403D01*
X90861459Y-86968543D01*
X90857882Y-86954264D01*
X90855722Y-86939703D01*
X90855000Y-86925000D01*
X90855000Y-85175000D01*
X90855722Y-85160297D01*
X90857882Y-85145736D01*
X90861459Y-85131457D01*
X90866418Y-85117597D01*
X90872712Y-85104290D01*
X90880280Y-85091664D01*
X90889048Y-85079841D01*
X90898934Y-85068934D01*
X90909841Y-85059048D01*
X90921664Y-85050280D01*
X90934290Y-85042712D01*
X90947597Y-85036418D01*
X90961457Y-85031459D01*
X90975736Y-85027882D01*
X90990297Y-85025722D01*
X91005000Y-85025000D01*
X91305000Y-85025000D01*
X91319703Y-85025722D01*
X91319703Y-85025722D01*
G37*
D17*
X91155000Y-86050000D03*
D16*
G36*
X92589703Y-85025722D02*
G01*
X92604264Y-85027882D01*
X92618543Y-85031459D01*
X92632403Y-85036418D01*
X92645710Y-85042712D01*
X92658336Y-85050280D01*
X92670159Y-85059048D01*
X92681066Y-85068934D01*
X92690952Y-85079841D01*
X92699720Y-85091664D01*
X92707288Y-85104290D01*
X92713582Y-85117597D01*
X92718541Y-85131457D01*
X92722118Y-85145736D01*
X92724278Y-85160297D01*
X92725000Y-85175000D01*
X92725000Y-86925000D01*
X92724278Y-86939703D01*
X92722118Y-86954264D01*
X92718541Y-86968543D01*
X92713582Y-86982403D01*
X92707288Y-86995710D01*
X92699720Y-87008336D01*
X92690952Y-87020159D01*
X92681066Y-87031066D01*
X92670159Y-87040952D01*
X92658336Y-87049720D01*
X92645710Y-87057288D01*
X92632403Y-87063582D01*
X92618543Y-87068541D01*
X92604264Y-87072118D01*
X92589703Y-87074278D01*
X92575000Y-87075000D01*
X92275000Y-87075000D01*
X92260297Y-87074278D01*
X92245736Y-87072118D01*
X92231457Y-87068541D01*
X92217597Y-87063582D01*
X92204290Y-87057288D01*
X92191664Y-87049720D01*
X92179841Y-87040952D01*
X92168934Y-87031066D01*
X92159048Y-87020159D01*
X92150280Y-87008336D01*
X92142712Y-86995710D01*
X92136418Y-86982403D01*
X92131459Y-86968543D01*
X92127882Y-86954264D01*
X92125722Y-86939703D01*
X92125000Y-86925000D01*
X92125000Y-85175000D01*
X92125722Y-85160297D01*
X92127882Y-85145736D01*
X92131459Y-85131457D01*
X92136418Y-85117597D01*
X92142712Y-85104290D01*
X92150280Y-85091664D01*
X92159048Y-85079841D01*
X92168934Y-85068934D01*
X92179841Y-85059048D01*
X92191664Y-85050280D01*
X92204290Y-85042712D01*
X92217597Y-85036418D01*
X92231457Y-85031459D01*
X92245736Y-85027882D01*
X92260297Y-85025722D01*
X92275000Y-85025000D01*
X92575000Y-85025000D01*
X92589703Y-85025722D01*
X92589703Y-85025722D01*
G37*
D17*
X92425000Y-86050000D03*
D16*
G36*
X93859703Y-85025722D02*
G01*
X93874264Y-85027882D01*
X93888543Y-85031459D01*
X93902403Y-85036418D01*
X93915710Y-85042712D01*
X93928336Y-85050280D01*
X93940159Y-85059048D01*
X93951066Y-85068934D01*
X93960952Y-85079841D01*
X93969720Y-85091664D01*
X93977288Y-85104290D01*
X93983582Y-85117597D01*
X93988541Y-85131457D01*
X93992118Y-85145736D01*
X93994278Y-85160297D01*
X93995000Y-85175000D01*
X93995000Y-86925000D01*
X93994278Y-86939703D01*
X93992118Y-86954264D01*
X93988541Y-86968543D01*
X93983582Y-86982403D01*
X93977288Y-86995710D01*
X93969720Y-87008336D01*
X93960952Y-87020159D01*
X93951066Y-87031066D01*
X93940159Y-87040952D01*
X93928336Y-87049720D01*
X93915710Y-87057288D01*
X93902403Y-87063582D01*
X93888543Y-87068541D01*
X93874264Y-87072118D01*
X93859703Y-87074278D01*
X93845000Y-87075000D01*
X93545000Y-87075000D01*
X93530297Y-87074278D01*
X93515736Y-87072118D01*
X93501457Y-87068541D01*
X93487597Y-87063582D01*
X93474290Y-87057288D01*
X93461664Y-87049720D01*
X93449841Y-87040952D01*
X93438934Y-87031066D01*
X93429048Y-87020159D01*
X93420280Y-87008336D01*
X93412712Y-86995710D01*
X93406418Y-86982403D01*
X93401459Y-86968543D01*
X93397882Y-86954264D01*
X93395722Y-86939703D01*
X93395000Y-86925000D01*
X93395000Y-85175000D01*
X93395722Y-85160297D01*
X93397882Y-85145736D01*
X93401459Y-85131457D01*
X93406418Y-85117597D01*
X93412712Y-85104290D01*
X93420280Y-85091664D01*
X93429048Y-85079841D01*
X93438934Y-85068934D01*
X93449841Y-85059048D01*
X93461664Y-85050280D01*
X93474290Y-85042712D01*
X93487597Y-85036418D01*
X93501457Y-85031459D01*
X93515736Y-85027882D01*
X93530297Y-85025722D01*
X93545000Y-85025000D01*
X93845000Y-85025000D01*
X93859703Y-85025722D01*
X93859703Y-85025722D01*
G37*
D17*
X93695000Y-86050000D03*
D16*
G36*
X95129703Y-85025722D02*
G01*
X95144264Y-85027882D01*
X95158543Y-85031459D01*
X95172403Y-85036418D01*
X95185710Y-85042712D01*
X95198336Y-85050280D01*
X95210159Y-85059048D01*
X95221066Y-85068934D01*
X95230952Y-85079841D01*
X95239720Y-85091664D01*
X95247288Y-85104290D01*
X95253582Y-85117597D01*
X95258541Y-85131457D01*
X95262118Y-85145736D01*
X95264278Y-85160297D01*
X95265000Y-85175000D01*
X95265000Y-86925000D01*
X95264278Y-86939703D01*
X95262118Y-86954264D01*
X95258541Y-86968543D01*
X95253582Y-86982403D01*
X95247288Y-86995710D01*
X95239720Y-87008336D01*
X95230952Y-87020159D01*
X95221066Y-87031066D01*
X95210159Y-87040952D01*
X95198336Y-87049720D01*
X95185710Y-87057288D01*
X95172403Y-87063582D01*
X95158543Y-87068541D01*
X95144264Y-87072118D01*
X95129703Y-87074278D01*
X95115000Y-87075000D01*
X94815000Y-87075000D01*
X94800297Y-87074278D01*
X94785736Y-87072118D01*
X94771457Y-87068541D01*
X94757597Y-87063582D01*
X94744290Y-87057288D01*
X94731664Y-87049720D01*
X94719841Y-87040952D01*
X94708934Y-87031066D01*
X94699048Y-87020159D01*
X94690280Y-87008336D01*
X94682712Y-86995710D01*
X94676418Y-86982403D01*
X94671459Y-86968543D01*
X94667882Y-86954264D01*
X94665722Y-86939703D01*
X94665000Y-86925000D01*
X94665000Y-85175000D01*
X94665722Y-85160297D01*
X94667882Y-85145736D01*
X94671459Y-85131457D01*
X94676418Y-85117597D01*
X94682712Y-85104290D01*
X94690280Y-85091664D01*
X94699048Y-85079841D01*
X94708934Y-85068934D01*
X94719841Y-85059048D01*
X94731664Y-85050280D01*
X94744290Y-85042712D01*
X94757597Y-85036418D01*
X94771457Y-85031459D01*
X94785736Y-85027882D01*
X94800297Y-85025722D01*
X94815000Y-85025000D01*
X95115000Y-85025000D01*
X95129703Y-85025722D01*
X95129703Y-85025722D01*
G37*
D17*
X94965000Y-86050000D03*
D16*
G36*
X96399703Y-85025722D02*
G01*
X96414264Y-85027882D01*
X96428543Y-85031459D01*
X96442403Y-85036418D01*
X96455710Y-85042712D01*
X96468336Y-85050280D01*
X96480159Y-85059048D01*
X96491066Y-85068934D01*
X96500952Y-85079841D01*
X96509720Y-85091664D01*
X96517288Y-85104290D01*
X96523582Y-85117597D01*
X96528541Y-85131457D01*
X96532118Y-85145736D01*
X96534278Y-85160297D01*
X96535000Y-85175000D01*
X96535000Y-86925000D01*
X96534278Y-86939703D01*
X96532118Y-86954264D01*
X96528541Y-86968543D01*
X96523582Y-86982403D01*
X96517288Y-86995710D01*
X96509720Y-87008336D01*
X96500952Y-87020159D01*
X96491066Y-87031066D01*
X96480159Y-87040952D01*
X96468336Y-87049720D01*
X96455710Y-87057288D01*
X96442403Y-87063582D01*
X96428543Y-87068541D01*
X96414264Y-87072118D01*
X96399703Y-87074278D01*
X96385000Y-87075000D01*
X96085000Y-87075000D01*
X96070297Y-87074278D01*
X96055736Y-87072118D01*
X96041457Y-87068541D01*
X96027597Y-87063582D01*
X96014290Y-87057288D01*
X96001664Y-87049720D01*
X95989841Y-87040952D01*
X95978934Y-87031066D01*
X95969048Y-87020159D01*
X95960280Y-87008336D01*
X95952712Y-86995710D01*
X95946418Y-86982403D01*
X95941459Y-86968543D01*
X95937882Y-86954264D01*
X95935722Y-86939703D01*
X95935000Y-86925000D01*
X95935000Y-85175000D01*
X95935722Y-85160297D01*
X95937882Y-85145736D01*
X95941459Y-85131457D01*
X95946418Y-85117597D01*
X95952712Y-85104290D01*
X95960280Y-85091664D01*
X95969048Y-85079841D01*
X95978934Y-85068934D01*
X95989841Y-85059048D01*
X96001664Y-85050280D01*
X96014290Y-85042712D01*
X96027597Y-85036418D01*
X96041457Y-85031459D01*
X96055736Y-85027882D01*
X96070297Y-85025722D01*
X96085000Y-85025000D01*
X96385000Y-85025000D01*
X96399703Y-85025722D01*
X96399703Y-85025722D01*
G37*
D17*
X96235000Y-86050000D03*
D16*
G36*
X97669703Y-85025722D02*
G01*
X97684264Y-85027882D01*
X97698543Y-85031459D01*
X97712403Y-85036418D01*
X97725710Y-85042712D01*
X97738336Y-85050280D01*
X97750159Y-85059048D01*
X97761066Y-85068934D01*
X97770952Y-85079841D01*
X97779720Y-85091664D01*
X97787288Y-85104290D01*
X97793582Y-85117597D01*
X97798541Y-85131457D01*
X97802118Y-85145736D01*
X97804278Y-85160297D01*
X97805000Y-85175000D01*
X97805000Y-86925000D01*
X97804278Y-86939703D01*
X97802118Y-86954264D01*
X97798541Y-86968543D01*
X97793582Y-86982403D01*
X97787288Y-86995710D01*
X97779720Y-87008336D01*
X97770952Y-87020159D01*
X97761066Y-87031066D01*
X97750159Y-87040952D01*
X97738336Y-87049720D01*
X97725710Y-87057288D01*
X97712403Y-87063582D01*
X97698543Y-87068541D01*
X97684264Y-87072118D01*
X97669703Y-87074278D01*
X97655000Y-87075000D01*
X97355000Y-87075000D01*
X97340297Y-87074278D01*
X97325736Y-87072118D01*
X97311457Y-87068541D01*
X97297597Y-87063582D01*
X97284290Y-87057288D01*
X97271664Y-87049720D01*
X97259841Y-87040952D01*
X97248934Y-87031066D01*
X97239048Y-87020159D01*
X97230280Y-87008336D01*
X97222712Y-86995710D01*
X97216418Y-86982403D01*
X97211459Y-86968543D01*
X97207882Y-86954264D01*
X97205722Y-86939703D01*
X97205000Y-86925000D01*
X97205000Y-85175000D01*
X97205722Y-85160297D01*
X97207882Y-85145736D01*
X97211459Y-85131457D01*
X97216418Y-85117597D01*
X97222712Y-85104290D01*
X97230280Y-85091664D01*
X97239048Y-85079841D01*
X97248934Y-85068934D01*
X97259841Y-85059048D01*
X97271664Y-85050280D01*
X97284290Y-85042712D01*
X97297597Y-85036418D01*
X97311457Y-85031459D01*
X97325736Y-85027882D01*
X97340297Y-85025722D01*
X97355000Y-85025000D01*
X97655000Y-85025000D01*
X97669703Y-85025722D01*
X97669703Y-85025722D01*
G37*
D17*
X97505000Y-86050000D03*
D16*
G36*
X98939703Y-85025722D02*
G01*
X98954264Y-85027882D01*
X98968543Y-85031459D01*
X98982403Y-85036418D01*
X98995710Y-85042712D01*
X99008336Y-85050280D01*
X99020159Y-85059048D01*
X99031066Y-85068934D01*
X99040952Y-85079841D01*
X99049720Y-85091664D01*
X99057288Y-85104290D01*
X99063582Y-85117597D01*
X99068541Y-85131457D01*
X99072118Y-85145736D01*
X99074278Y-85160297D01*
X99075000Y-85175000D01*
X99075000Y-86925000D01*
X99074278Y-86939703D01*
X99072118Y-86954264D01*
X99068541Y-86968543D01*
X99063582Y-86982403D01*
X99057288Y-86995710D01*
X99049720Y-87008336D01*
X99040952Y-87020159D01*
X99031066Y-87031066D01*
X99020159Y-87040952D01*
X99008336Y-87049720D01*
X98995710Y-87057288D01*
X98982403Y-87063582D01*
X98968543Y-87068541D01*
X98954264Y-87072118D01*
X98939703Y-87074278D01*
X98925000Y-87075000D01*
X98625000Y-87075000D01*
X98610297Y-87074278D01*
X98595736Y-87072118D01*
X98581457Y-87068541D01*
X98567597Y-87063582D01*
X98554290Y-87057288D01*
X98541664Y-87049720D01*
X98529841Y-87040952D01*
X98518934Y-87031066D01*
X98509048Y-87020159D01*
X98500280Y-87008336D01*
X98492712Y-86995710D01*
X98486418Y-86982403D01*
X98481459Y-86968543D01*
X98477882Y-86954264D01*
X98475722Y-86939703D01*
X98475000Y-86925000D01*
X98475000Y-85175000D01*
X98475722Y-85160297D01*
X98477882Y-85145736D01*
X98481459Y-85131457D01*
X98486418Y-85117597D01*
X98492712Y-85104290D01*
X98500280Y-85091664D01*
X98509048Y-85079841D01*
X98518934Y-85068934D01*
X98529841Y-85059048D01*
X98541664Y-85050280D01*
X98554290Y-85042712D01*
X98567597Y-85036418D01*
X98581457Y-85031459D01*
X98595736Y-85027882D01*
X98610297Y-85025722D01*
X98625000Y-85025000D01*
X98925000Y-85025000D01*
X98939703Y-85025722D01*
X98939703Y-85025722D01*
G37*
D17*
X98775000Y-86050000D03*
D16*
G36*
X100209703Y-85025722D02*
G01*
X100224264Y-85027882D01*
X100238543Y-85031459D01*
X100252403Y-85036418D01*
X100265710Y-85042712D01*
X100278336Y-85050280D01*
X100290159Y-85059048D01*
X100301066Y-85068934D01*
X100310952Y-85079841D01*
X100319720Y-85091664D01*
X100327288Y-85104290D01*
X100333582Y-85117597D01*
X100338541Y-85131457D01*
X100342118Y-85145736D01*
X100344278Y-85160297D01*
X100345000Y-85175000D01*
X100345000Y-86925000D01*
X100344278Y-86939703D01*
X100342118Y-86954264D01*
X100338541Y-86968543D01*
X100333582Y-86982403D01*
X100327288Y-86995710D01*
X100319720Y-87008336D01*
X100310952Y-87020159D01*
X100301066Y-87031066D01*
X100290159Y-87040952D01*
X100278336Y-87049720D01*
X100265710Y-87057288D01*
X100252403Y-87063582D01*
X100238543Y-87068541D01*
X100224264Y-87072118D01*
X100209703Y-87074278D01*
X100195000Y-87075000D01*
X99895000Y-87075000D01*
X99880297Y-87074278D01*
X99865736Y-87072118D01*
X99851457Y-87068541D01*
X99837597Y-87063582D01*
X99824290Y-87057288D01*
X99811664Y-87049720D01*
X99799841Y-87040952D01*
X99788934Y-87031066D01*
X99779048Y-87020159D01*
X99770280Y-87008336D01*
X99762712Y-86995710D01*
X99756418Y-86982403D01*
X99751459Y-86968543D01*
X99747882Y-86954264D01*
X99745722Y-86939703D01*
X99745000Y-86925000D01*
X99745000Y-85175000D01*
X99745722Y-85160297D01*
X99747882Y-85145736D01*
X99751459Y-85131457D01*
X99756418Y-85117597D01*
X99762712Y-85104290D01*
X99770280Y-85091664D01*
X99779048Y-85079841D01*
X99788934Y-85068934D01*
X99799841Y-85059048D01*
X99811664Y-85050280D01*
X99824290Y-85042712D01*
X99837597Y-85036418D01*
X99851457Y-85031459D01*
X99865736Y-85027882D01*
X99880297Y-85025722D01*
X99895000Y-85025000D01*
X100195000Y-85025000D01*
X100209703Y-85025722D01*
X100209703Y-85025722D01*
G37*
D17*
X100045000Y-86050000D03*
D16*
G36*
X101479703Y-85025722D02*
G01*
X101494264Y-85027882D01*
X101508543Y-85031459D01*
X101522403Y-85036418D01*
X101535710Y-85042712D01*
X101548336Y-85050280D01*
X101560159Y-85059048D01*
X101571066Y-85068934D01*
X101580952Y-85079841D01*
X101589720Y-85091664D01*
X101597288Y-85104290D01*
X101603582Y-85117597D01*
X101608541Y-85131457D01*
X101612118Y-85145736D01*
X101614278Y-85160297D01*
X101615000Y-85175000D01*
X101615000Y-86925000D01*
X101614278Y-86939703D01*
X101612118Y-86954264D01*
X101608541Y-86968543D01*
X101603582Y-86982403D01*
X101597288Y-86995710D01*
X101589720Y-87008336D01*
X101580952Y-87020159D01*
X101571066Y-87031066D01*
X101560159Y-87040952D01*
X101548336Y-87049720D01*
X101535710Y-87057288D01*
X101522403Y-87063582D01*
X101508543Y-87068541D01*
X101494264Y-87072118D01*
X101479703Y-87074278D01*
X101465000Y-87075000D01*
X101165000Y-87075000D01*
X101150297Y-87074278D01*
X101135736Y-87072118D01*
X101121457Y-87068541D01*
X101107597Y-87063582D01*
X101094290Y-87057288D01*
X101081664Y-87049720D01*
X101069841Y-87040952D01*
X101058934Y-87031066D01*
X101049048Y-87020159D01*
X101040280Y-87008336D01*
X101032712Y-86995710D01*
X101026418Y-86982403D01*
X101021459Y-86968543D01*
X101017882Y-86954264D01*
X101015722Y-86939703D01*
X101015000Y-86925000D01*
X101015000Y-85175000D01*
X101015722Y-85160297D01*
X101017882Y-85145736D01*
X101021459Y-85131457D01*
X101026418Y-85117597D01*
X101032712Y-85104290D01*
X101040280Y-85091664D01*
X101049048Y-85079841D01*
X101058934Y-85068934D01*
X101069841Y-85059048D01*
X101081664Y-85050280D01*
X101094290Y-85042712D01*
X101107597Y-85036418D01*
X101121457Y-85031459D01*
X101135736Y-85027882D01*
X101150297Y-85025722D01*
X101165000Y-85025000D01*
X101465000Y-85025000D01*
X101479703Y-85025722D01*
X101479703Y-85025722D01*
G37*
D17*
X101315000Y-86050000D03*
D16*
G36*
X102749703Y-85025722D02*
G01*
X102764264Y-85027882D01*
X102778543Y-85031459D01*
X102792403Y-85036418D01*
X102805710Y-85042712D01*
X102818336Y-85050280D01*
X102830159Y-85059048D01*
X102841066Y-85068934D01*
X102850952Y-85079841D01*
X102859720Y-85091664D01*
X102867288Y-85104290D01*
X102873582Y-85117597D01*
X102878541Y-85131457D01*
X102882118Y-85145736D01*
X102884278Y-85160297D01*
X102885000Y-85175000D01*
X102885000Y-86925000D01*
X102884278Y-86939703D01*
X102882118Y-86954264D01*
X102878541Y-86968543D01*
X102873582Y-86982403D01*
X102867288Y-86995710D01*
X102859720Y-87008336D01*
X102850952Y-87020159D01*
X102841066Y-87031066D01*
X102830159Y-87040952D01*
X102818336Y-87049720D01*
X102805710Y-87057288D01*
X102792403Y-87063582D01*
X102778543Y-87068541D01*
X102764264Y-87072118D01*
X102749703Y-87074278D01*
X102735000Y-87075000D01*
X102435000Y-87075000D01*
X102420297Y-87074278D01*
X102405736Y-87072118D01*
X102391457Y-87068541D01*
X102377597Y-87063582D01*
X102364290Y-87057288D01*
X102351664Y-87049720D01*
X102339841Y-87040952D01*
X102328934Y-87031066D01*
X102319048Y-87020159D01*
X102310280Y-87008336D01*
X102302712Y-86995710D01*
X102296418Y-86982403D01*
X102291459Y-86968543D01*
X102287882Y-86954264D01*
X102285722Y-86939703D01*
X102285000Y-86925000D01*
X102285000Y-85175000D01*
X102285722Y-85160297D01*
X102287882Y-85145736D01*
X102291459Y-85131457D01*
X102296418Y-85117597D01*
X102302712Y-85104290D01*
X102310280Y-85091664D01*
X102319048Y-85079841D01*
X102328934Y-85068934D01*
X102339841Y-85059048D01*
X102351664Y-85050280D01*
X102364290Y-85042712D01*
X102377597Y-85036418D01*
X102391457Y-85031459D01*
X102405736Y-85027882D01*
X102420297Y-85025722D01*
X102435000Y-85025000D01*
X102735000Y-85025000D01*
X102749703Y-85025722D01*
X102749703Y-85025722D01*
G37*
D17*
X102585000Y-86050000D03*
D16*
G36*
X104019703Y-85025722D02*
G01*
X104034264Y-85027882D01*
X104048543Y-85031459D01*
X104062403Y-85036418D01*
X104075710Y-85042712D01*
X104088336Y-85050280D01*
X104100159Y-85059048D01*
X104111066Y-85068934D01*
X104120952Y-85079841D01*
X104129720Y-85091664D01*
X104137288Y-85104290D01*
X104143582Y-85117597D01*
X104148541Y-85131457D01*
X104152118Y-85145736D01*
X104154278Y-85160297D01*
X104155000Y-85175000D01*
X104155000Y-86925000D01*
X104154278Y-86939703D01*
X104152118Y-86954264D01*
X104148541Y-86968543D01*
X104143582Y-86982403D01*
X104137288Y-86995710D01*
X104129720Y-87008336D01*
X104120952Y-87020159D01*
X104111066Y-87031066D01*
X104100159Y-87040952D01*
X104088336Y-87049720D01*
X104075710Y-87057288D01*
X104062403Y-87063582D01*
X104048543Y-87068541D01*
X104034264Y-87072118D01*
X104019703Y-87074278D01*
X104005000Y-87075000D01*
X103705000Y-87075000D01*
X103690297Y-87074278D01*
X103675736Y-87072118D01*
X103661457Y-87068541D01*
X103647597Y-87063582D01*
X103634290Y-87057288D01*
X103621664Y-87049720D01*
X103609841Y-87040952D01*
X103598934Y-87031066D01*
X103589048Y-87020159D01*
X103580280Y-87008336D01*
X103572712Y-86995710D01*
X103566418Y-86982403D01*
X103561459Y-86968543D01*
X103557882Y-86954264D01*
X103555722Y-86939703D01*
X103555000Y-86925000D01*
X103555000Y-85175000D01*
X103555722Y-85160297D01*
X103557882Y-85145736D01*
X103561459Y-85131457D01*
X103566418Y-85117597D01*
X103572712Y-85104290D01*
X103580280Y-85091664D01*
X103589048Y-85079841D01*
X103598934Y-85068934D01*
X103609841Y-85059048D01*
X103621664Y-85050280D01*
X103634290Y-85042712D01*
X103647597Y-85036418D01*
X103661457Y-85031459D01*
X103675736Y-85027882D01*
X103690297Y-85025722D01*
X103705000Y-85025000D01*
X104005000Y-85025000D01*
X104019703Y-85025722D01*
X104019703Y-85025722D01*
G37*
D17*
X103855000Y-86050000D03*
D16*
G36*
X104019703Y-94325722D02*
G01*
X104034264Y-94327882D01*
X104048543Y-94331459D01*
X104062403Y-94336418D01*
X104075710Y-94342712D01*
X104088336Y-94350280D01*
X104100159Y-94359048D01*
X104111066Y-94368934D01*
X104120952Y-94379841D01*
X104129720Y-94391664D01*
X104137288Y-94404290D01*
X104143582Y-94417597D01*
X104148541Y-94431457D01*
X104152118Y-94445736D01*
X104154278Y-94460297D01*
X104155000Y-94475000D01*
X104155000Y-96225000D01*
X104154278Y-96239703D01*
X104152118Y-96254264D01*
X104148541Y-96268543D01*
X104143582Y-96282403D01*
X104137288Y-96295710D01*
X104129720Y-96308336D01*
X104120952Y-96320159D01*
X104111066Y-96331066D01*
X104100159Y-96340952D01*
X104088336Y-96349720D01*
X104075710Y-96357288D01*
X104062403Y-96363582D01*
X104048543Y-96368541D01*
X104034264Y-96372118D01*
X104019703Y-96374278D01*
X104005000Y-96375000D01*
X103705000Y-96375000D01*
X103690297Y-96374278D01*
X103675736Y-96372118D01*
X103661457Y-96368541D01*
X103647597Y-96363582D01*
X103634290Y-96357288D01*
X103621664Y-96349720D01*
X103609841Y-96340952D01*
X103598934Y-96331066D01*
X103589048Y-96320159D01*
X103580280Y-96308336D01*
X103572712Y-96295710D01*
X103566418Y-96282403D01*
X103561459Y-96268543D01*
X103557882Y-96254264D01*
X103555722Y-96239703D01*
X103555000Y-96225000D01*
X103555000Y-94475000D01*
X103555722Y-94460297D01*
X103557882Y-94445736D01*
X103561459Y-94431457D01*
X103566418Y-94417597D01*
X103572712Y-94404290D01*
X103580280Y-94391664D01*
X103589048Y-94379841D01*
X103598934Y-94368934D01*
X103609841Y-94359048D01*
X103621664Y-94350280D01*
X103634290Y-94342712D01*
X103647597Y-94336418D01*
X103661457Y-94331459D01*
X103675736Y-94327882D01*
X103690297Y-94325722D01*
X103705000Y-94325000D01*
X104005000Y-94325000D01*
X104019703Y-94325722D01*
X104019703Y-94325722D01*
G37*
D17*
X103855000Y-95350000D03*
D16*
G36*
X102749703Y-94325722D02*
G01*
X102764264Y-94327882D01*
X102778543Y-94331459D01*
X102792403Y-94336418D01*
X102805710Y-94342712D01*
X102818336Y-94350280D01*
X102830159Y-94359048D01*
X102841066Y-94368934D01*
X102850952Y-94379841D01*
X102859720Y-94391664D01*
X102867288Y-94404290D01*
X102873582Y-94417597D01*
X102878541Y-94431457D01*
X102882118Y-94445736D01*
X102884278Y-94460297D01*
X102885000Y-94475000D01*
X102885000Y-96225000D01*
X102884278Y-96239703D01*
X102882118Y-96254264D01*
X102878541Y-96268543D01*
X102873582Y-96282403D01*
X102867288Y-96295710D01*
X102859720Y-96308336D01*
X102850952Y-96320159D01*
X102841066Y-96331066D01*
X102830159Y-96340952D01*
X102818336Y-96349720D01*
X102805710Y-96357288D01*
X102792403Y-96363582D01*
X102778543Y-96368541D01*
X102764264Y-96372118D01*
X102749703Y-96374278D01*
X102735000Y-96375000D01*
X102435000Y-96375000D01*
X102420297Y-96374278D01*
X102405736Y-96372118D01*
X102391457Y-96368541D01*
X102377597Y-96363582D01*
X102364290Y-96357288D01*
X102351664Y-96349720D01*
X102339841Y-96340952D01*
X102328934Y-96331066D01*
X102319048Y-96320159D01*
X102310280Y-96308336D01*
X102302712Y-96295710D01*
X102296418Y-96282403D01*
X102291459Y-96268543D01*
X102287882Y-96254264D01*
X102285722Y-96239703D01*
X102285000Y-96225000D01*
X102285000Y-94475000D01*
X102285722Y-94460297D01*
X102287882Y-94445736D01*
X102291459Y-94431457D01*
X102296418Y-94417597D01*
X102302712Y-94404290D01*
X102310280Y-94391664D01*
X102319048Y-94379841D01*
X102328934Y-94368934D01*
X102339841Y-94359048D01*
X102351664Y-94350280D01*
X102364290Y-94342712D01*
X102377597Y-94336418D01*
X102391457Y-94331459D01*
X102405736Y-94327882D01*
X102420297Y-94325722D01*
X102435000Y-94325000D01*
X102735000Y-94325000D01*
X102749703Y-94325722D01*
X102749703Y-94325722D01*
G37*
D17*
X102585000Y-95350000D03*
D16*
G36*
X101479703Y-94325722D02*
G01*
X101494264Y-94327882D01*
X101508543Y-94331459D01*
X101522403Y-94336418D01*
X101535710Y-94342712D01*
X101548336Y-94350280D01*
X101560159Y-94359048D01*
X101571066Y-94368934D01*
X101580952Y-94379841D01*
X101589720Y-94391664D01*
X101597288Y-94404290D01*
X101603582Y-94417597D01*
X101608541Y-94431457D01*
X101612118Y-94445736D01*
X101614278Y-94460297D01*
X101615000Y-94475000D01*
X101615000Y-96225000D01*
X101614278Y-96239703D01*
X101612118Y-96254264D01*
X101608541Y-96268543D01*
X101603582Y-96282403D01*
X101597288Y-96295710D01*
X101589720Y-96308336D01*
X101580952Y-96320159D01*
X101571066Y-96331066D01*
X101560159Y-96340952D01*
X101548336Y-96349720D01*
X101535710Y-96357288D01*
X101522403Y-96363582D01*
X101508543Y-96368541D01*
X101494264Y-96372118D01*
X101479703Y-96374278D01*
X101465000Y-96375000D01*
X101165000Y-96375000D01*
X101150297Y-96374278D01*
X101135736Y-96372118D01*
X101121457Y-96368541D01*
X101107597Y-96363582D01*
X101094290Y-96357288D01*
X101081664Y-96349720D01*
X101069841Y-96340952D01*
X101058934Y-96331066D01*
X101049048Y-96320159D01*
X101040280Y-96308336D01*
X101032712Y-96295710D01*
X101026418Y-96282403D01*
X101021459Y-96268543D01*
X101017882Y-96254264D01*
X101015722Y-96239703D01*
X101015000Y-96225000D01*
X101015000Y-94475000D01*
X101015722Y-94460297D01*
X101017882Y-94445736D01*
X101021459Y-94431457D01*
X101026418Y-94417597D01*
X101032712Y-94404290D01*
X101040280Y-94391664D01*
X101049048Y-94379841D01*
X101058934Y-94368934D01*
X101069841Y-94359048D01*
X101081664Y-94350280D01*
X101094290Y-94342712D01*
X101107597Y-94336418D01*
X101121457Y-94331459D01*
X101135736Y-94327882D01*
X101150297Y-94325722D01*
X101165000Y-94325000D01*
X101465000Y-94325000D01*
X101479703Y-94325722D01*
X101479703Y-94325722D01*
G37*
D17*
X101315000Y-95350000D03*
D16*
G36*
X100209703Y-94325722D02*
G01*
X100224264Y-94327882D01*
X100238543Y-94331459D01*
X100252403Y-94336418D01*
X100265710Y-94342712D01*
X100278336Y-94350280D01*
X100290159Y-94359048D01*
X100301066Y-94368934D01*
X100310952Y-94379841D01*
X100319720Y-94391664D01*
X100327288Y-94404290D01*
X100333582Y-94417597D01*
X100338541Y-94431457D01*
X100342118Y-94445736D01*
X100344278Y-94460297D01*
X100345000Y-94475000D01*
X100345000Y-96225000D01*
X100344278Y-96239703D01*
X100342118Y-96254264D01*
X100338541Y-96268543D01*
X100333582Y-96282403D01*
X100327288Y-96295710D01*
X100319720Y-96308336D01*
X100310952Y-96320159D01*
X100301066Y-96331066D01*
X100290159Y-96340952D01*
X100278336Y-96349720D01*
X100265710Y-96357288D01*
X100252403Y-96363582D01*
X100238543Y-96368541D01*
X100224264Y-96372118D01*
X100209703Y-96374278D01*
X100195000Y-96375000D01*
X99895000Y-96375000D01*
X99880297Y-96374278D01*
X99865736Y-96372118D01*
X99851457Y-96368541D01*
X99837597Y-96363582D01*
X99824290Y-96357288D01*
X99811664Y-96349720D01*
X99799841Y-96340952D01*
X99788934Y-96331066D01*
X99779048Y-96320159D01*
X99770280Y-96308336D01*
X99762712Y-96295710D01*
X99756418Y-96282403D01*
X99751459Y-96268543D01*
X99747882Y-96254264D01*
X99745722Y-96239703D01*
X99745000Y-96225000D01*
X99745000Y-94475000D01*
X99745722Y-94460297D01*
X99747882Y-94445736D01*
X99751459Y-94431457D01*
X99756418Y-94417597D01*
X99762712Y-94404290D01*
X99770280Y-94391664D01*
X99779048Y-94379841D01*
X99788934Y-94368934D01*
X99799841Y-94359048D01*
X99811664Y-94350280D01*
X99824290Y-94342712D01*
X99837597Y-94336418D01*
X99851457Y-94331459D01*
X99865736Y-94327882D01*
X99880297Y-94325722D01*
X99895000Y-94325000D01*
X100195000Y-94325000D01*
X100209703Y-94325722D01*
X100209703Y-94325722D01*
G37*
D17*
X100045000Y-95350000D03*
D16*
G36*
X98939703Y-94325722D02*
G01*
X98954264Y-94327882D01*
X98968543Y-94331459D01*
X98982403Y-94336418D01*
X98995710Y-94342712D01*
X99008336Y-94350280D01*
X99020159Y-94359048D01*
X99031066Y-94368934D01*
X99040952Y-94379841D01*
X99049720Y-94391664D01*
X99057288Y-94404290D01*
X99063582Y-94417597D01*
X99068541Y-94431457D01*
X99072118Y-94445736D01*
X99074278Y-94460297D01*
X99075000Y-94475000D01*
X99075000Y-96225000D01*
X99074278Y-96239703D01*
X99072118Y-96254264D01*
X99068541Y-96268543D01*
X99063582Y-96282403D01*
X99057288Y-96295710D01*
X99049720Y-96308336D01*
X99040952Y-96320159D01*
X99031066Y-96331066D01*
X99020159Y-96340952D01*
X99008336Y-96349720D01*
X98995710Y-96357288D01*
X98982403Y-96363582D01*
X98968543Y-96368541D01*
X98954264Y-96372118D01*
X98939703Y-96374278D01*
X98925000Y-96375000D01*
X98625000Y-96375000D01*
X98610297Y-96374278D01*
X98595736Y-96372118D01*
X98581457Y-96368541D01*
X98567597Y-96363582D01*
X98554290Y-96357288D01*
X98541664Y-96349720D01*
X98529841Y-96340952D01*
X98518934Y-96331066D01*
X98509048Y-96320159D01*
X98500280Y-96308336D01*
X98492712Y-96295710D01*
X98486418Y-96282403D01*
X98481459Y-96268543D01*
X98477882Y-96254264D01*
X98475722Y-96239703D01*
X98475000Y-96225000D01*
X98475000Y-94475000D01*
X98475722Y-94460297D01*
X98477882Y-94445736D01*
X98481459Y-94431457D01*
X98486418Y-94417597D01*
X98492712Y-94404290D01*
X98500280Y-94391664D01*
X98509048Y-94379841D01*
X98518934Y-94368934D01*
X98529841Y-94359048D01*
X98541664Y-94350280D01*
X98554290Y-94342712D01*
X98567597Y-94336418D01*
X98581457Y-94331459D01*
X98595736Y-94327882D01*
X98610297Y-94325722D01*
X98625000Y-94325000D01*
X98925000Y-94325000D01*
X98939703Y-94325722D01*
X98939703Y-94325722D01*
G37*
D17*
X98775000Y-95350000D03*
D16*
G36*
X97669703Y-94325722D02*
G01*
X97684264Y-94327882D01*
X97698543Y-94331459D01*
X97712403Y-94336418D01*
X97725710Y-94342712D01*
X97738336Y-94350280D01*
X97750159Y-94359048D01*
X97761066Y-94368934D01*
X97770952Y-94379841D01*
X97779720Y-94391664D01*
X97787288Y-94404290D01*
X97793582Y-94417597D01*
X97798541Y-94431457D01*
X97802118Y-94445736D01*
X97804278Y-94460297D01*
X97805000Y-94475000D01*
X97805000Y-96225000D01*
X97804278Y-96239703D01*
X97802118Y-96254264D01*
X97798541Y-96268543D01*
X97793582Y-96282403D01*
X97787288Y-96295710D01*
X97779720Y-96308336D01*
X97770952Y-96320159D01*
X97761066Y-96331066D01*
X97750159Y-96340952D01*
X97738336Y-96349720D01*
X97725710Y-96357288D01*
X97712403Y-96363582D01*
X97698543Y-96368541D01*
X97684264Y-96372118D01*
X97669703Y-96374278D01*
X97655000Y-96375000D01*
X97355000Y-96375000D01*
X97340297Y-96374278D01*
X97325736Y-96372118D01*
X97311457Y-96368541D01*
X97297597Y-96363582D01*
X97284290Y-96357288D01*
X97271664Y-96349720D01*
X97259841Y-96340952D01*
X97248934Y-96331066D01*
X97239048Y-96320159D01*
X97230280Y-96308336D01*
X97222712Y-96295710D01*
X97216418Y-96282403D01*
X97211459Y-96268543D01*
X97207882Y-96254264D01*
X97205722Y-96239703D01*
X97205000Y-96225000D01*
X97205000Y-94475000D01*
X97205722Y-94460297D01*
X97207882Y-94445736D01*
X97211459Y-94431457D01*
X97216418Y-94417597D01*
X97222712Y-94404290D01*
X97230280Y-94391664D01*
X97239048Y-94379841D01*
X97248934Y-94368934D01*
X97259841Y-94359048D01*
X97271664Y-94350280D01*
X97284290Y-94342712D01*
X97297597Y-94336418D01*
X97311457Y-94331459D01*
X97325736Y-94327882D01*
X97340297Y-94325722D01*
X97355000Y-94325000D01*
X97655000Y-94325000D01*
X97669703Y-94325722D01*
X97669703Y-94325722D01*
G37*
D17*
X97505000Y-95350000D03*
D16*
G36*
X96399703Y-94325722D02*
G01*
X96414264Y-94327882D01*
X96428543Y-94331459D01*
X96442403Y-94336418D01*
X96455710Y-94342712D01*
X96468336Y-94350280D01*
X96480159Y-94359048D01*
X96491066Y-94368934D01*
X96500952Y-94379841D01*
X96509720Y-94391664D01*
X96517288Y-94404290D01*
X96523582Y-94417597D01*
X96528541Y-94431457D01*
X96532118Y-94445736D01*
X96534278Y-94460297D01*
X96535000Y-94475000D01*
X96535000Y-96225000D01*
X96534278Y-96239703D01*
X96532118Y-96254264D01*
X96528541Y-96268543D01*
X96523582Y-96282403D01*
X96517288Y-96295710D01*
X96509720Y-96308336D01*
X96500952Y-96320159D01*
X96491066Y-96331066D01*
X96480159Y-96340952D01*
X96468336Y-96349720D01*
X96455710Y-96357288D01*
X96442403Y-96363582D01*
X96428543Y-96368541D01*
X96414264Y-96372118D01*
X96399703Y-96374278D01*
X96385000Y-96375000D01*
X96085000Y-96375000D01*
X96070297Y-96374278D01*
X96055736Y-96372118D01*
X96041457Y-96368541D01*
X96027597Y-96363582D01*
X96014290Y-96357288D01*
X96001664Y-96349720D01*
X95989841Y-96340952D01*
X95978934Y-96331066D01*
X95969048Y-96320159D01*
X95960280Y-96308336D01*
X95952712Y-96295710D01*
X95946418Y-96282403D01*
X95941459Y-96268543D01*
X95937882Y-96254264D01*
X95935722Y-96239703D01*
X95935000Y-96225000D01*
X95935000Y-94475000D01*
X95935722Y-94460297D01*
X95937882Y-94445736D01*
X95941459Y-94431457D01*
X95946418Y-94417597D01*
X95952712Y-94404290D01*
X95960280Y-94391664D01*
X95969048Y-94379841D01*
X95978934Y-94368934D01*
X95989841Y-94359048D01*
X96001664Y-94350280D01*
X96014290Y-94342712D01*
X96027597Y-94336418D01*
X96041457Y-94331459D01*
X96055736Y-94327882D01*
X96070297Y-94325722D01*
X96085000Y-94325000D01*
X96385000Y-94325000D01*
X96399703Y-94325722D01*
X96399703Y-94325722D01*
G37*
D17*
X96235000Y-95350000D03*
D16*
G36*
X95129703Y-94325722D02*
G01*
X95144264Y-94327882D01*
X95158543Y-94331459D01*
X95172403Y-94336418D01*
X95185710Y-94342712D01*
X95198336Y-94350280D01*
X95210159Y-94359048D01*
X95221066Y-94368934D01*
X95230952Y-94379841D01*
X95239720Y-94391664D01*
X95247288Y-94404290D01*
X95253582Y-94417597D01*
X95258541Y-94431457D01*
X95262118Y-94445736D01*
X95264278Y-94460297D01*
X95265000Y-94475000D01*
X95265000Y-96225000D01*
X95264278Y-96239703D01*
X95262118Y-96254264D01*
X95258541Y-96268543D01*
X95253582Y-96282403D01*
X95247288Y-96295710D01*
X95239720Y-96308336D01*
X95230952Y-96320159D01*
X95221066Y-96331066D01*
X95210159Y-96340952D01*
X95198336Y-96349720D01*
X95185710Y-96357288D01*
X95172403Y-96363582D01*
X95158543Y-96368541D01*
X95144264Y-96372118D01*
X95129703Y-96374278D01*
X95115000Y-96375000D01*
X94815000Y-96375000D01*
X94800297Y-96374278D01*
X94785736Y-96372118D01*
X94771457Y-96368541D01*
X94757597Y-96363582D01*
X94744290Y-96357288D01*
X94731664Y-96349720D01*
X94719841Y-96340952D01*
X94708934Y-96331066D01*
X94699048Y-96320159D01*
X94690280Y-96308336D01*
X94682712Y-96295710D01*
X94676418Y-96282403D01*
X94671459Y-96268543D01*
X94667882Y-96254264D01*
X94665722Y-96239703D01*
X94665000Y-96225000D01*
X94665000Y-94475000D01*
X94665722Y-94460297D01*
X94667882Y-94445736D01*
X94671459Y-94431457D01*
X94676418Y-94417597D01*
X94682712Y-94404290D01*
X94690280Y-94391664D01*
X94699048Y-94379841D01*
X94708934Y-94368934D01*
X94719841Y-94359048D01*
X94731664Y-94350280D01*
X94744290Y-94342712D01*
X94757597Y-94336418D01*
X94771457Y-94331459D01*
X94785736Y-94327882D01*
X94800297Y-94325722D01*
X94815000Y-94325000D01*
X95115000Y-94325000D01*
X95129703Y-94325722D01*
X95129703Y-94325722D01*
G37*
D17*
X94965000Y-95350000D03*
D16*
G36*
X93859703Y-94325722D02*
G01*
X93874264Y-94327882D01*
X93888543Y-94331459D01*
X93902403Y-94336418D01*
X93915710Y-94342712D01*
X93928336Y-94350280D01*
X93940159Y-94359048D01*
X93951066Y-94368934D01*
X93960952Y-94379841D01*
X93969720Y-94391664D01*
X93977288Y-94404290D01*
X93983582Y-94417597D01*
X93988541Y-94431457D01*
X93992118Y-94445736D01*
X93994278Y-94460297D01*
X93995000Y-94475000D01*
X93995000Y-96225000D01*
X93994278Y-96239703D01*
X93992118Y-96254264D01*
X93988541Y-96268543D01*
X93983582Y-96282403D01*
X93977288Y-96295710D01*
X93969720Y-96308336D01*
X93960952Y-96320159D01*
X93951066Y-96331066D01*
X93940159Y-96340952D01*
X93928336Y-96349720D01*
X93915710Y-96357288D01*
X93902403Y-96363582D01*
X93888543Y-96368541D01*
X93874264Y-96372118D01*
X93859703Y-96374278D01*
X93845000Y-96375000D01*
X93545000Y-96375000D01*
X93530297Y-96374278D01*
X93515736Y-96372118D01*
X93501457Y-96368541D01*
X93487597Y-96363582D01*
X93474290Y-96357288D01*
X93461664Y-96349720D01*
X93449841Y-96340952D01*
X93438934Y-96331066D01*
X93429048Y-96320159D01*
X93420280Y-96308336D01*
X93412712Y-96295710D01*
X93406418Y-96282403D01*
X93401459Y-96268543D01*
X93397882Y-96254264D01*
X93395722Y-96239703D01*
X93395000Y-96225000D01*
X93395000Y-94475000D01*
X93395722Y-94460297D01*
X93397882Y-94445736D01*
X93401459Y-94431457D01*
X93406418Y-94417597D01*
X93412712Y-94404290D01*
X93420280Y-94391664D01*
X93429048Y-94379841D01*
X93438934Y-94368934D01*
X93449841Y-94359048D01*
X93461664Y-94350280D01*
X93474290Y-94342712D01*
X93487597Y-94336418D01*
X93501457Y-94331459D01*
X93515736Y-94327882D01*
X93530297Y-94325722D01*
X93545000Y-94325000D01*
X93845000Y-94325000D01*
X93859703Y-94325722D01*
X93859703Y-94325722D01*
G37*
D17*
X93695000Y-95350000D03*
D16*
G36*
X92589703Y-94325722D02*
G01*
X92604264Y-94327882D01*
X92618543Y-94331459D01*
X92632403Y-94336418D01*
X92645710Y-94342712D01*
X92658336Y-94350280D01*
X92670159Y-94359048D01*
X92681066Y-94368934D01*
X92690952Y-94379841D01*
X92699720Y-94391664D01*
X92707288Y-94404290D01*
X92713582Y-94417597D01*
X92718541Y-94431457D01*
X92722118Y-94445736D01*
X92724278Y-94460297D01*
X92725000Y-94475000D01*
X92725000Y-96225000D01*
X92724278Y-96239703D01*
X92722118Y-96254264D01*
X92718541Y-96268543D01*
X92713582Y-96282403D01*
X92707288Y-96295710D01*
X92699720Y-96308336D01*
X92690952Y-96320159D01*
X92681066Y-96331066D01*
X92670159Y-96340952D01*
X92658336Y-96349720D01*
X92645710Y-96357288D01*
X92632403Y-96363582D01*
X92618543Y-96368541D01*
X92604264Y-96372118D01*
X92589703Y-96374278D01*
X92575000Y-96375000D01*
X92275000Y-96375000D01*
X92260297Y-96374278D01*
X92245736Y-96372118D01*
X92231457Y-96368541D01*
X92217597Y-96363582D01*
X92204290Y-96357288D01*
X92191664Y-96349720D01*
X92179841Y-96340952D01*
X92168934Y-96331066D01*
X92159048Y-96320159D01*
X92150280Y-96308336D01*
X92142712Y-96295710D01*
X92136418Y-96282403D01*
X92131459Y-96268543D01*
X92127882Y-96254264D01*
X92125722Y-96239703D01*
X92125000Y-96225000D01*
X92125000Y-94475000D01*
X92125722Y-94460297D01*
X92127882Y-94445736D01*
X92131459Y-94431457D01*
X92136418Y-94417597D01*
X92142712Y-94404290D01*
X92150280Y-94391664D01*
X92159048Y-94379841D01*
X92168934Y-94368934D01*
X92179841Y-94359048D01*
X92191664Y-94350280D01*
X92204290Y-94342712D01*
X92217597Y-94336418D01*
X92231457Y-94331459D01*
X92245736Y-94327882D01*
X92260297Y-94325722D01*
X92275000Y-94325000D01*
X92575000Y-94325000D01*
X92589703Y-94325722D01*
X92589703Y-94325722D01*
G37*
D17*
X92425000Y-95350000D03*
D16*
G36*
X91319703Y-94325722D02*
G01*
X91334264Y-94327882D01*
X91348543Y-94331459D01*
X91362403Y-94336418D01*
X91375710Y-94342712D01*
X91388336Y-94350280D01*
X91400159Y-94359048D01*
X91411066Y-94368934D01*
X91420952Y-94379841D01*
X91429720Y-94391664D01*
X91437288Y-94404290D01*
X91443582Y-94417597D01*
X91448541Y-94431457D01*
X91452118Y-94445736D01*
X91454278Y-94460297D01*
X91455000Y-94475000D01*
X91455000Y-96225000D01*
X91454278Y-96239703D01*
X91452118Y-96254264D01*
X91448541Y-96268543D01*
X91443582Y-96282403D01*
X91437288Y-96295710D01*
X91429720Y-96308336D01*
X91420952Y-96320159D01*
X91411066Y-96331066D01*
X91400159Y-96340952D01*
X91388336Y-96349720D01*
X91375710Y-96357288D01*
X91362403Y-96363582D01*
X91348543Y-96368541D01*
X91334264Y-96372118D01*
X91319703Y-96374278D01*
X91305000Y-96375000D01*
X91005000Y-96375000D01*
X90990297Y-96374278D01*
X90975736Y-96372118D01*
X90961457Y-96368541D01*
X90947597Y-96363582D01*
X90934290Y-96357288D01*
X90921664Y-96349720D01*
X90909841Y-96340952D01*
X90898934Y-96331066D01*
X90889048Y-96320159D01*
X90880280Y-96308336D01*
X90872712Y-96295710D01*
X90866418Y-96282403D01*
X90861459Y-96268543D01*
X90857882Y-96254264D01*
X90855722Y-96239703D01*
X90855000Y-96225000D01*
X90855000Y-94475000D01*
X90855722Y-94460297D01*
X90857882Y-94445736D01*
X90861459Y-94431457D01*
X90866418Y-94417597D01*
X90872712Y-94404290D01*
X90880280Y-94391664D01*
X90889048Y-94379841D01*
X90898934Y-94368934D01*
X90909841Y-94359048D01*
X90921664Y-94350280D01*
X90934290Y-94342712D01*
X90947597Y-94336418D01*
X90961457Y-94331459D01*
X90975736Y-94327882D01*
X90990297Y-94325722D01*
X91005000Y-94325000D01*
X91305000Y-94325000D01*
X91319703Y-94325722D01*
X91319703Y-94325722D01*
G37*
D17*
X91155000Y-95350000D03*
D16*
G36*
X90049703Y-94325722D02*
G01*
X90064264Y-94327882D01*
X90078543Y-94331459D01*
X90092403Y-94336418D01*
X90105710Y-94342712D01*
X90118336Y-94350280D01*
X90130159Y-94359048D01*
X90141066Y-94368934D01*
X90150952Y-94379841D01*
X90159720Y-94391664D01*
X90167288Y-94404290D01*
X90173582Y-94417597D01*
X90178541Y-94431457D01*
X90182118Y-94445736D01*
X90184278Y-94460297D01*
X90185000Y-94475000D01*
X90185000Y-96225000D01*
X90184278Y-96239703D01*
X90182118Y-96254264D01*
X90178541Y-96268543D01*
X90173582Y-96282403D01*
X90167288Y-96295710D01*
X90159720Y-96308336D01*
X90150952Y-96320159D01*
X90141066Y-96331066D01*
X90130159Y-96340952D01*
X90118336Y-96349720D01*
X90105710Y-96357288D01*
X90092403Y-96363582D01*
X90078543Y-96368541D01*
X90064264Y-96372118D01*
X90049703Y-96374278D01*
X90035000Y-96375000D01*
X89735000Y-96375000D01*
X89720297Y-96374278D01*
X89705736Y-96372118D01*
X89691457Y-96368541D01*
X89677597Y-96363582D01*
X89664290Y-96357288D01*
X89651664Y-96349720D01*
X89639841Y-96340952D01*
X89628934Y-96331066D01*
X89619048Y-96320159D01*
X89610280Y-96308336D01*
X89602712Y-96295710D01*
X89596418Y-96282403D01*
X89591459Y-96268543D01*
X89587882Y-96254264D01*
X89585722Y-96239703D01*
X89585000Y-96225000D01*
X89585000Y-94475000D01*
X89585722Y-94460297D01*
X89587882Y-94445736D01*
X89591459Y-94431457D01*
X89596418Y-94417597D01*
X89602712Y-94404290D01*
X89610280Y-94391664D01*
X89619048Y-94379841D01*
X89628934Y-94368934D01*
X89639841Y-94359048D01*
X89651664Y-94350280D01*
X89664290Y-94342712D01*
X89677597Y-94336418D01*
X89691457Y-94331459D01*
X89705736Y-94327882D01*
X89720297Y-94325722D01*
X89735000Y-94325000D01*
X90035000Y-94325000D01*
X90049703Y-94325722D01*
X90049703Y-94325722D01*
G37*
D17*
X89885000Y-95350000D03*
D16*
G36*
X88779703Y-94325722D02*
G01*
X88794264Y-94327882D01*
X88808543Y-94331459D01*
X88822403Y-94336418D01*
X88835710Y-94342712D01*
X88848336Y-94350280D01*
X88860159Y-94359048D01*
X88871066Y-94368934D01*
X88880952Y-94379841D01*
X88889720Y-94391664D01*
X88897288Y-94404290D01*
X88903582Y-94417597D01*
X88908541Y-94431457D01*
X88912118Y-94445736D01*
X88914278Y-94460297D01*
X88915000Y-94475000D01*
X88915000Y-96225000D01*
X88914278Y-96239703D01*
X88912118Y-96254264D01*
X88908541Y-96268543D01*
X88903582Y-96282403D01*
X88897288Y-96295710D01*
X88889720Y-96308336D01*
X88880952Y-96320159D01*
X88871066Y-96331066D01*
X88860159Y-96340952D01*
X88848336Y-96349720D01*
X88835710Y-96357288D01*
X88822403Y-96363582D01*
X88808543Y-96368541D01*
X88794264Y-96372118D01*
X88779703Y-96374278D01*
X88765000Y-96375000D01*
X88465000Y-96375000D01*
X88450297Y-96374278D01*
X88435736Y-96372118D01*
X88421457Y-96368541D01*
X88407597Y-96363582D01*
X88394290Y-96357288D01*
X88381664Y-96349720D01*
X88369841Y-96340952D01*
X88358934Y-96331066D01*
X88349048Y-96320159D01*
X88340280Y-96308336D01*
X88332712Y-96295710D01*
X88326418Y-96282403D01*
X88321459Y-96268543D01*
X88317882Y-96254264D01*
X88315722Y-96239703D01*
X88315000Y-96225000D01*
X88315000Y-94475000D01*
X88315722Y-94460297D01*
X88317882Y-94445736D01*
X88321459Y-94431457D01*
X88326418Y-94417597D01*
X88332712Y-94404290D01*
X88340280Y-94391664D01*
X88349048Y-94379841D01*
X88358934Y-94368934D01*
X88369841Y-94359048D01*
X88381664Y-94350280D01*
X88394290Y-94342712D01*
X88407597Y-94336418D01*
X88421457Y-94331459D01*
X88435736Y-94327882D01*
X88450297Y-94325722D01*
X88465000Y-94325000D01*
X88765000Y-94325000D01*
X88779703Y-94325722D01*
X88779703Y-94325722D01*
G37*
D17*
X88615000Y-95350000D03*
D16*
G36*
X87509703Y-94325722D02*
G01*
X87524264Y-94327882D01*
X87538543Y-94331459D01*
X87552403Y-94336418D01*
X87565710Y-94342712D01*
X87578336Y-94350280D01*
X87590159Y-94359048D01*
X87601066Y-94368934D01*
X87610952Y-94379841D01*
X87619720Y-94391664D01*
X87627288Y-94404290D01*
X87633582Y-94417597D01*
X87638541Y-94431457D01*
X87642118Y-94445736D01*
X87644278Y-94460297D01*
X87645000Y-94475000D01*
X87645000Y-96225000D01*
X87644278Y-96239703D01*
X87642118Y-96254264D01*
X87638541Y-96268543D01*
X87633582Y-96282403D01*
X87627288Y-96295710D01*
X87619720Y-96308336D01*
X87610952Y-96320159D01*
X87601066Y-96331066D01*
X87590159Y-96340952D01*
X87578336Y-96349720D01*
X87565710Y-96357288D01*
X87552403Y-96363582D01*
X87538543Y-96368541D01*
X87524264Y-96372118D01*
X87509703Y-96374278D01*
X87495000Y-96375000D01*
X87195000Y-96375000D01*
X87180297Y-96374278D01*
X87165736Y-96372118D01*
X87151457Y-96368541D01*
X87137597Y-96363582D01*
X87124290Y-96357288D01*
X87111664Y-96349720D01*
X87099841Y-96340952D01*
X87088934Y-96331066D01*
X87079048Y-96320159D01*
X87070280Y-96308336D01*
X87062712Y-96295710D01*
X87056418Y-96282403D01*
X87051459Y-96268543D01*
X87047882Y-96254264D01*
X87045722Y-96239703D01*
X87045000Y-96225000D01*
X87045000Y-94475000D01*
X87045722Y-94460297D01*
X87047882Y-94445736D01*
X87051459Y-94431457D01*
X87056418Y-94417597D01*
X87062712Y-94404290D01*
X87070280Y-94391664D01*
X87079048Y-94379841D01*
X87088934Y-94368934D01*
X87099841Y-94359048D01*
X87111664Y-94350280D01*
X87124290Y-94342712D01*
X87137597Y-94336418D01*
X87151457Y-94331459D01*
X87165736Y-94327882D01*
X87180297Y-94325722D01*
X87195000Y-94325000D01*
X87495000Y-94325000D01*
X87509703Y-94325722D01*
X87509703Y-94325722D01*
G37*
D17*
X87345000Y-95350000D03*
D18*
X85061000Y-86260300D03*
X100527000Y-88809000D03*
X93894900Y-91703200D03*
X95278300Y-88879800D03*
X94006800Y-89109800D03*
X110663400Y-94402500D03*
X80295800Y-84603000D03*
X92675800Y-88883400D03*
X103052600Y-88673800D03*
X92671100Y-91452100D03*
X90519500Y-89758900D03*
X88344300Y-92101000D03*
X83145600Y-92364500D03*
X79342800Y-89585600D03*
X96027000Y-92762100D03*
X95024600Y-93023700D03*
X90220400Y-97303200D03*
X85672700Y-97172400D03*
X92567700Y-89936700D03*
X101514300Y-83481600D03*
X105596100Y-86338000D03*
X100042100Y-91126300D03*
X102270000Y-98049990D03*
X100782400Y-98045700D03*
X91589400Y-97007000D03*
X95685500Y-96886600D03*
D19*
X77700000Y-89026700D02*
X79050100Y-90376800D01*
X79050100Y-90376800D02*
X80944500Y-90376800D01*
X80944500Y-90376800D02*
X85061000Y-86260300D01*
X75300000Y-97500000D02*
X77150300Y-97500000D01*
X77700000Y-89026700D02*
X77700000Y-88100000D01*
X77150300Y-97500000D02*
X77150300Y-96311300D01*
X77150300Y-96311300D02*
X76513300Y-95674300D01*
X76513300Y-95674300D02*
X76513300Y-94713500D01*
X76513300Y-94713500D02*
X76673600Y-94553200D01*
X76673600Y-94553200D02*
X76673600Y-93313700D01*
X76673600Y-93313700D02*
X76509700Y-93149800D01*
X76509700Y-93149800D02*
X76509700Y-90217000D01*
X76509700Y-90217000D02*
X77700000Y-89026700D01*
X102305000Y-84131100D02*
X102023400Y-84131100D01*
X102023400Y-84131100D02*
X101915100Y-84239400D01*
X101915100Y-84239400D02*
X97565600Y-84239400D01*
X97565600Y-84239400D02*
X96235000Y-85570000D01*
X96235000Y-85570000D02*
X96235000Y-86050000D01*
X77700000Y-88100000D02*
X77150300Y-87550300D01*
X77150300Y-87550300D02*
X77150300Y-85700000D01*
X90480000Y-100200000D02*
X90480000Y-98999700D01*
X90480000Y-98999700D02*
X88615000Y-97134700D01*
X88615000Y-97134700D02*
X88615000Y-95350000D01*
X107000000Y-88000000D02*
X107424700Y-87575300D01*
X107424700Y-87575300D02*
X107424700Y-87105300D01*
X107424700Y-87105300D02*
X109600000Y-84930000D01*
X109600000Y-98070000D02*
X107470000Y-100200000D01*
X107470000Y-100200000D02*
X105440300Y-100200000D01*
X104240000Y-100200000D02*
X105440300Y-100200000D01*
X75300000Y-85700000D02*
X77150300Y-85700000D01*
X101795100Y-82689100D02*
X102305000Y-83199000D01*
X94515000Y-82689100D02*
X101795100Y-82689100D01*
X93704100Y-83500000D02*
X94515000Y-82689100D01*
X87821300Y-83500000D02*
X93704100Y-83500000D01*
X85061000Y-86260300D02*
X87821300Y-83500000D01*
X102305000Y-83199000D02*
X102305000Y-84131100D01*
X105031100Y-84131100D02*
X102305000Y-84131100D01*
X107424700Y-87105300D02*
X107424700Y-86524700D01*
X107424700Y-86524700D02*
X105031100Y-84131100D01*
X104240000Y-98800000D02*
X104240000Y-100200000D01*
X98775000Y-97103000D02*
X100472000Y-98800000D01*
X100472000Y-98800000D02*
X104240000Y-98800000D01*
X98775000Y-95350000D02*
X98775000Y-97103000D01*
X102585000Y-86050000D02*
X102585000Y-86751000D01*
X102585000Y-86751000D02*
X100527000Y-88809000D01*
X93695000Y-93939400D02*
X93695000Y-95350000D01*
X93894900Y-91703200D02*
X93695000Y-91903100D01*
X93695000Y-91903100D02*
X93695000Y-93939400D01*
X87940000Y-98999700D02*
X87345000Y-98404700D01*
X87345000Y-98404700D02*
X87345000Y-95350000D01*
X103855000Y-95350000D02*
X104617400Y-96112400D01*
X104617400Y-96112400D02*
X107464600Y-96112400D01*
X107464600Y-96112400D02*
X108623500Y-94953500D01*
X108623500Y-94953500D02*
X108623500Y-90497800D01*
X108623500Y-90497800D02*
X107460500Y-89334800D01*
X107460500Y-89334800D02*
X105188000Y-89334800D01*
X105188000Y-89334800D02*
X102634600Y-91888200D01*
X102634600Y-91888200D02*
X99667000Y-91888200D01*
X99667000Y-91888200D02*
X99245400Y-91466600D01*
X99245400Y-91466600D02*
X94131500Y-91466600D01*
X94131500Y-91466600D02*
X93894900Y-91703200D01*
X87940000Y-100200000D02*
X87940000Y-98999700D01*
X93455600Y-93700000D02*
X93695000Y-93939400D01*
X88200000Y-93700000D02*
X93455600Y-93700000D01*
X87345000Y-95350000D02*
X87345000Y-94555000D01*
X87345000Y-94555000D02*
X88200000Y-93700000D01*
X95278300Y-88879800D02*
X97505000Y-86653100D01*
X97505000Y-86653100D02*
X97505000Y-86050000D01*
X98775000Y-86050000D02*
X98775000Y-86574700D01*
X98775000Y-86574700D02*
X95713000Y-89636700D01*
X95713000Y-89636700D02*
X94533700Y-89636700D01*
X94533700Y-89636700D02*
X94006800Y-89109800D01*
X110663400Y-94402500D02*
X112001900Y-93064000D01*
X112001900Y-93064000D02*
X112001900Y-83924500D01*
X112001900Y-83924500D02*
X109765800Y-81688400D01*
X109765800Y-81688400D02*
X93850400Y-81688400D01*
X93850400Y-81688400D02*
X93600100Y-81938700D01*
X93600100Y-81938700D02*
X82960100Y-81938700D01*
X82960100Y-81938700D02*
X80295800Y-84603000D01*
X101315000Y-86050000D02*
X101315000Y-86512700D01*
X101315000Y-86512700D02*
X97690700Y-90137000D01*
X97690700Y-90137000D02*
X93929400Y-90137000D01*
X93929400Y-90137000D02*
X92675800Y-88883400D01*
X101315000Y-86050000D02*
X101315000Y-85547200D01*
X101315000Y-85547200D02*
X102188200Y-84674000D01*
X102188200Y-84674000D02*
X104255700Y-84674000D01*
X104255700Y-84674000D02*
X104545000Y-84963300D01*
X104545000Y-84963300D02*
X104545000Y-87181400D01*
X104545000Y-87181400D02*
X103052600Y-88673800D01*
X85656500Y-98258800D02*
X85400000Y-98515300D01*
X85400000Y-98515300D02*
X85400000Y-98999700D01*
X87345000Y-86050000D02*
X84920300Y-88474700D01*
X84920300Y-88474700D02*
X84920300Y-97522600D01*
X84920300Y-97522600D02*
X85656500Y-98258800D01*
X85400000Y-100200000D02*
X85400000Y-98999700D01*
X86500000Y-97415300D02*
X85656500Y-98258800D01*
X86500000Y-93900000D02*
X86500000Y-97415300D01*
X87349800Y-93050200D02*
X86500000Y-93900000D01*
X92671100Y-91452100D02*
X91073000Y-93050200D01*
X91073000Y-93050200D02*
X87349800Y-93050200D01*
X90519500Y-90701800D02*
X89743500Y-90701800D01*
X89743500Y-90701800D02*
X88344300Y-92101000D01*
X103855000Y-86050000D02*
X103855000Y-86575600D01*
X103855000Y-86575600D02*
X100681500Y-89749100D01*
X100681500Y-89749100D02*
X99690100Y-89749100D01*
X99690100Y-89749100D02*
X98737400Y-90701800D01*
X98737400Y-90701800D02*
X90519500Y-90701800D01*
X90519500Y-89758900D02*
X90519500Y-90701800D01*
X77700000Y-90600000D02*
X79464400Y-92364400D01*
X79464400Y-92364400D02*
X83145600Y-92364400D01*
X83145600Y-92364400D02*
X83145600Y-92364500D01*
X79342800Y-89585600D02*
X86239300Y-82689100D01*
X86239300Y-82689100D02*
X93807500Y-82689100D01*
X93807500Y-82689100D02*
X94307800Y-82188800D01*
X94307800Y-82188800D02*
X109507200Y-82188800D01*
X109507200Y-82188800D02*
X111501500Y-84183100D01*
X111501500Y-84183100D02*
X111501500Y-92428300D01*
X111501500Y-92428300D02*
X109838000Y-94091800D01*
X109838000Y-94091800D02*
X109838000Y-94520200D01*
X109838000Y-94520200D02*
X107581300Y-96776900D01*
X107581300Y-96776900D02*
X103472600Y-96776900D01*
X103472600Y-96776900D02*
X102585000Y-95889300D01*
X102585000Y-95889300D02*
X102585000Y-95350000D01*
X96027000Y-92762100D02*
X96153700Y-92888800D01*
X96153700Y-92888800D02*
X106611200Y-92888800D01*
X106611200Y-92888800D02*
X107000000Y-92500000D01*
X94965000Y-95350000D02*
X94965000Y-94538500D01*
X94965000Y-94538500D02*
X96027000Y-93476500D01*
X96027000Y-93476500D02*
X96027000Y-92762100D01*
X95024600Y-93023700D02*
X95024600Y-92678500D01*
X95024600Y-92678500D02*
X95697700Y-92005400D01*
X95697700Y-92005400D02*
X98951500Y-92005400D01*
X98951500Y-92005400D02*
X99334600Y-92388500D01*
X99334600Y-92388500D02*
X105111500Y-92388500D01*
X105111500Y-92388500D02*
X106804800Y-90695200D01*
X107000000Y-90500000D02*
X106804800Y-90695200D01*
X96235000Y-94465000D02*
X96235000Y-95350000D01*
X96994400Y-93705600D02*
X96235000Y-94465000D01*
X107416200Y-93705600D02*
X96994400Y-93705600D01*
X108123100Y-92998700D02*
X107416200Y-93705600D01*
X106804800Y-90695200D02*
X108123100Y-92013500D01*
X108123100Y-92013500D02*
X108123100Y-92998700D01*
X91883400Y-89008600D02*
X91883400Y-89252400D01*
X91883400Y-89252400D02*
X92567700Y-89936700D01*
X92425000Y-86050000D02*
X91883400Y-86591600D01*
X91883400Y-86591600D02*
X91883400Y-89008600D01*
X91883400Y-89008600D02*
X90208800Y-89008600D01*
X90208800Y-89008600D02*
X85672700Y-93544700D01*
X85672700Y-93544700D02*
X85672700Y-97172400D01*
X95560000Y-100200000D02*
X94359700Y-100200000D01*
X90220400Y-97303200D02*
X91590300Y-98673100D01*
X91590300Y-98673100D02*
X93205800Y-98673100D01*
X93205800Y-98673100D02*
X94359700Y-99827000D01*
X94359700Y-99827000D02*
X94359700Y-100200000D01*
X100948615Y-83481600D02*
X101514300Y-83481600D01*
X94429622Y-83481600D02*
X100948615Y-83481600D01*
X93611222Y-84300000D02*
X94429622Y-83481600D01*
X92079989Y-84300000D02*
X93611222Y-84300000D01*
X91155000Y-86050000D02*
X91155000Y-85224989D01*
X91155000Y-85224989D02*
X92079989Y-84300000D01*
X105596100Y-86338000D02*
X105596100Y-87206800D01*
X105596100Y-87206800D02*
X101676600Y-91126300D01*
X101676600Y-91126300D02*
X100042100Y-91126300D01*
X101870001Y-97649991D02*
X102270000Y-98049990D01*
X101315000Y-95350000D02*
X101315000Y-97094990D01*
X101315000Y-97094990D02*
X101870001Y-97649991D01*
X100782400Y-98045700D02*
X100045000Y-97308300D01*
X100045000Y-97308300D02*
X100045000Y-95350000D01*
X99160000Y-100200000D02*
X97959700Y-100200000D01*
X97959700Y-100200000D02*
X95932400Y-98172700D01*
X95932400Y-98172700D02*
X92755100Y-98172700D01*
X92755100Y-98172700D02*
X91589400Y-97007000D01*
X96713400Y-96886600D02*
X95685500Y-96886600D01*
X97505000Y-95350000D02*
X97505000Y-96095000D01*
X97505000Y-96095000D02*
X96713400Y-96886600D01*
D20*
G36*
X114055665Y-81718863D02*
G01*
X114109214Y-81735030D01*
X114158597Y-81761288D01*
X114201945Y-81796641D01*
X114237600Y-81839740D01*
X114264201Y-81888937D01*
X114280742Y-81942375D01*
X114290001Y-82030464D01*
X114290000Y-100965279D01*
X114281138Y-101055664D01*
X114264970Y-101109214D01*
X114238712Y-101158597D01*
X114203357Y-101201947D01*
X114160261Y-101237599D01*
X114111063Y-101264201D01*
X114057625Y-101280742D01*
X113969545Y-101290000D01*
X105247109Y-101290000D01*
X105435178Y-101081355D01*
X105584157Y-100831252D01*
X105681481Y-100556891D01*
X105560814Y-100327000D01*
X104367000Y-100327000D01*
X104367000Y-100347000D01*
X104113000Y-100347000D01*
X104113000Y-100327000D01*
X104093000Y-100327000D01*
X104093000Y-100073000D01*
X104113000Y-100073000D01*
X104113000Y-98879845D01*
X104367000Y-98879845D01*
X104367000Y-100073000D01*
X105560814Y-100073000D01*
X105681481Y-99843109D01*
X105584157Y-99568748D01*
X105579931Y-99561653D01*
X108287952Y-99561653D01*
X108443962Y-99877214D01*
X108818745Y-100068020D01*
X109223551Y-100182044D01*
X109642824Y-100214902D01*
X110060451Y-100165334D01*
X110460383Y-100035243D01*
X110756038Y-99877214D01*
X110912048Y-99561653D01*
X109600000Y-98249605D01*
X108287952Y-99561653D01*
X105579931Y-99561653D01*
X105435178Y-99318645D01*
X105240269Y-99102412D01*
X105006920Y-98928359D01*
X104744099Y-98803175D01*
X104596890Y-98758524D01*
X104367000Y-98879845D01*
X104113000Y-98879845D01*
X103883110Y-98758524D01*
X103735901Y-98803175D01*
X103473080Y-98928359D01*
X103239731Y-99102412D01*
X103044822Y-99318645D01*
X102975201Y-99435523D01*
X102940706Y-99370986D01*
X102755134Y-99144866D01*
X102612977Y-99028200D01*
X102760256Y-98967195D01*
X102929774Y-98853927D01*
X103073937Y-98709764D01*
X103187205Y-98540246D01*
X103265226Y-98351888D01*
X103305000Y-98151929D01*
X103305000Y-97948051D01*
X103265226Y-97748092D01*
X103187205Y-97559734D01*
X103140142Y-97489299D01*
X103152873Y-97496104D01*
X103170740Y-97505654D01*
X103318713Y-97550542D01*
X103393626Y-97557920D01*
X103434039Y-97561900D01*
X103434044Y-97561900D01*
X103472600Y-97565697D01*
X103511155Y-97561900D01*
X107525039Y-97561900D01*
X107487956Y-97693551D01*
X107455098Y-98112824D01*
X107504666Y-98530451D01*
X107634757Y-98930383D01*
X107792786Y-99226038D01*
X108108347Y-99382048D01*
X109420395Y-98070000D01*
X109779605Y-98070000D01*
X111091653Y-99382048D01*
X111407214Y-99226038D01*
X111598020Y-98851255D01*
X111712044Y-98446449D01*
X111744902Y-98027176D01*
X111695334Y-97609549D01*
X111565243Y-97209617D01*
X111407214Y-96913962D01*
X111091653Y-96757952D01*
X109779605Y-98070000D01*
X109420395Y-98070000D01*
X109406253Y-98055858D01*
X109585858Y-97876253D01*
X109600000Y-97890395D01*
X110912048Y-96578347D01*
X110756038Y-96262786D01*
X110381255Y-96071980D01*
X109976449Y-95957956D01*
X109557176Y-95925098D01*
X109541385Y-95926972D01*
X110158462Y-95309895D01*
X110173144Y-95319705D01*
X110361502Y-95397726D01*
X110561461Y-95437500D01*
X110765339Y-95437500D01*
X110965298Y-95397726D01*
X111153656Y-95319705D01*
X111323174Y-95206437D01*
X111467337Y-95062274D01*
X111580605Y-94892756D01*
X111658626Y-94704398D01*
X111698400Y-94504439D01*
X111698400Y-94477657D01*
X112529711Y-93646346D01*
X112559664Y-93621764D01*
X112657762Y-93502233D01*
X112730654Y-93365860D01*
X112734840Y-93352060D01*
X112775542Y-93217887D01*
X112782992Y-93142236D01*
X112786900Y-93102561D01*
X112786900Y-93102556D01*
X112790697Y-93064000D01*
X112786900Y-93025444D01*
X112786900Y-83963055D01*
X112790697Y-83924500D01*
X112786900Y-83885944D01*
X112786900Y-83885939D01*
X112782920Y-83845526D01*
X112775542Y-83770613D01*
X112730654Y-83622640D01*
X112709754Y-83583539D01*
X112657762Y-83486267D01*
X112601616Y-83417854D01*
X112584245Y-83396687D01*
X112584242Y-83396684D01*
X112559664Y-83366736D01*
X112529716Y-83342158D01*
X110897557Y-81710000D01*
X113965278Y-81710000D01*
X114055665Y-81718863D01*
X114055665Y-81718863D01*
G37*
X114055665Y-81718863D02*
X114109214Y-81735030D01*
X114158597Y-81761288D01*
X114201945Y-81796641D01*
X114237600Y-81839740D01*
X114264201Y-81888937D01*
X114280742Y-81942375D01*
X114290001Y-82030464D01*
X114290000Y-100965279D01*
X114281138Y-101055664D01*
X114264970Y-101109214D01*
X114238712Y-101158597D01*
X114203357Y-101201947D01*
X114160261Y-101237599D01*
X114111063Y-101264201D01*
X114057625Y-101280742D01*
X113969545Y-101290000D01*
X105247109Y-101290000D01*
X105435178Y-101081355D01*
X105584157Y-100831252D01*
X105681481Y-100556891D01*
X105560814Y-100327000D01*
X104367000Y-100327000D01*
X104367000Y-100347000D01*
X104113000Y-100347000D01*
X104113000Y-100327000D01*
X104093000Y-100327000D01*
X104093000Y-100073000D01*
X104113000Y-100073000D01*
X104113000Y-98879845D01*
X104367000Y-98879845D01*
X104367000Y-100073000D01*
X105560814Y-100073000D01*
X105681481Y-99843109D01*
X105584157Y-99568748D01*
X105579931Y-99561653D01*
X108287952Y-99561653D01*
X108443962Y-99877214D01*
X108818745Y-100068020D01*
X109223551Y-100182044D01*
X109642824Y-100214902D01*
X110060451Y-100165334D01*
X110460383Y-100035243D01*
X110756038Y-99877214D01*
X110912048Y-99561653D01*
X109600000Y-98249605D01*
X108287952Y-99561653D01*
X105579931Y-99561653D01*
X105435178Y-99318645D01*
X105240269Y-99102412D01*
X105006920Y-98928359D01*
X104744099Y-98803175D01*
X104596890Y-98758524D01*
X104367000Y-98879845D01*
X104113000Y-98879845D01*
X103883110Y-98758524D01*
X103735901Y-98803175D01*
X103473080Y-98928359D01*
X103239731Y-99102412D01*
X103044822Y-99318645D01*
X102975201Y-99435523D01*
X102940706Y-99370986D01*
X102755134Y-99144866D01*
X102612977Y-99028200D01*
X102760256Y-98967195D01*
X102929774Y-98853927D01*
X103073937Y-98709764D01*
X103187205Y-98540246D01*
X103265226Y-98351888D01*
X103305000Y-98151929D01*
X103305000Y-97948051D01*
X103265226Y-97748092D01*
X103187205Y-97559734D01*
X103140142Y-97489299D01*
X103152873Y-97496104D01*
X103170740Y-97505654D01*
X103318713Y-97550542D01*
X103393626Y-97557920D01*
X103434039Y-97561900D01*
X103434044Y-97561900D01*
X103472600Y-97565697D01*
X103511155Y-97561900D01*
X107525039Y-97561900D01*
X107487956Y-97693551D01*
X107455098Y-98112824D01*
X107504666Y-98530451D01*
X107634757Y-98930383D01*
X107792786Y-99226038D01*
X108108347Y-99382048D01*
X109420395Y-98070000D01*
X109779605Y-98070000D01*
X111091653Y-99382048D01*
X111407214Y-99226038D01*
X111598020Y-98851255D01*
X111712044Y-98446449D01*
X111744902Y-98027176D01*
X111695334Y-97609549D01*
X111565243Y-97209617D01*
X111407214Y-96913962D01*
X111091653Y-96757952D01*
X109779605Y-98070000D01*
X109420395Y-98070000D01*
X109406253Y-98055858D01*
X109585858Y-97876253D01*
X109600000Y-97890395D01*
X110912048Y-96578347D01*
X110756038Y-96262786D01*
X110381255Y-96071980D01*
X109976449Y-95957956D01*
X109557176Y-95925098D01*
X109541385Y-95926972D01*
X110158462Y-95309895D01*
X110173144Y-95319705D01*
X110361502Y-95397726D01*
X110561461Y-95437500D01*
X110765339Y-95437500D01*
X110965298Y-95397726D01*
X111153656Y-95319705D01*
X111323174Y-95206437D01*
X111467337Y-95062274D01*
X111580605Y-94892756D01*
X111658626Y-94704398D01*
X111698400Y-94504439D01*
X111698400Y-94477657D01*
X112529711Y-93646346D01*
X112559664Y-93621764D01*
X112657762Y-93502233D01*
X112730654Y-93365860D01*
X112734840Y-93352060D01*
X112775542Y-93217887D01*
X112782992Y-93142236D01*
X112786900Y-93102561D01*
X112786900Y-93102556D01*
X112790697Y-93064000D01*
X112786900Y-93025444D01*
X112786900Y-83963055D01*
X112790697Y-83924500D01*
X112786900Y-83885944D01*
X112786900Y-83885939D01*
X112782920Y-83845526D01*
X112775542Y-83770613D01*
X112730654Y-83622640D01*
X112709754Y-83583539D01*
X112657762Y-83486267D01*
X112601616Y-83417854D01*
X112584245Y-83396687D01*
X112584242Y-83396684D01*
X112559664Y-83366736D01*
X112529716Y-83342158D01*
X110897557Y-81710000D01*
X113965278Y-81710000D01*
X114055665Y-81718863D01*
G36*
X80220643Y-83568000D02*
G01*
X80193861Y-83568000D01*
X79993902Y-83607774D01*
X79805544Y-83685795D01*
X79636026Y-83799063D01*
X79491863Y-83943226D01*
X79378595Y-84112744D01*
X79300574Y-84301102D01*
X79260800Y-84501061D01*
X79260800Y-84704939D01*
X79300574Y-84904898D01*
X79378595Y-85093256D01*
X79491863Y-85262774D01*
X79636026Y-85406937D01*
X79805544Y-85520205D01*
X79993902Y-85598226D01*
X80193861Y-85638000D01*
X80397739Y-85638000D01*
X80597698Y-85598226D01*
X80786056Y-85520205D01*
X80955574Y-85406937D01*
X81099737Y-85262774D01*
X81213005Y-85093256D01*
X81291026Y-84904898D01*
X81330800Y-84704939D01*
X81330800Y-84678157D01*
X83285258Y-82723700D01*
X85094543Y-82723700D01*
X79267643Y-88550600D01*
X79240861Y-88550600D01*
X79040902Y-88590374D01*
X79006441Y-88604648D01*
X79022756Y-88569952D01*
X79089023Y-88302865D01*
X79101910Y-88027983D01*
X79060922Y-87755867D01*
X78967636Y-87496977D01*
X78905656Y-87381020D01*
X78665565Y-87314040D01*
X77879605Y-88100000D01*
X77893748Y-88114143D01*
X77714143Y-88293748D01*
X77700000Y-88279605D01*
X77685858Y-88293748D01*
X77506253Y-88114143D01*
X77520395Y-88100000D01*
X76734435Y-87314040D01*
X76494344Y-87381020D01*
X76377244Y-87630048D01*
X76310977Y-87897135D01*
X76303614Y-88054196D01*
X76074463Y-87901082D01*
X75776912Y-87777832D01*
X75461033Y-87715000D01*
X75138967Y-87715000D01*
X74823088Y-87777832D01*
X74525537Y-87901082D01*
X74257748Y-88080013D01*
X74030013Y-88307748D01*
X73851082Y-88575537D01*
X73727832Y-88873088D01*
X73665000Y-89188967D01*
X73665000Y-89511033D01*
X73727832Y-89826912D01*
X73851082Y-90124463D01*
X74030013Y-90392252D01*
X74257748Y-90619987D01*
X74525537Y-90798918D01*
X74823088Y-90922168D01*
X75138967Y-90985000D01*
X75461033Y-90985000D01*
X75776912Y-90922168D01*
X76074463Y-90798918D01*
X76303000Y-90646214D01*
X76303000Y-90737592D01*
X76356686Y-91007490D01*
X76461995Y-91261727D01*
X76614880Y-91490535D01*
X76724345Y-91600000D01*
X76614880Y-91709465D01*
X76461995Y-91938273D01*
X76356686Y-92192510D01*
X76303000Y-92462408D01*
X76303000Y-92553786D01*
X76074463Y-92401082D01*
X75776912Y-92277832D01*
X75461033Y-92215000D01*
X75138967Y-92215000D01*
X74823088Y-92277832D01*
X74525537Y-92401082D01*
X74257748Y-92580013D01*
X74030013Y-92807748D01*
X73851082Y-93075537D01*
X73727832Y-93373088D01*
X73665000Y-93688967D01*
X73665000Y-94011033D01*
X73727832Y-94326912D01*
X73851082Y-94624463D01*
X74030013Y-94892252D01*
X74257748Y-95119987D01*
X74525537Y-95298918D01*
X74823088Y-95422168D01*
X75138967Y-95485000D01*
X75461033Y-95485000D01*
X75776912Y-95422168D01*
X76074463Y-95298918D01*
X76303000Y-95146214D01*
X76303000Y-95237592D01*
X76356686Y-95507490D01*
X76461995Y-95761727D01*
X76614880Y-95990535D01*
X76809465Y-96185120D01*
X77038273Y-96338005D01*
X77292510Y-96443314D01*
X77562408Y-96497000D01*
X77837592Y-96497000D01*
X78107490Y-96443314D01*
X78361727Y-96338005D01*
X78590535Y-96185120D01*
X78785120Y-95990535D01*
X78938005Y-95761727D01*
X79043314Y-95507490D01*
X79097000Y-95237592D01*
X79097000Y-94962408D01*
X79043314Y-94692510D01*
X78938005Y-94438273D01*
X78785120Y-94209465D01*
X78590535Y-94014880D01*
X78361727Y-93861995D01*
X78332769Y-93850000D01*
X78361727Y-93838005D01*
X78590535Y-93685120D01*
X78785120Y-93490535D01*
X78938005Y-93261727D01*
X79035874Y-93025451D01*
X79162540Y-93093154D01*
X79261770Y-93123255D01*
X79310512Y-93138041D01*
X79324890Y-93139457D01*
X79425839Y-93149400D01*
X79425846Y-93149400D01*
X79464399Y-93153197D01*
X79502952Y-93149400D01*
X82466789Y-93149400D01*
X82485826Y-93168437D01*
X82655344Y-93281705D01*
X82843702Y-93359726D01*
X83043661Y-93399500D01*
X83247539Y-93399500D01*
X83447498Y-93359726D01*
X83635856Y-93281705D01*
X83805374Y-93168437D01*
X83949537Y-93024274D01*
X84062805Y-92854756D01*
X84135300Y-92679738D01*
X84135301Y-97484037D01*
X84131503Y-97522600D01*
X84146659Y-97676486D01*
X84191546Y-97824459D01*
X84216337Y-97870840D01*
X84264439Y-97960833D01*
X84286315Y-97987488D01*
X84337955Y-98050412D01*
X84337959Y-98050416D01*
X84362537Y-98080364D01*
X84392485Y-98104942D01*
X84631618Y-98344076D01*
X84626359Y-98361414D01*
X84615000Y-98476740D01*
X84615000Y-98476747D01*
X84611203Y-98515300D01*
X84615000Y-98553853D01*
X84615000Y-98711928D01*
X84550000Y-98711928D01*
X84425518Y-98724188D01*
X84305820Y-98760498D01*
X84195506Y-98819463D01*
X84098815Y-98898815D01*
X84019463Y-98995506D01*
X83960498Y-99105820D01*
X83924188Y-99225518D01*
X83911928Y-99350000D01*
X83911928Y-101050000D01*
X83924188Y-101174482D01*
X83959230Y-101290000D01*
X73534721Y-101290000D01*
X73444336Y-101281138D01*
X73390786Y-101264970D01*
X73341403Y-101238712D01*
X73298053Y-101203357D01*
X73262401Y-101160261D01*
X73235799Y-101111063D01*
X73219258Y-101057625D01*
X73210000Y-100969545D01*
X73210000Y-97852902D01*
X73221827Y-97912684D01*
X73327858Y-98163868D01*
X73480855Y-98389540D01*
X73674939Y-98581028D01*
X73902651Y-98730972D01*
X74155240Y-98833611D01*
X74423000Y-98885000D01*
X75173000Y-98885000D01*
X75173000Y-97627000D01*
X75427000Y-97627000D01*
X75427000Y-98885000D01*
X76177000Y-98885000D01*
X76444760Y-98833611D01*
X76697349Y-98730972D01*
X76925061Y-98581028D01*
X77119145Y-98389540D01*
X77272142Y-98163868D01*
X77378173Y-97912684D01*
X77392318Y-97841185D01*
X77269656Y-97627000D01*
X75427000Y-97627000D01*
X75173000Y-97627000D01*
X75153000Y-97627000D01*
X75153000Y-97373000D01*
X75173000Y-97373000D01*
X75173000Y-96115000D01*
X75427000Y-96115000D01*
X75427000Y-97373000D01*
X77269656Y-97373000D01*
X77392318Y-97158815D01*
X77378173Y-97087316D01*
X77272142Y-96836132D01*
X77119145Y-96610460D01*
X76925061Y-96418972D01*
X76697349Y-96269028D01*
X76444760Y-96166389D01*
X76177000Y-96115000D01*
X75427000Y-96115000D01*
X75173000Y-96115000D01*
X74423000Y-96115000D01*
X74155240Y-96166389D01*
X73902651Y-96269028D01*
X73674939Y-96418972D01*
X73480855Y-96610460D01*
X73327858Y-96836132D01*
X73221827Y-97087316D01*
X73210000Y-97147098D01*
X73210000Y-87134435D01*
X76914040Y-87134435D01*
X77700000Y-87920395D01*
X78485960Y-87134435D01*
X78418980Y-86894344D01*
X78169952Y-86777244D01*
X77902865Y-86710977D01*
X77627983Y-86698090D01*
X77355867Y-86739078D01*
X77096977Y-86832364D01*
X76981020Y-86894344D01*
X76914040Y-87134435D01*
X73210000Y-87134435D01*
X73210000Y-86052902D01*
X73221827Y-86112684D01*
X73327858Y-86363868D01*
X73480855Y-86589540D01*
X73674939Y-86781028D01*
X73902651Y-86930972D01*
X74155240Y-87033611D01*
X74423000Y-87085000D01*
X75173000Y-87085000D01*
X75173000Y-85827000D01*
X75427000Y-85827000D01*
X75427000Y-87085000D01*
X76177000Y-87085000D01*
X76444760Y-87033611D01*
X76697349Y-86930972D01*
X76925061Y-86781028D01*
X77119145Y-86589540D01*
X77272142Y-86363868D01*
X77378173Y-86112684D01*
X77392318Y-86041185D01*
X77269656Y-85827000D01*
X75427000Y-85827000D01*
X75173000Y-85827000D01*
X75153000Y-85827000D01*
X75153000Y-85573000D01*
X75173000Y-85573000D01*
X75173000Y-84315000D01*
X75427000Y-84315000D01*
X75427000Y-85573000D01*
X77269656Y-85573000D01*
X77392318Y-85358815D01*
X77378173Y-85287316D01*
X77272142Y-85036132D01*
X77119145Y-84810460D01*
X76925061Y-84618972D01*
X76697349Y-84469028D01*
X76444760Y-84366389D01*
X76177000Y-84315000D01*
X75427000Y-84315000D01*
X75173000Y-84315000D01*
X74423000Y-84315000D01*
X74155240Y-84366389D01*
X73902651Y-84469028D01*
X73674939Y-84618972D01*
X73480855Y-84810460D01*
X73327858Y-85036132D01*
X73221827Y-85287316D01*
X73210000Y-85347098D01*
X73210000Y-82034722D01*
X73218863Y-81944335D01*
X73235030Y-81890786D01*
X73261288Y-81841403D01*
X73296641Y-81798055D01*
X73339740Y-81762400D01*
X73388937Y-81735799D01*
X73442375Y-81719258D01*
X73530455Y-81710000D01*
X82078642Y-81710000D01*
X80220643Y-83568000D01*
X80220643Y-83568000D01*
G37*
X80220643Y-83568000D02*
X80193861Y-83568000D01*
X79993902Y-83607774D01*
X79805544Y-83685795D01*
X79636026Y-83799063D01*
X79491863Y-83943226D01*
X79378595Y-84112744D01*
X79300574Y-84301102D01*
X79260800Y-84501061D01*
X79260800Y-84704939D01*
X79300574Y-84904898D01*
X79378595Y-85093256D01*
X79491863Y-85262774D01*
X79636026Y-85406937D01*
X79805544Y-85520205D01*
X79993902Y-85598226D01*
X80193861Y-85638000D01*
X80397739Y-85638000D01*
X80597698Y-85598226D01*
X80786056Y-85520205D01*
X80955574Y-85406937D01*
X81099737Y-85262774D01*
X81213005Y-85093256D01*
X81291026Y-84904898D01*
X81330800Y-84704939D01*
X81330800Y-84678157D01*
X83285258Y-82723700D01*
X85094543Y-82723700D01*
X79267643Y-88550600D01*
X79240861Y-88550600D01*
X79040902Y-88590374D01*
X79006441Y-88604648D01*
X79022756Y-88569952D01*
X79089023Y-88302865D01*
X79101910Y-88027983D01*
X79060922Y-87755867D01*
X78967636Y-87496977D01*
X78905656Y-87381020D01*
X78665565Y-87314040D01*
X77879605Y-88100000D01*
X77893748Y-88114143D01*
X77714143Y-88293748D01*
X77700000Y-88279605D01*
X77685858Y-88293748D01*
X77506253Y-88114143D01*
X77520395Y-88100000D01*
X76734435Y-87314040D01*
X76494344Y-87381020D01*
X76377244Y-87630048D01*
X76310977Y-87897135D01*
X76303614Y-88054196D01*
X76074463Y-87901082D01*
X75776912Y-87777832D01*
X75461033Y-87715000D01*
X75138967Y-87715000D01*
X74823088Y-87777832D01*
X74525537Y-87901082D01*
X74257748Y-88080013D01*
X74030013Y-88307748D01*
X73851082Y-88575537D01*
X73727832Y-88873088D01*
X73665000Y-89188967D01*
X73665000Y-89511033D01*
X73727832Y-89826912D01*
X73851082Y-90124463D01*
X74030013Y-90392252D01*
X74257748Y-90619987D01*
X74525537Y-90798918D01*
X74823088Y-90922168D01*
X75138967Y-90985000D01*
X75461033Y-90985000D01*
X75776912Y-90922168D01*
X76074463Y-90798918D01*
X76303000Y-90646214D01*
X76303000Y-90737592D01*
X76356686Y-91007490D01*
X76461995Y-91261727D01*
X76614880Y-91490535D01*
X76724345Y-91600000D01*
X76614880Y-91709465D01*
X76461995Y-91938273D01*
X76356686Y-92192510D01*
X76303000Y-92462408D01*
X76303000Y-92553786D01*
X76074463Y-92401082D01*
X75776912Y-92277832D01*
X75461033Y-92215000D01*
X75138967Y-92215000D01*
X74823088Y-92277832D01*
X74525537Y-92401082D01*
X74257748Y-92580013D01*
X74030013Y-92807748D01*
X73851082Y-93075537D01*
X73727832Y-93373088D01*
X73665000Y-93688967D01*
X73665000Y-94011033D01*
X73727832Y-94326912D01*
X73851082Y-94624463D01*
X74030013Y-94892252D01*
X74257748Y-95119987D01*
X74525537Y-95298918D01*
X74823088Y-95422168D01*
X75138967Y-95485000D01*
X75461033Y-95485000D01*
X75776912Y-95422168D01*
X76074463Y-95298918D01*
X76303000Y-95146214D01*
X76303000Y-95237592D01*
X76356686Y-95507490D01*
X76461995Y-95761727D01*
X76614880Y-95990535D01*
X76809465Y-96185120D01*
X77038273Y-96338005D01*
X77292510Y-96443314D01*
X77562408Y-96497000D01*
X77837592Y-96497000D01*
X78107490Y-96443314D01*
X78361727Y-96338005D01*
X78590535Y-96185120D01*
X78785120Y-95990535D01*
X78938005Y-95761727D01*
X79043314Y-95507490D01*
X79097000Y-95237592D01*
X79097000Y-94962408D01*
X79043314Y-94692510D01*
X78938005Y-94438273D01*
X78785120Y-94209465D01*
X78590535Y-94014880D01*
X78361727Y-93861995D01*
X78332769Y-93850000D01*
X78361727Y-93838005D01*
X78590535Y-93685120D01*
X78785120Y-93490535D01*
X78938005Y-93261727D01*
X79035874Y-93025451D01*
X79162540Y-93093154D01*
X79261770Y-93123255D01*
X79310512Y-93138041D01*
X79324890Y-93139457D01*
X79425839Y-93149400D01*
X79425846Y-93149400D01*
X79464399Y-93153197D01*
X79502952Y-93149400D01*
X82466789Y-93149400D01*
X82485826Y-93168437D01*
X82655344Y-93281705D01*
X82843702Y-93359726D01*
X83043661Y-93399500D01*
X83247539Y-93399500D01*
X83447498Y-93359726D01*
X83635856Y-93281705D01*
X83805374Y-93168437D01*
X83949537Y-93024274D01*
X84062805Y-92854756D01*
X84135300Y-92679738D01*
X84135301Y-97484037D01*
X84131503Y-97522600D01*
X84146659Y-97676486D01*
X84191546Y-97824459D01*
X84216337Y-97870840D01*
X84264439Y-97960833D01*
X84286315Y-97987488D01*
X84337955Y-98050412D01*
X84337959Y-98050416D01*
X84362537Y-98080364D01*
X84392485Y-98104942D01*
X84631618Y-98344076D01*
X84626359Y-98361414D01*
X84615000Y-98476740D01*
X84615000Y-98476747D01*
X84611203Y-98515300D01*
X84615000Y-98553853D01*
X84615000Y-98711928D01*
X84550000Y-98711928D01*
X84425518Y-98724188D01*
X84305820Y-98760498D01*
X84195506Y-98819463D01*
X84098815Y-98898815D01*
X84019463Y-98995506D01*
X83960498Y-99105820D01*
X83924188Y-99225518D01*
X83911928Y-99350000D01*
X83911928Y-101050000D01*
X83924188Y-101174482D01*
X83959230Y-101290000D01*
X73534721Y-101290000D01*
X73444336Y-101281138D01*
X73390786Y-101264970D01*
X73341403Y-101238712D01*
X73298053Y-101203357D01*
X73262401Y-101160261D01*
X73235799Y-101111063D01*
X73219258Y-101057625D01*
X73210000Y-100969545D01*
X73210000Y-97852902D01*
X73221827Y-97912684D01*
X73327858Y-98163868D01*
X73480855Y-98389540D01*
X73674939Y-98581028D01*
X73902651Y-98730972D01*
X74155240Y-98833611D01*
X74423000Y-98885000D01*
X75173000Y-98885000D01*
X75173000Y-97627000D01*
X75427000Y-97627000D01*
X75427000Y-98885000D01*
X76177000Y-98885000D01*
X76444760Y-98833611D01*
X76697349Y-98730972D01*
X76925061Y-98581028D01*
X77119145Y-98389540D01*
X77272142Y-98163868D01*
X77378173Y-97912684D01*
X77392318Y-97841185D01*
X77269656Y-97627000D01*
X75427000Y-97627000D01*
X75173000Y-97627000D01*
X75153000Y-97627000D01*
X75153000Y-97373000D01*
X75173000Y-97373000D01*
X75173000Y-96115000D01*
X75427000Y-96115000D01*
X75427000Y-97373000D01*
X77269656Y-97373000D01*
X77392318Y-97158815D01*
X77378173Y-97087316D01*
X77272142Y-96836132D01*
X77119145Y-96610460D01*
X76925061Y-96418972D01*
X76697349Y-96269028D01*
X76444760Y-96166389D01*
X76177000Y-96115000D01*
X75427000Y-96115000D01*
X75173000Y-96115000D01*
X74423000Y-96115000D01*
X74155240Y-96166389D01*
X73902651Y-96269028D01*
X73674939Y-96418972D01*
X73480855Y-96610460D01*
X73327858Y-96836132D01*
X73221827Y-97087316D01*
X73210000Y-97147098D01*
X73210000Y-87134435D01*
X76914040Y-87134435D01*
X77700000Y-87920395D01*
X78485960Y-87134435D01*
X78418980Y-86894344D01*
X78169952Y-86777244D01*
X77902865Y-86710977D01*
X77627983Y-86698090D01*
X77355867Y-86739078D01*
X77096977Y-86832364D01*
X76981020Y-86894344D01*
X76914040Y-87134435D01*
X73210000Y-87134435D01*
X73210000Y-86052902D01*
X73221827Y-86112684D01*
X73327858Y-86363868D01*
X73480855Y-86589540D01*
X73674939Y-86781028D01*
X73902651Y-86930972D01*
X74155240Y-87033611D01*
X74423000Y-87085000D01*
X75173000Y-87085000D01*
X75173000Y-85827000D01*
X75427000Y-85827000D01*
X75427000Y-87085000D01*
X76177000Y-87085000D01*
X76444760Y-87033611D01*
X76697349Y-86930972D01*
X76925061Y-86781028D01*
X77119145Y-86589540D01*
X77272142Y-86363868D01*
X77378173Y-86112684D01*
X77392318Y-86041185D01*
X77269656Y-85827000D01*
X75427000Y-85827000D01*
X75173000Y-85827000D01*
X75153000Y-85827000D01*
X75153000Y-85573000D01*
X75173000Y-85573000D01*
X75173000Y-84315000D01*
X75427000Y-84315000D01*
X75427000Y-85573000D01*
X77269656Y-85573000D01*
X77392318Y-85358815D01*
X77378173Y-85287316D01*
X77272142Y-85036132D01*
X77119145Y-84810460D01*
X76925061Y-84618972D01*
X76697349Y-84469028D01*
X76444760Y-84366389D01*
X76177000Y-84315000D01*
X75427000Y-84315000D01*
X75173000Y-84315000D01*
X74423000Y-84315000D01*
X74155240Y-84366389D01*
X73902651Y-84469028D01*
X73674939Y-84618972D01*
X73480855Y-84810460D01*
X73327858Y-85036132D01*
X73221827Y-85287316D01*
X73210000Y-85347098D01*
X73210000Y-82034722D01*
X73218863Y-81944335D01*
X73235030Y-81890786D01*
X73261288Y-81841403D01*
X73296641Y-81798055D01*
X73339740Y-81762400D01*
X73388937Y-81735799D01*
X73442375Y-81719258D01*
X73530455Y-81710000D01*
X82078642Y-81710000D01*
X80220643Y-83568000D01*
G36*
X88742000Y-95223000D02*
G01*
X88762000Y-95223000D01*
X88762000Y-95477000D01*
X88742000Y-95477000D01*
X88742000Y-96851250D01*
X88900750Y-97010000D01*
X88915000Y-97013072D01*
X89039482Y-97000812D01*
X89159180Y-96964502D01*
X89263518Y-96908731D01*
X89225174Y-97001302D01*
X89185400Y-97201261D01*
X89185400Y-97405139D01*
X89225174Y-97605098D01*
X89303195Y-97793456D01*
X89416463Y-97962974D01*
X89560626Y-98107137D01*
X89730144Y-98220405D01*
X89918502Y-98298426D01*
X90118461Y-98338200D01*
X90145243Y-98338200D01*
X90659291Y-98852249D01*
X90607000Y-98879845D01*
X90607000Y-100073000D01*
X90627000Y-100073000D01*
X90627000Y-100327000D01*
X90607000Y-100327000D01*
X90607000Y-100347000D01*
X90353000Y-100347000D01*
X90353000Y-100327000D01*
X90333000Y-100327000D01*
X90333000Y-100073000D01*
X90353000Y-100073000D01*
X90353000Y-98879845D01*
X90123110Y-98758524D01*
X89975901Y-98803175D01*
X89713080Y-98928359D01*
X89479731Y-99102412D01*
X89284822Y-99318645D01*
X89215201Y-99435523D01*
X89180706Y-99370986D01*
X88995134Y-99144866D01*
X88769014Y-98959294D01*
X88722362Y-98934358D01*
X88713641Y-98845813D01*
X88668754Y-98697840D01*
X88595862Y-98561467D01*
X88546450Y-98501259D01*
X88522345Y-98471887D01*
X88522342Y-98471884D01*
X88497764Y-98441936D01*
X88467815Y-98417357D01*
X88130000Y-98079543D01*
X88130000Y-96982454D01*
X88190518Y-97000812D01*
X88315000Y-97013072D01*
X88329250Y-97010000D01*
X88488000Y-96851250D01*
X88488000Y-95477000D01*
X88468000Y-95477000D01*
X88468000Y-95223000D01*
X88488000Y-95223000D01*
X88488000Y-95203000D01*
X88742000Y-95203000D01*
X88742000Y-95223000D01*
X88742000Y-95223000D01*
G37*
X88742000Y-95223000D02*
X88762000Y-95223000D01*
X88762000Y-95477000D01*
X88742000Y-95477000D01*
X88742000Y-96851250D01*
X88900750Y-97010000D01*
X88915000Y-97013072D01*
X89039482Y-97000812D01*
X89159180Y-96964502D01*
X89263518Y-96908731D01*
X89225174Y-97001302D01*
X89185400Y-97201261D01*
X89185400Y-97405139D01*
X89225174Y-97605098D01*
X89303195Y-97793456D01*
X89416463Y-97962974D01*
X89560626Y-98107137D01*
X89730144Y-98220405D01*
X89918502Y-98298426D01*
X90118461Y-98338200D01*
X90145243Y-98338200D01*
X90659291Y-98852249D01*
X90607000Y-98879845D01*
X90607000Y-100073000D01*
X90627000Y-100073000D01*
X90627000Y-100327000D01*
X90607000Y-100327000D01*
X90607000Y-100347000D01*
X90353000Y-100347000D01*
X90353000Y-100327000D01*
X90333000Y-100327000D01*
X90333000Y-100073000D01*
X90353000Y-100073000D01*
X90353000Y-98879845D01*
X90123110Y-98758524D01*
X89975901Y-98803175D01*
X89713080Y-98928359D01*
X89479731Y-99102412D01*
X89284822Y-99318645D01*
X89215201Y-99435523D01*
X89180706Y-99370986D01*
X88995134Y-99144866D01*
X88769014Y-98959294D01*
X88722362Y-98934358D01*
X88713641Y-98845813D01*
X88668754Y-98697840D01*
X88595862Y-98561467D01*
X88546450Y-98501259D01*
X88522345Y-98471887D01*
X88522342Y-98471884D01*
X88497764Y-98441936D01*
X88467815Y-98417357D01*
X88130000Y-98079543D01*
X88130000Y-96982454D01*
X88190518Y-97000812D01*
X88315000Y-97013072D01*
X88329250Y-97010000D01*
X88488000Y-96851250D01*
X88488000Y-95477000D01*
X88468000Y-95477000D01*
X88468000Y-95223000D01*
X88488000Y-95223000D01*
X88488000Y-95203000D01*
X88742000Y-95203000D01*
X88742000Y-95223000D01*
G36*
X98902000Y-95223000D02*
G01*
X98922000Y-95223000D01*
X98922000Y-95477000D01*
X98902000Y-95477000D01*
X98902000Y-96851250D01*
X99060750Y-97010000D01*
X99075000Y-97013072D01*
X99199482Y-97000812D01*
X99260000Y-96982454D01*
X99260000Y-97269747D01*
X99256203Y-97308300D01*
X99260000Y-97346853D01*
X99260000Y-97346860D01*
X99271359Y-97462186D01*
X99316246Y-97610159D01*
X99389138Y-97746532D01*
X99487236Y-97866064D01*
X99517189Y-97890647D01*
X99747400Y-98120857D01*
X99747400Y-98147639D01*
X99787174Y-98347598D01*
X99865195Y-98535956D01*
X99978463Y-98705474D01*
X99984917Y-98711928D01*
X98310000Y-98711928D01*
X98185518Y-98724188D01*
X98065820Y-98760498D01*
X97955506Y-98819463D01*
X97858815Y-98898815D01*
X97818183Y-98948325D01*
X96541457Y-97671600D01*
X96674847Y-97671600D01*
X96713400Y-97675397D01*
X96751953Y-97671600D01*
X96751961Y-97671600D01*
X96867287Y-97660241D01*
X97015260Y-97615354D01*
X97151633Y-97542462D01*
X97271164Y-97444364D01*
X97295747Y-97414411D01*
X97701684Y-97008474D01*
X97808745Y-96997929D01*
X97956582Y-96953084D01*
X98090936Y-96881270D01*
X98120506Y-96905537D01*
X98230820Y-96964502D01*
X98350518Y-97000812D01*
X98475000Y-97013072D01*
X98489250Y-97010000D01*
X98648000Y-96851250D01*
X98648000Y-95477000D01*
X98628000Y-95477000D01*
X98628000Y-95223000D01*
X98648000Y-95223000D01*
X98648000Y-95203000D01*
X98902000Y-95203000D01*
X98902000Y-95223000D01*
X98902000Y-95223000D01*
G37*
X98902000Y-95223000D02*
X98922000Y-95223000D01*
X98922000Y-95477000D01*
X98902000Y-95477000D01*
X98902000Y-96851250D01*
X99060750Y-97010000D01*
X99075000Y-97013072D01*
X99199482Y-97000812D01*
X99260000Y-96982454D01*
X99260000Y-97269747D01*
X99256203Y-97308300D01*
X99260000Y-97346853D01*
X99260000Y-97346860D01*
X99271359Y-97462186D01*
X99316246Y-97610159D01*
X99389138Y-97746532D01*
X99487236Y-97866064D01*
X99517189Y-97890647D01*
X99747400Y-98120857D01*
X99747400Y-98147639D01*
X99787174Y-98347598D01*
X99865195Y-98535956D01*
X99978463Y-98705474D01*
X99984917Y-98711928D01*
X98310000Y-98711928D01*
X98185518Y-98724188D01*
X98065820Y-98760498D01*
X97955506Y-98819463D01*
X97858815Y-98898815D01*
X97818183Y-98948325D01*
X96541457Y-97671600D01*
X96674847Y-97671600D01*
X96713400Y-97675397D01*
X96751953Y-97671600D01*
X96751961Y-97671600D01*
X96867287Y-97660241D01*
X97015260Y-97615354D01*
X97151633Y-97542462D01*
X97271164Y-97444364D01*
X97295747Y-97414411D01*
X97701684Y-97008474D01*
X97808745Y-96997929D01*
X97956582Y-96953084D01*
X98090936Y-96881270D01*
X98120506Y-96905537D01*
X98230820Y-96964502D01*
X98350518Y-97000812D01*
X98475000Y-97013072D01*
X98489250Y-97010000D01*
X98648000Y-96851250D01*
X98648000Y-95477000D01*
X98628000Y-95477000D01*
X98628000Y-95223000D01*
X98648000Y-95223000D01*
X98648000Y-95203000D01*
X98902000Y-95203000D01*
X98902000Y-95223000D01*
G36*
X108443962Y-83122786D02*
G01*
X108287952Y-83438347D01*
X109600000Y-84750395D01*
X109614143Y-84736253D01*
X109793748Y-84915858D01*
X109779605Y-84930000D01*
X109793748Y-84944143D01*
X109614143Y-85123748D01*
X109600000Y-85109605D01*
X108287952Y-86421653D01*
X108443962Y-86737214D01*
X108818745Y-86928020D01*
X109223551Y-87042044D01*
X109642824Y-87074902D01*
X110060451Y-87025334D01*
X110460383Y-86895243D01*
X110716500Y-86758347D01*
X110716501Y-92103141D01*
X109408500Y-93411143D01*
X109408500Y-90536352D01*
X109412297Y-90497799D01*
X109408500Y-90459246D01*
X109408500Y-90459239D01*
X109397141Y-90343913D01*
X109396349Y-90341300D01*
X109381564Y-90292562D01*
X109352254Y-90195940D01*
X109279362Y-90059567D01*
X109181264Y-89940036D01*
X109151315Y-89915458D01*
X108042847Y-88806990D01*
X108018264Y-88777036D01*
X108013010Y-88772724D01*
X108205656Y-88718980D01*
X108322756Y-88469952D01*
X108389023Y-88202865D01*
X108401910Y-87927983D01*
X108360922Y-87655867D01*
X108267636Y-87396977D01*
X108205656Y-87281020D01*
X107965565Y-87214040D01*
X107179605Y-88000000D01*
X107193748Y-88014143D01*
X107014143Y-88193748D01*
X107000000Y-88179605D01*
X106985858Y-88193748D01*
X106806253Y-88014143D01*
X106820395Y-88000000D01*
X106806253Y-87985858D01*
X106985858Y-87806253D01*
X107000000Y-87820395D01*
X107785960Y-87034435D01*
X107718980Y-86794344D01*
X107469952Y-86677244D01*
X107202865Y-86610977D01*
X106927983Y-86598090D01*
X106655867Y-86639078D01*
X106580402Y-86666270D01*
X106591326Y-86639898D01*
X106631100Y-86439939D01*
X106631100Y-86236061D01*
X106591326Y-86036102D01*
X106513305Y-85847744D01*
X106400037Y-85678226D01*
X106255874Y-85534063D01*
X106086356Y-85420795D01*
X105897998Y-85342774D01*
X105698039Y-85303000D01*
X105494161Y-85303000D01*
X105330000Y-85335653D01*
X105330000Y-85001855D01*
X105332859Y-84972824D01*
X107455098Y-84972824D01*
X107504666Y-85390451D01*
X107634757Y-85790383D01*
X107792786Y-86086038D01*
X108108347Y-86242048D01*
X109420395Y-84930000D01*
X108108347Y-83617952D01*
X107792786Y-83773962D01*
X107601980Y-84148745D01*
X107487956Y-84553551D01*
X107455098Y-84972824D01*
X105332859Y-84972824D01*
X105333797Y-84963300D01*
X105330000Y-84924740D01*
X105330000Y-84924739D01*
X105324945Y-84873418D01*
X105318642Y-84809413D01*
X105273754Y-84661441D01*
X105273754Y-84661440D01*
X105200862Y-84525067D01*
X105102764Y-84405536D01*
X105072811Y-84380954D01*
X104838047Y-84146190D01*
X104813464Y-84116236D01*
X104693933Y-84018138D01*
X104557560Y-83945246D01*
X104409587Y-83900359D01*
X104294261Y-83889000D01*
X104294253Y-83889000D01*
X104255700Y-83885203D01*
X104217147Y-83889000D01*
X102465825Y-83889000D01*
X102509526Y-83783498D01*
X102549300Y-83583539D01*
X102549300Y-83379661D01*
X102509526Y-83179702D01*
X102431505Y-82991344D01*
X102419783Y-82973800D01*
X108722699Y-82973800D01*
X108443962Y-83122786D01*
X108443962Y-83122786D01*
G37*
X108443962Y-83122786D02*
X108287952Y-83438347D01*
X109600000Y-84750395D01*
X109614143Y-84736253D01*
X109793748Y-84915858D01*
X109779605Y-84930000D01*
X109793748Y-84944143D01*
X109614143Y-85123748D01*
X109600000Y-85109605D01*
X108287952Y-86421653D01*
X108443962Y-86737214D01*
X108818745Y-86928020D01*
X109223551Y-87042044D01*
X109642824Y-87074902D01*
X110060451Y-87025334D01*
X110460383Y-86895243D01*
X110716500Y-86758347D01*
X110716501Y-92103141D01*
X109408500Y-93411143D01*
X109408500Y-90536352D01*
X109412297Y-90497799D01*
X109408500Y-90459246D01*
X109408500Y-90459239D01*
X109397141Y-90343913D01*
X109396349Y-90341300D01*
X109381564Y-90292562D01*
X109352254Y-90195940D01*
X109279362Y-90059567D01*
X109181264Y-89940036D01*
X109151315Y-89915458D01*
X108042847Y-88806990D01*
X108018264Y-88777036D01*
X108013010Y-88772724D01*
X108205656Y-88718980D01*
X108322756Y-88469952D01*
X108389023Y-88202865D01*
X108401910Y-87927983D01*
X108360922Y-87655867D01*
X108267636Y-87396977D01*
X108205656Y-87281020D01*
X107965565Y-87214040D01*
X107179605Y-88000000D01*
X107193748Y-88014143D01*
X107014143Y-88193748D01*
X107000000Y-88179605D01*
X106985858Y-88193748D01*
X106806253Y-88014143D01*
X106820395Y-88000000D01*
X106806253Y-87985858D01*
X106985858Y-87806253D01*
X107000000Y-87820395D01*
X107785960Y-87034435D01*
X107718980Y-86794344D01*
X107469952Y-86677244D01*
X107202865Y-86610977D01*
X106927983Y-86598090D01*
X106655867Y-86639078D01*
X106580402Y-86666270D01*
X106591326Y-86639898D01*
X106631100Y-86439939D01*
X106631100Y-86236061D01*
X106591326Y-86036102D01*
X106513305Y-85847744D01*
X106400037Y-85678226D01*
X106255874Y-85534063D01*
X106086356Y-85420795D01*
X105897998Y-85342774D01*
X105698039Y-85303000D01*
X105494161Y-85303000D01*
X105330000Y-85335653D01*
X105330000Y-85001855D01*
X105332859Y-84972824D01*
X107455098Y-84972824D01*
X107504666Y-85390451D01*
X107634757Y-85790383D01*
X107792786Y-86086038D01*
X108108347Y-86242048D01*
X109420395Y-84930000D01*
X108108347Y-83617952D01*
X107792786Y-83773962D01*
X107601980Y-84148745D01*
X107487956Y-84553551D01*
X107455098Y-84972824D01*
X105332859Y-84972824D01*
X105333797Y-84963300D01*
X105330000Y-84924740D01*
X105330000Y-84924739D01*
X105324945Y-84873418D01*
X105318642Y-84809413D01*
X105273754Y-84661441D01*
X105273754Y-84661440D01*
X105200862Y-84525067D01*
X105102764Y-84405536D01*
X105072811Y-84380954D01*
X104838047Y-84146190D01*
X104813464Y-84116236D01*
X104693933Y-84018138D01*
X104557560Y-83945246D01*
X104409587Y-83900359D01*
X104294261Y-83889000D01*
X104294253Y-83889000D01*
X104255700Y-83885203D01*
X104217147Y-83889000D01*
X102465825Y-83889000D01*
X102509526Y-83783498D01*
X102549300Y-83583539D01*
X102549300Y-83379661D01*
X102509526Y-83179702D01*
X102431505Y-82991344D01*
X102419783Y-82973800D01*
X108722699Y-82973800D01*
X108443962Y-83122786D01*
G36*
X93286065Y-83515000D02*
G01*
X92118544Y-83515000D01*
X92079989Y-83511203D01*
X92041433Y-83515000D01*
X92041428Y-83515000D01*
X92001015Y-83518980D01*
X91926102Y-83526358D01*
X91778129Y-83571246D01*
X91641756Y-83644138D01*
X91590998Y-83685795D01*
X91552176Y-83717655D01*
X91552173Y-83717658D01*
X91522225Y-83742236D01*
X91497646Y-83772185D01*
X90869564Y-84400268D01*
X90851255Y-84402071D01*
X90703418Y-84446916D01*
X90567171Y-84519742D01*
X90520000Y-84558454D01*
X90472829Y-84519742D01*
X90336582Y-84446916D01*
X90188745Y-84402071D01*
X90035000Y-84386928D01*
X89735000Y-84386928D01*
X89581255Y-84402071D01*
X89433418Y-84446916D01*
X89297171Y-84519742D01*
X89250000Y-84558454D01*
X89202829Y-84519742D01*
X89066582Y-84446916D01*
X88918745Y-84402071D01*
X88765000Y-84386928D01*
X88465000Y-84386928D01*
X88311255Y-84402071D01*
X88163418Y-84446916D01*
X88027171Y-84519742D01*
X87980000Y-84558454D01*
X87932829Y-84519742D01*
X87796582Y-84446916D01*
X87648745Y-84402071D01*
X87495000Y-84386928D01*
X87195000Y-84386928D01*
X87041255Y-84402071D01*
X86893418Y-84446916D01*
X86757171Y-84519742D01*
X86637749Y-84617749D01*
X86539742Y-84737171D01*
X86466916Y-84873418D01*
X86422071Y-85021255D01*
X86406928Y-85175000D01*
X86406928Y-85877915D01*
X84392490Y-87892353D01*
X84362536Y-87916936D01*
X84264438Y-88036468D01*
X84191546Y-88172841D01*
X84146659Y-88320814D01*
X84135300Y-88436140D01*
X84135300Y-88436147D01*
X84131503Y-88474700D01*
X84135300Y-88513253D01*
X84135300Y-92049262D01*
X84062805Y-91874244D01*
X83949537Y-91704726D01*
X83805374Y-91560563D01*
X83635856Y-91447295D01*
X83447498Y-91369274D01*
X83247539Y-91329500D01*
X83043661Y-91329500D01*
X82843702Y-91369274D01*
X82655344Y-91447295D01*
X82485826Y-91560563D01*
X82466989Y-91579400D01*
X79789558Y-91579400D01*
X79072238Y-90862080D01*
X79097000Y-90737592D01*
X79097000Y-90591984D01*
X79240861Y-90620600D01*
X79444739Y-90620600D01*
X79644698Y-90580826D01*
X79833056Y-90502805D01*
X80002574Y-90389537D01*
X80146737Y-90245374D01*
X80260005Y-90075856D01*
X80338026Y-89887498D01*
X80377800Y-89687539D01*
X80377800Y-89660757D01*
X86564457Y-83474100D01*
X93326965Y-83474100D01*
X93286065Y-83515000D01*
X93286065Y-83515000D01*
G37*
X93286065Y-83515000D02*
X92118544Y-83515000D01*
X92079989Y-83511203D01*
X92041433Y-83515000D01*
X92041428Y-83515000D01*
X92001015Y-83518980D01*
X91926102Y-83526358D01*
X91778129Y-83571246D01*
X91641756Y-83644138D01*
X91590998Y-83685795D01*
X91552176Y-83717655D01*
X91552173Y-83717658D01*
X91522225Y-83742236D01*
X91497646Y-83772185D01*
X90869564Y-84400268D01*
X90851255Y-84402071D01*
X90703418Y-84446916D01*
X90567171Y-84519742D01*
X90520000Y-84558454D01*
X90472829Y-84519742D01*
X90336582Y-84446916D01*
X90188745Y-84402071D01*
X90035000Y-84386928D01*
X89735000Y-84386928D01*
X89581255Y-84402071D01*
X89433418Y-84446916D01*
X89297171Y-84519742D01*
X89250000Y-84558454D01*
X89202829Y-84519742D01*
X89066582Y-84446916D01*
X88918745Y-84402071D01*
X88765000Y-84386928D01*
X88465000Y-84386928D01*
X88311255Y-84402071D01*
X88163418Y-84446916D01*
X88027171Y-84519742D01*
X87980000Y-84558454D01*
X87932829Y-84519742D01*
X87796582Y-84446916D01*
X87648745Y-84402071D01*
X87495000Y-84386928D01*
X87195000Y-84386928D01*
X87041255Y-84402071D01*
X86893418Y-84446916D01*
X86757171Y-84519742D01*
X86637749Y-84617749D01*
X86539742Y-84737171D01*
X86466916Y-84873418D01*
X86422071Y-85021255D01*
X86406928Y-85175000D01*
X86406928Y-85877915D01*
X84392490Y-87892353D01*
X84362536Y-87916936D01*
X84264438Y-88036468D01*
X84191546Y-88172841D01*
X84146659Y-88320814D01*
X84135300Y-88436140D01*
X84135300Y-88436147D01*
X84131503Y-88474700D01*
X84135300Y-88513253D01*
X84135300Y-92049262D01*
X84062805Y-91874244D01*
X83949537Y-91704726D01*
X83805374Y-91560563D01*
X83635856Y-91447295D01*
X83447498Y-91369274D01*
X83247539Y-91329500D01*
X83043661Y-91329500D01*
X82843702Y-91369274D01*
X82655344Y-91447295D01*
X82485826Y-91560563D01*
X82466989Y-91579400D01*
X79789558Y-91579400D01*
X79072238Y-90862080D01*
X79097000Y-90737592D01*
X79097000Y-90591984D01*
X79240861Y-90620600D01*
X79444739Y-90620600D01*
X79644698Y-90580826D01*
X79833056Y-90502805D01*
X80002574Y-90389537D01*
X80146737Y-90245374D01*
X80260005Y-90075856D01*
X80338026Y-89887498D01*
X80377800Y-89687539D01*
X80377800Y-89660757D01*
X86564457Y-83474100D01*
X93326965Y-83474100D01*
X93286065Y-83515000D01*
G36*
X100854526Y-84285537D02*
G01*
X101024044Y-84398805D01*
X101027957Y-84400426D01*
X101011255Y-84402071D01*
X100863418Y-84446916D01*
X100727171Y-84519742D01*
X100680000Y-84558454D01*
X100632829Y-84519742D01*
X100496582Y-84446916D01*
X100348745Y-84402071D01*
X100195000Y-84386928D01*
X99895000Y-84386928D01*
X99741255Y-84402071D01*
X99593418Y-84446916D01*
X99457171Y-84519742D01*
X99410000Y-84558454D01*
X99362829Y-84519742D01*
X99226582Y-84446916D01*
X99078745Y-84402071D01*
X98925000Y-84386928D01*
X98625000Y-84386928D01*
X98471255Y-84402071D01*
X98323418Y-84446916D01*
X98187171Y-84519742D01*
X98140000Y-84558454D01*
X98092829Y-84519742D01*
X97956582Y-84446916D01*
X97808745Y-84402071D01*
X97655000Y-84386928D01*
X97355000Y-84386928D01*
X97201255Y-84402071D01*
X97053418Y-84446916D01*
X96919064Y-84518730D01*
X96889494Y-84494463D01*
X96779180Y-84435498D01*
X96659482Y-84399188D01*
X96535000Y-84386928D01*
X96520750Y-84390000D01*
X96362000Y-84548750D01*
X96362000Y-85923000D01*
X96382000Y-85923000D01*
X96382000Y-86177000D01*
X96362000Y-86177000D01*
X96362000Y-86197000D01*
X96108000Y-86197000D01*
X96108000Y-86177000D01*
X96088000Y-86177000D01*
X96088000Y-85923000D01*
X96108000Y-85923000D01*
X96108000Y-84548750D01*
X95949250Y-84390000D01*
X95935000Y-84386928D01*
X95810518Y-84399188D01*
X95690820Y-84435498D01*
X95580506Y-84494463D01*
X95550936Y-84518730D01*
X95416582Y-84446916D01*
X95268745Y-84402071D01*
X95115000Y-84386928D01*
X94815000Y-84386928D01*
X94661255Y-84402071D01*
X94601044Y-84420335D01*
X94754780Y-84266600D01*
X100835589Y-84266600D01*
X100854526Y-84285537D01*
X100854526Y-84285537D01*
G37*
X100854526Y-84285537D02*
X101024044Y-84398805D01*
X101027957Y-84400426D01*
X101011255Y-84402071D01*
X100863418Y-84446916D01*
X100727171Y-84519742D01*
X100680000Y-84558454D01*
X100632829Y-84519742D01*
X100496582Y-84446916D01*
X100348745Y-84402071D01*
X100195000Y-84386928D01*
X99895000Y-84386928D01*
X99741255Y-84402071D01*
X99593418Y-84446916D01*
X99457171Y-84519742D01*
X99410000Y-84558454D01*
X99362829Y-84519742D01*
X99226582Y-84446916D01*
X99078745Y-84402071D01*
X98925000Y-84386928D01*
X98625000Y-84386928D01*
X98471255Y-84402071D01*
X98323418Y-84446916D01*
X98187171Y-84519742D01*
X98140000Y-84558454D01*
X98092829Y-84519742D01*
X97956582Y-84446916D01*
X97808745Y-84402071D01*
X97655000Y-84386928D01*
X97355000Y-84386928D01*
X97201255Y-84402071D01*
X97053418Y-84446916D01*
X96919064Y-84518730D01*
X96889494Y-84494463D01*
X96779180Y-84435498D01*
X96659482Y-84399188D01*
X96535000Y-84386928D01*
X96520750Y-84390000D01*
X96362000Y-84548750D01*
X96362000Y-85923000D01*
X96382000Y-85923000D01*
X96382000Y-86177000D01*
X96362000Y-86177000D01*
X96362000Y-86197000D01*
X96108000Y-86197000D01*
X96108000Y-86177000D01*
X96088000Y-86177000D01*
X96088000Y-85923000D01*
X96108000Y-85923000D01*
X96108000Y-84548750D01*
X95949250Y-84390000D01*
X95935000Y-84386928D01*
X95810518Y-84399188D01*
X95690820Y-84435498D01*
X95580506Y-84494463D01*
X95550936Y-84518730D01*
X95416582Y-84446916D01*
X95268745Y-84402071D01*
X95115000Y-84386928D01*
X94815000Y-84386928D01*
X94661255Y-84402071D01*
X94601044Y-84420335D01*
X94754780Y-84266600D01*
X100835589Y-84266600D01*
X100854526Y-84285537D01*
M02*
