G04 #@! TF.GenerationSoftware,KiCad,Pcbnew,(5.1.2)-1*
G04 #@! TF.CreationDate,2021-07-24T10:23:43+09:00*
G04 #@! TF.ProjectId,PS2USB,50533255-5342-42e6-9b69-6361645f7063,v2.1*
G04 #@! TF.SameCoordinates,Original*
G04 #@! TF.FileFunction,Soldermask,Bot*
G04 #@! TF.FilePolarity,Negative*
%FSLAX46Y46*%
G04 Gerber Fmt 4.6, Leading zero omitted, Abs format (unit mm)*
G04 Created by KiCad (PCBNEW (5.1.2)-1) date 2021-07-24 10:23:43*
%MOMM*%
%LPD*%
G04 APERTURE LIST*
%ADD10C,1.924000*%
%ADD11O,3.400000X1.900000*%
%ADD12C,2.400000*%
%ADD13O,2.100000X2.100000*%
%ADD14R,2.100000X2.100000*%
%ADD15C,3.400000*%
%ADD16C,0.050000*%
%ADD17C,1.000000*%
G04 APERTURE END LIST*
D10*
X77700000Y-95100000D03*
X77700000Y-92600000D03*
X77700000Y-90600000D03*
X77700000Y-88100000D03*
D11*
X75300000Y-85700000D03*
X75300000Y-97500000D03*
D12*
X75300000Y-89350000D03*
X75300000Y-93850000D03*
D13*
X104240000Y-100200000D03*
X101700000Y-100200000D03*
D14*
X99160000Y-100200000D03*
D13*
X95560000Y-100200000D03*
X93020000Y-100200000D03*
X90480000Y-100200000D03*
X87940000Y-100200000D03*
D14*
X85400000Y-100200000D03*
D10*
X107000000Y-95000000D03*
X107000000Y-92500000D03*
X107000000Y-90500000D03*
X107000000Y-88000000D03*
D15*
X109600000Y-98070000D03*
X109600000Y-84930000D03*
D16*
G36*
X87619504Y-84826204D02*
G01*
X87643773Y-84829804D01*
X87667571Y-84835765D01*
X87690671Y-84844030D01*
X87712849Y-84854520D01*
X87733893Y-84867133D01*
X87753598Y-84881747D01*
X87771777Y-84898223D01*
X87788253Y-84916402D01*
X87802867Y-84936107D01*
X87815480Y-84957151D01*
X87825970Y-84979329D01*
X87834235Y-85002429D01*
X87840196Y-85026227D01*
X87843796Y-85050496D01*
X87845000Y-85075000D01*
X87845000Y-87025000D01*
X87843796Y-87049504D01*
X87840196Y-87073773D01*
X87834235Y-87097571D01*
X87825970Y-87120671D01*
X87815480Y-87142849D01*
X87802867Y-87163893D01*
X87788253Y-87183598D01*
X87771777Y-87201777D01*
X87753598Y-87218253D01*
X87733893Y-87232867D01*
X87712849Y-87245480D01*
X87690671Y-87255970D01*
X87667571Y-87264235D01*
X87643773Y-87270196D01*
X87619504Y-87273796D01*
X87595000Y-87275000D01*
X87095000Y-87275000D01*
X87070496Y-87273796D01*
X87046227Y-87270196D01*
X87022429Y-87264235D01*
X86999329Y-87255970D01*
X86977151Y-87245480D01*
X86956107Y-87232867D01*
X86936402Y-87218253D01*
X86918223Y-87201777D01*
X86901747Y-87183598D01*
X86887133Y-87163893D01*
X86874520Y-87142849D01*
X86864030Y-87120671D01*
X86855765Y-87097571D01*
X86849804Y-87073773D01*
X86846204Y-87049504D01*
X86845000Y-87025000D01*
X86845000Y-85075000D01*
X86846204Y-85050496D01*
X86849804Y-85026227D01*
X86855765Y-85002429D01*
X86864030Y-84979329D01*
X86874520Y-84957151D01*
X86887133Y-84936107D01*
X86901747Y-84916402D01*
X86918223Y-84898223D01*
X86936402Y-84881747D01*
X86956107Y-84867133D01*
X86977151Y-84854520D01*
X86999329Y-84844030D01*
X87022429Y-84835765D01*
X87046227Y-84829804D01*
X87070496Y-84826204D01*
X87095000Y-84825000D01*
X87595000Y-84825000D01*
X87619504Y-84826204D01*
X87619504Y-84826204D01*
G37*
D17*
X87345000Y-86050000D03*
D16*
G36*
X88889504Y-84826204D02*
G01*
X88913773Y-84829804D01*
X88937571Y-84835765D01*
X88960671Y-84844030D01*
X88982849Y-84854520D01*
X89003893Y-84867133D01*
X89023598Y-84881747D01*
X89041777Y-84898223D01*
X89058253Y-84916402D01*
X89072867Y-84936107D01*
X89085480Y-84957151D01*
X89095970Y-84979329D01*
X89104235Y-85002429D01*
X89110196Y-85026227D01*
X89113796Y-85050496D01*
X89115000Y-85075000D01*
X89115000Y-87025000D01*
X89113796Y-87049504D01*
X89110196Y-87073773D01*
X89104235Y-87097571D01*
X89095970Y-87120671D01*
X89085480Y-87142849D01*
X89072867Y-87163893D01*
X89058253Y-87183598D01*
X89041777Y-87201777D01*
X89023598Y-87218253D01*
X89003893Y-87232867D01*
X88982849Y-87245480D01*
X88960671Y-87255970D01*
X88937571Y-87264235D01*
X88913773Y-87270196D01*
X88889504Y-87273796D01*
X88865000Y-87275000D01*
X88365000Y-87275000D01*
X88340496Y-87273796D01*
X88316227Y-87270196D01*
X88292429Y-87264235D01*
X88269329Y-87255970D01*
X88247151Y-87245480D01*
X88226107Y-87232867D01*
X88206402Y-87218253D01*
X88188223Y-87201777D01*
X88171747Y-87183598D01*
X88157133Y-87163893D01*
X88144520Y-87142849D01*
X88134030Y-87120671D01*
X88125765Y-87097571D01*
X88119804Y-87073773D01*
X88116204Y-87049504D01*
X88115000Y-87025000D01*
X88115000Y-85075000D01*
X88116204Y-85050496D01*
X88119804Y-85026227D01*
X88125765Y-85002429D01*
X88134030Y-84979329D01*
X88144520Y-84957151D01*
X88157133Y-84936107D01*
X88171747Y-84916402D01*
X88188223Y-84898223D01*
X88206402Y-84881747D01*
X88226107Y-84867133D01*
X88247151Y-84854520D01*
X88269329Y-84844030D01*
X88292429Y-84835765D01*
X88316227Y-84829804D01*
X88340496Y-84826204D01*
X88365000Y-84825000D01*
X88865000Y-84825000D01*
X88889504Y-84826204D01*
X88889504Y-84826204D01*
G37*
D17*
X88615000Y-86050000D03*
D16*
G36*
X90159504Y-84826204D02*
G01*
X90183773Y-84829804D01*
X90207571Y-84835765D01*
X90230671Y-84844030D01*
X90252849Y-84854520D01*
X90273893Y-84867133D01*
X90293598Y-84881747D01*
X90311777Y-84898223D01*
X90328253Y-84916402D01*
X90342867Y-84936107D01*
X90355480Y-84957151D01*
X90365970Y-84979329D01*
X90374235Y-85002429D01*
X90380196Y-85026227D01*
X90383796Y-85050496D01*
X90385000Y-85075000D01*
X90385000Y-87025000D01*
X90383796Y-87049504D01*
X90380196Y-87073773D01*
X90374235Y-87097571D01*
X90365970Y-87120671D01*
X90355480Y-87142849D01*
X90342867Y-87163893D01*
X90328253Y-87183598D01*
X90311777Y-87201777D01*
X90293598Y-87218253D01*
X90273893Y-87232867D01*
X90252849Y-87245480D01*
X90230671Y-87255970D01*
X90207571Y-87264235D01*
X90183773Y-87270196D01*
X90159504Y-87273796D01*
X90135000Y-87275000D01*
X89635000Y-87275000D01*
X89610496Y-87273796D01*
X89586227Y-87270196D01*
X89562429Y-87264235D01*
X89539329Y-87255970D01*
X89517151Y-87245480D01*
X89496107Y-87232867D01*
X89476402Y-87218253D01*
X89458223Y-87201777D01*
X89441747Y-87183598D01*
X89427133Y-87163893D01*
X89414520Y-87142849D01*
X89404030Y-87120671D01*
X89395765Y-87097571D01*
X89389804Y-87073773D01*
X89386204Y-87049504D01*
X89385000Y-87025000D01*
X89385000Y-85075000D01*
X89386204Y-85050496D01*
X89389804Y-85026227D01*
X89395765Y-85002429D01*
X89404030Y-84979329D01*
X89414520Y-84957151D01*
X89427133Y-84936107D01*
X89441747Y-84916402D01*
X89458223Y-84898223D01*
X89476402Y-84881747D01*
X89496107Y-84867133D01*
X89517151Y-84854520D01*
X89539329Y-84844030D01*
X89562429Y-84835765D01*
X89586227Y-84829804D01*
X89610496Y-84826204D01*
X89635000Y-84825000D01*
X90135000Y-84825000D01*
X90159504Y-84826204D01*
X90159504Y-84826204D01*
G37*
D17*
X89885000Y-86050000D03*
D16*
G36*
X91429504Y-84826204D02*
G01*
X91453773Y-84829804D01*
X91477571Y-84835765D01*
X91500671Y-84844030D01*
X91522849Y-84854520D01*
X91543893Y-84867133D01*
X91563598Y-84881747D01*
X91581777Y-84898223D01*
X91598253Y-84916402D01*
X91612867Y-84936107D01*
X91625480Y-84957151D01*
X91635970Y-84979329D01*
X91644235Y-85002429D01*
X91650196Y-85026227D01*
X91653796Y-85050496D01*
X91655000Y-85075000D01*
X91655000Y-87025000D01*
X91653796Y-87049504D01*
X91650196Y-87073773D01*
X91644235Y-87097571D01*
X91635970Y-87120671D01*
X91625480Y-87142849D01*
X91612867Y-87163893D01*
X91598253Y-87183598D01*
X91581777Y-87201777D01*
X91563598Y-87218253D01*
X91543893Y-87232867D01*
X91522849Y-87245480D01*
X91500671Y-87255970D01*
X91477571Y-87264235D01*
X91453773Y-87270196D01*
X91429504Y-87273796D01*
X91405000Y-87275000D01*
X90905000Y-87275000D01*
X90880496Y-87273796D01*
X90856227Y-87270196D01*
X90832429Y-87264235D01*
X90809329Y-87255970D01*
X90787151Y-87245480D01*
X90766107Y-87232867D01*
X90746402Y-87218253D01*
X90728223Y-87201777D01*
X90711747Y-87183598D01*
X90697133Y-87163893D01*
X90684520Y-87142849D01*
X90674030Y-87120671D01*
X90665765Y-87097571D01*
X90659804Y-87073773D01*
X90656204Y-87049504D01*
X90655000Y-87025000D01*
X90655000Y-85075000D01*
X90656204Y-85050496D01*
X90659804Y-85026227D01*
X90665765Y-85002429D01*
X90674030Y-84979329D01*
X90684520Y-84957151D01*
X90697133Y-84936107D01*
X90711747Y-84916402D01*
X90728223Y-84898223D01*
X90746402Y-84881747D01*
X90766107Y-84867133D01*
X90787151Y-84854520D01*
X90809329Y-84844030D01*
X90832429Y-84835765D01*
X90856227Y-84829804D01*
X90880496Y-84826204D01*
X90905000Y-84825000D01*
X91405000Y-84825000D01*
X91429504Y-84826204D01*
X91429504Y-84826204D01*
G37*
D17*
X91155000Y-86050000D03*
D16*
G36*
X92699504Y-84826204D02*
G01*
X92723773Y-84829804D01*
X92747571Y-84835765D01*
X92770671Y-84844030D01*
X92792849Y-84854520D01*
X92813893Y-84867133D01*
X92833598Y-84881747D01*
X92851777Y-84898223D01*
X92868253Y-84916402D01*
X92882867Y-84936107D01*
X92895480Y-84957151D01*
X92905970Y-84979329D01*
X92914235Y-85002429D01*
X92920196Y-85026227D01*
X92923796Y-85050496D01*
X92925000Y-85075000D01*
X92925000Y-87025000D01*
X92923796Y-87049504D01*
X92920196Y-87073773D01*
X92914235Y-87097571D01*
X92905970Y-87120671D01*
X92895480Y-87142849D01*
X92882867Y-87163893D01*
X92868253Y-87183598D01*
X92851777Y-87201777D01*
X92833598Y-87218253D01*
X92813893Y-87232867D01*
X92792849Y-87245480D01*
X92770671Y-87255970D01*
X92747571Y-87264235D01*
X92723773Y-87270196D01*
X92699504Y-87273796D01*
X92675000Y-87275000D01*
X92175000Y-87275000D01*
X92150496Y-87273796D01*
X92126227Y-87270196D01*
X92102429Y-87264235D01*
X92079329Y-87255970D01*
X92057151Y-87245480D01*
X92036107Y-87232867D01*
X92016402Y-87218253D01*
X91998223Y-87201777D01*
X91981747Y-87183598D01*
X91967133Y-87163893D01*
X91954520Y-87142849D01*
X91944030Y-87120671D01*
X91935765Y-87097571D01*
X91929804Y-87073773D01*
X91926204Y-87049504D01*
X91925000Y-87025000D01*
X91925000Y-85075000D01*
X91926204Y-85050496D01*
X91929804Y-85026227D01*
X91935765Y-85002429D01*
X91944030Y-84979329D01*
X91954520Y-84957151D01*
X91967133Y-84936107D01*
X91981747Y-84916402D01*
X91998223Y-84898223D01*
X92016402Y-84881747D01*
X92036107Y-84867133D01*
X92057151Y-84854520D01*
X92079329Y-84844030D01*
X92102429Y-84835765D01*
X92126227Y-84829804D01*
X92150496Y-84826204D01*
X92175000Y-84825000D01*
X92675000Y-84825000D01*
X92699504Y-84826204D01*
X92699504Y-84826204D01*
G37*
D17*
X92425000Y-86050000D03*
D16*
G36*
X93969504Y-84826204D02*
G01*
X93993773Y-84829804D01*
X94017571Y-84835765D01*
X94040671Y-84844030D01*
X94062849Y-84854520D01*
X94083893Y-84867133D01*
X94103598Y-84881747D01*
X94121777Y-84898223D01*
X94138253Y-84916402D01*
X94152867Y-84936107D01*
X94165480Y-84957151D01*
X94175970Y-84979329D01*
X94184235Y-85002429D01*
X94190196Y-85026227D01*
X94193796Y-85050496D01*
X94195000Y-85075000D01*
X94195000Y-87025000D01*
X94193796Y-87049504D01*
X94190196Y-87073773D01*
X94184235Y-87097571D01*
X94175970Y-87120671D01*
X94165480Y-87142849D01*
X94152867Y-87163893D01*
X94138253Y-87183598D01*
X94121777Y-87201777D01*
X94103598Y-87218253D01*
X94083893Y-87232867D01*
X94062849Y-87245480D01*
X94040671Y-87255970D01*
X94017571Y-87264235D01*
X93993773Y-87270196D01*
X93969504Y-87273796D01*
X93945000Y-87275000D01*
X93445000Y-87275000D01*
X93420496Y-87273796D01*
X93396227Y-87270196D01*
X93372429Y-87264235D01*
X93349329Y-87255970D01*
X93327151Y-87245480D01*
X93306107Y-87232867D01*
X93286402Y-87218253D01*
X93268223Y-87201777D01*
X93251747Y-87183598D01*
X93237133Y-87163893D01*
X93224520Y-87142849D01*
X93214030Y-87120671D01*
X93205765Y-87097571D01*
X93199804Y-87073773D01*
X93196204Y-87049504D01*
X93195000Y-87025000D01*
X93195000Y-85075000D01*
X93196204Y-85050496D01*
X93199804Y-85026227D01*
X93205765Y-85002429D01*
X93214030Y-84979329D01*
X93224520Y-84957151D01*
X93237133Y-84936107D01*
X93251747Y-84916402D01*
X93268223Y-84898223D01*
X93286402Y-84881747D01*
X93306107Y-84867133D01*
X93327151Y-84854520D01*
X93349329Y-84844030D01*
X93372429Y-84835765D01*
X93396227Y-84829804D01*
X93420496Y-84826204D01*
X93445000Y-84825000D01*
X93945000Y-84825000D01*
X93969504Y-84826204D01*
X93969504Y-84826204D01*
G37*
D17*
X93695000Y-86050000D03*
D16*
G36*
X95239504Y-84826204D02*
G01*
X95263773Y-84829804D01*
X95287571Y-84835765D01*
X95310671Y-84844030D01*
X95332849Y-84854520D01*
X95353893Y-84867133D01*
X95373598Y-84881747D01*
X95391777Y-84898223D01*
X95408253Y-84916402D01*
X95422867Y-84936107D01*
X95435480Y-84957151D01*
X95445970Y-84979329D01*
X95454235Y-85002429D01*
X95460196Y-85026227D01*
X95463796Y-85050496D01*
X95465000Y-85075000D01*
X95465000Y-87025000D01*
X95463796Y-87049504D01*
X95460196Y-87073773D01*
X95454235Y-87097571D01*
X95445970Y-87120671D01*
X95435480Y-87142849D01*
X95422867Y-87163893D01*
X95408253Y-87183598D01*
X95391777Y-87201777D01*
X95373598Y-87218253D01*
X95353893Y-87232867D01*
X95332849Y-87245480D01*
X95310671Y-87255970D01*
X95287571Y-87264235D01*
X95263773Y-87270196D01*
X95239504Y-87273796D01*
X95215000Y-87275000D01*
X94715000Y-87275000D01*
X94690496Y-87273796D01*
X94666227Y-87270196D01*
X94642429Y-87264235D01*
X94619329Y-87255970D01*
X94597151Y-87245480D01*
X94576107Y-87232867D01*
X94556402Y-87218253D01*
X94538223Y-87201777D01*
X94521747Y-87183598D01*
X94507133Y-87163893D01*
X94494520Y-87142849D01*
X94484030Y-87120671D01*
X94475765Y-87097571D01*
X94469804Y-87073773D01*
X94466204Y-87049504D01*
X94465000Y-87025000D01*
X94465000Y-85075000D01*
X94466204Y-85050496D01*
X94469804Y-85026227D01*
X94475765Y-85002429D01*
X94484030Y-84979329D01*
X94494520Y-84957151D01*
X94507133Y-84936107D01*
X94521747Y-84916402D01*
X94538223Y-84898223D01*
X94556402Y-84881747D01*
X94576107Y-84867133D01*
X94597151Y-84854520D01*
X94619329Y-84844030D01*
X94642429Y-84835765D01*
X94666227Y-84829804D01*
X94690496Y-84826204D01*
X94715000Y-84825000D01*
X95215000Y-84825000D01*
X95239504Y-84826204D01*
X95239504Y-84826204D01*
G37*
D17*
X94965000Y-86050000D03*
D16*
G36*
X96509504Y-84826204D02*
G01*
X96533773Y-84829804D01*
X96557571Y-84835765D01*
X96580671Y-84844030D01*
X96602849Y-84854520D01*
X96623893Y-84867133D01*
X96643598Y-84881747D01*
X96661777Y-84898223D01*
X96678253Y-84916402D01*
X96692867Y-84936107D01*
X96705480Y-84957151D01*
X96715970Y-84979329D01*
X96724235Y-85002429D01*
X96730196Y-85026227D01*
X96733796Y-85050496D01*
X96735000Y-85075000D01*
X96735000Y-87025000D01*
X96733796Y-87049504D01*
X96730196Y-87073773D01*
X96724235Y-87097571D01*
X96715970Y-87120671D01*
X96705480Y-87142849D01*
X96692867Y-87163893D01*
X96678253Y-87183598D01*
X96661777Y-87201777D01*
X96643598Y-87218253D01*
X96623893Y-87232867D01*
X96602849Y-87245480D01*
X96580671Y-87255970D01*
X96557571Y-87264235D01*
X96533773Y-87270196D01*
X96509504Y-87273796D01*
X96485000Y-87275000D01*
X95985000Y-87275000D01*
X95960496Y-87273796D01*
X95936227Y-87270196D01*
X95912429Y-87264235D01*
X95889329Y-87255970D01*
X95867151Y-87245480D01*
X95846107Y-87232867D01*
X95826402Y-87218253D01*
X95808223Y-87201777D01*
X95791747Y-87183598D01*
X95777133Y-87163893D01*
X95764520Y-87142849D01*
X95754030Y-87120671D01*
X95745765Y-87097571D01*
X95739804Y-87073773D01*
X95736204Y-87049504D01*
X95735000Y-87025000D01*
X95735000Y-85075000D01*
X95736204Y-85050496D01*
X95739804Y-85026227D01*
X95745765Y-85002429D01*
X95754030Y-84979329D01*
X95764520Y-84957151D01*
X95777133Y-84936107D01*
X95791747Y-84916402D01*
X95808223Y-84898223D01*
X95826402Y-84881747D01*
X95846107Y-84867133D01*
X95867151Y-84854520D01*
X95889329Y-84844030D01*
X95912429Y-84835765D01*
X95936227Y-84829804D01*
X95960496Y-84826204D01*
X95985000Y-84825000D01*
X96485000Y-84825000D01*
X96509504Y-84826204D01*
X96509504Y-84826204D01*
G37*
D17*
X96235000Y-86050000D03*
D16*
G36*
X97779504Y-84826204D02*
G01*
X97803773Y-84829804D01*
X97827571Y-84835765D01*
X97850671Y-84844030D01*
X97872849Y-84854520D01*
X97893893Y-84867133D01*
X97913598Y-84881747D01*
X97931777Y-84898223D01*
X97948253Y-84916402D01*
X97962867Y-84936107D01*
X97975480Y-84957151D01*
X97985970Y-84979329D01*
X97994235Y-85002429D01*
X98000196Y-85026227D01*
X98003796Y-85050496D01*
X98005000Y-85075000D01*
X98005000Y-87025000D01*
X98003796Y-87049504D01*
X98000196Y-87073773D01*
X97994235Y-87097571D01*
X97985970Y-87120671D01*
X97975480Y-87142849D01*
X97962867Y-87163893D01*
X97948253Y-87183598D01*
X97931777Y-87201777D01*
X97913598Y-87218253D01*
X97893893Y-87232867D01*
X97872849Y-87245480D01*
X97850671Y-87255970D01*
X97827571Y-87264235D01*
X97803773Y-87270196D01*
X97779504Y-87273796D01*
X97755000Y-87275000D01*
X97255000Y-87275000D01*
X97230496Y-87273796D01*
X97206227Y-87270196D01*
X97182429Y-87264235D01*
X97159329Y-87255970D01*
X97137151Y-87245480D01*
X97116107Y-87232867D01*
X97096402Y-87218253D01*
X97078223Y-87201777D01*
X97061747Y-87183598D01*
X97047133Y-87163893D01*
X97034520Y-87142849D01*
X97024030Y-87120671D01*
X97015765Y-87097571D01*
X97009804Y-87073773D01*
X97006204Y-87049504D01*
X97005000Y-87025000D01*
X97005000Y-85075000D01*
X97006204Y-85050496D01*
X97009804Y-85026227D01*
X97015765Y-85002429D01*
X97024030Y-84979329D01*
X97034520Y-84957151D01*
X97047133Y-84936107D01*
X97061747Y-84916402D01*
X97078223Y-84898223D01*
X97096402Y-84881747D01*
X97116107Y-84867133D01*
X97137151Y-84854520D01*
X97159329Y-84844030D01*
X97182429Y-84835765D01*
X97206227Y-84829804D01*
X97230496Y-84826204D01*
X97255000Y-84825000D01*
X97755000Y-84825000D01*
X97779504Y-84826204D01*
X97779504Y-84826204D01*
G37*
D17*
X97505000Y-86050000D03*
D16*
G36*
X99049504Y-84826204D02*
G01*
X99073773Y-84829804D01*
X99097571Y-84835765D01*
X99120671Y-84844030D01*
X99142849Y-84854520D01*
X99163893Y-84867133D01*
X99183598Y-84881747D01*
X99201777Y-84898223D01*
X99218253Y-84916402D01*
X99232867Y-84936107D01*
X99245480Y-84957151D01*
X99255970Y-84979329D01*
X99264235Y-85002429D01*
X99270196Y-85026227D01*
X99273796Y-85050496D01*
X99275000Y-85075000D01*
X99275000Y-87025000D01*
X99273796Y-87049504D01*
X99270196Y-87073773D01*
X99264235Y-87097571D01*
X99255970Y-87120671D01*
X99245480Y-87142849D01*
X99232867Y-87163893D01*
X99218253Y-87183598D01*
X99201777Y-87201777D01*
X99183598Y-87218253D01*
X99163893Y-87232867D01*
X99142849Y-87245480D01*
X99120671Y-87255970D01*
X99097571Y-87264235D01*
X99073773Y-87270196D01*
X99049504Y-87273796D01*
X99025000Y-87275000D01*
X98525000Y-87275000D01*
X98500496Y-87273796D01*
X98476227Y-87270196D01*
X98452429Y-87264235D01*
X98429329Y-87255970D01*
X98407151Y-87245480D01*
X98386107Y-87232867D01*
X98366402Y-87218253D01*
X98348223Y-87201777D01*
X98331747Y-87183598D01*
X98317133Y-87163893D01*
X98304520Y-87142849D01*
X98294030Y-87120671D01*
X98285765Y-87097571D01*
X98279804Y-87073773D01*
X98276204Y-87049504D01*
X98275000Y-87025000D01*
X98275000Y-85075000D01*
X98276204Y-85050496D01*
X98279804Y-85026227D01*
X98285765Y-85002429D01*
X98294030Y-84979329D01*
X98304520Y-84957151D01*
X98317133Y-84936107D01*
X98331747Y-84916402D01*
X98348223Y-84898223D01*
X98366402Y-84881747D01*
X98386107Y-84867133D01*
X98407151Y-84854520D01*
X98429329Y-84844030D01*
X98452429Y-84835765D01*
X98476227Y-84829804D01*
X98500496Y-84826204D01*
X98525000Y-84825000D01*
X99025000Y-84825000D01*
X99049504Y-84826204D01*
X99049504Y-84826204D01*
G37*
D17*
X98775000Y-86050000D03*
D16*
G36*
X100319504Y-84826204D02*
G01*
X100343773Y-84829804D01*
X100367571Y-84835765D01*
X100390671Y-84844030D01*
X100412849Y-84854520D01*
X100433893Y-84867133D01*
X100453598Y-84881747D01*
X100471777Y-84898223D01*
X100488253Y-84916402D01*
X100502867Y-84936107D01*
X100515480Y-84957151D01*
X100525970Y-84979329D01*
X100534235Y-85002429D01*
X100540196Y-85026227D01*
X100543796Y-85050496D01*
X100545000Y-85075000D01*
X100545000Y-87025000D01*
X100543796Y-87049504D01*
X100540196Y-87073773D01*
X100534235Y-87097571D01*
X100525970Y-87120671D01*
X100515480Y-87142849D01*
X100502867Y-87163893D01*
X100488253Y-87183598D01*
X100471777Y-87201777D01*
X100453598Y-87218253D01*
X100433893Y-87232867D01*
X100412849Y-87245480D01*
X100390671Y-87255970D01*
X100367571Y-87264235D01*
X100343773Y-87270196D01*
X100319504Y-87273796D01*
X100295000Y-87275000D01*
X99795000Y-87275000D01*
X99770496Y-87273796D01*
X99746227Y-87270196D01*
X99722429Y-87264235D01*
X99699329Y-87255970D01*
X99677151Y-87245480D01*
X99656107Y-87232867D01*
X99636402Y-87218253D01*
X99618223Y-87201777D01*
X99601747Y-87183598D01*
X99587133Y-87163893D01*
X99574520Y-87142849D01*
X99564030Y-87120671D01*
X99555765Y-87097571D01*
X99549804Y-87073773D01*
X99546204Y-87049504D01*
X99545000Y-87025000D01*
X99545000Y-85075000D01*
X99546204Y-85050496D01*
X99549804Y-85026227D01*
X99555765Y-85002429D01*
X99564030Y-84979329D01*
X99574520Y-84957151D01*
X99587133Y-84936107D01*
X99601747Y-84916402D01*
X99618223Y-84898223D01*
X99636402Y-84881747D01*
X99656107Y-84867133D01*
X99677151Y-84854520D01*
X99699329Y-84844030D01*
X99722429Y-84835765D01*
X99746227Y-84829804D01*
X99770496Y-84826204D01*
X99795000Y-84825000D01*
X100295000Y-84825000D01*
X100319504Y-84826204D01*
X100319504Y-84826204D01*
G37*
D17*
X100045000Y-86050000D03*
D16*
G36*
X101589504Y-84826204D02*
G01*
X101613773Y-84829804D01*
X101637571Y-84835765D01*
X101660671Y-84844030D01*
X101682849Y-84854520D01*
X101703893Y-84867133D01*
X101723598Y-84881747D01*
X101741777Y-84898223D01*
X101758253Y-84916402D01*
X101772867Y-84936107D01*
X101785480Y-84957151D01*
X101795970Y-84979329D01*
X101804235Y-85002429D01*
X101810196Y-85026227D01*
X101813796Y-85050496D01*
X101815000Y-85075000D01*
X101815000Y-87025000D01*
X101813796Y-87049504D01*
X101810196Y-87073773D01*
X101804235Y-87097571D01*
X101795970Y-87120671D01*
X101785480Y-87142849D01*
X101772867Y-87163893D01*
X101758253Y-87183598D01*
X101741777Y-87201777D01*
X101723598Y-87218253D01*
X101703893Y-87232867D01*
X101682849Y-87245480D01*
X101660671Y-87255970D01*
X101637571Y-87264235D01*
X101613773Y-87270196D01*
X101589504Y-87273796D01*
X101565000Y-87275000D01*
X101065000Y-87275000D01*
X101040496Y-87273796D01*
X101016227Y-87270196D01*
X100992429Y-87264235D01*
X100969329Y-87255970D01*
X100947151Y-87245480D01*
X100926107Y-87232867D01*
X100906402Y-87218253D01*
X100888223Y-87201777D01*
X100871747Y-87183598D01*
X100857133Y-87163893D01*
X100844520Y-87142849D01*
X100834030Y-87120671D01*
X100825765Y-87097571D01*
X100819804Y-87073773D01*
X100816204Y-87049504D01*
X100815000Y-87025000D01*
X100815000Y-85075000D01*
X100816204Y-85050496D01*
X100819804Y-85026227D01*
X100825765Y-85002429D01*
X100834030Y-84979329D01*
X100844520Y-84957151D01*
X100857133Y-84936107D01*
X100871747Y-84916402D01*
X100888223Y-84898223D01*
X100906402Y-84881747D01*
X100926107Y-84867133D01*
X100947151Y-84854520D01*
X100969329Y-84844030D01*
X100992429Y-84835765D01*
X101016227Y-84829804D01*
X101040496Y-84826204D01*
X101065000Y-84825000D01*
X101565000Y-84825000D01*
X101589504Y-84826204D01*
X101589504Y-84826204D01*
G37*
D17*
X101315000Y-86050000D03*
D16*
G36*
X102859504Y-84826204D02*
G01*
X102883773Y-84829804D01*
X102907571Y-84835765D01*
X102930671Y-84844030D01*
X102952849Y-84854520D01*
X102973893Y-84867133D01*
X102993598Y-84881747D01*
X103011777Y-84898223D01*
X103028253Y-84916402D01*
X103042867Y-84936107D01*
X103055480Y-84957151D01*
X103065970Y-84979329D01*
X103074235Y-85002429D01*
X103080196Y-85026227D01*
X103083796Y-85050496D01*
X103085000Y-85075000D01*
X103085000Y-87025000D01*
X103083796Y-87049504D01*
X103080196Y-87073773D01*
X103074235Y-87097571D01*
X103065970Y-87120671D01*
X103055480Y-87142849D01*
X103042867Y-87163893D01*
X103028253Y-87183598D01*
X103011777Y-87201777D01*
X102993598Y-87218253D01*
X102973893Y-87232867D01*
X102952849Y-87245480D01*
X102930671Y-87255970D01*
X102907571Y-87264235D01*
X102883773Y-87270196D01*
X102859504Y-87273796D01*
X102835000Y-87275000D01*
X102335000Y-87275000D01*
X102310496Y-87273796D01*
X102286227Y-87270196D01*
X102262429Y-87264235D01*
X102239329Y-87255970D01*
X102217151Y-87245480D01*
X102196107Y-87232867D01*
X102176402Y-87218253D01*
X102158223Y-87201777D01*
X102141747Y-87183598D01*
X102127133Y-87163893D01*
X102114520Y-87142849D01*
X102104030Y-87120671D01*
X102095765Y-87097571D01*
X102089804Y-87073773D01*
X102086204Y-87049504D01*
X102085000Y-87025000D01*
X102085000Y-85075000D01*
X102086204Y-85050496D01*
X102089804Y-85026227D01*
X102095765Y-85002429D01*
X102104030Y-84979329D01*
X102114520Y-84957151D01*
X102127133Y-84936107D01*
X102141747Y-84916402D01*
X102158223Y-84898223D01*
X102176402Y-84881747D01*
X102196107Y-84867133D01*
X102217151Y-84854520D01*
X102239329Y-84844030D01*
X102262429Y-84835765D01*
X102286227Y-84829804D01*
X102310496Y-84826204D01*
X102335000Y-84825000D01*
X102835000Y-84825000D01*
X102859504Y-84826204D01*
X102859504Y-84826204D01*
G37*
D17*
X102585000Y-86050000D03*
D16*
G36*
X104129504Y-84826204D02*
G01*
X104153773Y-84829804D01*
X104177571Y-84835765D01*
X104200671Y-84844030D01*
X104222849Y-84854520D01*
X104243893Y-84867133D01*
X104263598Y-84881747D01*
X104281777Y-84898223D01*
X104298253Y-84916402D01*
X104312867Y-84936107D01*
X104325480Y-84957151D01*
X104335970Y-84979329D01*
X104344235Y-85002429D01*
X104350196Y-85026227D01*
X104353796Y-85050496D01*
X104355000Y-85075000D01*
X104355000Y-87025000D01*
X104353796Y-87049504D01*
X104350196Y-87073773D01*
X104344235Y-87097571D01*
X104335970Y-87120671D01*
X104325480Y-87142849D01*
X104312867Y-87163893D01*
X104298253Y-87183598D01*
X104281777Y-87201777D01*
X104263598Y-87218253D01*
X104243893Y-87232867D01*
X104222849Y-87245480D01*
X104200671Y-87255970D01*
X104177571Y-87264235D01*
X104153773Y-87270196D01*
X104129504Y-87273796D01*
X104105000Y-87275000D01*
X103605000Y-87275000D01*
X103580496Y-87273796D01*
X103556227Y-87270196D01*
X103532429Y-87264235D01*
X103509329Y-87255970D01*
X103487151Y-87245480D01*
X103466107Y-87232867D01*
X103446402Y-87218253D01*
X103428223Y-87201777D01*
X103411747Y-87183598D01*
X103397133Y-87163893D01*
X103384520Y-87142849D01*
X103374030Y-87120671D01*
X103365765Y-87097571D01*
X103359804Y-87073773D01*
X103356204Y-87049504D01*
X103355000Y-87025000D01*
X103355000Y-85075000D01*
X103356204Y-85050496D01*
X103359804Y-85026227D01*
X103365765Y-85002429D01*
X103374030Y-84979329D01*
X103384520Y-84957151D01*
X103397133Y-84936107D01*
X103411747Y-84916402D01*
X103428223Y-84898223D01*
X103446402Y-84881747D01*
X103466107Y-84867133D01*
X103487151Y-84854520D01*
X103509329Y-84844030D01*
X103532429Y-84835765D01*
X103556227Y-84829804D01*
X103580496Y-84826204D01*
X103605000Y-84825000D01*
X104105000Y-84825000D01*
X104129504Y-84826204D01*
X104129504Y-84826204D01*
G37*
D17*
X103855000Y-86050000D03*
D16*
G36*
X104129504Y-94126204D02*
G01*
X104153773Y-94129804D01*
X104177571Y-94135765D01*
X104200671Y-94144030D01*
X104222849Y-94154520D01*
X104243893Y-94167133D01*
X104263598Y-94181747D01*
X104281777Y-94198223D01*
X104298253Y-94216402D01*
X104312867Y-94236107D01*
X104325480Y-94257151D01*
X104335970Y-94279329D01*
X104344235Y-94302429D01*
X104350196Y-94326227D01*
X104353796Y-94350496D01*
X104355000Y-94375000D01*
X104355000Y-96325000D01*
X104353796Y-96349504D01*
X104350196Y-96373773D01*
X104344235Y-96397571D01*
X104335970Y-96420671D01*
X104325480Y-96442849D01*
X104312867Y-96463893D01*
X104298253Y-96483598D01*
X104281777Y-96501777D01*
X104263598Y-96518253D01*
X104243893Y-96532867D01*
X104222849Y-96545480D01*
X104200671Y-96555970D01*
X104177571Y-96564235D01*
X104153773Y-96570196D01*
X104129504Y-96573796D01*
X104105000Y-96575000D01*
X103605000Y-96575000D01*
X103580496Y-96573796D01*
X103556227Y-96570196D01*
X103532429Y-96564235D01*
X103509329Y-96555970D01*
X103487151Y-96545480D01*
X103466107Y-96532867D01*
X103446402Y-96518253D01*
X103428223Y-96501777D01*
X103411747Y-96483598D01*
X103397133Y-96463893D01*
X103384520Y-96442849D01*
X103374030Y-96420671D01*
X103365765Y-96397571D01*
X103359804Y-96373773D01*
X103356204Y-96349504D01*
X103355000Y-96325000D01*
X103355000Y-94375000D01*
X103356204Y-94350496D01*
X103359804Y-94326227D01*
X103365765Y-94302429D01*
X103374030Y-94279329D01*
X103384520Y-94257151D01*
X103397133Y-94236107D01*
X103411747Y-94216402D01*
X103428223Y-94198223D01*
X103446402Y-94181747D01*
X103466107Y-94167133D01*
X103487151Y-94154520D01*
X103509329Y-94144030D01*
X103532429Y-94135765D01*
X103556227Y-94129804D01*
X103580496Y-94126204D01*
X103605000Y-94125000D01*
X104105000Y-94125000D01*
X104129504Y-94126204D01*
X104129504Y-94126204D01*
G37*
D17*
X103855000Y-95350000D03*
D16*
G36*
X102859504Y-94126204D02*
G01*
X102883773Y-94129804D01*
X102907571Y-94135765D01*
X102930671Y-94144030D01*
X102952849Y-94154520D01*
X102973893Y-94167133D01*
X102993598Y-94181747D01*
X103011777Y-94198223D01*
X103028253Y-94216402D01*
X103042867Y-94236107D01*
X103055480Y-94257151D01*
X103065970Y-94279329D01*
X103074235Y-94302429D01*
X103080196Y-94326227D01*
X103083796Y-94350496D01*
X103085000Y-94375000D01*
X103085000Y-96325000D01*
X103083796Y-96349504D01*
X103080196Y-96373773D01*
X103074235Y-96397571D01*
X103065970Y-96420671D01*
X103055480Y-96442849D01*
X103042867Y-96463893D01*
X103028253Y-96483598D01*
X103011777Y-96501777D01*
X102993598Y-96518253D01*
X102973893Y-96532867D01*
X102952849Y-96545480D01*
X102930671Y-96555970D01*
X102907571Y-96564235D01*
X102883773Y-96570196D01*
X102859504Y-96573796D01*
X102835000Y-96575000D01*
X102335000Y-96575000D01*
X102310496Y-96573796D01*
X102286227Y-96570196D01*
X102262429Y-96564235D01*
X102239329Y-96555970D01*
X102217151Y-96545480D01*
X102196107Y-96532867D01*
X102176402Y-96518253D01*
X102158223Y-96501777D01*
X102141747Y-96483598D01*
X102127133Y-96463893D01*
X102114520Y-96442849D01*
X102104030Y-96420671D01*
X102095765Y-96397571D01*
X102089804Y-96373773D01*
X102086204Y-96349504D01*
X102085000Y-96325000D01*
X102085000Y-94375000D01*
X102086204Y-94350496D01*
X102089804Y-94326227D01*
X102095765Y-94302429D01*
X102104030Y-94279329D01*
X102114520Y-94257151D01*
X102127133Y-94236107D01*
X102141747Y-94216402D01*
X102158223Y-94198223D01*
X102176402Y-94181747D01*
X102196107Y-94167133D01*
X102217151Y-94154520D01*
X102239329Y-94144030D01*
X102262429Y-94135765D01*
X102286227Y-94129804D01*
X102310496Y-94126204D01*
X102335000Y-94125000D01*
X102835000Y-94125000D01*
X102859504Y-94126204D01*
X102859504Y-94126204D01*
G37*
D17*
X102585000Y-95350000D03*
D16*
G36*
X101589504Y-94126204D02*
G01*
X101613773Y-94129804D01*
X101637571Y-94135765D01*
X101660671Y-94144030D01*
X101682849Y-94154520D01*
X101703893Y-94167133D01*
X101723598Y-94181747D01*
X101741777Y-94198223D01*
X101758253Y-94216402D01*
X101772867Y-94236107D01*
X101785480Y-94257151D01*
X101795970Y-94279329D01*
X101804235Y-94302429D01*
X101810196Y-94326227D01*
X101813796Y-94350496D01*
X101815000Y-94375000D01*
X101815000Y-96325000D01*
X101813796Y-96349504D01*
X101810196Y-96373773D01*
X101804235Y-96397571D01*
X101795970Y-96420671D01*
X101785480Y-96442849D01*
X101772867Y-96463893D01*
X101758253Y-96483598D01*
X101741777Y-96501777D01*
X101723598Y-96518253D01*
X101703893Y-96532867D01*
X101682849Y-96545480D01*
X101660671Y-96555970D01*
X101637571Y-96564235D01*
X101613773Y-96570196D01*
X101589504Y-96573796D01*
X101565000Y-96575000D01*
X101065000Y-96575000D01*
X101040496Y-96573796D01*
X101016227Y-96570196D01*
X100992429Y-96564235D01*
X100969329Y-96555970D01*
X100947151Y-96545480D01*
X100926107Y-96532867D01*
X100906402Y-96518253D01*
X100888223Y-96501777D01*
X100871747Y-96483598D01*
X100857133Y-96463893D01*
X100844520Y-96442849D01*
X100834030Y-96420671D01*
X100825765Y-96397571D01*
X100819804Y-96373773D01*
X100816204Y-96349504D01*
X100815000Y-96325000D01*
X100815000Y-94375000D01*
X100816204Y-94350496D01*
X100819804Y-94326227D01*
X100825765Y-94302429D01*
X100834030Y-94279329D01*
X100844520Y-94257151D01*
X100857133Y-94236107D01*
X100871747Y-94216402D01*
X100888223Y-94198223D01*
X100906402Y-94181747D01*
X100926107Y-94167133D01*
X100947151Y-94154520D01*
X100969329Y-94144030D01*
X100992429Y-94135765D01*
X101016227Y-94129804D01*
X101040496Y-94126204D01*
X101065000Y-94125000D01*
X101565000Y-94125000D01*
X101589504Y-94126204D01*
X101589504Y-94126204D01*
G37*
D17*
X101315000Y-95350000D03*
D16*
G36*
X100319504Y-94126204D02*
G01*
X100343773Y-94129804D01*
X100367571Y-94135765D01*
X100390671Y-94144030D01*
X100412849Y-94154520D01*
X100433893Y-94167133D01*
X100453598Y-94181747D01*
X100471777Y-94198223D01*
X100488253Y-94216402D01*
X100502867Y-94236107D01*
X100515480Y-94257151D01*
X100525970Y-94279329D01*
X100534235Y-94302429D01*
X100540196Y-94326227D01*
X100543796Y-94350496D01*
X100545000Y-94375000D01*
X100545000Y-96325000D01*
X100543796Y-96349504D01*
X100540196Y-96373773D01*
X100534235Y-96397571D01*
X100525970Y-96420671D01*
X100515480Y-96442849D01*
X100502867Y-96463893D01*
X100488253Y-96483598D01*
X100471777Y-96501777D01*
X100453598Y-96518253D01*
X100433893Y-96532867D01*
X100412849Y-96545480D01*
X100390671Y-96555970D01*
X100367571Y-96564235D01*
X100343773Y-96570196D01*
X100319504Y-96573796D01*
X100295000Y-96575000D01*
X99795000Y-96575000D01*
X99770496Y-96573796D01*
X99746227Y-96570196D01*
X99722429Y-96564235D01*
X99699329Y-96555970D01*
X99677151Y-96545480D01*
X99656107Y-96532867D01*
X99636402Y-96518253D01*
X99618223Y-96501777D01*
X99601747Y-96483598D01*
X99587133Y-96463893D01*
X99574520Y-96442849D01*
X99564030Y-96420671D01*
X99555765Y-96397571D01*
X99549804Y-96373773D01*
X99546204Y-96349504D01*
X99545000Y-96325000D01*
X99545000Y-94375000D01*
X99546204Y-94350496D01*
X99549804Y-94326227D01*
X99555765Y-94302429D01*
X99564030Y-94279329D01*
X99574520Y-94257151D01*
X99587133Y-94236107D01*
X99601747Y-94216402D01*
X99618223Y-94198223D01*
X99636402Y-94181747D01*
X99656107Y-94167133D01*
X99677151Y-94154520D01*
X99699329Y-94144030D01*
X99722429Y-94135765D01*
X99746227Y-94129804D01*
X99770496Y-94126204D01*
X99795000Y-94125000D01*
X100295000Y-94125000D01*
X100319504Y-94126204D01*
X100319504Y-94126204D01*
G37*
D17*
X100045000Y-95350000D03*
D16*
G36*
X99049504Y-94126204D02*
G01*
X99073773Y-94129804D01*
X99097571Y-94135765D01*
X99120671Y-94144030D01*
X99142849Y-94154520D01*
X99163893Y-94167133D01*
X99183598Y-94181747D01*
X99201777Y-94198223D01*
X99218253Y-94216402D01*
X99232867Y-94236107D01*
X99245480Y-94257151D01*
X99255970Y-94279329D01*
X99264235Y-94302429D01*
X99270196Y-94326227D01*
X99273796Y-94350496D01*
X99275000Y-94375000D01*
X99275000Y-96325000D01*
X99273796Y-96349504D01*
X99270196Y-96373773D01*
X99264235Y-96397571D01*
X99255970Y-96420671D01*
X99245480Y-96442849D01*
X99232867Y-96463893D01*
X99218253Y-96483598D01*
X99201777Y-96501777D01*
X99183598Y-96518253D01*
X99163893Y-96532867D01*
X99142849Y-96545480D01*
X99120671Y-96555970D01*
X99097571Y-96564235D01*
X99073773Y-96570196D01*
X99049504Y-96573796D01*
X99025000Y-96575000D01*
X98525000Y-96575000D01*
X98500496Y-96573796D01*
X98476227Y-96570196D01*
X98452429Y-96564235D01*
X98429329Y-96555970D01*
X98407151Y-96545480D01*
X98386107Y-96532867D01*
X98366402Y-96518253D01*
X98348223Y-96501777D01*
X98331747Y-96483598D01*
X98317133Y-96463893D01*
X98304520Y-96442849D01*
X98294030Y-96420671D01*
X98285765Y-96397571D01*
X98279804Y-96373773D01*
X98276204Y-96349504D01*
X98275000Y-96325000D01*
X98275000Y-94375000D01*
X98276204Y-94350496D01*
X98279804Y-94326227D01*
X98285765Y-94302429D01*
X98294030Y-94279329D01*
X98304520Y-94257151D01*
X98317133Y-94236107D01*
X98331747Y-94216402D01*
X98348223Y-94198223D01*
X98366402Y-94181747D01*
X98386107Y-94167133D01*
X98407151Y-94154520D01*
X98429329Y-94144030D01*
X98452429Y-94135765D01*
X98476227Y-94129804D01*
X98500496Y-94126204D01*
X98525000Y-94125000D01*
X99025000Y-94125000D01*
X99049504Y-94126204D01*
X99049504Y-94126204D01*
G37*
D17*
X98775000Y-95350000D03*
D16*
G36*
X97779504Y-94126204D02*
G01*
X97803773Y-94129804D01*
X97827571Y-94135765D01*
X97850671Y-94144030D01*
X97872849Y-94154520D01*
X97893893Y-94167133D01*
X97913598Y-94181747D01*
X97931777Y-94198223D01*
X97948253Y-94216402D01*
X97962867Y-94236107D01*
X97975480Y-94257151D01*
X97985970Y-94279329D01*
X97994235Y-94302429D01*
X98000196Y-94326227D01*
X98003796Y-94350496D01*
X98005000Y-94375000D01*
X98005000Y-96325000D01*
X98003796Y-96349504D01*
X98000196Y-96373773D01*
X97994235Y-96397571D01*
X97985970Y-96420671D01*
X97975480Y-96442849D01*
X97962867Y-96463893D01*
X97948253Y-96483598D01*
X97931777Y-96501777D01*
X97913598Y-96518253D01*
X97893893Y-96532867D01*
X97872849Y-96545480D01*
X97850671Y-96555970D01*
X97827571Y-96564235D01*
X97803773Y-96570196D01*
X97779504Y-96573796D01*
X97755000Y-96575000D01*
X97255000Y-96575000D01*
X97230496Y-96573796D01*
X97206227Y-96570196D01*
X97182429Y-96564235D01*
X97159329Y-96555970D01*
X97137151Y-96545480D01*
X97116107Y-96532867D01*
X97096402Y-96518253D01*
X97078223Y-96501777D01*
X97061747Y-96483598D01*
X97047133Y-96463893D01*
X97034520Y-96442849D01*
X97024030Y-96420671D01*
X97015765Y-96397571D01*
X97009804Y-96373773D01*
X97006204Y-96349504D01*
X97005000Y-96325000D01*
X97005000Y-94375000D01*
X97006204Y-94350496D01*
X97009804Y-94326227D01*
X97015765Y-94302429D01*
X97024030Y-94279329D01*
X97034520Y-94257151D01*
X97047133Y-94236107D01*
X97061747Y-94216402D01*
X97078223Y-94198223D01*
X97096402Y-94181747D01*
X97116107Y-94167133D01*
X97137151Y-94154520D01*
X97159329Y-94144030D01*
X97182429Y-94135765D01*
X97206227Y-94129804D01*
X97230496Y-94126204D01*
X97255000Y-94125000D01*
X97755000Y-94125000D01*
X97779504Y-94126204D01*
X97779504Y-94126204D01*
G37*
D17*
X97505000Y-95350000D03*
D16*
G36*
X96509504Y-94126204D02*
G01*
X96533773Y-94129804D01*
X96557571Y-94135765D01*
X96580671Y-94144030D01*
X96602849Y-94154520D01*
X96623893Y-94167133D01*
X96643598Y-94181747D01*
X96661777Y-94198223D01*
X96678253Y-94216402D01*
X96692867Y-94236107D01*
X96705480Y-94257151D01*
X96715970Y-94279329D01*
X96724235Y-94302429D01*
X96730196Y-94326227D01*
X96733796Y-94350496D01*
X96735000Y-94375000D01*
X96735000Y-96325000D01*
X96733796Y-96349504D01*
X96730196Y-96373773D01*
X96724235Y-96397571D01*
X96715970Y-96420671D01*
X96705480Y-96442849D01*
X96692867Y-96463893D01*
X96678253Y-96483598D01*
X96661777Y-96501777D01*
X96643598Y-96518253D01*
X96623893Y-96532867D01*
X96602849Y-96545480D01*
X96580671Y-96555970D01*
X96557571Y-96564235D01*
X96533773Y-96570196D01*
X96509504Y-96573796D01*
X96485000Y-96575000D01*
X95985000Y-96575000D01*
X95960496Y-96573796D01*
X95936227Y-96570196D01*
X95912429Y-96564235D01*
X95889329Y-96555970D01*
X95867151Y-96545480D01*
X95846107Y-96532867D01*
X95826402Y-96518253D01*
X95808223Y-96501777D01*
X95791747Y-96483598D01*
X95777133Y-96463893D01*
X95764520Y-96442849D01*
X95754030Y-96420671D01*
X95745765Y-96397571D01*
X95739804Y-96373773D01*
X95736204Y-96349504D01*
X95735000Y-96325000D01*
X95735000Y-94375000D01*
X95736204Y-94350496D01*
X95739804Y-94326227D01*
X95745765Y-94302429D01*
X95754030Y-94279329D01*
X95764520Y-94257151D01*
X95777133Y-94236107D01*
X95791747Y-94216402D01*
X95808223Y-94198223D01*
X95826402Y-94181747D01*
X95846107Y-94167133D01*
X95867151Y-94154520D01*
X95889329Y-94144030D01*
X95912429Y-94135765D01*
X95936227Y-94129804D01*
X95960496Y-94126204D01*
X95985000Y-94125000D01*
X96485000Y-94125000D01*
X96509504Y-94126204D01*
X96509504Y-94126204D01*
G37*
D17*
X96235000Y-95350000D03*
D16*
G36*
X95239504Y-94126204D02*
G01*
X95263773Y-94129804D01*
X95287571Y-94135765D01*
X95310671Y-94144030D01*
X95332849Y-94154520D01*
X95353893Y-94167133D01*
X95373598Y-94181747D01*
X95391777Y-94198223D01*
X95408253Y-94216402D01*
X95422867Y-94236107D01*
X95435480Y-94257151D01*
X95445970Y-94279329D01*
X95454235Y-94302429D01*
X95460196Y-94326227D01*
X95463796Y-94350496D01*
X95465000Y-94375000D01*
X95465000Y-96325000D01*
X95463796Y-96349504D01*
X95460196Y-96373773D01*
X95454235Y-96397571D01*
X95445970Y-96420671D01*
X95435480Y-96442849D01*
X95422867Y-96463893D01*
X95408253Y-96483598D01*
X95391777Y-96501777D01*
X95373598Y-96518253D01*
X95353893Y-96532867D01*
X95332849Y-96545480D01*
X95310671Y-96555970D01*
X95287571Y-96564235D01*
X95263773Y-96570196D01*
X95239504Y-96573796D01*
X95215000Y-96575000D01*
X94715000Y-96575000D01*
X94690496Y-96573796D01*
X94666227Y-96570196D01*
X94642429Y-96564235D01*
X94619329Y-96555970D01*
X94597151Y-96545480D01*
X94576107Y-96532867D01*
X94556402Y-96518253D01*
X94538223Y-96501777D01*
X94521747Y-96483598D01*
X94507133Y-96463893D01*
X94494520Y-96442849D01*
X94484030Y-96420671D01*
X94475765Y-96397571D01*
X94469804Y-96373773D01*
X94466204Y-96349504D01*
X94465000Y-96325000D01*
X94465000Y-94375000D01*
X94466204Y-94350496D01*
X94469804Y-94326227D01*
X94475765Y-94302429D01*
X94484030Y-94279329D01*
X94494520Y-94257151D01*
X94507133Y-94236107D01*
X94521747Y-94216402D01*
X94538223Y-94198223D01*
X94556402Y-94181747D01*
X94576107Y-94167133D01*
X94597151Y-94154520D01*
X94619329Y-94144030D01*
X94642429Y-94135765D01*
X94666227Y-94129804D01*
X94690496Y-94126204D01*
X94715000Y-94125000D01*
X95215000Y-94125000D01*
X95239504Y-94126204D01*
X95239504Y-94126204D01*
G37*
D17*
X94965000Y-95350000D03*
D16*
G36*
X93969504Y-94126204D02*
G01*
X93993773Y-94129804D01*
X94017571Y-94135765D01*
X94040671Y-94144030D01*
X94062849Y-94154520D01*
X94083893Y-94167133D01*
X94103598Y-94181747D01*
X94121777Y-94198223D01*
X94138253Y-94216402D01*
X94152867Y-94236107D01*
X94165480Y-94257151D01*
X94175970Y-94279329D01*
X94184235Y-94302429D01*
X94190196Y-94326227D01*
X94193796Y-94350496D01*
X94195000Y-94375000D01*
X94195000Y-96325000D01*
X94193796Y-96349504D01*
X94190196Y-96373773D01*
X94184235Y-96397571D01*
X94175970Y-96420671D01*
X94165480Y-96442849D01*
X94152867Y-96463893D01*
X94138253Y-96483598D01*
X94121777Y-96501777D01*
X94103598Y-96518253D01*
X94083893Y-96532867D01*
X94062849Y-96545480D01*
X94040671Y-96555970D01*
X94017571Y-96564235D01*
X93993773Y-96570196D01*
X93969504Y-96573796D01*
X93945000Y-96575000D01*
X93445000Y-96575000D01*
X93420496Y-96573796D01*
X93396227Y-96570196D01*
X93372429Y-96564235D01*
X93349329Y-96555970D01*
X93327151Y-96545480D01*
X93306107Y-96532867D01*
X93286402Y-96518253D01*
X93268223Y-96501777D01*
X93251747Y-96483598D01*
X93237133Y-96463893D01*
X93224520Y-96442849D01*
X93214030Y-96420671D01*
X93205765Y-96397571D01*
X93199804Y-96373773D01*
X93196204Y-96349504D01*
X93195000Y-96325000D01*
X93195000Y-94375000D01*
X93196204Y-94350496D01*
X93199804Y-94326227D01*
X93205765Y-94302429D01*
X93214030Y-94279329D01*
X93224520Y-94257151D01*
X93237133Y-94236107D01*
X93251747Y-94216402D01*
X93268223Y-94198223D01*
X93286402Y-94181747D01*
X93306107Y-94167133D01*
X93327151Y-94154520D01*
X93349329Y-94144030D01*
X93372429Y-94135765D01*
X93396227Y-94129804D01*
X93420496Y-94126204D01*
X93445000Y-94125000D01*
X93945000Y-94125000D01*
X93969504Y-94126204D01*
X93969504Y-94126204D01*
G37*
D17*
X93695000Y-95350000D03*
D16*
G36*
X92699504Y-94126204D02*
G01*
X92723773Y-94129804D01*
X92747571Y-94135765D01*
X92770671Y-94144030D01*
X92792849Y-94154520D01*
X92813893Y-94167133D01*
X92833598Y-94181747D01*
X92851777Y-94198223D01*
X92868253Y-94216402D01*
X92882867Y-94236107D01*
X92895480Y-94257151D01*
X92905970Y-94279329D01*
X92914235Y-94302429D01*
X92920196Y-94326227D01*
X92923796Y-94350496D01*
X92925000Y-94375000D01*
X92925000Y-96325000D01*
X92923796Y-96349504D01*
X92920196Y-96373773D01*
X92914235Y-96397571D01*
X92905970Y-96420671D01*
X92895480Y-96442849D01*
X92882867Y-96463893D01*
X92868253Y-96483598D01*
X92851777Y-96501777D01*
X92833598Y-96518253D01*
X92813893Y-96532867D01*
X92792849Y-96545480D01*
X92770671Y-96555970D01*
X92747571Y-96564235D01*
X92723773Y-96570196D01*
X92699504Y-96573796D01*
X92675000Y-96575000D01*
X92175000Y-96575000D01*
X92150496Y-96573796D01*
X92126227Y-96570196D01*
X92102429Y-96564235D01*
X92079329Y-96555970D01*
X92057151Y-96545480D01*
X92036107Y-96532867D01*
X92016402Y-96518253D01*
X91998223Y-96501777D01*
X91981747Y-96483598D01*
X91967133Y-96463893D01*
X91954520Y-96442849D01*
X91944030Y-96420671D01*
X91935765Y-96397571D01*
X91929804Y-96373773D01*
X91926204Y-96349504D01*
X91925000Y-96325000D01*
X91925000Y-94375000D01*
X91926204Y-94350496D01*
X91929804Y-94326227D01*
X91935765Y-94302429D01*
X91944030Y-94279329D01*
X91954520Y-94257151D01*
X91967133Y-94236107D01*
X91981747Y-94216402D01*
X91998223Y-94198223D01*
X92016402Y-94181747D01*
X92036107Y-94167133D01*
X92057151Y-94154520D01*
X92079329Y-94144030D01*
X92102429Y-94135765D01*
X92126227Y-94129804D01*
X92150496Y-94126204D01*
X92175000Y-94125000D01*
X92675000Y-94125000D01*
X92699504Y-94126204D01*
X92699504Y-94126204D01*
G37*
D17*
X92425000Y-95350000D03*
D16*
G36*
X91429504Y-94126204D02*
G01*
X91453773Y-94129804D01*
X91477571Y-94135765D01*
X91500671Y-94144030D01*
X91522849Y-94154520D01*
X91543893Y-94167133D01*
X91563598Y-94181747D01*
X91581777Y-94198223D01*
X91598253Y-94216402D01*
X91612867Y-94236107D01*
X91625480Y-94257151D01*
X91635970Y-94279329D01*
X91644235Y-94302429D01*
X91650196Y-94326227D01*
X91653796Y-94350496D01*
X91655000Y-94375000D01*
X91655000Y-96325000D01*
X91653796Y-96349504D01*
X91650196Y-96373773D01*
X91644235Y-96397571D01*
X91635970Y-96420671D01*
X91625480Y-96442849D01*
X91612867Y-96463893D01*
X91598253Y-96483598D01*
X91581777Y-96501777D01*
X91563598Y-96518253D01*
X91543893Y-96532867D01*
X91522849Y-96545480D01*
X91500671Y-96555970D01*
X91477571Y-96564235D01*
X91453773Y-96570196D01*
X91429504Y-96573796D01*
X91405000Y-96575000D01*
X90905000Y-96575000D01*
X90880496Y-96573796D01*
X90856227Y-96570196D01*
X90832429Y-96564235D01*
X90809329Y-96555970D01*
X90787151Y-96545480D01*
X90766107Y-96532867D01*
X90746402Y-96518253D01*
X90728223Y-96501777D01*
X90711747Y-96483598D01*
X90697133Y-96463893D01*
X90684520Y-96442849D01*
X90674030Y-96420671D01*
X90665765Y-96397571D01*
X90659804Y-96373773D01*
X90656204Y-96349504D01*
X90655000Y-96325000D01*
X90655000Y-94375000D01*
X90656204Y-94350496D01*
X90659804Y-94326227D01*
X90665765Y-94302429D01*
X90674030Y-94279329D01*
X90684520Y-94257151D01*
X90697133Y-94236107D01*
X90711747Y-94216402D01*
X90728223Y-94198223D01*
X90746402Y-94181747D01*
X90766107Y-94167133D01*
X90787151Y-94154520D01*
X90809329Y-94144030D01*
X90832429Y-94135765D01*
X90856227Y-94129804D01*
X90880496Y-94126204D01*
X90905000Y-94125000D01*
X91405000Y-94125000D01*
X91429504Y-94126204D01*
X91429504Y-94126204D01*
G37*
D17*
X91155000Y-95350000D03*
D16*
G36*
X90159504Y-94126204D02*
G01*
X90183773Y-94129804D01*
X90207571Y-94135765D01*
X90230671Y-94144030D01*
X90252849Y-94154520D01*
X90273893Y-94167133D01*
X90293598Y-94181747D01*
X90311777Y-94198223D01*
X90328253Y-94216402D01*
X90342867Y-94236107D01*
X90355480Y-94257151D01*
X90365970Y-94279329D01*
X90374235Y-94302429D01*
X90380196Y-94326227D01*
X90383796Y-94350496D01*
X90385000Y-94375000D01*
X90385000Y-96325000D01*
X90383796Y-96349504D01*
X90380196Y-96373773D01*
X90374235Y-96397571D01*
X90365970Y-96420671D01*
X90355480Y-96442849D01*
X90342867Y-96463893D01*
X90328253Y-96483598D01*
X90311777Y-96501777D01*
X90293598Y-96518253D01*
X90273893Y-96532867D01*
X90252849Y-96545480D01*
X90230671Y-96555970D01*
X90207571Y-96564235D01*
X90183773Y-96570196D01*
X90159504Y-96573796D01*
X90135000Y-96575000D01*
X89635000Y-96575000D01*
X89610496Y-96573796D01*
X89586227Y-96570196D01*
X89562429Y-96564235D01*
X89539329Y-96555970D01*
X89517151Y-96545480D01*
X89496107Y-96532867D01*
X89476402Y-96518253D01*
X89458223Y-96501777D01*
X89441747Y-96483598D01*
X89427133Y-96463893D01*
X89414520Y-96442849D01*
X89404030Y-96420671D01*
X89395765Y-96397571D01*
X89389804Y-96373773D01*
X89386204Y-96349504D01*
X89385000Y-96325000D01*
X89385000Y-94375000D01*
X89386204Y-94350496D01*
X89389804Y-94326227D01*
X89395765Y-94302429D01*
X89404030Y-94279329D01*
X89414520Y-94257151D01*
X89427133Y-94236107D01*
X89441747Y-94216402D01*
X89458223Y-94198223D01*
X89476402Y-94181747D01*
X89496107Y-94167133D01*
X89517151Y-94154520D01*
X89539329Y-94144030D01*
X89562429Y-94135765D01*
X89586227Y-94129804D01*
X89610496Y-94126204D01*
X89635000Y-94125000D01*
X90135000Y-94125000D01*
X90159504Y-94126204D01*
X90159504Y-94126204D01*
G37*
D17*
X89885000Y-95350000D03*
D16*
G36*
X88889504Y-94126204D02*
G01*
X88913773Y-94129804D01*
X88937571Y-94135765D01*
X88960671Y-94144030D01*
X88982849Y-94154520D01*
X89003893Y-94167133D01*
X89023598Y-94181747D01*
X89041777Y-94198223D01*
X89058253Y-94216402D01*
X89072867Y-94236107D01*
X89085480Y-94257151D01*
X89095970Y-94279329D01*
X89104235Y-94302429D01*
X89110196Y-94326227D01*
X89113796Y-94350496D01*
X89115000Y-94375000D01*
X89115000Y-96325000D01*
X89113796Y-96349504D01*
X89110196Y-96373773D01*
X89104235Y-96397571D01*
X89095970Y-96420671D01*
X89085480Y-96442849D01*
X89072867Y-96463893D01*
X89058253Y-96483598D01*
X89041777Y-96501777D01*
X89023598Y-96518253D01*
X89003893Y-96532867D01*
X88982849Y-96545480D01*
X88960671Y-96555970D01*
X88937571Y-96564235D01*
X88913773Y-96570196D01*
X88889504Y-96573796D01*
X88865000Y-96575000D01*
X88365000Y-96575000D01*
X88340496Y-96573796D01*
X88316227Y-96570196D01*
X88292429Y-96564235D01*
X88269329Y-96555970D01*
X88247151Y-96545480D01*
X88226107Y-96532867D01*
X88206402Y-96518253D01*
X88188223Y-96501777D01*
X88171747Y-96483598D01*
X88157133Y-96463893D01*
X88144520Y-96442849D01*
X88134030Y-96420671D01*
X88125765Y-96397571D01*
X88119804Y-96373773D01*
X88116204Y-96349504D01*
X88115000Y-96325000D01*
X88115000Y-94375000D01*
X88116204Y-94350496D01*
X88119804Y-94326227D01*
X88125765Y-94302429D01*
X88134030Y-94279329D01*
X88144520Y-94257151D01*
X88157133Y-94236107D01*
X88171747Y-94216402D01*
X88188223Y-94198223D01*
X88206402Y-94181747D01*
X88226107Y-94167133D01*
X88247151Y-94154520D01*
X88269329Y-94144030D01*
X88292429Y-94135765D01*
X88316227Y-94129804D01*
X88340496Y-94126204D01*
X88365000Y-94125000D01*
X88865000Y-94125000D01*
X88889504Y-94126204D01*
X88889504Y-94126204D01*
G37*
D17*
X88615000Y-95350000D03*
D16*
G36*
X87619504Y-94126204D02*
G01*
X87643773Y-94129804D01*
X87667571Y-94135765D01*
X87690671Y-94144030D01*
X87712849Y-94154520D01*
X87733893Y-94167133D01*
X87753598Y-94181747D01*
X87771777Y-94198223D01*
X87788253Y-94216402D01*
X87802867Y-94236107D01*
X87815480Y-94257151D01*
X87825970Y-94279329D01*
X87834235Y-94302429D01*
X87840196Y-94326227D01*
X87843796Y-94350496D01*
X87845000Y-94375000D01*
X87845000Y-96325000D01*
X87843796Y-96349504D01*
X87840196Y-96373773D01*
X87834235Y-96397571D01*
X87825970Y-96420671D01*
X87815480Y-96442849D01*
X87802867Y-96463893D01*
X87788253Y-96483598D01*
X87771777Y-96501777D01*
X87753598Y-96518253D01*
X87733893Y-96532867D01*
X87712849Y-96545480D01*
X87690671Y-96555970D01*
X87667571Y-96564235D01*
X87643773Y-96570196D01*
X87619504Y-96573796D01*
X87595000Y-96575000D01*
X87095000Y-96575000D01*
X87070496Y-96573796D01*
X87046227Y-96570196D01*
X87022429Y-96564235D01*
X86999329Y-96555970D01*
X86977151Y-96545480D01*
X86956107Y-96532867D01*
X86936402Y-96518253D01*
X86918223Y-96501777D01*
X86901747Y-96483598D01*
X86887133Y-96463893D01*
X86874520Y-96442849D01*
X86864030Y-96420671D01*
X86855765Y-96397571D01*
X86849804Y-96373773D01*
X86846204Y-96349504D01*
X86845000Y-96325000D01*
X86845000Y-94375000D01*
X86846204Y-94350496D01*
X86849804Y-94326227D01*
X86855765Y-94302429D01*
X86864030Y-94279329D01*
X86874520Y-94257151D01*
X86887133Y-94236107D01*
X86901747Y-94216402D01*
X86918223Y-94198223D01*
X86936402Y-94181747D01*
X86956107Y-94167133D01*
X86977151Y-94154520D01*
X86999329Y-94144030D01*
X87022429Y-94135765D01*
X87046227Y-94129804D01*
X87070496Y-94126204D01*
X87095000Y-94125000D01*
X87595000Y-94125000D01*
X87619504Y-94126204D01*
X87619504Y-94126204D01*
G37*
D17*
X87345000Y-95350000D03*
M02*
