G04 #@! TF.GenerationSoftware,KiCad,Pcbnew,(5.1.2)-1*
G04 #@! TF.CreationDate,2021-07-24T10:23:43+09:00*
G04 #@! TF.ProjectId,PS2USB,50533255-5342-42e6-9b69-6361645f7063,v2.1*
G04 #@! TF.SameCoordinates,Original*
G04 #@! TF.FileFunction,Paste,Bot*
G04 #@! TF.FilePolarity,Positive*
%FSLAX46Y46*%
G04 Gerber Fmt 4.6, Leading zero omitted, Abs format (unit mm)*
G04 Created by KiCad (PCBNEW (5.1.2)-1) date 2021-07-24 10:23:43*
%MOMM*%
%LPD*%
G04 APERTURE LIST*
%ADD10C,1.524000*%
%ADD11O,3.000000X1.500000*%
%ADD12C,3.000000*%
%ADD13C,0.050000*%
%ADD14C,0.600000*%
G04 APERTURE END LIST*
D10*
X77700000Y-95100000D03*
X77700000Y-92600000D03*
X77700000Y-90600000D03*
X77700000Y-88100000D03*
D11*
X75300000Y-85700000D03*
X75300000Y-97500000D03*
D10*
X107000000Y-95000000D03*
X107000000Y-92500000D03*
X107000000Y-90500000D03*
X107000000Y-88000000D03*
D12*
X109600000Y-98070000D03*
X109600000Y-84930000D03*
D13*
G36*
X87509703Y-85025722D02*
G01*
X87524264Y-85027882D01*
X87538543Y-85031459D01*
X87552403Y-85036418D01*
X87565710Y-85042712D01*
X87578336Y-85050280D01*
X87590159Y-85059048D01*
X87601066Y-85068934D01*
X87610952Y-85079841D01*
X87619720Y-85091664D01*
X87627288Y-85104290D01*
X87633582Y-85117597D01*
X87638541Y-85131457D01*
X87642118Y-85145736D01*
X87644278Y-85160297D01*
X87645000Y-85175000D01*
X87645000Y-86925000D01*
X87644278Y-86939703D01*
X87642118Y-86954264D01*
X87638541Y-86968543D01*
X87633582Y-86982403D01*
X87627288Y-86995710D01*
X87619720Y-87008336D01*
X87610952Y-87020159D01*
X87601066Y-87031066D01*
X87590159Y-87040952D01*
X87578336Y-87049720D01*
X87565710Y-87057288D01*
X87552403Y-87063582D01*
X87538543Y-87068541D01*
X87524264Y-87072118D01*
X87509703Y-87074278D01*
X87495000Y-87075000D01*
X87195000Y-87075000D01*
X87180297Y-87074278D01*
X87165736Y-87072118D01*
X87151457Y-87068541D01*
X87137597Y-87063582D01*
X87124290Y-87057288D01*
X87111664Y-87049720D01*
X87099841Y-87040952D01*
X87088934Y-87031066D01*
X87079048Y-87020159D01*
X87070280Y-87008336D01*
X87062712Y-86995710D01*
X87056418Y-86982403D01*
X87051459Y-86968543D01*
X87047882Y-86954264D01*
X87045722Y-86939703D01*
X87045000Y-86925000D01*
X87045000Y-85175000D01*
X87045722Y-85160297D01*
X87047882Y-85145736D01*
X87051459Y-85131457D01*
X87056418Y-85117597D01*
X87062712Y-85104290D01*
X87070280Y-85091664D01*
X87079048Y-85079841D01*
X87088934Y-85068934D01*
X87099841Y-85059048D01*
X87111664Y-85050280D01*
X87124290Y-85042712D01*
X87137597Y-85036418D01*
X87151457Y-85031459D01*
X87165736Y-85027882D01*
X87180297Y-85025722D01*
X87195000Y-85025000D01*
X87495000Y-85025000D01*
X87509703Y-85025722D01*
X87509703Y-85025722D01*
G37*
D14*
X87345000Y-86050000D03*
D13*
G36*
X88779703Y-85025722D02*
G01*
X88794264Y-85027882D01*
X88808543Y-85031459D01*
X88822403Y-85036418D01*
X88835710Y-85042712D01*
X88848336Y-85050280D01*
X88860159Y-85059048D01*
X88871066Y-85068934D01*
X88880952Y-85079841D01*
X88889720Y-85091664D01*
X88897288Y-85104290D01*
X88903582Y-85117597D01*
X88908541Y-85131457D01*
X88912118Y-85145736D01*
X88914278Y-85160297D01*
X88915000Y-85175000D01*
X88915000Y-86925000D01*
X88914278Y-86939703D01*
X88912118Y-86954264D01*
X88908541Y-86968543D01*
X88903582Y-86982403D01*
X88897288Y-86995710D01*
X88889720Y-87008336D01*
X88880952Y-87020159D01*
X88871066Y-87031066D01*
X88860159Y-87040952D01*
X88848336Y-87049720D01*
X88835710Y-87057288D01*
X88822403Y-87063582D01*
X88808543Y-87068541D01*
X88794264Y-87072118D01*
X88779703Y-87074278D01*
X88765000Y-87075000D01*
X88465000Y-87075000D01*
X88450297Y-87074278D01*
X88435736Y-87072118D01*
X88421457Y-87068541D01*
X88407597Y-87063582D01*
X88394290Y-87057288D01*
X88381664Y-87049720D01*
X88369841Y-87040952D01*
X88358934Y-87031066D01*
X88349048Y-87020159D01*
X88340280Y-87008336D01*
X88332712Y-86995710D01*
X88326418Y-86982403D01*
X88321459Y-86968543D01*
X88317882Y-86954264D01*
X88315722Y-86939703D01*
X88315000Y-86925000D01*
X88315000Y-85175000D01*
X88315722Y-85160297D01*
X88317882Y-85145736D01*
X88321459Y-85131457D01*
X88326418Y-85117597D01*
X88332712Y-85104290D01*
X88340280Y-85091664D01*
X88349048Y-85079841D01*
X88358934Y-85068934D01*
X88369841Y-85059048D01*
X88381664Y-85050280D01*
X88394290Y-85042712D01*
X88407597Y-85036418D01*
X88421457Y-85031459D01*
X88435736Y-85027882D01*
X88450297Y-85025722D01*
X88465000Y-85025000D01*
X88765000Y-85025000D01*
X88779703Y-85025722D01*
X88779703Y-85025722D01*
G37*
D14*
X88615000Y-86050000D03*
D13*
G36*
X90049703Y-85025722D02*
G01*
X90064264Y-85027882D01*
X90078543Y-85031459D01*
X90092403Y-85036418D01*
X90105710Y-85042712D01*
X90118336Y-85050280D01*
X90130159Y-85059048D01*
X90141066Y-85068934D01*
X90150952Y-85079841D01*
X90159720Y-85091664D01*
X90167288Y-85104290D01*
X90173582Y-85117597D01*
X90178541Y-85131457D01*
X90182118Y-85145736D01*
X90184278Y-85160297D01*
X90185000Y-85175000D01*
X90185000Y-86925000D01*
X90184278Y-86939703D01*
X90182118Y-86954264D01*
X90178541Y-86968543D01*
X90173582Y-86982403D01*
X90167288Y-86995710D01*
X90159720Y-87008336D01*
X90150952Y-87020159D01*
X90141066Y-87031066D01*
X90130159Y-87040952D01*
X90118336Y-87049720D01*
X90105710Y-87057288D01*
X90092403Y-87063582D01*
X90078543Y-87068541D01*
X90064264Y-87072118D01*
X90049703Y-87074278D01*
X90035000Y-87075000D01*
X89735000Y-87075000D01*
X89720297Y-87074278D01*
X89705736Y-87072118D01*
X89691457Y-87068541D01*
X89677597Y-87063582D01*
X89664290Y-87057288D01*
X89651664Y-87049720D01*
X89639841Y-87040952D01*
X89628934Y-87031066D01*
X89619048Y-87020159D01*
X89610280Y-87008336D01*
X89602712Y-86995710D01*
X89596418Y-86982403D01*
X89591459Y-86968543D01*
X89587882Y-86954264D01*
X89585722Y-86939703D01*
X89585000Y-86925000D01*
X89585000Y-85175000D01*
X89585722Y-85160297D01*
X89587882Y-85145736D01*
X89591459Y-85131457D01*
X89596418Y-85117597D01*
X89602712Y-85104290D01*
X89610280Y-85091664D01*
X89619048Y-85079841D01*
X89628934Y-85068934D01*
X89639841Y-85059048D01*
X89651664Y-85050280D01*
X89664290Y-85042712D01*
X89677597Y-85036418D01*
X89691457Y-85031459D01*
X89705736Y-85027882D01*
X89720297Y-85025722D01*
X89735000Y-85025000D01*
X90035000Y-85025000D01*
X90049703Y-85025722D01*
X90049703Y-85025722D01*
G37*
D14*
X89885000Y-86050000D03*
D13*
G36*
X91319703Y-85025722D02*
G01*
X91334264Y-85027882D01*
X91348543Y-85031459D01*
X91362403Y-85036418D01*
X91375710Y-85042712D01*
X91388336Y-85050280D01*
X91400159Y-85059048D01*
X91411066Y-85068934D01*
X91420952Y-85079841D01*
X91429720Y-85091664D01*
X91437288Y-85104290D01*
X91443582Y-85117597D01*
X91448541Y-85131457D01*
X91452118Y-85145736D01*
X91454278Y-85160297D01*
X91455000Y-85175000D01*
X91455000Y-86925000D01*
X91454278Y-86939703D01*
X91452118Y-86954264D01*
X91448541Y-86968543D01*
X91443582Y-86982403D01*
X91437288Y-86995710D01*
X91429720Y-87008336D01*
X91420952Y-87020159D01*
X91411066Y-87031066D01*
X91400159Y-87040952D01*
X91388336Y-87049720D01*
X91375710Y-87057288D01*
X91362403Y-87063582D01*
X91348543Y-87068541D01*
X91334264Y-87072118D01*
X91319703Y-87074278D01*
X91305000Y-87075000D01*
X91005000Y-87075000D01*
X90990297Y-87074278D01*
X90975736Y-87072118D01*
X90961457Y-87068541D01*
X90947597Y-87063582D01*
X90934290Y-87057288D01*
X90921664Y-87049720D01*
X90909841Y-87040952D01*
X90898934Y-87031066D01*
X90889048Y-87020159D01*
X90880280Y-87008336D01*
X90872712Y-86995710D01*
X90866418Y-86982403D01*
X90861459Y-86968543D01*
X90857882Y-86954264D01*
X90855722Y-86939703D01*
X90855000Y-86925000D01*
X90855000Y-85175000D01*
X90855722Y-85160297D01*
X90857882Y-85145736D01*
X90861459Y-85131457D01*
X90866418Y-85117597D01*
X90872712Y-85104290D01*
X90880280Y-85091664D01*
X90889048Y-85079841D01*
X90898934Y-85068934D01*
X90909841Y-85059048D01*
X90921664Y-85050280D01*
X90934290Y-85042712D01*
X90947597Y-85036418D01*
X90961457Y-85031459D01*
X90975736Y-85027882D01*
X90990297Y-85025722D01*
X91005000Y-85025000D01*
X91305000Y-85025000D01*
X91319703Y-85025722D01*
X91319703Y-85025722D01*
G37*
D14*
X91155000Y-86050000D03*
D13*
G36*
X92589703Y-85025722D02*
G01*
X92604264Y-85027882D01*
X92618543Y-85031459D01*
X92632403Y-85036418D01*
X92645710Y-85042712D01*
X92658336Y-85050280D01*
X92670159Y-85059048D01*
X92681066Y-85068934D01*
X92690952Y-85079841D01*
X92699720Y-85091664D01*
X92707288Y-85104290D01*
X92713582Y-85117597D01*
X92718541Y-85131457D01*
X92722118Y-85145736D01*
X92724278Y-85160297D01*
X92725000Y-85175000D01*
X92725000Y-86925000D01*
X92724278Y-86939703D01*
X92722118Y-86954264D01*
X92718541Y-86968543D01*
X92713582Y-86982403D01*
X92707288Y-86995710D01*
X92699720Y-87008336D01*
X92690952Y-87020159D01*
X92681066Y-87031066D01*
X92670159Y-87040952D01*
X92658336Y-87049720D01*
X92645710Y-87057288D01*
X92632403Y-87063582D01*
X92618543Y-87068541D01*
X92604264Y-87072118D01*
X92589703Y-87074278D01*
X92575000Y-87075000D01*
X92275000Y-87075000D01*
X92260297Y-87074278D01*
X92245736Y-87072118D01*
X92231457Y-87068541D01*
X92217597Y-87063582D01*
X92204290Y-87057288D01*
X92191664Y-87049720D01*
X92179841Y-87040952D01*
X92168934Y-87031066D01*
X92159048Y-87020159D01*
X92150280Y-87008336D01*
X92142712Y-86995710D01*
X92136418Y-86982403D01*
X92131459Y-86968543D01*
X92127882Y-86954264D01*
X92125722Y-86939703D01*
X92125000Y-86925000D01*
X92125000Y-85175000D01*
X92125722Y-85160297D01*
X92127882Y-85145736D01*
X92131459Y-85131457D01*
X92136418Y-85117597D01*
X92142712Y-85104290D01*
X92150280Y-85091664D01*
X92159048Y-85079841D01*
X92168934Y-85068934D01*
X92179841Y-85059048D01*
X92191664Y-85050280D01*
X92204290Y-85042712D01*
X92217597Y-85036418D01*
X92231457Y-85031459D01*
X92245736Y-85027882D01*
X92260297Y-85025722D01*
X92275000Y-85025000D01*
X92575000Y-85025000D01*
X92589703Y-85025722D01*
X92589703Y-85025722D01*
G37*
D14*
X92425000Y-86050000D03*
D13*
G36*
X93859703Y-85025722D02*
G01*
X93874264Y-85027882D01*
X93888543Y-85031459D01*
X93902403Y-85036418D01*
X93915710Y-85042712D01*
X93928336Y-85050280D01*
X93940159Y-85059048D01*
X93951066Y-85068934D01*
X93960952Y-85079841D01*
X93969720Y-85091664D01*
X93977288Y-85104290D01*
X93983582Y-85117597D01*
X93988541Y-85131457D01*
X93992118Y-85145736D01*
X93994278Y-85160297D01*
X93995000Y-85175000D01*
X93995000Y-86925000D01*
X93994278Y-86939703D01*
X93992118Y-86954264D01*
X93988541Y-86968543D01*
X93983582Y-86982403D01*
X93977288Y-86995710D01*
X93969720Y-87008336D01*
X93960952Y-87020159D01*
X93951066Y-87031066D01*
X93940159Y-87040952D01*
X93928336Y-87049720D01*
X93915710Y-87057288D01*
X93902403Y-87063582D01*
X93888543Y-87068541D01*
X93874264Y-87072118D01*
X93859703Y-87074278D01*
X93845000Y-87075000D01*
X93545000Y-87075000D01*
X93530297Y-87074278D01*
X93515736Y-87072118D01*
X93501457Y-87068541D01*
X93487597Y-87063582D01*
X93474290Y-87057288D01*
X93461664Y-87049720D01*
X93449841Y-87040952D01*
X93438934Y-87031066D01*
X93429048Y-87020159D01*
X93420280Y-87008336D01*
X93412712Y-86995710D01*
X93406418Y-86982403D01*
X93401459Y-86968543D01*
X93397882Y-86954264D01*
X93395722Y-86939703D01*
X93395000Y-86925000D01*
X93395000Y-85175000D01*
X93395722Y-85160297D01*
X93397882Y-85145736D01*
X93401459Y-85131457D01*
X93406418Y-85117597D01*
X93412712Y-85104290D01*
X93420280Y-85091664D01*
X93429048Y-85079841D01*
X93438934Y-85068934D01*
X93449841Y-85059048D01*
X93461664Y-85050280D01*
X93474290Y-85042712D01*
X93487597Y-85036418D01*
X93501457Y-85031459D01*
X93515736Y-85027882D01*
X93530297Y-85025722D01*
X93545000Y-85025000D01*
X93845000Y-85025000D01*
X93859703Y-85025722D01*
X93859703Y-85025722D01*
G37*
D14*
X93695000Y-86050000D03*
D13*
G36*
X95129703Y-85025722D02*
G01*
X95144264Y-85027882D01*
X95158543Y-85031459D01*
X95172403Y-85036418D01*
X95185710Y-85042712D01*
X95198336Y-85050280D01*
X95210159Y-85059048D01*
X95221066Y-85068934D01*
X95230952Y-85079841D01*
X95239720Y-85091664D01*
X95247288Y-85104290D01*
X95253582Y-85117597D01*
X95258541Y-85131457D01*
X95262118Y-85145736D01*
X95264278Y-85160297D01*
X95265000Y-85175000D01*
X95265000Y-86925000D01*
X95264278Y-86939703D01*
X95262118Y-86954264D01*
X95258541Y-86968543D01*
X95253582Y-86982403D01*
X95247288Y-86995710D01*
X95239720Y-87008336D01*
X95230952Y-87020159D01*
X95221066Y-87031066D01*
X95210159Y-87040952D01*
X95198336Y-87049720D01*
X95185710Y-87057288D01*
X95172403Y-87063582D01*
X95158543Y-87068541D01*
X95144264Y-87072118D01*
X95129703Y-87074278D01*
X95115000Y-87075000D01*
X94815000Y-87075000D01*
X94800297Y-87074278D01*
X94785736Y-87072118D01*
X94771457Y-87068541D01*
X94757597Y-87063582D01*
X94744290Y-87057288D01*
X94731664Y-87049720D01*
X94719841Y-87040952D01*
X94708934Y-87031066D01*
X94699048Y-87020159D01*
X94690280Y-87008336D01*
X94682712Y-86995710D01*
X94676418Y-86982403D01*
X94671459Y-86968543D01*
X94667882Y-86954264D01*
X94665722Y-86939703D01*
X94665000Y-86925000D01*
X94665000Y-85175000D01*
X94665722Y-85160297D01*
X94667882Y-85145736D01*
X94671459Y-85131457D01*
X94676418Y-85117597D01*
X94682712Y-85104290D01*
X94690280Y-85091664D01*
X94699048Y-85079841D01*
X94708934Y-85068934D01*
X94719841Y-85059048D01*
X94731664Y-85050280D01*
X94744290Y-85042712D01*
X94757597Y-85036418D01*
X94771457Y-85031459D01*
X94785736Y-85027882D01*
X94800297Y-85025722D01*
X94815000Y-85025000D01*
X95115000Y-85025000D01*
X95129703Y-85025722D01*
X95129703Y-85025722D01*
G37*
D14*
X94965000Y-86050000D03*
D13*
G36*
X96399703Y-85025722D02*
G01*
X96414264Y-85027882D01*
X96428543Y-85031459D01*
X96442403Y-85036418D01*
X96455710Y-85042712D01*
X96468336Y-85050280D01*
X96480159Y-85059048D01*
X96491066Y-85068934D01*
X96500952Y-85079841D01*
X96509720Y-85091664D01*
X96517288Y-85104290D01*
X96523582Y-85117597D01*
X96528541Y-85131457D01*
X96532118Y-85145736D01*
X96534278Y-85160297D01*
X96535000Y-85175000D01*
X96535000Y-86925000D01*
X96534278Y-86939703D01*
X96532118Y-86954264D01*
X96528541Y-86968543D01*
X96523582Y-86982403D01*
X96517288Y-86995710D01*
X96509720Y-87008336D01*
X96500952Y-87020159D01*
X96491066Y-87031066D01*
X96480159Y-87040952D01*
X96468336Y-87049720D01*
X96455710Y-87057288D01*
X96442403Y-87063582D01*
X96428543Y-87068541D01*
X96414264Y-87072118D01*
X96399703Y-87074278D01*
X96385000Y-87075000D01*
X96085000Y-87075000D01*
X96070297Y-87074278D01*
X96055736Y-87072118D01*
X96041457Y-87068541D01*
X96027597Y-87063582D01*
X96014290Y-87057288D01*
X96001664Y-87049720D01*
X95989841Y-87040952D01*
X95978934Y-87031066D01*
X95969048Y-87020159D01*
X95960280Y-87008336D01*
X95952712Y-86995710D01*
X95946418Y-86982403D01*
X95941459Y-86968543D01*
X95937882Y-86954264D01*
X95935722Y-86939703D01*
X95935000Y-86925000D01*
X95935000Y-85175000D01*
X95935722Y-85160297D01*
X95937882Y-85145736D01*
X95941459Y-85131457D01*
X95946418Y-85117597D01*
X95952712Y-85104290D01*
X95960280Y-85091664D01*
X95969048Y-85079841D01*
X95978934Y-85068934D01*
X95989841Y-85059048D01*
X96001664Y-85050280D01*
X96014290Y-85042712D01*
X96027597Y-85036418D01*
X96041457Y-85031459D01*
X96055736Y-85027882D01*
X96070297Y-85025722D01*
X96085000Y-85025000D01*
X96385000Y-85025000D01*
X96399703Y-85025722D01*
X96399703Y-85025722D01*
G37*
D14*
X96235000Y-86050000D03*
D13*
G36*
X97669703Y-85025722D02*
G01*
X97684264Y-85027882D01*
X97698543Y-85031459D01*
X97712403Y-85036418D01*
X97725710Y-85042712D01*
X97738336Y-85050280D01*
X97750159Y-85059048D01*
X97761066Y-85068934D01*
X97770952Y-85079841D01*
X97779720Y-85091664D01*
X97787288Y-85104290D01*
X97793582Y-85117597D01*
X97798541Y-85131457D01*
X97802118Y-85145736D01*
X97804278Y-85160297D01*
X97805000Y-85175000D01*
X97805000Y-86925000D01*
X97804278Y-86939703D01*
X97802118Y-86954264D01*
X97798541Y-86968543D01*
X97793582Y-86982403D01*
X97787288Y-86995710D01*
X97779720Y-87008336D01*
X97770952Y-87020159D01*
X97761066Y-87031066D01*
X97750159Y-87040952D01*
X97738336Y-87049720D01*
X97725710Y-87057288D01*
X97712403Y-87063582D01*
X97698543Y-87068541D01*
X97684264Y-87072118D01*
X97669703Y-87074278D01*
X97655000Y-87075000D01*
X97355000Y-87075000D01*
X97340297Y-87074278D01*
X97325736Y-87072118D01*
X97311457Y-87068541D01*
X97297597Y-87063582D01*
X97284290Y-87057288D01*
X97271664Y-87049720D01*
X97259841Y-87040952D01*
X97248934Y-87031066D01*
X97239048Y-87020159D01*
X97230280Y-87008336D01*
X97222712Y-86995710D01*
X97216418Y-86982403D01*
X97211459Y-86968543D01*
X97207882Y-86954264D01*
X97205722Y-86939703D01*
X97205000Y-86925000D01*
X97205000Y-85175000D01*
X97205722Y-85160297D01*
X97207882Y-85145736D01*
X97211459Y-85131457D01*
X97216418Y-85117597D01*
X97222712Y-85104290D01*
X97230280Y-85091664D01*
X97239048Y-85079841D01*
X97248934Y-85068934D01*
X97259841Y-85059048D01*
X97271664Y-85050280D01*
X97284290Y-85042712D01*
X97297597Y-85036418D01*
X97311457Y-85031459D01*
X97325736Y-85027882D01*
X97340297Y-85025722D01*
X97355000Y-85025000D01*
X97655000Y-85025000D01*
X97669703Y-85025722D01*
X97669703Y-85025722D01*
G37*
D14*
X97505000Y-86050000D03*
D13*
G36*
X98939703Y-85025722D02*
G01*
X98954264Y-85027882D01*
X98968543Y-85031459D01*
X98982403Y-85036418D01*
X98995710Y-85042712D01*
X99008336Y-85050280D01*
X99020159Y-85059048D01*
X99031066Y-85068934D01*
X99040952Y-85079841D01*
X99049720Y-85091664D01*
X99057288Y-85104290D01*
X99063582Y-85117597D01*
X99068541Y-85131457D01*
X99072118Y-85145736D01*
X99074278Y-85160297D01*
X99075000Y-85175000D01*
X99075000Y-86925000D01*
X99074278Y-86939703D01*
X99072118Y-86954264D01*
X99068541Y-86968543D01*
X99063582Y-86982403D01*
X99057288Y-86995710D01*
X99049720Y-87008336D01*
X99040952Y-87020159D01*
X99031066Y-87031066D01*
X99020159Y-87040952D01*
X99008336Y-87049720D01*
X98995710Y-87057288D01*
X98982403Y-87063582D01*
X98968543Y-87068541D01*
X98954264Y-87072118D01*
X98939703Y-87074278D01*
X98925000Y-87075000D01*
X98625000Y-87075000D01*
X98610297Y-87074278D01*
X98595736Y-87072118D01*
X98581457Y-87068541D01*
X98567597Y-87063582D01*
X98554290Y-87057288D01*
X98541664Y-87049720D01*
X98529841Y-87040952D01*
X98518934Y-87031066D01*
X98509048Y-87020159D01*
X98500280Y-87008336D01*
X98492712Y-86995710D01*
X98486418Y-86982403D01*
X98481459Y-86968543D01*
X98477882Y-86954264D01*
X98475722Y-86939703D01*
X98475000Y-86925000D01*
X98475000Y-85175000D01*
X98475722Y-85160297D01*
X98477882Y-85145736D01*
X98481459Y-85131457D01*
X98486418Y-85117597D01*
X98492712Y-85104290D01*
X98500280Y-85091664D01*
X98509048Y-85079841D01*
X98518934Y-85068934D01*
X98529841Y-85059048D01*
X98541664Y-85050280D01*
X98554290Y-85042712D01*
X98567597Y-85036418D01*
X98581457Y-85031459D01*
X98595736Y-85027882D01*
X98610297Y-85025722D01*
X98625000Y-85025000D01*
X98925000Y-85025000D01*
X98939703Y-85025722D01*
X98939703Y-85025722D01*
G37*
D14*
X98775000Y-86050000D03*
D13*
G36*
X100209703Y-85025722D02*
G01*
X100224264Y-85027882D01*
X100238543Y-85031459D01*
X100252403Y-85036418D01*
X100265710Y-85042712D01*
X100278336Y-85050280D01*
X100290159Y-85059048D01*
X100301066Y-85068934D01*
X100310952Y-85079841D01*
X100319720Y-85091664D01*
X100327288Y-85104290D01*
X100333582Y-85117597D01*
X100338541Y-85131457D01*
X100342118Y-85145736D01*
X100344278Y-85160297D01*
X100345000Y-85175000D01*
X100345000Y-86925000D01*
X100344278Y-86939703D01*
X100342118Y-86954264D01*
X100338541Y-86968543D01*
X100333582Y-86982403D01*
X100327288Y-86995710D01*
X100319720Y-87008336D01*
X100310952Y-87020159D01*
X100301066Y-87031066D01*
X100290159Y-87040952D01*
X100278336Y-87049720D01*
X100265710Y-87057288D01*
X100252403Y-87063582D01*
X100238543Y-87068541D01*
X100224264Y-87072118D01*
X100209703Y-87074278D01*
X100195000Y-87075000D01*
X99895000Y-87075000D01*
X99880297Y-87074278D01*
X99865736Y-87072118D01*
X99851457Y-87068541D01*
X99837597Y-87063582D01*
X99824290Y-87057288D01*
X99811664Y-87049720D01*
X99799841Y-87040952D01*
X99788934Y-87031066D01*
X99779048Y-87020159D01*
X99770280Y-87008336D01*
X99762712Y-86995710D01*
X99756418Y-86982403D01*
X99751459Y-86968543D01*
X99747882Y-86954264D01*
X99745722Y-86939703D01*
X99745000Y-86925000D01*
X99745000Y-85175000D01*
X99745722Y-85160297D01*
X99747882Y-85145736D01*
X99751459Y-85131457D01*
X99756418Y-85117597D01*
X99762712Y-85104290D01*
X99770280Y-85091664D01*
X99779048Y-85079841D01*
X99788934Y-85068934D01*
X99799841Y-85059048D01*
X99811664Y-85050280D01*
X99824290Y-85042712D01*
X99837597Y-85036418D01*
X99851457Y-85031459D01*
X99865736Y-85027882D01*
X99880297Y-85025722D01*
X99895000Y-85025000D01*
X100195000Y-85025000D01*
X100209703Y-85025722D01*
X100209703Y-85025722D01*
G37*
D14*
X100045000Y-86050000D03*
D13*
G36*
X101479703Y-85025722D02*
G01*
X101494264Y-85027882D01*
X101508543Y-85031459D01*
X101522403Y-85036418D01*
X101535710Y-85042712D01*
X101548336Y-85050280D01*
X101560159Y-85059048D01*
X101571066Y-85068934D01*
X101580952Y-85079841D01*
X101589720Y-85091664D01*
X101597288Y-85104290D01*
X101603582Y-85117597D01*
X101608541Y-85131457D01*
X101612118Y-85145736D01*
X101614278Y-85160297D01*
X101615000Y-85175000D01*
X101615000Y-86925000D01*
X101614278Y-86939703D01*
X101612118Y-86954264D01*
X101608541Y-86968543D01*
X101603582Y-86982403D01*
X101597288Y-86995710D01*
X101589720Y-87008336D01*
X101580952Y-87020159D01*
X101571066Y-87031066D01*
X101560159Y-87040952D01*
X101548336Y-87049720D01*
X101535710Y-87057288D01*
X101522403Y-87063582D01*
X101508543Y-87068541D01*
X101494264Y-87072118D01*
X101479703Y-87074278D01*
X101465000Y-87075000D01*
X101165000Y-87075000D01*
X101150297Y-87074278D01*
X101135736Y-87072118D01*
X101121457Y-87068541D01*
X101107597Y-87063582D01*
X101094290Y-87057288D01*
X101081664Y-87049720D01*
X101069841Y-87040952D01*
X101058934Y-87031066D01*
X101049048Y-87020159D01*
X101040280Y-87008336D01*
X101032712Y-86995710D01*
X101026418Y-86982403D01*
X101021459Y-86968543D01*
X101017882Y-86954264D01*
X101015722Y-86939703D01*
X101015000Y-86925000D01*
X101015000Y-85175000D01*
X101015722Y-85160297D01*
X101017882Y-85145736D01*
X101021459Y-85131457D01*
X101026418Y-85117597D01*
X101032712Y-85104290D01*
X101040280Y-85091664D01*
X101049048Y-85079841D01*
X101058934Y-85068934D01*
X101069841Y-85059048D01*
X101081664Y-85050280D01*
X101094290Y-85042712D01*
X101107597Y-85036418D01*
X101121457Y-85031459D01*
X101135736Y-85027882D01*
X101150297Y-85025722D01*
X101165000Y-85025000D01*
X101465000Y-85025000D01*
X101479703Y-85025722D01*
X101479703Y-85025722D01*
G37*
D14*
X101315000Y-86050000D03*
D13*
G36*
X102749703Y-85025722D02*
G01*
X102764264Y-85027882D01*
X102778543Y-85031459D01*
X102792403Y-85036418D01*
X102805710Y-85042712D01*
X102818336Y-85050280D01*
X102830159Y-85059048D01*
X102841066Y-85068934D01*
X102850952Y-85079841D01*
X102859720Y-85091664D01*
X102867288Y-85104290D01*
X102873582Y-85117597D01*
X102878541Y-85131457D01*
X102882118Y-85145736D01*
X102884278Y-85160297D01*
X102885000Y-85175000D01*
X102885000Y-86925000D01*
X102884278Y-86939703D01*
X102882118Y-86954264D01*
X102878541Y-86968543D01*
X102873582Y-86982403D01*
X102867288Y-86995710D01*
X102859720Y-87008336D01*
X102850952Y-87020159D01*
X102841066Y-87031066D01*
X102830159Y-87040952D01*
X102818336Y-87049720D01*
X102805710Y-87057288D01*
X102792403Y-87063582D01*
X102778543Y-87068541D01*
X102764264Y-87072118D01*
X102749703Y-87074278D01*
X102735000Y-87075000D01*
X102435000Y-87075000D01*
X102420297Y-87074278D01*
X102405736Y-87072118D01*
X102391457Y-87068541D01*
X102377597Y-87063582D01*
X102364290Y-87057288D01*
X102351664Y-87049720D01*
X102339841Y-87040952D01*
X102328934Y-87031066D01*
X102319048Y-87020159D01*
X102310280Y-87008336D01*
X102302712Y-86995710D01*
X102296418Y-86982403D01*
X102291459Y-86968543D01*
X102287882Y-86954264D01*
X102285722Y-86939703D01*
X102285000Y-86925000D01*
X102285000Y-85175000D01*
X102285722Y-85160297D01*
X102287882Y-85145736D01*
X102291459Y-85131457D01*
X102296418Y-85117597D01*
X102302712Y-85104290D01*
X102310280Y-85091664D01*
X102319048Y-85079841D01*
X102328934Y-85068934D01*
X102339841Y-85059048D01*
X102351664Y-85050280D01*
X102364290Y-85042712D01*
X102377597Y-85036418D01*
X102391457Y-85031459D01*
X102405736Y-85027882D01*
X102420297Y-85025722D01*
X102435000Y-85025000D01*
X102735000Y-85025000D01*
X102749703Y-85025722D01*
X102749703Y-85025722D01*
G37*
D14*
X102585000Y-86050000D03*
D13*
G36*
X104019703Y-85025722D02*
G01*
X104034264Y-85027882D01*
X104048543Y-85031459D01*
X104062403Y-85036418D01*
X104075710Y-85042712D01*
X104088336Y-85050280D01*
X104100159Y-85059048D01*
X104111066Y-85068934D01*
X104120952Y-85079841D01*
X104129720Y-85091664D01*
X104137288Y-85104290D01*
X104143582Y-85117597D01*
X104148541Y-85131457D01*
X104152118Y-85145736D01*
X104154278Y-85160297D01*
X104155000Y-85175000D01*
X104155000Y-86925000D01*
X104154278Y-86939703D01*
X104152118Y-86954264D01*
X104148541Y-86968543D01*
X104143582Y-86982403D01*
X104137288Y-86995710D01*
X104129720Y-87008336D01*
X104120952Y-87020159D01*
X104111066Y-87031066D01*
X104100159Y-87040952D01*
X104088336Y-87049720D01*
X104075710Y-87057288D01*
X104062403Y-87063582D01*
X104048543Y-87068541D01*
X104034264Y-87072118D01*
X104019703Y-87074278D01*
X104005000Y-87075000D01*
X103705000Y-87075000D01*
X103690297Y-87074278D01*
X103675736Y-87072118D01*
X103661457Y-87068541D01*
X103647597Y-87063582D01*
X103634290Y-87057288D01*
X103621664Y-87049720D01*
X103609841Y-87040952D01*
X103598934Y-87031066D01*
X103589048Y-87020159D01*
X103580280Y-87008336D01*
X103572712Y-86995710D01*
X103566418Y-86982403D01*
X103561459Y-86968543D01*
X103557882Y-86954264D01*
X103555722Y-86939703D01*
X103555000Y-86925000D01*
X103555000Y-85175000D01*
X103555722Y-85160297D01*
X103557882Y-85145736D01*
X103561459Y-85131457D01*
X103566418Y-85117597D01*
X103572712Y-85104290D01*
X103580280Y-85091664D01*
X103589048Y-85079841D01*
X103598934Y-85068934D01*
X103609841Y-85059048D01*
X103621664Y-85050280D01*
X103634290Y-85042712D01*
X103647597Y-85036418D01*
X103661457Y-85031459D01*
X103675736Y-85027882D01*
X103690297Y-85025722D01*
X103705000Y-85025000D01*
X104005000Y-85025000D01*
X104019703Y-85025722D01*
X104019703Y-85025722D01*
G37*
D14*
X103855000Y-86050000D03*
D13*
G36*
X104019703Y-94325722D02*
G01*
X104034264Y-94327882D01*
X104048543Y-94331459D01*
X104062403Y-94336418D01*
X104075710Y-94342712D01*
X104088336Y-94350280D01*
X104100159Y-94359048D01*
X104111066Y-94368934D01*
X104120952Y-94379841D01*
X104129720Y-94391664D01*
X104137288Y-94404290D01*
X104143582Y-94417597D01*
X104148541Y-94431457D01*
X104152118Y-94445736D01*
X104154278Y-94460297D01*
X104155000Y-94475000D01*
X104155000Y-96225000D01*
X104154278Y-96239703D01*
X104152118Y-96254264D01*
X104148541Y-96268543D01*
X104143582Y-96282403D01*
X104137288Y-96295710D01*
X104129720Y-96308336D01*
X104120952Y-96320159D01*
X104111066Y-96331066D01*
X104100159Y-96340952D01*
X104088336Y-96349720D01*
X104075710Y-96357288D01*
X104062403Y-96363582D01*
X104048543Y-96368541D01*
X104034264Y-96372118D01*
X104019703Y-96374278D01*
X104005000Y-96375000D01*
X103705000Y-96375000D01*
X103690297Y-96374278D01*
X103675736Y-96372118D01*
X103661457Y-96368541D01*
X103647597Y-96363582D01*
X103634290Y-96357288D01*
X103621664Y-96349720D01*
X103609841Y-96340952D01*
X103598934Y-96331066D01*
X103589048Y-96320159D01*
X103580280Y-96308336D01*
X103572712Y-96295710D01*
X103566418Y-96282403D01*
X103561459Y-96268543D01*
X103557882Y-96254264D01*
X103555722Y-96239703D01*
X103555000Y-96225000D01*
X103555000Y-94475000D01*
X103555722Y-94460297D01*
X103557882Y-94445736D01*
X103561459Y-94431457D01*
X103566418Y-94417597D01*
X103572712Y-94404290D01*
X103580280Y-94391664D01*
X103589048Y-94379841D01*
X103598934Y-94368934D01*
X103609841Y-94359048D01*
X103621664Y-94350280D01*
X103634290Y-94342712D01*
X103647597Y-94336418D01*
X103661457Y-94331459D01*
X103675736Y-94327882D01*
X103690297Y-94325722D01*
X103705000Y-94325000D01*
X104005000Y-94325000D01*
X104019703Y-94325722D01*
X104019703Y-94325722D01*
G37*
D14*
X103855000Y-95350000D03*
D13*
G36*
X102749703Y-94325722D02*
G01*
X102764264Y-94327882D01*
X102778543Y-94331459D01*
X102792403Y-94336418D01*
X102805710Y-94342712D01*
X102818336Y-94350280D01*
X102830159Y-94359048D01*
X102841066Y-94368934D01*
X102850952Y-94379841D01*
X102859720Y-94391664D01*
X102867288Y-94404290D01*
X102873582Y-94417597D01*
X102878541Y-94431457D01*
X102882118Y-94445736D01*
X102884278Y-94460297D01*
X102885000Y-94475000D01*
X102885000Y-96225000D01*
X102884278Y-96239703D01*
X102882118Y-96254264D01*
X102878541Y-96268543D01*
X102873582Y-96282403D01*
X102867288Y-96295710D01*
X102859720Y-96308336D01*
X102850952Y-96320159D01*
X102841066Y-96331066D01*
X102830159Y-96340952D01*
X102818336Y-96349720D01*
X102805710Y-96357288D01*
X102792403Y-96363582D01*
X102778543Y-96368541D01*
X102764264Y-96372118D01*
X102749703Y-96374278D01*
X102735000Y-96375000D01*
X102435000Y-96375000D01*
X102420297Y-96374278D01*
X102405736Y-96372118D01*
X102391457Y-96368541D01*
X102377597Y-96363582D01*
X102364290Y-96357288D01*
X102351664Y-96349720D01*
X102339841Y-96340952D01*
X102328934Y-96331066D01*
X102319048Y-96320159D01*
X102310280Y-96308336D01*
X102302712Y-96295710D01*
X102296418Y-96282403D01*
X102291459Y-96268543D01*
X102287882Y-96254264D01*
X102285722Y-96239703D01*
X102285000Y-96225000D01*
X102285000Y-94475000D01*
X102285722Y-94460297D01*
X102287882Y-94445736D01*
X102291459Y-94431457D01*
X102296418Y-94417597D01*
X102302712Y-94404290D01*
X102310280Y-94391664D01*
X102319048Y-94379841D01*
X102328934Y-94368934D01*
X102339841Y-94359048D01*
X102351664Y-94350280D01*
X102364290Y-94342712D01*
X102377597Y-94336418D01*
X102391457Y-94331459D01*
X102405736Y-94327882D01*
X102420297Y-94325722D01*
X102435000Y-94325000D01*
X102735000Y-94325000D01*
X102749703Y-94325722D01*
X102749703Y-94325722D01*
G37*
D14*
X102585000Y-95350000D03*
D13*
G36*
X101479703Y-94325722D02*
G01*
X101494264Y-94327882D01*
X101508543Y-94331459D01*
X101522403Y-94336418D01*
X101535710Y-94342712D01*
X101548336Y-94350280D01*
X101560159Y-94359048D01*
X101571066Y-94368934D01*
X101580952Y-94379841D01*
X101589720Y-94391664D01*
X101597288Y-94404290D01*
X101603582Y-94417597D01*
X101608541Y-94431457D01*
X101612118Y-94445736D01*
X101614278Y-94460297D01*
X101615000Y-94475000D01*
X101615000Y-96225000D01*
X101614278Y-96239703D01*
X101612118Y-96254264D01*
X101608541Y-96268543D01*
X101603582Y-96282403D01*
X101597288Y-96295710D01*
X101589720Y-96308336D01*
X101580952Y-96320159D01*
X101571066Y-96331066D01*
X101560159Y-96340952D01*
X101548336Y-96349720D01*
X101535710Y-96357288D01*
X101522403Y-96363582D01*
X101508543Y-96368541D01*
X101494264Y-96372118D01*
X101479703Y-96374278D01*
X101465000Y-96375000D01*
X101165000Y-96375000D01*
X101150297Y-96374278D01*
X101135736Y-96372118D01*
X101121457Y-96368541D01*
X101107597Y-96363582D01*
X101094290Y-96357288D01*
X101081664Y-96349720D01*
X101069841Y-96340952D01*
X101058934Y-96331066D01*
X101049048Y-96320159D01*
X101040280Y-96308336D01*
X101032712Y-96295710D01*
X101026418Y-96282403D01*
X101021459Y-96268543D01*
X101017882Y-96254264D01*
X101015722Y-96239703D01*
X101015000Y-96225000D01*
X101015000Y-94475000D01*
X101015722Y-94460297D01*
X101017882Y-94445736D01*
X101021459Y-94431457D01*
X101026418Y-94417597D01*
X101032712Y-94404290D01*
X101040280Y-94391664D01*
X101049048Y-94379841D01*
X101058934Y-94368934D01*
X101069841Y-94359048D01*
X101081664Y-94350280D01*
X101094290Y-94342712D01*
X101107597Y-94336418D01*
X101121457Y-94331459D01*
X101135736Y-94327882D01*
X101150297Y-94325722D01*
X101165000Y-94325000D01*
X101465000Y-94325000D01*
X101479703Y-94325722D01*
X101479703Y-94325722D01*
G37*
D14*
X101315000Y-95350000D03*
D13*
G36*
X100209703Y-94325722D02*
G01*
X100224264Y-94327882D01*
X100238543Y-94331459D01*
X100252403Y-94336418D01*
X100265710Y-94342712D01*
X100278336Y-94350280D01*
X100290159Y-94359048D01*
X100301066Y-94368934D01*
X100310952Y-94379841D01*
X100319720Y-94391664D01*
X100327288Y-94404290D01*
X100333582Y-94417597D01*
X100338541Y-94431457D01*
X100342118Y-94445736D01*
X100344278Y-94460297D01*
X100345000Y-94475000D01*
X100345000Y-96225000D01*
X100344278Y-96239703D01*
X100342118Y-96254264D01*
X100338541Y-96268543D01*
X100333582Y-96282403D01*
X100327288Y-96295710D01*
X100319720Y-96308336D01*
X100310952Y-96320159D01*
X100301066Y-96331066D01*
X100290159Y-96340952D01*
X100278336Y-96349720D01*
X100265710Y-96357288D01*
X100252403Y-96363582D01*
X100238543Y-96368541D01*
X100224264Y-96372118D01*
X100209703Y-96374278D01*
X100195000Y-96375000D01*
X99895000Y-96375000D01*
X99880297Y-96374278D01*
X99865736Y-96372118D01*
X99851457Y-96368541D01*
X99837597Y-96363582D01*
X99824290Y-96357288D01*
X99811664Y-96349720D01*
X99799841Y-96340952D01*
X99788934Y-96331066D01*
X99779048Y-96320159D01*
X99770280Y-96308336D01*
X99762712Y-96295710D01*
X99756418Y-96282403D01*
X99751459Y-96268543D01*
X99747882Y-96254264D01*
X99745722Y-96239703D01*
X99745000Y-96225000D01*
X99745000Y-94475000D01*
X99745722Y-94460297D01*
X99747882Y-94445736D01*
X99751459Y-94431457D01*
X99756418Y-94417597D01*
X99762712Y-94404290D01*
X99770280Y-94391664D01*
X99779048Y-94379841D01*
X99788934Y-94368934D01*
X99799841Y-94359048D01*
X99811664Y-94350280D01*
X99824290Y-94342712D01*
X99837597Y-94336418D01*
X99851457Y-94331459D01*
X99865736Y-94327882D01*
X99880297Y-94325722D01*
X99895000Y-94325000D01*
X100195000Y-94325000D01*
X100209703Y-94325722D01*
X100209703Y-94325722D01*
G37*
D14*
X100045000Y-95350000D03*
D13*
G36*
X98939703Y-94325722D02*
G01*
X98954264Y-94327882D01*
X98968543Y-94331459D01*
X98982403Y-94336418D01*
X98995710Y-94342712D01*
X99008336Y-94350280D01*
X99020159Y-94359048D01*
X99031066Y-94368934D01*
X99040952Y-94379841D01*
X99049720Y-94391664D01*
X99057288Y-94404290D01*
X99063582Y-94417597D01*
X99068541Y-94431457D01*
X99072118Y-94445736D01*
X99074278Y-94460297D01*
X99075000Y-94475000D01*
X99075000Y-96225000D01*
X99074278Y-96239703D01*
X99072118Y-96254264D01*
X99068541Y-96268543D01*
X99063582Y-96282403D01*
X99057288Y-96295710D01*
X99049720Y-96308336D01*
X99040952Y-96320159D01*
X99031066Y-96331066D01*
X99020159Y-96340952D01*
X99008336Y-96349720D01*
X98995710Y-96357288D01*
X98982403Y-96363582D01*
X98968543Y-96368541D01*
X98954264Y-96372118D01*
X98939703Y-96374278D01*
X98925000Y-96375000D01*
X98625000Y-96375000D01*
X98610297Y-96374278D01*
X98595736Y-96372118D01*
X98581457Y-96368541D01*
X98567597Y-96363582D01*
X98554290Y-96357288D01*
X98541664Y-96349720D01*
X98529841Y-96340952D01*
X98518934Y-96331066D01*
X98509048Y-96320159D01*
X98500280Y-96308336D01*
X98492712Y-96295710D01*
X98486418Y-96282403D01*
X98481459Y-96268543D01*
X98477882Y-96254264D01*
X98475722Y-96239703D01*
X98475000Y-96225000D01*
X98475000Y-94475000D01*
X98475722Y-94460297D01*
X98477882Y-94445736D01*
X98481459Y-94431457D01*
X98486418Y-94417597D01*
X98492712Y-94404290D01*
X98500280Y-94391664D01*
X98509048Y-94379841D01*
X98518934Y-94368934D01*
X98529841Y-94359048D01*
X98541664Y-94350280D01*
X98554290Y-94342712D01*
X98567597Y-94336418D01*
X98581457Y-94331459D01*
X98595736Y-94327882D01*
X98610297Y-94325722D01*
X98625000Y-94325000D01*
X98925000Y-94325000D01*
X98939703Y-94325722D01*
X98939703Y-94325722D01*
G37*
D14*
X98775000Y-95350000D03*
D13*
G36*
X97669703Y-94325722D02*
G01*
X97684264Y-94327882D01*
X97698543Y-94331459D01*
X97712403Y-94336418D01*
X97725710Y-94342712D01*
X97738336Y-94350280D01*
X97750159Y-94359048D01*
X97761066Y-94368934D01*
X97770952Y-94379841D01*
X97779720Y-94391664D01*
X97787288Y-94404290D01*
X97793582Y-94417597D01*
X97798541Y-94431457D01*
X97802118Y-94445736D01*
X97804278Y-94460297D01*
X97805000Y-94475000D01*
X97805000Y-96225000D01*
X97804278Y-96239703D01*
X97802118Y-96254264D01*
X97798541Y-96268543D01*
X97793582Y-96282403D01*
X97787288Y-96295710D01*
X97779720Y-96308336D01*
X97770952Y-96320159D01*
X97761066Y-96331066D01*
X97750159Y-96340952D01*
X97738336Y-96349720D01*
X97725710Y-96357288D01*
X97712403Y-96363582D01*
X97698543Y-96368541D01*
X97684264Y-96372118D01*
X97669703Y-96374278D01*
X97655000Y-96375000D01*
X97355000Y-96375000D01*
X97340297Y-96374278D01*
X97325736Y-96372118D01*
X97311457Y-96368541D01*
X97297597Y-96363582D01*
X97284290Y-96357288D01*
X97271664Y-96349720D01*
X97259841Y-96340952D01*
X97248934Y-96331066D01*
X97239048Y-96320159D01*
X97230280Y-96308336D01*
X97222712Y-96295710D01*
X97216418Y-96282403D01*
X97211459Y-96268543D01*
X97207882Y-96254264D01*
X97205722Y-96239703D01*
X97205000Y-96225000D01*
X97205000Y-94475000D01*
X97205722Y-94460297D01*
X97207882Y-94445736D01*
X97211459Y-94431457D01*
X97216418Y-94417597D01*
X97222712Y-94404290D01*
X97230280Y-94391664D01*
X97239048Y-94379841D01*
X97248934Y-94368934D01*
X97259841Y-94359048D01*
X97271664Y-94350280D01*
X97284290Y-94342712D01*
X97297597Y-94336418D01*
X97311457Y-94331459D01*
X97325736Y-94327882D01*
X97340297Y-94325722D01*
X97355000Y-94325000D01*
X97655000Y-94325000D01*
X97669703Y-94325722D01*
X97669703Y-94325722D01*
G37*
D14*
X97505000Y-95350000D03*
D13*
G36*
X96399703Y-94325722D02*
G01*
X96414264Y-94327882D01*
X96428543Y-94331459D01*
X96442403Y-94336418D01*
X96455710Y-94342712D01*
X96468336Y-94350280D01*
X96480159Y-94359048D01*
X96491066Y-94368934D01*
X96500952Y-94379841D01*
X96509720Y-94391664D01*
X96517288Y-94404290D01*
X96523582Y-94417597D01*
X96528541Y-94431457D01*
X96532118Y-94445736D01*
X96534278Y-94460297D01*
X96535000Y-94475000D01*
X96535000Y-96225000D01*
X96534278Y-96239703D01*
X96532118Y-96254264D01*
X96528541Y-96268543D01*
X96523582Y-96282403D01*
X96517288Y-96295710D01*
X96509720Y-96308336D01*
X96500952Y-96320159D01*
X96491066Y-96331066D01*
X96480159Y-96340952D01*
X96468336Y-96349720D01*
X96455710Y-96357288D01*
X96442403Y-96363582D01*
X96428543Y-96368541D01*
X96414264Y-96372118D01*
X96399703Y-96374278D01*
X96385000Y-96375000D01*
X96085000Y-96375000D01*
X96070297Y-96374278D01*
X96055736Y-96372118D01*
X96041457Y-96368541D01*
X96027597Y-96363582D01*
X96014290Y-96357288D01*
X96001664Y-96349720D01*
X95989841Y-96340952D01*
X95978934Y-96331066D01*
X95969048Y-96320159D01*
X95960280Y-96308336D01*
X95952712Y-96295710D01*
X95946418Y-96282403D01*
X95941459Y-96268543D01*
X95937882Y-96254264D01*
X95935722Y-96239703D01*
X95935000Y-96225000D01*
X95935000Y-94475000D01*
X95935722Y-94460297D01*
X95937882Y-94445736D01*
X95941459Y-94431457D01*
X95946418Y-94417597D01*
X95952712Y-94404290D01*
X95960280Y-94391664D01*
X95969048Y-94379841D01*
X95978934Y-94368934D01*
X95989841Y-94359048D01*
X96001664Y-94350280D01*
X96014290Y-94342712D01*
X96027597Y-94336418D01*
X96041457Y-94331459D01*
X96055736Y-94327882D01*
X96070297Y-94325722D01*
X96085000Y-94325000D01*
X96385000Y-94325000D01*
X96399703Y-94325722D01*
X96399703Y-94325722D01*
G37*
D14*
X96235000Y-95350000D03*
D13*
G36*
X95129703Y-94325722D02*
G01*
X95144264Y-94327882D01*
X95158543Y-94331459D01*
X95172403Y-94336418D01*
X95185710Y-94342712D01*
X95198336Y-94350280D01*
X95210159Y-94359048D01*
X95221066Y-94368934D01*
X95230952Y-94379841D01*
X95239720Y-94391664D01*
X95247288Y-94404290D01*
X95253582Y-94417597D01*
X95258541Y-94431457D01*
X95262118Y-94445736D01*
X95264278Y-94460297D01*
X95265000Y-94475000D01*
X95265000Y-96225000D01*
X95264278Y-96239703D01*
X95262118Y-96254264D01*
X95258541Y-96268543D01*
X95253582Y-96282403D01*
X95247288Y-96295710D01*
X95239720Y-96308336D01*
X95230952Y-96320159D01*
X95221066Y-96331066D01*
X95210159Y-96340952D01*
X95198336Y-96349720D01*
X95185710Y-96357288D01*
X95172403Y-96363582D01*
X95158543Y-96368541D01*
X95144264Y-96372118D01*
X95129703Y-96374278D01*
X95115000Y-96375000D01*
X94815000Y-96375000D01*
X94800297Y-96374278D01*
X94785736Y-96372118D01*
X94771457Y-96368541D01*
X94757597Y-96363582D01*
X94744290Y-96357288D01*
X94731664Y-96349720D01*
X94719841Y-96340952D01*
X94708934Y-96331066D01*
X94699048Y-96320159D01*
X94690280Y-96308336D01*
X94682712Y-96295710D01*
X94676418Y-96282403D01*
X94671459Y-96268543D01*
X94667882Y-96254264D01*
X94665722Y-96239703D01*
X94665000Y-96225000D01*
X94665000Y-94475000D01*
X94665722Y-94460297D01*
X94667882Y-94445736D01*
X94671459Y-94431457D01*
X94676418Y-94417597D01*
X94682712Y-94404290D01*
X94690280Y-94391664D01*
X94699048Y-94379841D01*
X94708934Y-94368934D01*
X94719841Y-94359048D01*
X94731664Y-94350280D01*
X94744290Y-94342712D01*
X94757597Y-94336418D01*
X94771457Y-94331459D01*
X94785736Y-94327882D01*
X94800297Y-94325722D01*
X94815000Y-94325000D01*
X95115000Y-94325000D01*
X95129703Y-94325722D01*
X95129703Y-94325722D01*
G37*
D14*
X94965000Y-95350000D03*
D13*
G36*
X93859703Y-94325722D02*
G01*
X93874264Y-94327882D01*
X93888543Y-94331459D01*
X93902403Y-94336418D01*
X93915710Y-94342712D01*
X93928336Y-94350280D01*
X93940159Y-94359048D01*
X93951066Y-94368934D01*
X93960952Y-94379841D01*
X93969720Y-94391664D01*
X93977288Y-94404290D01*
X93983582Y-94417597D01*
X93988541Y-94431457D01*
X93992118Y-94445736D01*
X93994278Y-94460297D01*
X93995000Y-94475000D01*
X93995000Y-96225000D01*
X93994278Y-96239703D01*
X93992118Y-96254264D01*
X93988541Y-96268543D01*
X93983582Y-96282403D01*
X93977288Y-96295710D01*
X93969720Y-96308336D01*
X93960952Y-96320159D01*
X93951066Y-96331066D01*
X93940159Y-96340952D01*
X93928336Y-96349720D01*
X93915710Y-96357288D01*
X93902403Y-96363582D01*
X93888543Y-96368541D01*
X93874264Y-96372118D01*
X93859703Y-96374278D01*
X93845000Y-96375000D01*
X93545000Y-96375000D01*
X93530297Y-96374278D01*
X93515736Y-96372118D01*
X93501457Y-96368541D01*
X93487597Y-96363582D01*
X93474290Y-96357288D01*
X93461664Y-96349720D01*
X93449841Y-96340952D01*
X93438934Y-96331066D01*
X93429048Y-96320159D01*
X93420280Y-96308336D01*
X93412712Y-96295710D01*
X93406418Y-96282403D01*
X93401459Y-96268543D01*
X93397882Y-96254264D01*
X93395722Y-96239703D01*
X93395000Y-96225000D01*
X93395000Y-94475000D01*
X93395722Y-94460297D01*
X93397882Y-94445736D01*
X93401459Y-94431457D01*
X93406418Y-94417597D01*
X93412712Y-94404290D01*
X93420280Y-94391664D01*
X93429048Y-94379841D01*
X93438934Y-94368934D01*
X93449841Y-94359048D01*
X93461664Y-94350280D01*
X93474290Y-94342712D01*
X93487597Y-94336418D01*
X93501457Y-94331459D01*
X93515736Y-94327882D01*
X93530297Y-94325722D01*
X93545000Y-94325000D01*
X93845000Y-94325000D01*
X93859703Y-94325722D01*
X93859703Y-94325722D01*
G37*
D14*
X93695000Y-95350000D03*
D13*
G36*
X92589703Y-94325722D02*
G01*
X92604264Y-94327882D01*
X92618543Y-94331459D01*
X92632403Y-94336418D01*
X92645710Y-94342712D01*
X92658336Y-94350280D01*
X92670159Y-94359048D01*
X92681066Y-94368934D01*
X92690952Y-94379841D01*
X92699720Y-94391664D01*
X92707288Y-94404290D01*
X92713582Y-94417597D01*
X92718541Y-94431457D01*
X92722118Y-94445736D01*
X92724278Y-94460297D01*
X92725000Y-94475000D01*
X92725000Y-96225000D01*
X92724278Y-96239703D01*
X92722118Y-96254264D01*
X92718541Y-96268543D01*
X92713582Y-96282403D01*
X92707288Y-96295710D01*
X92699720Y-96308336D01*
X92690952Y-96320159D01*
X92681066Y-96331066D01*
X92670159Y-96340952D01*
X92658336Y-96349720D01*
X92645710Y-96357288D01*
X92632403Y-96363582D01*
X92618543Y-96368541D01*
X92604264Y-96372118D01*
X92589703Y-96374278D01*
X92575000Y-96375000D01*
X92275000Y-96375000D01*
X92260297Y-96374278D01*
X92245736Y-96372118D01*
X92231457Y-96368541D01*
X92217597Y-96363582D01*
X92204290Y-96357288D01*
X92191664Y-96349720D01*
X92179841Y-96340952D01*
X92168934Y-96331066D01*
X92159048Y-96320159D01*
X92150280Y-96308336D01*
X92142712Y-96295710D01*
X92136418Y-96282403D01*
X92131459Y-96268543D01*
X92127882Y-96254264D01*
X92125722Y-96239703D01*
X92125000Y-96225000D01*
X92125000Y-94475000D01*
X92125722Y-94460297D01*
X92127882Y-94445736D01*
X92131459Y-94431457D01*
X92136418Y-94417597D01*
X92142712Y-94404290D01*
X92150280Y-94391664D01*
X92159048Y-94379841D01*
X92168934Y-94368934D01*
X92179841Y-94359048D01*
X92191664Y-94350280D01*
X92204290Y-94342712D01*
X92217597Y-94336418D01*
X92231457Y-94331459D01*
X92245736Y-94327882D01*
X92260297Y-94325722D01*
X92275000Y-94325000D01*
X92575000Y-94325000D01*
X92589703Y-94325722D01*
X92589703Y-94325722D01*
G37*
D14*
X92425000Y-95350000D03*
D13*
G36*
X91319703Y-94325722D02*
G01*
X91334264Y-94327882D01*
X91348543Y-94331459D01*
X91362403Y-94336418D01*
X91375710Y-94342712D01*
X91388336Y-94350280D01*
X91400159Y-94359048D01*
X91411066Y-94368934D01*
X91420952Y-94379841D01*
X91429720Y-94391664D01*
X91437288Y-94404290D01*
X91443582Y-94417597D01*
X91448541Y-94431457D01*
X91452118Y-94445736D01*
X91454278Y-94460297D01*
X91455000Y-94475000D01*
X91455000Y-96225000D01*
X91454278Y-96239703D01*
X91452118Y-96254264D01*
X91448541Y-96268543D01*
X91443582Y-96282403D01*
X91437288Y-96295710D01*
X91429720Y-96308336D01*
X91420952Y-96320159D01*
X91411066Y-96331066D01*
X91400159Y-96340952D01*
X91388336Y-96349720D01*
X91375710Y-96357288D01*
X91362403Y-96363582D01*
X91348543Y-96368541D01*
X91334264Y-96372118D01*
X91319703Y-96374278D01*
X91305000Y-96375000D01*
X91005000Y-96375000D01*
X90990297Y-96374278D01*
X90975736Y-96372118D01*
X90961457Y-96368541D01*
X90947597Y-96363582D01*
X90934290Y-96357288D01*
X90921664Y-96349720D01*
X90909841Y-96340952D01*
X90898934Y-96331066D01*
X90889048Y-96320159D01*
X90880280Y-96308336D01*
X90872712Y-96295710D01*
X90866418Y-96282403D01*
X90861459Y-96268543D01*
X90857882Y-96254264D01*
X90855722Y-96239703D01*
X90855000Y-96225000D01*
X90855000Y-94475000D01*
X90855722Y-94460297D01*
X90857882Y-94445736D01*
X90861459Y-94431457D01*
X90866418Y-94417597D01*
X90872712Y-94404290D01*
X90880280Y-94391664D01*
X90889048Y-94379841D01*
X90898934Y-94368934D01*
X90909841Y-94359048D01*
X90921664Y-94350280D01*
X90934290Y-94342712D01*
X90947597Y-94336418D01*
X90961457Y-94331459D01*
X90975736Y-94327882D01*
X90990297Y-94325722D01*
X91005000Y-94325000D01*
X91305000Y-94325000D01*
X91319703Y-94325722D01*
X91319703Y-94325722D01*
G37*
D14*
X91155000Y-95350000D03*
D13*
G36*
X90049703Y-94325722D02*
G01*
X90064264Y-94327882D01*
X90078543Y-94331459D01*
X90092403Y-94336418D01*
X90105710Y-94342712D01*
X90118336Y-94350280D01*
X90130159Y-94359048D01*
X90141066Y-94368934D01*
X90150952Y-94379841D01*
X90159720Y-94391664D01*
X90167288Y-94404290D01*
X90173582Y-94417597D01*
X90178541Y-94431457D01*
X90182118Y-94445736D01*
X90184278Y-94460297D01*
X90185000Y-94475000D01*
X90185000Y-96225000D01*
X90184278Y-96239703D01*
X90182118Y-96254264D01*
X90178541Y-96268543D01*
X90173582Y-96282403D01*
X90167288Y-96295710D01*
X90159720Y-96308336D01*
X90150952Y-96320159D01*
X90141066Y-96331066D01*
X90130159Y-96340952D01*
X90118336Y-96349720D01*
X90105710Y-96357288D01*
X90092403Y-96363582D01*
X90078543Y-96368541D01*
X90064264Y-96372118D01*
X90049703Y-96374278D01*
X90035000Y-96375000D01*
X89735000Y-96375000D01*
X89720297Y-96374278D01*
X89705736Y-96372118D01*
X89691457Y-96368541D01*
X89677597Y-96363582D01*
X89664290Y-96357288D01*
X89651664Y-96349720D01*
X89639841Y-96340952D01*
X89628934Y-96331066D01*
X89619048Y-96320159D01*
X89610280Y-96308336D01*
X89602712Y-96295710D01*
X89596418Y-96282403D01*
X89591459Y-96268543D01*
X89587882Y-96254264D01*
X89585722Y-96239703D01*
X89585000Y-96225000D01*
X89585000Y-94475000D01*
X89585722Y-94460297D01*
X89587882Y-94445736D01*
X89591459Y-94431457D01*
X89596418Y-94417597D01*
X89602712Y-94404290D01*
X89610280Y-94391664D01*
X89619048Y-94379841D01*
X89628934Y-94368934D01*
X89639841Y-94359048D01*
X89651664Y-94350280D01*
X89664290Y-94342712D01*
X89677597Y-94336418D01*
X89691457Y-94331459D01*
X89705736Y-94327882D01*
X89720297Y-94325722D01*
X89735000Y-94325000D01*
X90035000Y-94325000D01*
X90049703Y-94325722D01*
X90049703Y-94325722D01*
G37*
D14*
X89885000Y-95350000D03*
D13*
G36*
X88779703Y-94325722D02*
G01*
X88794264Y-94327882D01*
X88808543Y-94331459D01*
X88822403Y-94336418D01*
X88835710Y-94342712D01*
X88848336Y-94350280D01*
X88860159Y-94359048D01*
X88871066Y-94368934D01*
X88880952Y-94379841D01*
X88889720Y-94391664D01*
X88897288Y-94404290D01*
X88903582Y-94417597D01*
X88908541Y-94431457D01*
X88912118Y-94445736D01*
X88914278Y-94460297D01*
X88915000Y-94475000D01*
X88915000Y-96225000D01*
X88914278Y-96239703D01*
X88912118Y-96254264D01*
X88908541Y-96268543D01*
X88903582Y-96282403D01*
X88897288Y-96295710D01*
X88889720Y-96308336D01*
X88880952Y-96320159D01*
X88871066Y-96331066D01*
X88860159Y-96340952D01*
X88848336Y-96349720D01*
X88835710Y-96357288D01*
X88822403Y-96363582D01*
X88808543Y-96368541D01*
X88794264Y-96372118D01*
X88779703Y-96374278D01*
X88765000Y-96375000D01*
X88465000Y-96375000D01*
X88450297Y-96374278D01*
X88435736Y-96372118D01*
X88421457Y-96368541D01*
X88407597Y-96363582D01*
X88394290Y-96357288D01*
X88381664Y-96349720D01*
X88369841Y-96340952D01*
X88358934Y-96331066D01*
X88349048Y-96320159D01*
X88340280Y-96308336D01*
X88332712Y-96295710D01*
X88326418Y-96282403D01*
X88321459Y-96268543D01*
X88317882Y-96254264D01*
X88315722Y-96239703D01*
X88315000Y-96225000D01*
X88315000Y-94475000D01*
X88315722Y-94460297D01*
X88317882Y-94445736D01*
X88321459Y-94431457D01*
X88326418Y-94417597D01*
X88332712Y-94404290D01*
X88340280Y-94391664D01*
X88349048Y-94379841D01*
X88358934Y-94368934D01*
X88369841Y-94359048D01*
X88381664Y-94350280D01*
X88394290Y-94342712D01*
X88407597Y-94336418D01*
X88421457Y-94331459D01*
X88435736Y-94327882D01*
X88450297Y-94325722D01*
X88465000Y-94325000D01*
X88765000Y-94325000D01*
X88779703Y-94325722D01*
X88779703Y-94325722D01*
G37*
D14*
X88615000Y-95350000D03*
D13*
G36*
X87509703Y-94325722D02*
G01*
X87524264Y-94327882D01*
X87538543Y-94331459D01*
X87552403Y-94336418D01*
X87565710Y-94342712D01*
X87578336Y-94350280D01*
X87590159Y-94359048D01*
X87601066Y-94368934D01*
X87610952Y-94379841D01*
X87619720Y-94391664D01*
X87627288Y-94404290D01*
X87633582Y-94417597D01*
X87638541Y-94431457D01*
X87642118Y-94445736D01*
X87644278Y-94460297D01*
X87645000Y-94475000D01*
X87645000Y-96225000D01*
X87644278Y-96239703D01*
X87642118Y-96254264D01*
X87638541Y-96268543D01*
X87633582Y-96282403D01*
X87627288Y-96295710D01*
X87619720Y-96308336D01*
X87610952Y-96320159D01*
X87601066Y-96331066D01*
X87590159Y-96340952D01*
X87578336Y-96349720D01*
X87565710Y-96357288D01*
X87552403Y-96363582D01*
X87538543Y-96368541D01*
X87524264Y-96372118D01*
X87509703Y-96374278D01*
X87495000Y-96375000D01*
X87195000Y-96375000D01*
X87180297Y-96374278D01*
X87165736Y-96372118D01*
X87151457Y-96368541D01*
X87137597Y-96363582D01*
X87124290Y-96357288D01*
X87111664Y-96349720D01*
X87099841Y-96340952D01*
X87088934Y-96331066D01*
X87079048Y-96320159D01*
X87070280Y-96308336D01*
X87062712Y-96295710D01*
X87056418Y-96282403D01*
X87051459Y-96268543D01*
X87047882Y-96254264D01*
X87045722Y-96239703D01*
X87045000Y-96225000D01*
X87045000Y-94475000D01*
X87045722Y-94460297D01*
X87047882Y-94445736D01*
X87051459Y-94431457D01*
X87056418Y-94417597D01*
X87062712Y-94404290D01*
X87070280Y-94391664D01*
X87079048Y-94379841D01*
X87088934Y-94368934D01*
X87099841Y-94359048D01*
X87111664Y-94350280D01*
X87124290Y-94342712D01*
X87137597Y-94336418D01*
X87151457Y-94331459D01*
X87165736Y-94327882D01*
X87180297Y-94325722D01*
X87195000Y-94325000D01*
X87495000Y-94325000D01*
X87509703Y-94325722D01*
X87509703Y-94325722D01*
G37*
D14*
X87345000Y-95350000D03*
M02*
