G04 #@! TF.GenerationSoftware,KiCad,Pcbnew,(5.1.2)-1*
G04 #@! TF.CreationDate,2021-07-24T10:23:43+09:00*
G04 #@! TF.ProjectId,PS2USB,50533255-5342-42e6-9b69-6361645f7063,v2.1*
G04 #@! TF.SameCoordinates,Original*
G04 #@! TF.FileFunction,Soldermask,Top*
G04 #@! TF.FilePolarity,Negative*
%FSLAX46Y46*%
G04 Gerber Fmt 4.6, Leading zero omitted, Abs format (unit mm)*
G04 Created by KiCad (PCBNEW (5.1.2)-1) date 2021-07-24 10:23:43*
%MOMM*%
%LPD*%
G04 APERTURE LIST*
%ADD10C,0.050000*%
%ADD11C,1.275000*%
%ADD12R,1.050000X1.460000*%
%ADD13C,1.375000*%
%ADD14C,1.924000*%
%ADD15O,3.400000X1.900000*%
%ADD16C,2.400000*%
%ADD17O,2.100000X2.100000*%
%ADD18R,2.100000X2.100000*%
%ADD19C,3.400000*%
%ADD20R,1.800000X1.600000*%
%ADD21R,0.850000X2.150000*%
G04 APERTURE END LIST*
D10*
G36*
X104387493Y-93614035D02*
G01*
X104418435Y-93618625D01*
X104448778Y-93626225D01*
X104478230Y-93636763D01*
X104506508Y-93650138D01*
X104533338Y-93666219D01*
X104558463Y-93684853D01*
X104581640Y-93705860D01*
X104602647Y-93729037D01*
X104621281Y-93754162D01*
X104637362Y-93780992D01*
X104650737Y-93809270D01*
X104661275Y-93838722D01*
X104668875Y-93869065D01*
X104673465Y-93900007D01*
X104675000Y-93931250D01*
X104675000Y-94568750D01*
X104673465Y-94599993D01*
X104668875Y-94630935D01*
X104661275Y-94661278D01*
X104650737Y-94690730D01*
X104637362Y-94719008D01*
X104621281Y-94745838D01*
X104602647Y-94770963D01*
X104581640Y-94794140D01*
X104558463Y-94815147D01*
X104533338Y-94833781D01*
X104506508Y-94849862D01*
X104478230Y-94863237D01*
X104448778Y-94873775D01*
X104418435Y-94881375D01*
X104387493Y-94885965D01*
X104356250Y-94887500D01*
X103643750Y-94887500D01*
X103612507Y-94885965D01*
X103581565Y-94881375D01*
X103551222Y-94873775D01*
X103521770Y-94863237D01*
X103493492Y-94849862D01*
X103466662Y-94833781D01*
X103441537Y-94815147D01*
X103418360Y-94794140D01*
X103397353Y-94770963D01*
X103378719Y-94745838D01*
X103362638Y-94719008D01*
X103349263Y-94690730D01*
X103338725Y-94661278D01*
X103331125Y-94630935D01*
X103326535Y-94599993D01*
X103325000Y-94568750D01*
X103325000Y-93931250D01*
X103326535Y-93900007D01*
X103331125Y-93869065D01*
X103338725Y-93838722D01*
X103349263Y-93809270D01*
X103362638Y-93780992D01*
X103378719Y-93754162D01*
X103397353Y-93729037D01*
X103418360Y-93705860D01*
X103441537Y-93684853D01*
X103466662Y-93666219D01*
X103493492Y-93650138D01*
X103521770Y-93636763D01*
X103551222Y-93626225D01*
X103581565Y-93618625D01*
X103612507Y-93614035D01*
X103643750Y-93612500D01*
X104356250Y-93612500D01*
X104387493Y-93614035D01*
X104387493Y-93614035D01*
G37*
D11*
X104000000Y-94250000D03*
D10*
G36*
X104387493Y-92039035D02*
G01*
X104418435Y-92043625D01*
X104448778Y-92051225D01*
X104478230Y-92061763D01*
X104506508Y-92075138D01*
X104533338Y-92091219D01*
X104558463Y-92109853D01*
X104581640Y-92130860D01*
X104602647Y-92154037D01*
X104621281Y-92179162D01*
X104637362Y-92205992D01*
X104650737Y-92234270D01*
X104661275Y-92263722D01*
X104668875Y-92294065D01*
X104673465Y-92325007D01*
X104675000Y-92356250D01*
X104675000Y-92993750D01*
X104673465Y-93024993D01*
X104668875Y-93055935D01*
X104661275Y-93086278D01*
X104650737Y-93115730D01*
X104637362Y-93144008D01*
X104621281Y-93170838D01*
X104602647Y-93195963D01*
X104581640Y-93219140D01*
X104558463Y-93240147D01*
X104533338Y-93258781D01*
X104506508Y-93274862D01*
X104478230Y-93288237D01*
X104448778Y-93298775D01*
X104418435Y-93306375D01*
X104387493Y-93310965D01*
X104356250Y-93312500D01*
X103643750Y-93312500D01*
X103612507Y-93310965D01*
X103581565Y-93306375D01*
X103551222Y-93298775D01*
X103521770Y-93288237D01*
X103493492Y-93274862D01*
X103466662Y-93258781D01*
X103441537Y-93240147D01*
X103418360Y-93219140D01*
X103397353Y-93195963D01*
X103378719Y-93170838D01*
X103362638Y-93144008D01*
X103349263Y-93115730D01*
X103338725Y-93086278D01*
X103331125Y-93055935D01*
X103326535Y-93024993D01*
X103325000Y-92993750D01*
X103325000Y-92356250D01*
X103326535Y-92325007D01*
X103331125Y-92294065D01*
X103338725Y-92263722D01*
X103349263Y-92234270D01*
X103362638Y-92205992D01*
X103378719Y-92179162D01*
X103397353Y-92154037D01*
X103418360Y-92130860D01*
X103441537Y-92109853D01*
X103466662Y-92091219D01*
X103493492Y-92075138D01*
X103521770Y-92061763D01*
X103551222Y-92051225D01*
X103581565Y-92043625D01*
X103612507Y-92039035D01*
X103643750Y-92037500D01*
X104356250Y-92037500D01*
X104387493Y-92039035D01*
X104387493Y-92039035D01*
G37*
D11*
X104000000Y-92675000D03*
D10*
G36*
X82724993Y-81826535D02*
G01*
X82755935Y-81831125D01*
X82786278Y-81838725D01*
X82815730Y-81849263D01*
X82844008Y-81862638D01*
X82870838Y-81878719D01*
X82895963Y-81897353D01*
X82919140Y-81918360D01*
X82940147Y-81941537D01*
X82958781Y-81966662D01*
X82974862Y-81993492D01*
X82988237Y-82021770D01*
X82998775Y-82051222D01*
X83006375Y-82081565D01*
X83010965Y-82112507D01*
X83012500Y-82143750D01*
X83012500Y-82856250D01*
X83010965Y-82887493D01*
X83006375Y-82918435D01*
X82998775Y-82948778D01*
X82988237Y-82978230D01*
X82974862Y-83006508D01*
X82958781Y-83033338D01*
X82940147Y-83058463D01*
X82919140Y-83081640D01*
X82895963Y-83102647D01*
X82870838Y-83121281D01*
X82844008Y-83137362D01*
X82815730Y-83150737D01*
X82786278Y-83161275D01*
X82755935Y-83168875D01*
X82724993Y-83173465D01*
X82693750Y-83175000D01*
X82056250Y-83175000D01*
X82025007Y-83173465D01*
X81994065Y-83168875D01*
X81963722Y-83161275D01*
X81934270Y-83150737D01*
X81905992Y-83137362D01*
X81879162Y-83121281D01*
X81854037Y-83102647D01*
X81830860Y-83081640D01*
X81809853Y-83058463D01*
X81791219Y-83033338D01*
X81775138Y-83006508D01*
X81761763Y-82978230D01*
X81751225Y-82948778D01*
X81743625Y-82918435D01*
X81739035Y-82887493D01*
X81737500Y-82856250D01*
X81737500Y-82143750D01*
X81739035Y-82112507D01*
X81743625Y-82081565D01*
X81751225Y-82051222D01*
X81761763Y-82021770D01*
X81775138Y-81993492D01*
X81791219Y-81966662D01*
X81809853Y-81941537D01*
X81830860Y-81918360D01*
X81854037Y-81897353D01*
X81879162Y-81878719D01*
X81905992Y-81862638D01*
X81934270Y-81849263D01*
X81963722Y-81838725D01*
X81994065Y-81831125D01*
X82025007Y-81826535D01*
X82056250Y-81825000D01*
X82693750Y-81825000D01*
X82724993Y-81826535D01*
X82724993Y-81826535D01*
G37*
D11*
X82375000Y-82500000D03*
D10*
G36*
X81149993Y-81826535D02*
G01*
X81180935Y-81831125D01*
X81211278Y-81838725D01*
X81240730Y-81849263D01*
X81269008Y-81862638D01*
X81295838Y-81878719D01*
X81320963Y-81897353D01*
X81344140Y-81918360D01*
X81365147Y-81941537D01*
X81383781Y-81966662D01*
X81399862Y-81993492D01*
X81413237Y-82021770D01*
X81423775Y-82051222D01*
X81431375Y-82081565D01*
X81435965Y-82112507D01*
X81437500Y-82143750D01*
X81437500Y-82856250D01*
X81435965Y-82887493D01*
X81431375Y-82918435D01*
X81423775Y-82948778D01*
X81413237Y-82978230D01*
X81399862Y-83006508D01*
X81383781Y-83033338D01*
X81365147Y-83058463D01*
X81344140Y-83081640D01*
X81320963Y-83102647D01*
X81295838Y-83121281D01*
X81269008Y-83137362D01*
X81240730Y-83150737D01*
X81211278Y-83161275D01*
X81180935Y-83168875D01*
X81149993Y-83173465D01*
X81118750Y-83175000D01*
X80481250Y-83175000D01*
X80450007Y-83173465D01*
X80419065Y-83168875D01*
X80388722Y-83161275D01*
X80359270Y-83150737D01*
X80330992Y-83137362D01*
X80304162Y-83121281D01*
X80279037Y-83102647D01*
X80255860Y-83081640D01*
X80234853Y-83058463D01*
X80216219Y-83033338D01*
X80200138Y-83006508D01*
X80186763Y-82978230D01*
X80176225Y-82948778D01*
X80168625Y-82918435D01*
X80164035Y-82887493D01*
X80162500Y-82856250D01*
X80162500Y-82143750D01*
X80164035Y-82112507D01*
X80168625Y-82081565D01*
X80176225Y-82051222D01*
X80186763Y-82021770D01*
X80200138Y-81993492D01*
X80216219Y-81966662D01*
X80234853Y-81941537D01*
X80255860Y-81918360D01*
X80279037Y-81897353D01*
X80304162Y-81878719D01*
X80330992Y-81862638D01*
X80359270Y-81849263D01*
X80388722Y-81838725D01*
X80419065Y-81831125D01*
X80450007Y-81826535D01*
X80481250Y-81825000D01*
X81118750Y-81825000D01*
X81149993Y-81826535D01*
X81149993Y-81826535D01*
G37*
D11*
X80800000Y-82500000D03*
D12*
X80900000Y-87550000D03*
X82800000Y-87550000D03*
X82800000Y-89750000D03*
X81850000Y-89750000D03*
X80900000Y-89750000D03*
D10*
G36*
X102187493Y-88076535D02*
G01*
X102218435Y-88081125D01*
X102248778Y-88088725D01*
X102278230Y-88099263D01*
X102306508Y-88112638D01*
X102333338Y-88128719D01*
X102358463Y-88147353D01*
X102381640Y-88168360D01*
X102402647Y-88191537D01*
X102421281Y-88216662D01*
X102437362Y-88243492D01*
X102450737Y-88271770D01*
X102461275Y-88301222D01*
X102468875Y-88331565D01*
X102473465Y-88362507D01*
X102475000Y-88393750D01*
X102475000Y-89031250D01*
X102473465Y-89062493D01*
X102468875Y-89093435D01*
X102461275Y-89123778D01*
X102450737Y-89153230D01*
X102437362Y-89181508D01*
X102421281Y-89208338D01*
X102402647Y-89233463D01*
X102381640Y-89256640D01*
X102358463Y-89277647D01*
X102333338Y-89296281D01*
X102306508Y-89312362D01*
X102278230Y-89325737D01*
X102248778Y-89336275D01*
X102218435Y-89343875D01*
X102187493Y-89348465D01*
X102156250Y-89350000D01*
X101443750Y-89350000D01*
X101412507Y-89348465D01*
X101381565Y-89343875D01*
X101351222Y-89336275D01*
X101321770Y-89325737D01*
X101293492Y-89312362D01*
X101266662Y-89296281D01*
X101241537Y-89277647D01*
X101218360Y-89256640D01*
X101197353Y-89233463D01*
X101178719Y-89208338D01*
X101162638Y-89181508D01*
X101149263Y-89153230D01*
X101138725Y-89123778D01*
X101131125Y-89093435D01*
X101126535Y-89062493D01*
X101125000Y-89031250D01*
X101125000Y-88393750D01*
X101126535Y-88362507D01*
X101131125Y-88331565D01*
X101138725Y-88301222D01*
X101149263Y-88271770D01*
X101162638Y-88243492D01*
X101178719Y-88216662D01*
X101197353Y-88191537D01*
X101218360Y-88168360D01*
X101241537Y-88147353D01*
X101266662Y-88128719D01*
X101293492Y-88112638D01*
X101321770Y-88099263D01*
X101351222Y-88088725D01*
X101381565Y-88081125D01*
X101412507Y-88076535D01*
X101443750Y-88075000D01*
X102156250Y-88075000D01*
X102187493Y-88076535D01*
X102187493Y-88076535D01*
G37*
D11*
X101800000Y-88712500D03*
D10*
G36*
X102187493Y-89651535D02*
G01*
X102218435Y-89656125D01*
X102248778Y-89663725D01*
X102278230Y-89674263D01*
X102306508Y-89687638D01*
X102333338Y-89703719D01*
X102358463Y-89722353D01*
X102381640Y-89743360D01*
X102402647Y-89766537D01*
X102421281Y-89791662D01*
X102437362Y-89818492D01*
X102450737Y-89846770D01*
X102461275Y-89876222D01*
X102468875Y-89906565D01*
X102473465Y-89937507D01*
X102475000Y-89968750D01*
X102475000Y-90606250D01*
X102473465Y-90637493D01*
X102468875Y-90668435D01*
X102461275Y-90698778D01*
X102450737Y-90728230D01*
X102437362Y-90756508D01*
X102421281Y-90783338D01*
X102402647Y-90808463D01*
X102381640Y-90831640D01*
X102358463Y-90852647D01*
X102333338Y-90871281D01*
X102306508Y-90887362D01*
X102278230Y-90900737D01*
X102248778Y-90911275D01*
X102218435Y-90918875D01*
X102187493Y-90923465D01*
X102156250Y-90925000D01*
X101443750Y-90925000D01*
X101412507Y-90923465D01*
X101381565Y-90918875D01*
X101351222Y-90911275D01*
X101321770Y-90900737D01*
X101293492Y-90887362D01*
X101266662Y-90871281D01*
X101241537Y-90852647D01*
X101218360Y-90831640D01*
X101197353Y-90808463D01*
X101178719Y-90783338D01*
X101162638Y-90756508D01*
X101149263Y-90728230D01*
X101138725Y-90698778D01*
X101131125Y-90668435D01*
X101126535Y-90637493D01*
X101125000Y-90606250D01*
X101125000Y-89968750D01*
X101126535Y-89937507D01*
X101131125Y-89906565D01*
X101138725Y-89876222D01*
X101149263Y-89846770D01*
X101162638Y-89818492D01*
X101178719Y-89791662D01*
X101197353Y-89766537D01*
X101218360Y-89743360D01*
X101241537Y-89722353D01*
X101266662Y-89703719D01*
X101293492Y-89687638D01*
X101321770Y-89674263D01*
X101351222Y-89663725D01*
X101381565Y-89656125D01*
X101412507Y-89651535D01*
X101443750Y-89650000D01*
X102156250Y-89650000D01*
X102187493Y-89651535D01*
X102187493Y-89651535D01*
G37*
D11*
X101800000Y-90287500D03*
D10*
G36*
X93077443Y-96551655D02*
G01*
X93110812Y-96556605D01*
X93143535Y-96564802D01*
X93175297Y-96576166D01*
X93205793Y-96590590D01*
X93234727Y-96607932D01*
X93261823Y-96628028D01*
X93286818Y-96650682D01*
X93309472Y-96675677D01*
X93329568Y-96702773D01*
X93346910Y-96731707D01*
X93361334Y-96762203D01*
X93372698Y-96793965D01*
X93380895Y-96826688D01*
X93385845Y-96860057D01*
X93387500Y-96893750D01*
X93387500Y-98006250D01*
X93385845Y-98039943D01*
X93380895Y-98073312D01*
X93372698Y-98106035D01*
X93361334Y-98137797D01*
X93346910Y-98168293D01*
X93329568Y-98197227D01*
X93309472Y-98224323D01*
X93286818Y-98249318D01*
X93261823Y-98271972D01*
X93234727Y-98292068D01*
X93205793Y-98309410D01*
X93175297Y-98323834D01*
X93143535Y-98335198D01*
X93110812Y-98343395D01*
X93077443Y-98348345D01*
X93043750Y-98350000D01*
X92356250Y-98350000D01*
X92322557Y-98348345D01*
X92289188Y-98343395D01*
X92256465Y-98335198D01*
X92224703Y-98323834D01*
X92194207Y-98309410D01*
X92165273Y-98292068D01*
X92138177Y-98271972D01*
X92113182Y-98249318D01*
X92090528Y-98224323D01*
X92070432Y-98197227D01*
X92053090Y-98168293D01*
X92038666Y-98137797D01*
X92027302Y-98106035D01*
X92019105Y-98073312D01*
X92014155Y-98039943D01*
X92012500Y-98006250D01*
X92012500Y-96893750D01*
X92014155Y-96860057D01*
X92019105Y-96826688D01*
X92027302Y-96793965D01*
X92038666Y-96762203D01*
X92053090Y-96731707D01*
X92070432Y-96702773D01*
X92090528Y-96675677D01*
X92113182Y-96650682D01*
X92138177Y-96628028D01*
X92165273Y-96607932D01*
X92194207Y-96590590D01*
X92224703Y-96576166D01*
X92256465Y-96564802D01*
X92289188Y-96556605D01*
X92322557Y-96551655D01*
X92356250Y-96550000D01*
X93043750Y-96550000D01*
X93077443Y-96551655D01*
X93077443Y-96551655D01*
G37*
D13*
X92700000Y-97450000D03*
D10*
G36*
X94952443Y-96551655D02*
G01*
X94985812Y-96556605D01*
X95018535Y-96564802D01*
X95050297Y-96576166D01*
X95080793Y-96590590D01*
X95109727Y-96607932D01*
X95136823Y-96628028D01*
X95161818Y-96650682D01*
X95184472Y-96675677D01*
X95204568Y-96702773D01*
X95221910Y-96731707D01*
X95236334Y-96762203D01*
X95247698Y-96793965D01*
X95255895Y-96826688D01*
X95260845Y-96860057D01*
X95262500Y-96893750D01*
X95262500Y-98006250D01*
X95260845Y-98039943D01*
X95255895Y-98073312D01*
X95247698Y-98106035D01*
X95236334Y-98137797D01*
X95221910Y-98168293D01*
X95204568Y-98197227D01*
X95184472Y-98224323D01*
X95161818Y-98249318D01*
X95136823Y-98271972D01*
X95109727Y-98292068D01*
X95080793Y-98309410D01*
X95050297Y-98323834D01*
X95018535Y-98335198D01*
X94985812Y-98343395D01*
X94952443Y-98348345D01*
X94918750Y-98350000D01*
X94231250Y-98350000D01*
X94197557Y-98348345D01*
X94164188Y-98343395D01*
X94131465Y-98335198D01*
X94099703Y-98323834D01*
X94069207Y-98309410D01*
X94040273Y-98292068D01*
X94013177Y-98271972D01*
X93988182Y-98249318D01*
X93965528Y-98224323D01*
X93945432Y-98197227D01*
X93928090Y-98168293D01*
X93913666Y-98137797D01*
X93902302Y-98106035D01*
X93894105Y-98073312D01*
X93889155Y-98039943D01*
X93887500Y-98006250D01*
X93887500Y-96893750D01*
X93889155Y-96860057D01*
X93894105Y-96826688D01*
X93902302Y-96793965D01*
X93913666Y-96762203D01*
X93928090Y-96731707D01*
X93945432Y-96702773D01*
X93965528Y-96675677D01*
X93988182Y-96650682D01*
X94013177Y-96628028D01*
X94040273Y-96607932D01*
X94069207Y-96590590D01*
X94099703Y-96576166D01*
X94131465Y-96564802D01*
X94164188Y-96556605D01*
X94197557Y-96551655D01*
X94231250Y-96550000D01*
X94918750Y-96550000D01*
X94952443Y-96551655D01*
X94952443Y-96551655D01*
G37*
D13*
X94575000Y-97450000D03*
D14*
X77700000Y-95100000D03*
X77700000Y-92600000D03*
X77700000Y-90600000D03*
X77700000Y-88100000D03*
D15*
X75300000Y-85700000D03*
X75300000Y-97500000D03*
D16*
X75300000Y-89350000D03*
X75300000Y-93850000D03*
D17*
X104240000Y-100200000D03*
X101700000Y-100200000D03*
D18*
X99160000Y-100200000D03*
D17*
X95560000Y-100200000D03*
X93020000Y-100200000D03*
X90480000Y-100200000D03*
X87940000Y-100200000D03*
D18*
X85400000Y-100200000D03*
D10*
G36*
X81049993Y-95876535D02*
G01*
X81080935Y-95881125D01*
X81111278Y-95888725D01*
X81140730Y-95899263D01*
X81169008Y-95912638D01*
X81195838Y-95928719D01*
X81220963Y-95947353D01*
X81244140Y-95968360D01*
X81265147Y-95991537D01*
X81283781Y-96016662D01*
X81299862Y-96043492D01*
X81313237Y-96071770D01*
X81323775Y-96101222D01*
X81331375Y-96131565D01*
X81335965Y-96162507D01*
X81337500Y-96193750D01*
X81337500Y-96906250D01*
X81335965Y-96937493D01*
X81331375Y-96968435D01*
X81323775Y-96998778D01*
X81313237Y-97028230D01*
X81299862Y-97056508D01*
X81283781Y-97083338D01*
X81265147Y-97108463D01*
X81244140Y-97131640D01*
X81220963Y-97152647D01*
X81195838Y-97171281D01*
X81169008Y-97187362D01*
X81140730Y-97200737D01*
X81111278Y-97211275D01*
X81080935Y-97218875D01*
X81049993Y-97223465D01*
X81018750Y-97225000D01*
X80381250Y-97225000D01*
X80350007Y-97223465D01*
X80319065Y-97218875D01*
X80288722Y-97211275D01*
X80259270Y-97200737D01*
X80230992Y-97187362D01*
X80204162Y-97171281D01*
X80179037Y-97152647D01*
X80155860Y-97131640D01*
X80134853Y-97108463D01*
X80116219Y-97083338D01*
X80100138Y-97056508D01*
X80086763Y-97028230D01*
X80076225Y-96998778D01*
X80068625Y-96968435D01*
X80064035Y-96937493D01*
X80062500Y-96906250D01*
X80062500Y-96193750D01*
X80064035Y-96162507D01*
X80068625Y-96131565D01*
X80076225Y-96101222D01*
X80086763Y-96071770D01*
X80100138Y-96043492D01*
X80116219Y-96016662D01*
X80134853Y-95991537D01*
X80155860Y-95968360D01*
X80179037Y-95947353D01*
X80204162Y-95928719D01*
X80230992Y-95912638D01*
X80259270Y-95899263D01*
X80288722Y-95888725D01*
X80319065Y-95881125D01*
X80350007Y-95876535D01*
X80381250Y-95875000D01*
X81018750Y-95875000D01*
X81049993Y-95876535D01*
X81049993Y-95876535D01*
G37*
D11*
X80700000Y-96550000D03*
D10*
G36*
X82624993Y-95876535D02*
G01*
X82655935Y-95881125D01*
X82686278Y-95888725D01*
X82715730Y-95899263D01*
X82744008Y-95912638D01*
X82770838Y-95928719D01*
X82795963Y-95947353D01*
X82819140Y-95968360D01*
X82840147Y-95991537D01*
X82858781Y-96016662D01*
X82874862Y-96043492D01*
X82888237Y-96071770D01*
X82898775Y-96101222D01*
X82906375Y-96131565D01*
X82910965Y-96162507D01*
X82912500Y-96193750D01*
X82912500Y-96906250D01*
X82910965Y-96937493D01*
X82906375Y-96968435D01*
X82898775Y-96998778D01*
X82888237Y-97028230D01*
X82874862Y-97056508D01*
X82858781Y-97083338D01*
X82840147Y-97108463D01*
X82819140Y-97131640D01*
X82795963Y-97152647D01*
X82770838Y-97171281D01*
X82744008Y-97187362D01*
X82715730Y-97200737D01*
X82686278Y-97211275D01*
X82655935Y-97218875D01*
X82624993Y-97223465D01*
X82593750Y-97225000D01*
X81956250Y-97225000D01*
X81925007Y-97223465D01*
X81894065Y-97218875D01*
X81863722Y-97211275D01*
X81834270Y-97200737D01*
X81805992Y-97187362D01*
X81779162Y-97171281D01*
X81754037Y-97152647D01*
X81730860Y-97131640D01*
X81709853Y-97108463D01*
X81691219Y-97083338D01*
X81675138Y-97056508D01*
X81661763Y-97028230D01*
X81651225Y-96998778D01*
X81643625Y-96968435D01*
X81639035Y-96937493D01*
X81637500Y-96906250D01*
X81637500Y-96193750D01*
X81639035Y-96162507D01*
X81643625Y-96131565D01*
X81651225Y-96101222D01*
X81661763Y-96071770D01*
X81675138Y-96043492D01*
X81691219Y-96016662D01*
X81709853Y-95991537D01*
X81730860Y-95968360D01*
X81754037Y-95947353D01*
X81779162Y-95928719D01*
X81805992Y-95912638D01*
X81834270Y-95899263D01*
X81863722Y-95888725D01*
X81894065Y-95881125D01*
X81925007Y-95876535D01*
X81956250Y-95875000D01*
X82593750Y-95875000D01*
X82624993Y-95876535D01*
X82624993Y-95876535D01*
G37*
D11*
X82275000Y-96550000D03*
D10*
G36*
X89787493Y-88089035D02*
G01*
X89818435Y-88093625D01*
X89848778Y-88101225D01*
X89878230Y-88111763D01*
X89906508Y-88125138D01*
X89933338Y-88141219D01*
X89958463Y-88159853D01*
X89981640Y-88180860D01*
X90002647Y-88204037D01*
X90021281Y-88229162D01*
X90037362Y-88255992D01*
X90050737Y-88284270D01*
X90061275Y-88313722D01*
X90068875Y-88344065D01*
X90073465Y-88375007D01*
X90075000Y-88406250D01*
X90075000Y-89043750D01*
X90073465Y-89074993D01*
X90068875Y-89105935D01*
X90061275Y-89136278D01*
X90050737Y-89165730D01*
X90037362Y-89194008D01*
X90021281Y-89220838D01*
X90002647Y-89245963D01*
X89981640Y-89269140D01*
X89958463Y-89290147D01*
X89933338Y-89308781D01*
X89906508Y-89324862D01*
X89878230Y-89338237D01*
X89848778Y-89348775D01*
X89818435Y-89356375D01*
X89787493Y-89360965D01*
X89756250Y-89362500D01*
X89043750Y-89362500D01*
X89012507Y-89360965D01*
X88981565Y-89356375D01*
X88951222Y-89348775D01*
X88921770Y-89338237D01*
X88893492Y-89324862D01*
X88866662Y-89308781D01*
X88841537Y-89290147D01*
X88818360Y-89269140D01*
X88797353Y-89245963D01*
X88778719Y-89220838D01*
X88762638Y-89194008D01*
X88749263Y-89165730D01*
X88738725Y-89136278D01*
X88731125Y-89105935D01*
X88726535Y-89074993D01*
X88725000Y-89043750D01*
X88725000Y-88406250D01*
X88726535Y-88375007D01*
X88731125Y-88344065D01*
X88738725Y-88313722D01*
X88749263Y-88284270D01*
X88762638Y-88255992D01*
X88778719Y-88229162D01*
X88797353Y-88204037D01*
X88818360Y-88180860D01*
X88841537Y-88159853D01*
X88866662Y-88141219D01*
X88893492Y-88125138D01*
X88921770Y-88111763D01*
X88951222Y-88101225D01*
X88981565Y-88093625D01*
X89012507Y-88089035D01*
X89043750Y-88087500D01*
X89756250Y-88087500D01*
X89787493Y-88089035D01*
X89787493Y-88089035D01*
G37*
D11*
X89400000Y-88725000D03*
D10*
G36*
X89787493Y-89664035D02*
G01*
X89818435Y-89668625D01*
X89848778Y-89676225D01*
X89878230Y-89686763D01*
X89906508Y-89700138D01*
X89933338Y-89716219D01*
X89958463Y-89734853D01*
X89981640Y-89755860D01*
X90002647Y-89779037D01*
X90021281Y-89804162D01*
X90037362Y-89830992D01*
X90050737Y-89859270D01*
X90061275Y-89888722D01*
X90068875Y-89919065D01*
X90073465Y-89950007D01*
X90075000Y-89981250D01*
X90075000Y-90618750D01*
X90073465Y-90649993D01*
X90068875Y-90680935D01*
X90061275Y-90711278D01*
X90050737Y-90740730D01*
X90037362Y-90769008D01*
X90021281Y-90795838D01*
X90002647Y-90820963D01*
X89981640Y-90844140D01*
X89958463Y-90865147D01*
X89933338Y-90883781D01*
X89906508Y-90899862D01*
X89878230Y-90913237D01*
X89848778Y-90923775D01*
X89818435Y-90931375D01*
X89787493Y-90935965D01*
X89756250Y-90937500D01*
X89043750Y-90937500D01*
X89012507Y-90935965D01*
X88981565Y-90931375D01*
X88951222Y-90923775D01*
X88921770Y-90913237D01*
X88893492Y-90899862D01*
X88866662Y-90883781D01*
X88841537Y-90865147D01*
X88818360Y-90844140D01*
X88797353Y-90820963D01*
X88778719Y-90795838D01*
X88762638Y-90769008D01*
X88749263Y-90740730D01*
X88738725Y-90711278D01*
X88731125Y-90680935D01*
X88726535Y-90649993D01*
X88725000Y-90618750D01*
X88725000Y-89981250D01*
X88726535Y-89950007D01*
X88731125Y-89919065D01*
X88738725Y-89888722D01*
X88749263Y-89859270D01*
X88762638Y-89830992D01*
X88778719Y-89804162D01*
X88797353Y-89779037D01*
X88818360Y-89755860D01*
X88841537Y-89734853D01*
X88866662Y-89716219D01*
X88893492Y-89700138D01*
X88921770Y-89686763D01*
X88951222Y-89676225D01*
X88981565Y-89668625D01*
X89012507Y-89664035D01*
X89043750Y-89662500D01*
X89756250Y-89662500D01*
X89787493Y-89664035D01*
X89787493Y-89664035D01*
G37*
D11*
X89400000Y-90300000D03*
D10*
G36*
X98824993Y-96926535D02*
G01*
X98855935Y-96931125D01*
X98886278Y-96938725D01*
X98915730Y-96949263D01*
X98944008Y-96962638D01*
X98970838Y-96978719D01*
X98995963Y-96997353D01*
X99019140Y-97018360D01*
X99040147Y-97041537D01*
X99058781Y-97066662D01*
X99074862Y-97093492D01*
X99088237Y-97121770D01*
X99098775Y-97151222D01*
X99106375Y-97181565D01*
X99110965Y-97212507D01*
X99112500Y-97243750D01*
X99112500Y-97956250D01*
X99110965Y-97987493D01*
X99106375Y-98018435D01*
X99098775Y-98048778D01*
X99088237Y-98078230D01*
X99074862Y-98106508D01*
X99058781Y-98133338D01*
X99040147Y-98158463D01*
X99019140Y-98181640D01*
X98995963Y-98202647D01*
X98970838Y-98221281D01*
X98944008Y-98237362D01*
X98915730Y-98250737D01*
X98886278Y-98261275D01*
X98855935Y-98268875D01*
X98824993Y-98273465D01*
X98793750Y-98275000D01*
X98156250Y-98275000D01*
X98125007Y-98273465D01*
X98094065Y-98268875D01*
X98063722Y-98261275D01*
X98034270Y-98250737D01*
X98005992Y-98237362D01*
X97979162Y-98221281D01*
X97954037Y-98202647D01*
X97930860Y-98181640D01*
X97909853Y-98158463D01*
X97891219Y-98133338D01*
X97875138Y-98106508D01*
X97861763Y-98078230D01*
X97851225Y-98048778D01*
X97843625Y-98018435D01*
X97839035Y-97987493D01*
X97837500Y-97956250D01*
X97837500Y-97243750D01*
X97839035Y-97212507D01*
X97843625Y-97181565D01*
X97851225Y-97151222D01*
X97861763Y-97121770D01*
X97875138Y-97093492D01*
X97891219Y-97066662D01*
X97909853Y-97041537D01*
X97930860Y-97018360D01*
X97954037Y-96997353D01*
X97979162Y-96978719D01*
X98005992Y-96962638D01*
X98034270Y-96949263D01*
X98063722Y-96938725D01*
X98094065Y-96931125D01*
X98125007Y-96926535D01*
X98156250Y-96925000D01*
X98793750Y-96925000D01*
X98824993Y-96926535D01*
X98824993Y-96926535D01*
G37*
D11*
X98475000Y-97600000D03*
D10*
G36*
X97249993Y-96926535D02*
G01*
X97280935Y-96931125D01*
X97311278Y-96938725D01*
X97340730Y-96949263D01*
X97369008Y-96962638D01*
X97395838Y-96978719D01*
X97420963Y-96997353D01*
X97444140Y-97018360D01*
X97465147Y-97041537D01*
X97483781Y-97066662D01*
X97499862Y-97093492D01*
X97513237Y-97121770D01*
X97523775Y-97151222D01*
X97531375Y-97181565D01*
X97535965Y-97212507D01*
X97537500Y-97243750D01*
X97537500Y-97956250D01*
X97535965Y-97987493D01*
X97531375Y-98018435D01*
X97523775Y-98048778D01*
X97513237Y-98078230D01*
X97499862Y-98106508D01*
X97483781Y-98133338D01*
X97465147Y-98158463D01*
X97444140Y-98181640D01*
X97420963Y-98202647D01*
X97395838Y-98221281D01*
X97369008Y-98237362D01*
X97340730Y-98250737D01*
X97311278Y-98261275D01*
X97280935Y-98268875D01*
X97249993Y-98273465D01*
X97218750Y-98275000D01*
X96581250Y-98275000D01*
X96550007Y-98273465D01*
X96519065Y-98268875D01*
X96488722Y-98261275D01*
X96459270Y-98250737D01*
X96430992Y-98237362D01*
X96404162Y-98221281D01*
X96379037Y-98202647D01*
X96355860Y-98181640D01*
X96334853Y-98158463D01*
X96316219Y-98133338D01*
X96300138Y-98106508D01*
X96286763Y-98078230D01*
X96276225Y-98048778D01*
X96268625Y-98018435D01*
X96264035Y-97987493D01*
X96262500Y-97956250D01*
X96262500Y-97243750D01*
X96264035Y-97212507D01*
X96268625Y-97181565D01*
X96276225Y-97151222D01*
X96286763Y-97121770D01*
X96300138Y-97093492D01*
X96316219Y-97066662D01*
X96334853Y-97041537D01*
X96355860Y-97018360D01*
X96379037Y-96997353D01*
X96404162Y-96978719D01*
X96430992Y-96962638D01*
X96459270Y-96949263D01*
X96488722Y-96938725D01*
X96519065Y-96931125D01*
X96550007Y-96926535D01*
X96581250Y-96925000D01*
X97218750Y-96925000D01*
X97249993Y-96926535D01*
X97249993Y-96926535D01*
G37*
D11*
X96900000Y-97600000D03*
D10*
G36*
X89837493Y-92426535D02*
G01*
X89868435Y-92431125D01*
X89898778Y-92438725D01*
X89928230Y-92449263D01*
X89956508Y-92462638D01*
X89983338Y-92478719D01*
X90008463Y-92497353D01*
X90031640Y-92518360D01*
X90052647Y-92541537D01*
X90071281Y-92566662D01*
X90087362Y-92593492D01*
X90100737Y-92621770D01*
X90111275Y-92651222D01*
X90118875Y-92681565D01*
X90123465Y-92712507D01*
X90125000Y-92743750D01*
X90125000Y-93381250D01*
X90123465Y-93412493D01*
X90118875Y-93443435D01*
X90111275Y-93473778D01*
X90100737Y-93503230D01*
X90087362Y-93531508D01*
X90071281Y-93558338D01*
X90052647Y-93583463D01*
X90031640Y-93606640D01*
X90008463Y-93627647D01*
X89983338Y-93646281D01*
X89956508Y-93662362D01*
X89928230Y-93675737D01*
X89898778Y-93686275D01*
X89868435Y-93693875D01*
X89837493Y-93698465D01*
X89806250Y-93700000D01*
X89093750Y-93700000D01*
X89062507Y-93698465D01*
X89031565Y-93693875D01*
X89001222Y-93686275D01*
X88971770Y-93675737D01*
X88943492Y-93662362D01*
X88916662Y-93646281D01*
X88891537Y-93627647D01*
X88868360Y-93606640D01*
X88847353Y-93583463D01*
X88828719Y-93558338D01*
X88812638Y-93531508D01*
X88799263Y-93503230D01*
X88788725Y-93473778D01*
X88781125Y-93443435D01*
X88776535Y-93412493D01*
X88775000Y-93381250D01*
X88775000Y-92743750D01*
X88776535Y-92712507D01*
X88781125Y-92681565D01*
X88788725Y-92651222D01*
X88799263Y-92621770D01*
X88812638Y-92593492D01*
X88828719Y-92566662D01*
X88847353Y-92541537D01*
X88868360Y-92518360D01*
X88891537Y-92497353D01*
X88916662Y-92478719D01*
X88943492Y-92462638D01*
X88971770Y-92449263D01*
X89001222Y-92438725D01*
X89031565Y-92431125D01*
X89062507Y-92426535D01*
X89093750Y-92425000D01*
X89806250Y-92425000D01*
X89837493Y-92426535D01*
X89837493Y-92426535D01*
G37*
D11*
X89450000Y-93062500D03*
D10*
G36*
X89837493Y-94001535D02*
G01*
X89868435Y-94006125D01*
X89898778Y-94013725D01*
X89928230Y-94024263D01*
X89956508Y-94037638D01*
X89983338Y-94053719D01*
X90008463Y-94072353D01*
X90031640Y-94093360D01*
X90052647Y-94116537D01*
X90071281Y-94141662D01*
X90087362Y-94168492D01*
X90100737Y-94196770D01*
X90111275Y-94226222D01*
X90118875Y-94256565D01*
X90123465Y-94287507D01*
X90125000Y-94318750D01*
X90125000Y-94956250D01*
X90123465Y-94987493D01*
X90118875Y-95018435D01*
X90111275Y-95048778D01*
X90100737Y-95078230D01*
X90087362Y-95106508D01*
X90071281Y-95133338D01*
X90052647Y-95158463D01*
X90031640Y-95181640D01*
X90008463Y-95202647D01*
X89983338Y-95221281D01*
X89956508Y-95237362D01*
X89928230Y-95250737D01*
X89898778Y-95261275D01*
X89868435Y-95268875D01*
X89837493Y-95273465D01*
X89806250Y-95275000D01*
X89093750Y-95275000D01*
X89062507Y-95273465D01*
X89031565Y-95268875D01*
X89001222Y-95261275D01*
X88971770Y-95250737D01*
X88943492Y-95237362D01*
X88916662Y-95221281D01*
X88891537Y-95202647D01*
X88868360Y-95181640D01*
X88847353Y-95158463D01*
X88828719Y-95133338D01*
X88812638Y-95106508D01*
X88799263Y-95078230D01*
X88788725Y-95048778D01*
X88781125Y-95018435D01*
X88776535Y-94987493D01*
X88775000Y-94956250D01*
X88775000Y-94318750D01*
X88776535Y-94287507D01*
X88781125Y-94256565D01*
X88788725Y-94226222D01*
X88799263Y-94196770D01*
X88812638Y-94168492D01*
X88828719Y-94141662D01*
X88847353Y-94116537D01*
X88868360Y-94093360D01*
X88891537Y-94072353D01*
X88916662Y-94053719D01*
X88943492Y-94037638D01*
X88971770Y-94024263D01*
X89001222Y-94013725D01*
X89031565Y-94006125D01*
X89062507Y-94001535D01*
X89093750Y-94000000D01*
X89806250Y-94000000D01*
X89837493Y-94001535D01*
X89837493Y-94001535D01*
G37*
D11*
X89450000Y-94637500D03*
D10*
G36*
X82674993Y-85026535D02*
G01*
X82705935Y-85031125D01*
X82736278Y-85038725D01*
X82765730Y-85049263D01*
X82794008Y-85062638D01*
X82820838Y-85078719D01*
X82845963Y-85097353D01*
X82869140Y-85118360D01*
X82890147Y-85141537D01*
X82908781Y-85166662D01*
X82924862Y-85193492D01*
X82938237Y-85221770D01*
X82948775Y-85251222D01*
X82956375Y-85281565D01*
X82960965Y-85312507D01*
X82962500Y-85343750D01*
X82962500Y-86056250D01*
X82960965Y-86087493D01*
X82956375Y-86118435D01*
X82948775Y-86148778D01*
X82938237Y-86178230D01*
X82924862Y-86206508D01*
X82908781Y-86233338D01*
X82890147Y-86258463D01*
X82869140Y-86281640D01*
X82845963Y-86302647D01*
X82820838Y-86321281D01*
X82794008Y-86337362D01*
X82765730Y-86350737D01*
X82736278Y-86361275D01*
X82705935Y-86368875D01*
X82674993Y-86373465D01*
X82643750Y-86375000D01*
X82006250Y-86375000D01*
X81975007Y-86373465D01*
X81944065Y-86368875D01*
X81913722Y-86361275D01*
X81884270Y-86350737D01*
X81855992Y-86337362D01*
X81829162Y-86321281D01*
X81804037Y-86302647D01*
X81780860Y-86281640D01*
X81759853Y-86258463D01*
X81741219Y-86233338D01*
X81725138Y-86206508D01*
X81711763Y-86178230D01*
X81701225Y-86148778D01*
X81693625Y-86118435D01*
X81689035Y-86087493D01*
X81687500Y-86056250D01*
X81687500Y-85343750D01*
X81689035Y-85312507D01*
X81693625Y-85281565D01*
X81701225Y-85251222D01*
X81711763Y-85221770D01*
X81725138Y-85193492D01*
X81741219Y-85166662D01*
X81759853Y-85141537D01*
X81780860Y-85118360D01*
X81804037Y-85097353D01*
X81829162Y-85078719D01*
X81855992Y-85062638D01*
X81884270Y-85049263D01*
X81913722Y-85038725D01*
X81944065Y-85031125D01*
X81975007Y-85026535D01*
X82006250Y-85025000D01*
X82643750Y-85025000D01*
X82674993Y-85026535D01*
X82674993Y-85026535D01*
G37*
D11*
X82325000Y-85700000D03*
D10*
G36*
X81099993Y-85026535D02*
G01*
X81130935Y-85031125D01*
X81161278Y-85038725D01*
X81190730Y-85049263D01*
X81219008Y-85062638D01*
X81245838Y-85078719D01*
X81270963Y-85097353D01*
X81294140Y-85118360D01*
X81315147Y-85141537D01*
X81333781Y-85166662D01*
X81349862Y-85193492D01*
X81363237Y-85221770D01*
X81373775Y-85251222D01*
X81381375Y-85281565D01*
X81385965Y-85312507D01*
X81387500Y-85343750D01*
X81387500Y-86056250D01*
X81385965Y-86087493D01*
X81381375Y-86118435D01*
X81373775Y-86148778D01*
X81363237Y-86178230D01*
X81349862Y-86206508D01*
X81333781Y-86233338D01*
X81315147Y-86258463D01*
X81294140Y-86281640D01*
X81270963Y-86302647D01*
X81245838Y-86321281D01*
X81219008Y-86337362D01*
X81190730Y-86350737D01*
X81161278Y-86361275D01*
X81130935Y-86368875D01*
X81099993Y-86373465D01*
X81068750Y-86375000D01*
X80431250Y-86375000D01*
X80400007Y-86373465D01*
X80369065Y-86368875D01*
X80338722Y-86361275D01*
X80309270Y-86350737D01*
X80280992Y-86337362D01*
X80254162Y-86321281D01*
X80229037Y-86302647D01*
X80205860Y-86281640D01*
X80184853Y-86258463D01*
X80166219Y-86233338D01*
X80150138Y-86206508D01*
X80136763Y-86178230D01*
X80126225Y-86148778D01*
X80118625Y-86118435D01*
X80114035Y-86087493D01*
X80112500Y-86056250D01*
X80112500Y-85343750D01*
X80114035Y-85312507D01*
X80118625Y-85281565D01*
X80126225Y-85251222D01*
X80136763Y-85221770D01*
X80150138Y-85193492D01*
X80166219Y-85166662D01*
X80184853Y-85141537D01*
X80205860Y-85118360D01*
X80229037Y-85097353D01*
X80254162Y-85078719D01*
X80280992Y-85062638D01*
X80309270Y-85049263D01*
X80338722Y-85038725D01*
X80369065Y-85031125D01*
X80400007Y-85026535D01*
X80431250Y-85025000D01*
X81068750Y-85025000D01*
X81099993Y-85026535D01*
X81099993Y-85026535D01*
G37*
D11*
X80750000Y-85700000D03*
D10*
G36*
X86599993Y-86826535D02*
G01*
X86630935Y-86831125D01*
X86661278Y-86838725D01*
X86690730Y-86849263D01*
X86719008Y-86862638D01*
X86745838Y-86878719D01*
X86770963Y-86897353D01*
X86794140Y-86918360D01*
X86815147Y-86941537D01*
X86833781Y-86966662D01*
X86849862Y-86993492D01*
X86863237Y-87021770D01*
X86873775Y-87051222D01*
X86881375Y-87081565D01*
X86885965Y-87112507D01*
X86887500Y-87143750D01*
X86887500Y-87856250D01*
X86885965Y-87887493D01*
X86881375Y-87918435D01*
X86873775Y-87948778D01*
X86863237Y-87978230D01*
X86849862Y-88006508D01*
X86833781Y-88033338D01*
X86815147Y-88058463D01*
X86794140Y-88081640D01*
X86770963Y-88102647D01*
X86745838Y-88121281D01*
X86719008Y-88137362D01*
X86690730Y-88150737D01*
X86661278Y-88161275D01*
X86630935Y-88168875D01*
X86599993Y-88173465D01*
X86568750Y-88175000D01*
X85931250Y-88175000D01*
X85900007Y-88173465D01*
X85869065Y-88168875D01*
X85838722Y-88161275D01*
X85809270Y-88150737D01*
X85780992Y-88137362D01*
X85754162Y-88121281D01*
X85729037Y-88102647D01*
X85705860Y-88081640D01*
X85684853Y-88058463D01*
X85666219Y-88033338D01*
X85650138Y-88006508D01*
X85636763Y-87978230D01*
X85626225Y-87948778D01*
X85618625Y-87918435D01*
X85614035Y-87887493D01*
X85612500Y-87856250D01*
X85612500Y-87143750D01*
X85614035Y-87112507D01*
X85618625Y-87081565D01*
X85626225Y-87051222D01*
X85636763Y-87021770D01*
X85650138Y-86993492D01*
X85666219Y-86966662D01*
X85684853Y-86941537D01*
X85705860Y-86918360D01*
X85729037Y-86897353D01*
X85754162Y-86878719D01*
X85780992Y-86862638D01*
X85809270Y-86849263D01*
X85838722Y-86838725D01*
X85869065Y-86831125D01*
X85900007Y-86826535D01*
X85931250Y-86825000D01*
X86568750Y-86825000D01*
X86599993Y-86826535D01*
X86599993Y-86826535D01*
G37*
D11*
X86250000Y-87500000D03*
D10*
G36*
X85024993Y-86826535D02*
G01*
X85055935Y-86831125D01*
X85086278Y-86838725D01*
X85115730Y-86849263D01*
X85144008Y-86862638D01*
X85170838Y-86878719D01*
X85195963Y-86897353D01*
X85219140Y-86918360D01*
X85240147Y-86941537D01*
X85258781Y-86966662D01*
X85274862Y-86993492D01*
X85288237Y-87021770D01*
X85298775Y-87051222D01*
X85306375Y-87081565D01*
X85310965Y-87112507D01*
X85312500Y-87143750D01*
X85312500Y-87856250D01*
X85310965Y-87887493D01*
X85306375Y-87918435D01*
X85298775Y-87948778D01*
X85288237Y-87978230D01*
X85274862Y-88006508D01*
X85258781Y-88033338D01*
X85240147Y-88058463D01*
X85219140Y-88081640D01*
X85195963Y-88102647D01*
X85170838Y-88121281D01*
X85144008Y-88137362D01*
X85115730Y-88150737D01*
X85086278Y-88161275D01*
X85055935Y-88168875D01*
X85024993Y-88173465D01*
X84993750Y-88175000D01*
X84356250Y-88175000D01*
X84325007Y-88173465D01*
X84294065Y-88168875D01*
X84263722Y-88161275D01*
X84234270Y-88150737D01*
X84205992Y-88137362D01*
X84179162Y-88121281D01*
X84154037Y-88102647D01*
X84130860Y-88081640D01*
X84109853Y-88058463D01*
X84091219Y-88033338D01*
X84075138Y-88006508D01*
X84061763Y-87978230D01*
X84051225Y-87948778D01*
X84043625Y-87918435D01*
X84039035Y-87887493D01*
X84037500Y-87856250D01*
X84037500Y-87143750D01*
X84039035Y-87112507D01*
X84043625Y-87081565D01*
X84051225Y-87051222D01*
X84061763Y-87021770D01*
X84075138Y-86993492D01*
X84091219Y-86966662D01*
X84109853Y-86941537D01*
X84130860Y-86918360D01*
X84154037Y-86897353D01*
X84179162Y-86878719D01*
X84205992Y-86862638D01*
X84234270Y-86849263D01*
X84263722Y-86838725D01*
X84294065Y-86831125D01*
X84325007Y-86826535D01*
X84356250Y-86825000D01*
X84993750Y-86825000D01*
X85024993Y-86826535D01*
X85024993Y-86826535D01*
G37*
D11*
X84675000Y-87500000D03*
D10*
G36*
X82624993Y-90876535D02*
G01*
X82655935Y-90881125D01*
X82686278Y-90888725D01*
X82715730Y-90899263D01*
X82744008Y-90912638D01*
X82770838Y-90928719D01*
X82795963Y-90947353D01*
X82819140Y-90968360D01*
X82840147Y-90991537D01*
X82858781Y-91016662D01*
X82874862Y-91043492D01*
X82888237Y-91071770D01*
X82898775Y-91101222D01*
X82906375Y-91131565D01*
X82910965Y-91162507D01*
X82912500Y-91193750D01*
X82912500Y-91906250D01*
X82910965Y-91937493D01*
X82906375Y-91968435D01*
X82898775Y-91998778D01*
X82888237Y-92028230D01*
X82874862Y-92056508D01*
X82858781Y-92083338D01*
X82840147Y-92108463D01*
X82819140Y-92131640D01*
X82795963Y-92152647D01*
X82770838Y-92171281D01*
X82744008Y-92187362D01*
X82715730Y-92200737D01*
X82686278Y-92211275D01*
X82655935Y-92218875D01*
X82624993Y-92223465D01*
X82593750Y-92225000D01*
X81956250Y-92225000D01*
X81925007Y-92223465D01*
X81894065Y-92218875D01*
X81863722Y-92211275D01*
X81834270Y-92200737D01*
X81805992Y-92187362D01*
X81779162Y-92171281D01*
X81754037Y-92152647D01*
X81730860Y-92131640D01*
X81709853Y-92108463D01*
X81691219Y-92083338D01*
X81675138Y-92056508D01*
X81661763Y-92028230D01*
X81651225Y-91998778D01*
X81643625Y-91968435D01*
X81639035Y-91937493D01*
X81637500Y-91906250D01*
X81637500Y-91193750D01*
X81639035Y-91162507D01*
X81643625Y-91131565D01*
X81651225Y-91101222D01*
X81661763Y-91071770D01*
X81675138Y-91043492D01*
X81691219Y-91016662D01*
X81709853Y-90991537D01*
X81730860Y-90968360D01*
X81754037Y-90947353D01*
X81779162Y-90928719D01*
X81805992Y-90912638D01*
X81834270Y-90899263D01*
X81863722Y-90888725D01*
X81894065Y-90881125D01*
X81925007Y-90876535D01*
X81956250Y-90875000D01*
X82593750Y-90875000D01*
X82624993Y-90876535D01*
X82624993Y-90876535D01*
G37*
D11*
X82275000Y-91550000D03*
D10*
G36*
X81049993Y-90876535D02*
G01*
X81080935Y-90881125D01*
X81111278Y-90888725D01*
X81140730Y-90899263D01*
X81169008Y-90912638D01*
X81195838Y-90928719D01*
X81220963Y-90947353D01*
X81244140Y-90968360D01*
X81265147Y-90991537D01*
X81283781Y-91016662D01*
X81299862Y-91043492D01*
X81313237Y-91071770D01*
X81323775Y-91101222D01*
X81331375Y-91131565D01*
X81335965Y-91162507D01*
X81337500Y-91193750D01*
X81337500Y-91906250D01*
X81335965Y-91937493D01*
X81331375Y-91968435D01*
X81323775Y-91998778D01*
X81313237Y-92028230D01*
X81299862Y-92056508D01*
X81283781Y-92083338D01*
X81265147Y-92108463D01*
X81244140Y-92131640D01*
X81220963Y-92152647D01*
X81195838Y-92171281D01*
X81169008Y-92187362D01*
X81140730Y-92200737D01*
X81111278Y-92211275D01*
X81080935Y-92218875D01*
X81049993Y-92223465D01*
X81018750Y-92225000D01*
X80381250Y-92225000D01*
X80350007Y-92223465D01*
X80319065Y-92218875D01*
X80288722Y-92211275D01*
X80259270Y-92200737D01*
X80230992Y-92187362D01*
X80204162Y-92171281D01*
X80179037Y-92152647D01*
X80155860Y-92131640D01*
X80134853Y-92108463D01*
X80116219Y-92083338D01*
X80100138Y-92056508D01*
X80086763Y-92028230D01*
X80076225Y-91998778D01*
X80068625Y-91968435D01*
X80064035Y-91937493D01*
X80062500Y-91906250D01*
X80062500Y-91193750D01*
X80064035Y-91162507D01*
X80068625Y-91131565D01*
X80076225Y-91101222D01*
X80086763Y-91071770D01*
X80100138Y-91043492D01*
X80116219Y-91016662D01*
X80134853Y-90991537D01*
X80155860Y-90968360D01*
X80179037Y-90947353D01*
X80204162Y-90928719D01*
X80230992Y-90912638D01*
X80259270Y-90899263D01*
X80288722Y-90888725D01*
X80319065Y-90881125D01*
X80350007Y-90876535D01*
X80381250Y-90875000D01*
X81018750Y-90875000D01*
X81049993Y-90876535D01*
X81049993Y-90876535D01*
G37*
D11*
X80700000Y-91550000D03*
D10*
G36*
X91787493Y-82464035D02*
G01*
X91818435Y-82468625D01*
X91848778Y-82476225D01*
X91878230Y-82486763D01*
X91906508Y-82500138D01*
X91933338Y-82516219D01*
X91958463Y-82534853D01*
X91981640Y-82555860D01*
X92002647Y-82579037D01*
X92021281Y-82604162D01*
X92037362Y-82630992D01*
X92050737Y-82659270D01*
X92061275Y-82688722D01*
X92068875Y-82719065D01*
X92073465Y-82750007D01*
X92075000Y-82781250D01*
X92075000Y-83418750D01*
X92073465Y-83449993D01*
X92068875Y-83480935D01*
X92061275Y-83511278D01*
X92050737Y-83540730D01*
X92037362Y-83569008D01*
X92021281Y-83595838D01*
X92002647Y-83620963D01*
X91981640Y-83644140D01*
X91958463Y-83665147D01*
X91933338Y-83683781D01*
X91906508Y-83699862D01*
X91878230Y-83713237D01*
X91848778Y-83723775D01*
X91818435Y-83731375D01*
X91787493Y-83735965D01*
X91756250Y-83737500D01*
X91043750Y-83737500D01*
X91012507Y-83735965D01*
X90981565Y-83731375D01*
X90951222Y-83723775D01*
X90921770Y-83713237D01*
X90893492Y-83699862D01*
X90866662Y-83683781D01*
X90841537Y-83665147D01*
X90818360Y-83644140D01*
X90797353Y-83620963D01*
X90778719Y-83595838D01*
X90762638Y-83569008D01*
X90749263Y-83540730D01*
X90738725Y-83511278D01*
X90731125Y-83480935D01*
X90726535Y-83449993D01*
X90725000Y-83418750D01*
X90725000Y-82781250D01*
X90726535Y-82750007D01*
X90731125Y-82719065D01*
X90738725Y-82688722D01*
X90749263Y-82659270D01*
X90762638Y-82630992D01*
X90778719Y-82604162D01*
X90797353Y-82579037D01*
X90818360Y-82555860D01*
X90841537Y-82534853D01*
X90866662Y-82516219D01*
X90893492Y-82500138D01*
X90921770Y-82486763D01*
X90951222Y-82476225D01*
X90981565Y-82468625D01*
X91012507Y-82464035D01*
X91043750Y-82462500D01*
X91756250Y-82462500D01*
X91787493Y-82464035D01*
X91787493Y-82464035D01*
G37*
D11*
X91400000Y-83100000D03*
D10*
G36*
X91787493Y-84039035D02*
G01*
X91818435Y-84043625D01*
X91848778Y-84051225D01*
X91878230Y-84061763D01*
X91906508Y-84075138D01*
X91933338Y-84091219D01*
X91958463Y-84109853D01*
X91981640Y-84130860D01*
X92002647Y-84154037D01*
X92021281Y-84179162D01*
X92037362Y-84205992D01*
X92050737Y-84234270D01*
X92061275Y-84263722D01*
X92068875Y-84294065D01*
X92073465Y-84325007D01*
X92075000Y-84356250D01*
X92075000Y-84993750D01*
X92073465Y-85024993D01*
X92068875Y-85055935D01*
X92061275Y-85086278D01*
X92050737Y-85115730D01*
X92037362Y-85144008D01*
X92021281Y-85170838D01*
X92002647Y-85195963D01*
X91981640Y-85219140D01*
X91958463Y-85240147D01*
X91933338Y-85258781D01*
X91906508Y-85274862D01*
X91878230Y-85288237D01*
X91848778Y-85298775D01*
X91818435Y-85306375D01*
X91787493Y-85310965D01*
X91756250Y-85312500D01*
X91043750Y-85312500D01*
X91012507Y-85310965D01*
X90981565Y-85306375D01*
X90951222Y-85298775D01*
X90921770Y-85288237D01*
X90893492Y-85274862D01*
X90866662Y-85258781D01*
X90841537Y-85240147D01*
X90818360Y-85219140D01*
X90797353Y-85195963D01*
X90778719Y-85170838D01*
X90762638Y-85144008D01*
X90749263Y-85115730D01*
X90738725Y-85086278D01*
X90731125Y-85055935D01*
X90726535Y-85024993D01*
X90725000Y-84993750D01*
X90725000Y-84356250D01*
X90726535Y-84325007D01*
X90731125Y-84294065D01*
X90738725Y-84263722D01*
X90749263Y-84234270D01*
X90762638Y-84205992D01*
X90778719Y-84179162D01*
X90797353Y-84154037D01*
X90818360Y-84130860D01*
X90841537Y-84109853D01*
X90866662Y-84091219D01*
X90893492Y-84075138D01*
X90921770Y-84061763D01*
X90951222Y-84051225D01*
X90981565Y-84043625D01*
X91012507Y-84039035D01*
X91043750Y-84037500D01*
X91756250Y-84037500D01*
X91787493Y-84039035D01*
X91787493Y-84039035D01*
G37*
D11*
X91400000Y-84675000D03*
D10*
G36*
X98187493Y-84051535D02*
G01*
X98218435Y-84056125D01*
X98248778Y-84063725D01*
X98278230Y-84074263D01*
X98306508Y-84087638D01*
X98333338Y-84103719D01*
X98358463Y-84122353D01*
X98381640Y-84143360D01*
X98402647Y-84166537D01*
X98421281Y-84191662D01*
X98437362Y-84218492D01*
X98450737Y-84246770D01*
X98461275Y-84276222D01*
X98468875Y-84306565D01*
X98473465Y-84337507D01*
X98475000Y-84368750D01*
X98475000Y-85006250D01*
X98473465Y-85037493D01*
X98468875Y-85068435D01*
X98461275Y-85098778D01*
X98450737Y-85128230D01*
X98437362Y-85156508D01*
X98421281Y-85183338D01*
X98402647Y-85208463D01*
X98381640Y-85231640D01*
X98358463Y-85252647D01*
X98333338Y-85271281D01*
X98306508Y-85287362D01*
X98278230Y-85300737D01*
X98248778Y-85311275D01*
X98218435Y-85318875D01*
X98187493Y-85323465D01*
X98156250Y-85325000D01*
X97443750Y-85325000D01*
X97412507Y-85323465D01*
X97381565Y-85318875D01*
X97351222Y-85311275D01*
X97321770Y-85300737D01*
X97293492Y-85287362D01*
X97266662Y-85271281D01*
X97241537Y-85252647D01*
X97218360Y-85231640D01*
X97197353Y-85208463D01*
X97178719Y-85183338D01*
X97162638Y-85156508D01*
X97149263Y-85128230D01*
X97138725Y-85098778D01*
X97131125Y-85068435D01*
X97126535Y-85037493D01*
X97125000Y-85006250D01*
X97125000Y-84368750D01*
X97126535Y-84337507D01*
X97131125Y-84306565D01*
X97138725Y-84276222D01*
X97149263Y-84246770D01*
X97162638Y-84218492D01*
X97178719Y-84191662D01*
X97197353Y-84166537D01*
X97218360Y-84143360D01*
X97241537Y-84122353D01*
X97266662Y-84103719D01*
X97293492Y-84087638D01*
X97321770Y-84074263D01*
X97351222Y-84063725D01*
X97381565Y-84056125D01*
X97412507Y-84051535D01*
X97443750Y-84050000D01*
X98156250Y-84050000D01*
X98187493Y-84051535D01*
X98187493Y-84051535D01*
G37*
D11*
X97800000Y-84687500D03*
D10*
G36*
X98187493Y-82476535D02*
G01*
X98218435Y-82481125D01*
X98248778Y-82488725D01*
X98278230Y-82499263D01*
X98306508Y-82512638D01*
X98333338Y-82528719D01*
X98358463Y-82547353D01*
X98381640Y-82568360D01*
X98402647Y-82591537D01*
X98421281Y-82616662D01*
X98437362Y-82643492D01*
X98450737Y-82671770D01*
X98461275Y-82701222D01*
X98468875Y-82731565D01*
X98473465Y-82762507D01*
X98475000Y-82793750D01*
X98475000Y-83431250D01*
X98473465Y-83462493D01*
X98468875Y-83493435D01*
X98461275Y-83523778D01*
X98450737Y-83553230D01*
X98437362Y-83581508D01*
X98421281Y-83608338D01*
X98402647Y-83633463D01*
X98381640Y-83656640D01*
X98358463Y-83677647D01*
X98333338Y-83696281D01*
X98306508Y-83712362D01*
X98278230Y-83725737D01*
X98248778Y-83736275D01*
X98218435Y-83743875D01*
X98187493Y-83748465D01*
X98156250Y-83750000D01*
X97443750Y-83750000D01*
X97412507Y-83748465D01*
X97381565Y-83743875D01*
X97351222Y-83736275D01*
X97321770Y-83725737D01*
X97293492Y-83712362D01*
X97266662Y-83696281D01*
X97241537Y-83677647D01*
X97218360Y-83656640D01*
X97197353Y-83633463D01*
X97178719Y-83608338D01*
X97162638Y-83581508D01*
X97149263Y-83553230D01*
X97138725Y-83523778D01*
X97131125Y-83493435D01*
X97126535Y-83462493D01*
X97125000Y-83431250D01*
X97125000Y-82793750D01*
X97126535Y-82762507D01*
X97131125Y-82731565D01*
X97138725Y-82701222D01*
X97149263Y-82671770D01*
X97162638Y-82643492D01*
X97178719Y-82616662D01*
X97197353Y-82591537D01*
X97218360Y-82568360D01*
X97241537Y-82547353D01*
X97266662Y-82528719D01*
X97293492Y-82512638D01*
X97321770Y-82499263D01*
X97351222Y-82488725D01*
X97381565Y-82481125D01*
X97412507Y-82476535D01*
X97443750Y-82475000D01*
X98156250Y-82475000D01*
X98187493Y-82476535D01*
X98187493Y-82476535D01*
G37*
D11*
X97800000Y-83112500D03*
D14*
X107000000Y-95000000D03*
X107000000Y-92500000D03*
X107000000Y-90500000D03*
X107000000Y-88000000D03*
D19*
X109600000Y-98070000D03*
X109600000Y-84930000D03*
D10*
G36*
X77612493Y-81826535D02*
G01*
X77643435Y-81831125D01*
X77673778Y-81838725D01*
X77703230Y-81849263D01*
X77731508Y-81862638D01*
X77758338Y-81878719D01*
X77783463Y-81897353D01*
X77806640Y-81918360D01*
X77827647Y-81941537D01*
X77846281Y-81966662D01*
X77862362Y-81993492D01*
X77875737Y-82021770D01*
X77886275Y-82051222D01*
X77893875Y-82081565D01*
X77898465Y-82112507D01*
X77900000Y-82143750D01*
X77900000Y-82856250D01*
X77898465Y-82887493D01*
X77893875Y-82918435D01*
X77886275Y-82948778D01*
X77875737Y-82978230D01*
X77862362Y-83006508D01*
X77846281Y-83033338D01*
X77827647Y-83058463D01*
X77806640Y-83081640D01*
X77783463Y-83102647D01*
X77758338Y-83121281D01*
X77731508Y-83137362D01*
X77703230Y-83150737D01*
X77673778Y-83161275D01*
X77643435Y-83168875D01*
X77612493Y-83173465D01*
X77581250Y-83175000D01*
X76943750Y-83175000D01*
X76912507Y-83173465D01*
X76881565Y-83168875D01*
X76851222Y-83161275D01*
X76821770Y-83150737D01*
X76793492Y-83137362D01*
X76766662Y-83121281D01*
X76741537Y-83102647D01*
X76718360Y-83081640D01*
X76697353Y-83058463D01*
X76678719Y-83033338D01*
X76662638Y-83006508D01*
X76649263Y-82978230D01*
X76638725Y-82948778D01*
X76631125Y-82918435D01*
X76626535Y-82887493D01*
X76625000Y-82856250D01*
X76625000Y-82143750D01*
X76626535Y-82112507D01*
X76631125Y-82081565D01*
X76638725Y-82051222D01*
X76649263Y-82021770D01*
X76662638Y-81993492D01*
X76678719Y-81966662D01*
X76697353Y-81941537D01*
X76718360Y-81918360D01*
X76741537Y-81897353D01*
X76766662Y-81878719D01*
X76793492Y-81862638D01*
X76821770Y-81849263D01*
X76851222Y-81838725D01*
X76881565Y-81831125D01*
X76912507Y-81826535D01*
X76943750Y-81825000D01*
X77581250Y-81825000D01*
X77612493Y-81826535D01*
X77612493Y-81826535D01*
G37*
D11*
X77262500Y-82500000D03*
D10*
G36*
X79187493Y-81826535D02*
G01*
X79218435Y-81831125D01*
X79248778Y-81838725D01*
X79278230Y-81849263D01*
X79306508Y-81862638D01*
X79333338Y-81878719D01*
X79358463Y-81897353D01*
X79381640Y-81918360D01*
X79402647Y-81941537D01*
X79421281Y-81966662D01*
X79437362Y-81993492D01*
X79450737Y-82021770D01*
X79461275Y-82051222D01*
X79468875Y-82081565D01*
X79473465Y-82112507D01*
X79475000Y-82143750D01*
X79475000Y-82856250D01*
X79473465Y-82887493D01*
X79468875Y-82918435D01*
X79461275Y-82948778D01*
X79450737Y-82978230D01*
X79437362Y-83006508D01*
X79421281Y-83033338D01*
X79402647Y-83058463D01*
X79381640Y-83081640D01*
X79358463Y-83102647D01*
X79333338Y-83121281D01*
X79306508Y-83137362D01*
X79278230Y-83150737D01*
X79248778Y-83161275D01*
X79218435Y-83168875D01*
X79187493Y-83173465D01*
X79156250Y-83175000D01*
X78518750Y-83175000D01*
X78487507Y-83173465D01*
X78456565Y-83168875D01*
X78426222Y-83161275D01*
X78396770Y-83150737D01*
X78368492Y-83137362D01*
X78341662Y-83121281D01*
X78316537Y-83102647D01*
X78293360Y-83081640D01*
X78272353Y-83058463D01*
X78253719Y-83033338D01*
X78237638Y-83006508D01*
X78224263Y-82978230D01*
X78213725Y-82948778D01*
X78206125Y-82918435D01*
X78201535Y-82887493D01*
X78200000Y-82856250D01*
X78200000Y-82143750D01*
X78201535Y-82112507D01*
X78206125Y-82081565D01*
X78213725Y-82051222D01*
X78224263Y-82021770D01*
X78237638Y-81993492D01*
X78253719Y-81966662D01*
X78272353Y-81941537D01*
X78293360Y-81918360D01*
X78316537Y-81897353D01*
X78341662Y-81878719D01*
X78368492Y-81862638D01*
X78396770Y-81849263D01*
X78426222Y-81838725D01*
X78456565Y-81831125D01*
X78487507Y-81826535D01*
X78518750Y-81825000D01*
X79156250Y-81825000D01*
X79187493Y-81826535D01*
X79187493Y-81826535D01*
G37*
D11*
X78837500Y-82500000D03*
D10*
G36*
X104387493Y-88764035D02*
G01*
X104418435Y-88768625D01*
X104448778Y-88776225D01*
X104478230Y-88786763D01*
X104506508Y-88800138D01*
X104533338Y-88816219D01*
X104558463Y-88834853D01*
X104581640Y-88855860D01*
X104602647Y-88879037D01*
X104621281Y-88904162D01*
X104637362Y-88930992D01*
X104650737Y-88959270D01*
X104661275Y-88988722D01*
X104668875Y-89019065D01*
X104673465Y-89050007D01*
X104675000Y-89081250D01*
X104675000Y-89718750D01*
X104673465Y-89749993D01*
X104668875Y-89780935D01*
X104661275Y-89811278D01*
X104650737Y-89840730D01*
X104637362Y-89869008D01*
X104621281Y-89895838D01*
X104602647Y-89920963D01*
X104581640Y-89944140D01*
X104558463Y-89965147D01*
X104533338Y-89983781D01*
X104506508Y-89999862D01*
X104478230Y-90013237D01*
X104448778Y-90023775D01*
X104418435Y-90031375D01*
X104387493Y-90035965D01*
X104356250Y-90037500D01*
X103643750Y-90037500D01*
X103612507Y-90035965D01*
X103581565Y-90031375D01*
X103551222Y-90023775D01*
X103521770Y-90013237D01*
X103493492Y-89999862D01*
X103466662Y-89983781D01*
X103441537Y-89965147D01*
X103418360Y-89944140D01*
X103397353Y-89920963D01*
X103378719Y-89895838D01*
X103362638Y-89869008D01*
X103349263Y-89840730D01*
X103338725Y-89811278D01*
X103331125Y-89780935D01*
X103326535Y-89749993D01*
X103325000Y-89718750D01*
X103325000Y-89081250D01*
X103326535Y-89050007D01*
X103331125Y-89019065D01*
X103338725Y-88988722D01*
X103349263Y-88959270D01*
X103362638Y-88930992D01*
X103378719Y-88904162D01*
X103397353Y-88879037D01*
X103418360Y-88855860D01*
X103441537Y-88834853D01*
X103466662Y-88816219D01*
X103493492Y-88800138D01*
X103521770Y-88786763D01*
X103551222Y-88776225D01*
X103581565Y-88768625D01*
X103612507Y-88764035D01*
X103643750Y-88762500D01*
X104356250Y-88762500D01*
X104387493Y-88764035D01*
X104387493Y-88764035D01*
G37*
D11*
X104000000Y-89400000D03*
D10*
G36*
X104387493Y-90339035D02*
G01*
X104418435Y-90343625D01*
X104448778Y-90351225D01*
X104478230Y-90361763D01*
X104506508Y-90375138D01*
X104533338Y-90391219D01*
X104558463Y-90409853D01*
X104581640Y-90430860D01*
X104602647Y-90454037D01*
X104621281Y-90479162D01*
X104637362Y-90505992D01*
X104650737Y-90534270D01*
X104661275Y-90563722D01*
X104668875Y-90594065D01*
X104673465Y-90625007D01*
X104675000Y-90656250D01*
X104675000Y-91293750D01*
X104673465Y-91324993D01*
X104668875Y-91355935D01*
X104661275Y-91386278D01*
X104650737Y-91415730D01*
X104637362Y-91444008D01*
X104621281Y-91470838D01*
X104602647Y-91495963D01*
X104581640Y-91519140D01*
X104558463Y-91540147D01*
X104533338Y-91558781D01*
X104506508Y-91574862D01*
X104478230Y-91588237D01*
X104448778Y-91598775D01*
X104418435Y-91606375D01*
X104387493Y-91610965D01*
X104356250Y-91612500D01*
X103643750Y-91612500D01*
X103612507Y-91610965D01*
X103581565Y-91606375D01*
X103551222Y-91598775D01*
X103521770Y-91588237D01*
X103493492Y-91574862D01*
X103466662Y-91558781D01*
X103441537Y-91540147D01*
X103418360Y-91519140D01*
X103397353Y-91495963D01*
X103378719Y-91470838D01*
X103362638Y-91444008D01*
X103349263Y-91415730D01*
X103338725Y-91386278D01*
X103331125Y-91355935D01*
X103326535Y-91324993D01*
X103325000Y-91293750D01*
X103325000Y-90656250D01*
X103326535Y-90625007D01*
X103331125Y-90594065D01*
X103338725Y-90563722D01*
X103349263Y-90534270D01*
X103362638Y-90505992D01*
X103378719Y-90479162D01*
X103397353Y-90454037D01*
X103418360Y-90430860D01*
X103441537Y-90409853D01*
X103466662Y-90391219D01*
X103493492Y-90375138D01*
X103521770Y-90361763D01*
X103551222Y-90351225D01*
X103581565Y-90343625D01*
X103612507Y-90339035D01*
X103643750Y-90337500D01*
X104356250Y-90337500D01*
X104387493Y-90339035D01*
X104387493Y-90339035D01*
G37*
D11*
X104000000Y-90975000D03*
D10*
G36*
X81074993Y-94176535D02*
G01*
X81105935Y-94181125D01*
X81136278Y-94188725D01*
X81165730Y-94199263D01*
X81194008Y-94212638D01*
X81220838Y-94228719D01*
X81245963Y-94247353D01*
X81269140Y-94268360D01*
X81290147Y-94291537D01*
X81308781Y-94316662D01*
X81324862Y-94343492D01*
X81338237Y-94371770D01*
X81348775Y-94401222D01*
X81356375Y-94431565D01*
X81360965Y-94462507D01*
X81362500Y-94493750D01*
X81362500Y-95206250D01*
X81360965Y-95237493D01*
X81356375Y-95268435D01*
X81348775Y-95298778D01*
X81338237Y-95328230D01*
X81324862Y-95356508D01*
X81308781Y-95383338D01*
X81290147Y-95408463D01*
X81269140Y-95431640D01*
X81245963Y-95452647D01*
X81220838Y-95471281D01*
X81194008Y-95487362D01*
X81165730Y-95500737D01*
X81136278Y-95511275D01*
X81105935Y-95518875D01*
X81074993Y-95523465D01*
X81043750Y-95525000D01*
X80406250Y-95525000D01*
X80375007Y-95523465D01*
X80344065Y-95518875D01*
X80313722Y-95511275D01*
X80284270Y-95500737D01*
X80255992Y-95487362D01*
X80229162Y-95471281D01*
X80204037Y-95452647D01*
X80180860Y-95431640D01*
X80159853Y-95408463D01*
X80141219Y-95383338D01*
X80125138Y-95356508D01*
X80111763Y-95328230D01*
X80101225Y-95298778D01*
X80093625Y-95268435D01*
X80089035Y-95237493D01*
X80087500Y-95206250D01*
X80087500Y-94493750D01*
X80089035Y-94462507D01*
X80093625Y-94431565D01*
X80101225Y-94401222D01*
X80111763Y-94371770D01*
X80125138Y-94343492D01*
X80141219Y-94316662D01*
X80159853Y-94291537D01*
X80180860Y-94268360D01*
X80204037Y-94247353D01*
X80229162Y-94228719D01*
X80255992Y-94212638D01*
X80284270Y-94199263D01*
X80313722Y-94188725D01*
X80344065Y-94181125D01*
X80375007Y-94176535D01*
X80406250Y-94175000D01*
X81043750Y-94175000D01*
X81074993Y-94176535D01*
X81074993Y-94176535D01*
G37*
D11*
X80725000Y-94850000D03*
D10*
G36*
X82649993Y-94176535D02*
G01*
X82680935Y-94181125D01*
X82711278Y-94188725D01*
X82740730Y-94199263D01*
X82769008Y-94212638D01*
X82795838Y-94228719D01*
X82820963Y-94247353D01*
X82844140Y-94268360D01*
X82865147Y-94291537D01*
X82883781Y-94316662D01*
X82899862Y-94343492D01*
X82913237Y-94371770D01*
X82923775Y-94401222D01*
X82931375Y-94431565D01*
X82935965Y-94462507D01*
X82937500Y-94493750D01*
X82937500Y-95206250D01*
X82935965Y-95237493D01*
X82931375Y-95268435D01*
X82923775Y-95298778D01*
X82913237Y-95328230D01*
X82899862Y-95356508D01*
X82883781Y-95383338D01*
X82865147Y-95408463D01*
X82844140Y-95431640D01*
X82820963Y-95452647D01*
X82795838Y-95471281D01*
X82769008Y-95487362D01*
X82740730Y-95500737D01*
X82711278Y-95511275D01*
X82680935Y-95518875D01*
X82649993Y-95523465D01*
X82618750Y-95525000D01*
X81981250Y-95525000D01*
X81950007Y-95523465D01*
X81919065Y-95518875D01*
X81888722Y-95511275D01*
X81859270Y-95500737D01*
X81830992Y-95487362D01*
X81804162Y-95471281D01*
X81779037Y-95452647D01*
X81755860Y-95431640D01*
X81734853Y-95408463D01*
X81716219Y-95383338D01*
X81700138Y-95356508D01*
X81686763Y-95328230D01*
X81676225Y-95298778D01*
X81668625Y-95268435D01*
X81664035Y-95237493D01*
X81662500Y-95206250D01*
X81662500Y-94493750D01*
X81664035Y-94462507D01*
X81668625Y-94431565D01*
X81676225Y-94401222D01*
X81686763Y-94371770D01*
X81700138Y-94343492D01*
X81716219Y-94316662D01*
X81734853Y-94291537D01*
X81755860Y-94268360D01*
X81779037Y-94247353D01*
X81804162Y-94228719D01*
X81830992Y-94212638D01*
X81859270Y-94199263D01*
X81888722Y-94188725D01*
X81919065Y-94181125D01*
X81950007Y-94176535D01*
X81981250Y-94175000D01*
X82618750Y-94175000D01*
X82649993Y-94176535D01*
X82649993Y-94176535D01*
G37*
D11*
X82300000Y-94850000D03*
D10*
G36*
X81074993Y-92526535D02*
G01*
X81105935Y-92531125D01*
X81136278Y-92538725D01*
X81165730Y-92549263D01*
X81194008Y-92562638D01*
X81220838Y-92578719D01*
X81245963Y-92597353D01*
X81269140Y-92618360D01*
X81290147Y-92641537D01*
X81308781Y-92666662D01*
X81324862Y-92693492D01*
X81338237Y-92721770D01*
X81348775Y-92751222D01*
X81356375Y-92781565D01*
X81360965Y-92812507D01*
X81362500Y-92843750D01*
X81362500Y-93556250D01*
X81360965Y-93587493D01*
X81356375Y-93618435D01*
X81348775Y-93648778D01*
X81338237Y-93678230D01*
X81324862Y-93706508D01*
X81308781Y-93733338D01*
X81290147Y-93758463D01*
X81269140Y-93781640D01*
X81245963Y-93802647D01*
X81220838Y-93821281D01*
X81194008Y-93837362D01*
X81165730Y-93850737D01*
X81136278Y-93861275D01*
X81105935Y-93868875D01*
X81074993Y-93873465D01*
X81043750Y-93875000D01*
X80406250Y-93875000D01*
X80375007Y-93873465D01*
X80344065Y-93868875D01*
X80313722Y-93861275D01*
X80284270Y-93850737D01*
X80255992Y-93837362D01*
X80229162Y-93821281D01*
X80204037Y-93802647D01*
X80180860Y-93781640D01*
X80159853Y-93758463D01*
X80141219Y-93733338D01*
X80125138Y-93706508D01*
X80111763Y-93678230D01*
X80101225Y-93648778D01*
X80093625Y-93618435D01*
X80089035Y-93587493D01*
X80087500Y-93556250D01*
X80087500Y-92843750D01*
X80089035Y-92812507D01*
X80093625Y-92781565D01*
X80101225Y-92751222D01*
X80111763Y-92721770D01*
X80125138Y-92693492D01*
X80141219Y-92666662D01*
X80159853Y-92641537D01*
X80180860Y-92618360D01*
X80204037Y-92597353D01*
X80229162Y-92578719D01*
X80255992Y-92562638D01*
X80284270Y-92549263D01*
X80313722Y-92538725D01*
X80344065Y-92531125D01*
X80375007Y-92526535D01*
X80406250Y-92525000D01*
X81043750Y-92525000D01*
X81074993Y-92526535D01*
X81074993Y-92526535D01*
G37*
D11*
X80725000Y-93200000D03*
D10*
G36*
X82649993Y-92526535D02*
G01*
X82680935Y-92531125D01*
X82711278Y-92538725D01*
X82740730Y-92549263D01*
X82769008Y-92562638D01*
X82795838Y-92578719D01*
X82820963Y-92597353D01*
X82844140Y-92618360D01*
X82865147Y-92641537D01*
X82883781Y-92666662D01*
X82899862Y-92693492D01*
X82913237Y-92721770D01*
X82923775Y-92751222D01*
X82931375Y-92781565D01*
X82935965Y-92812507D01*
X82937500Y-92843750D01*
X82937500Y-93556250D01*
X82935965Y-93587493D01*
X82931375Y-93618435D01*
X82923775Y-93648778D01*
X82913237Y-93678230D01*
X82899862Y-93706508D01*
X82883781Y-93733338D01*
X82865147Y-93758463D01*
X82844140Y-93781640D01*
X82820963Y-93802647D01*
X82795838Y-93821281D01*
X82769008Y-93837362D01*
X82740730Y-93850737D01*
X82711278Y-93861275D01*
X82680935Y-93868875D01*
X82649993Y-93873465D01*
X82618750Y-93875000D01*
X81981250Y-93875000D01*
X81950007Y-93873465D01*
X81919065Y-93868875D01*
X81888722Y-93861275D01*
X81859270Y-93850737D01*
X81830992Y-93837362D01*
X81804162Y-93821281D01*
X81779037Y-93802647D01*
X81755860Y-93781640D01*
X81734853Y-93758463D01*
X81716219Y-93733338D01*
X81700138Y-93706508D01*
X81686763Y-93678230D01*
X81676225Y-93648778D01*
X81668625Y-93618435D01*
X81664035Y-93587493D01*
X81662500Y-93556250D01*
X81662500Y-92843750D01*
X81664035Y-92812507D01*
X81668625Y-92781565D01*
X81676225Y-92751222D01*
X81686763Y-92721770D01*
X81700138Y-92693492D01*
X81716219Y-92666662D01*
X81734853Y-92641537D01*
X81755860Y-92618360D01*
X81779037Y-92597353D01*
X81804162Y-92578719D01*
X81830992Y-92562638D01*
X81859270Y-92549263D01*
X81888722Y-92538725D01*
X81919065Y-92531125D01*
X81950007Y-92526535D01*
X81981250Y-92525000D01*
X82618750Y-92525000D01*
X82649993Y-92526535D01*
X82649993Y-92526535D01*
G37*
D11*
X82300000Y-93200000D03*
D20*
X95900000Y-82900000D03*
X93500000Y-84800000D03*
X93500000Y-82900000D03*
X95900000Y-84800000D03*
D21*
X99800000Y-87400000D03*
X99150000Y-87400000D03*
X98500000Y-87400000D03*
X97850000Y-87400000D03*
X97200000Y-87400000D03*
X96550000Y-87400000D03*
X95900000Y-87400000D03*
X95250000Y-87400000D03*
X94600000Y-87400000D03*
X93950000Y-87400000D03*
X93300000Y-87400000D03*
X92650000Y-87400000D03*
X92000000Y-87400000D03*
X91350000Y-87400000D03*
X91350000Y-94600000D03*
X92000000Y-94600000D03*
X92650000Y-94600000D03*
X93300000Y-94600000D03*
X93950000Y-94600000D03*
X94600000Y-94600000D03*
X95250000Y-94600000D03*
X95900000Y-94600000D03*
X96550000Y-94600000D03*
X97200000Y-94600000D03*
X97850000Y-94600000D03*
X98500000Y-94600000D03*
X99150000Y-94600000D03*
X99800000Y-94600000D03*
M02*
