G04 #@! TF.GenerationSoftware,KiCad,Pcbnew,(5.1.2)-1*
G04 #@! TF.CreationDate,2021-07-24T10:23:43+09:00*
G04 #@! TF.ProjectId,PS2USB,50533255-5342-42e6-9b69-6361645f7063,v2.1*
G04 #@! TF.SameCoordinates,Original*
G04 #@! TF.FileFunction,Copper,L1,Top*
G04 #@! TF.FilePolarity,Positive*
%FSLAX46Y46*%
G04 Gerber Fmt 4.6, Leading zero omitted, Abs format (unit mm)*
G04 Created by KiCad (PCBNEW (5.1.2)-1) date 2021-07-24 10:23:43*
%MOMM*%
%LPD*%
G04 APERTURE LIST*
%ADD10C,0.050000*%
%ADD11C,0.875000*%
%ADD12R,0.650000X1.060000*%
%ADD13C,0.975000*%
%ADD14C,1.524000*%
%ADD15O,3.000000X1.500000*%
%ADD16C,2.000000*%
%ADD17O,1.700000X1.700000*%
%ADD18R,1.700000X1.700000*%
%ADD19C,3.000000*%
%ADD20R,1.400000X1.200000*%
%ADD21R,0.450000X1.750000*%
%ADD22C,0.800000*%
%ADD23C,0.300000*%
%ADD24C,0.254000*%
G04 APERTURE END LIST*
D10*
G36*
X104277691Y-93813553D02*
G01*
X104298926Y-93816703D01*
X104319750Y-93821919D01*
X104339962Y-93829151D01*
X104359368Y-93838330D01*
X104377781Y-93849366D01*
X104395024Y-93862154D01*
X104410930Y-93876570D01*
X104425346Y-93892476D01*
X104438134Y-93909719D01*
X104449170Y-93928132D01*
X104458349Y-93947538D01*
X104465581Y-93967750D01*
X104470797Y-93988574D01*
X104473947Y-94009809D01*
X104475000Y-94031250D01*
X104475000Y-94468750D01*
X104473947Y-94490191D01*
X104470797Y-94511426D01*
X104465581Y-94532250D01*
X104458349Y-94552462D01*
X104449170Y-94571868D01*
X104438134Y-94590281D01*
X104425346Y-94607524D01*
X104410930Y-94623430D01*
X104395024Y-94637846D01*
X104377781Y-94650634D01*
X104359368Y-94661670D01*
X104339962Y-94670849D01*
X104319750Y-94678081D01*
X104298926Y-94683297D01*
X104277691Y-94686447D01*
X104256250Y-94687500D01*
X103743750Y-94687500D01*
X103722309Y-94686447D01*
X103701074Y-94683297D01*
X103680250Y-94678081D01*
X103660038Y-94670849D01*
X103640632Y-94661670D01*
X103622219Y-94650634D01*
X103604976Y-94637846D01*
X103589070Y-94623430D01*
X103574654Y-94607524D01*
X103561866Y-94590281D01*
X103550830Y-94571868D01*
X103541651Y-94552462D01*
X103534419Y-94532250D01*
X103529203Y-94511426D01*
X103526053Y-94490191D01*
X103525000Y-94468750D01*
X103525000Y-94031250D01*
X103526053Y-94009809D01*
X103529203Y-93988574D01*
X103534419Y-93967750D01*
X103541651Y-93947538D01*
X103550830Y-93928132D01*
X103561866Y-93909719D01*
X103574654Y-93892476D01*
X103589070Y-93876570D01*
X103604976Y-93862154D01*
X103622219Y-93849366D01*
X103640632Y-93838330D01*
X103660038Y-93829151D01*
X103680250Y-93821919D01*
X103701074Y-93816703D01*
X103722309Y-93813553D01*
X103743750Y-93812500D01*
X104256250Y-93812500D01*
X104277691Y-93813553D01*
X104277691Y-93813553D01*
G37*
D11*
X104000000Y-94250000D03*
D10*
G36*
X104277691Y-92238553D02*
G01*
X104298926Y-92241703D01*
X104319750Y-92246919D01*
X104339962Y-92254151D01*
X104359368Y-92263330D01*
X104377781Y-92274366D01*
X104395024Y-92287154D01*
X104410930Y-92301570D01*
X104425346Y-92317476D01*
X104438134Y-92334719D01*
X104449170Y-92353132D01*
X104458349Y-92372538D01*
X104465581Y-92392750D01*
X104470797Y-92413574D01*
X104473947Y-92434809D01*
X104475000Y-92456250D01*
X104475000Y-92893750D01*
X104473947Y-92915191D01*
X104470797Y-92936426D01*
X104465581Y-92957250D01*
X104458349Y-92977462D01*
X104449170Y-92996868D01*
X104438134Y-93015281D01*
X104425346Y-93032524D01*
X104410930Y-93048430D01*
X104395024Y-93062846D01*
X104377781Y-93075634D01*
X104359368Y-93086670D01*
X104339962Y-93095849D01*
X104319750Y-93103081D01*
X104298926Y-93108297D01*
X104277691Y-93111447D01*
X104256250Y-93112500D01*
X103743750Y-93112500D01*
X103722309Y-93111447D01*
X103701074Y-93108297D01*
X103680250Y-93103081D01*
X103660038Y-93095849D01*
X103640632Y-93086670D01*
X103622219Y-93075634D01*
X103604976Y-93062846D01*
X103589070Y-93048430D01*
X103574654Y-93032524D01*
X103561866Y-93015281D01*
X103550830Y-92996868D01*
X103541651Y-92977462D01*
X103534419Y-92957250D01*
X103529203Y-92936426D01*
X103526053Y-92915191D01*
X103525000Y-92893750D01*
X103525000Y-92456250D01*
X103526053Y-92434809D01*
X103529203Y-92413574D01*
X103534419Y-92392750D01*
X103541651Y-92372538D01*
X103550830Y-92353132D01*
X103561866Y-92334719D01*
X103574654Y-92317476D01*
X103589070Y-92301570D01*
X103604976Y-92287154D01*
X103622219Y-92274366D01*
X103640632Y-92263330D01*
X103660038Y-92254151D01*
X103680250Y-92246919D01*
X103701074Y-92241703D01*
X103722309Y-92238553D01*
X103743750Y-92237500D01*
X104256250Y-92237500D01*
X104277691Y-92238553D01*
X104277691Y-92238553D01*
G37*
D11*
X104000000Y-92675000D03*
D10*
G36*
X82615191Y-82026053D02*
G01*
X82636426Y-82029203D01*
X82657250Y-82034419D01*
X82677462Y-82041651D01*
X82696868Y-82050830D01*
X82715281Y-82061866D01*
X82732524Y-82074654D01*
X82748430Y-82089070D01*
X82762846Y-82104976D01*
X82775634Y-82122219D01*
X82786670Y-82140632D01*
X82795849Y-82160038D01*
X82803081Y-82180250D01*
X82808297Y-82201074D01*
X82811447Y-82222309D01*
X82812500Y-82243750D01*
X82812500Y-82756250D01*
X82811447Y-82777691D01*
X82808297Y-82798926D01*
X82803081Y-82819750D01*
X82795849Y-82839962D01*
X82786670Y-82859368D01*
X82775634Y-82877781D01*
X82762846Y-82895024D01*
X82748430Y-82910930D01*
X82732524Y-82925346D01*
X82715281Y-82938134D01*
X82696868Y-82949170D01*
X82677462Y-82958349D01*
X82657250Y-82965581D01*
X82636426Y-82970797D01*
X82615191Y-82973947D01*
X82593750Y-82975000D01*
X82156250Y-82975000D01*
X82134809Y-82973947D01*
X82113574Y-82970797D01*
X82092750Y-82965581D01*
X82072538Y-82958349D01*
X82053132Y-82949170D01*
X82034719Y-82938134D01*
X82017476Y-82925346D01*
X82001570Y-82910930D01*
X81987154Y-82895024D01*
X81974366Y-82877781D01*
X81963330Y-82859368D01*
X81954151Y-82839962D01*
X81946919Y-82819750D01*
X81941703Y-82798926D01*
X81938553Y-82777691D01*
X81937500Y-82756250D01*
X81937500Y-82243750D01*
X81938553Y-82222309D01*
X81941703Y-82201074D01*
X81946919Y-82180250D01*
X81954151Y-82160038D01*
X81963330Y-82140632D01*
X81974366Y-82122219D01*
X81987154Y-82104976D01*
X82001570Y-82089070D01*
X82017476Y-82074654D01*
X82034719Y-82061866D01*
X82053132Y-82050830D01*
X82072538Y-82041651D01*
X82092750Y-82034419D01*
X82113574Y-82029203D01*
X82134809Y-82026053D01*
X82156250Y-82025000D01*
X82593750Y-82025000D01*
X82615191Y-82026053D01*
X82615191Y-82026053D01*
G37*
D11*
X82375000Y-82500000D03*
D10*
G36*
X81040191Y-82026053D02*
G01*
X81061426Y-82029203D01*
X81082250Y-82034419D01*
X81102462Y-82041651D01*
X81121868Y-82050830D01*
X81140281Y-82061866D01*
X81157524Y-82074654D01*
X81173430Y-82089070D01*
X81187846Y-82104976D01*
X81200634Y-82122219D01*
X81211670Y-82140632D01*
X81220849Y-82160038D01*
X81228081Y-82180250D01*
X81233297Y-82201074D01*
X81236447Y-82222309D01*
X81237500Y-82243750D01*
X81237500Y-82756250D01*
X81236447Y-82777691D01*
X81233297Y-82798926D01*
X81228081Y-82819750D01*
X81220849Y-82839962D01*
X81211670Y-82859368D01*
X81200634Y-82877781D01*
X81187846Y-82895024D01*
X81173430Y-82910930D01*
X81157524Y-82925346D01*
X81140281Y-82938134D01*
X81121868Y-82949170D01*
X81102462Y-82958349D01*
X81082250Y-82965581D01*
X81061426Y-82970797D01*
X81040191Y-82973947D01*
X81018750Y-82975000D01*
X80581250Y-82975000D01*
X80559809Y-82973947D01*
X80538574Y-82970797D01*
X80517750Y-82965581D01*
X80497538Y-82958349D01*
X80478132Y-82949170D01*
X80459719Y-82938134D01*
X80442476Y-82925346D01*
X80426570Y-82910930D01*
X80412154Y-82895024D01*
X80399366Y-82877781D01*
X80388330Y-82859368D01*
X80379151Y-82839962D01*
X80371919Y-82819750D01*
X80366703Y-82798926D01*
X80363553Y-82777691D01*
X80362500Y-82756250D01*
X80362500Y-82243750D01*
X80363553Y-82222309D01*
X80366703Y-82201074D01*
X80371919Y-82180250D01*
X80379151Y-82160038D01*
X80388330Y-82140632D01*
X80399366Y-82122219D01*
X80412154Y-82104976D01*
X80426570Y-82089070D01*
X80442476Y-82074654D01*
X80459719Y-82061866D01*
X80478132Y-82050830D01*
X80497538Y-82041651D01*
X80517750Y-82034419D01*
X80538574Y-82029203D01*
X80559809Y-82026053D01*
X80581250Y-82025000D01*
X81018750Y-82025000D01*
X81040191Y-82026053D01*
X81040191Y-82026053D01*
G37*
D11*
X80800000Y-82500000D03*
D12*
X80900000Y-87550000D03*
X82800000Y-87550000D03*
X82800000Y-89750000D03*
X81850000Y-89750000D03*
X80900000Y-89750000D03*
D10*
G36*
X102077691Y-88276053D02*
G01*
X102098926Y-88279203D01*
X102119750Y-88284419D01*
X102139962Y-88291651D01*
X102159368Y-88300830D01*
X102177781Y-88311866D01*
X102195024Y-88324654D01*
X102210930Y-88339070D01*
X102225346Y-88354976D01*
X102238134Y-88372219D01*
X102249170Y-88390632D01*
X102258349Y-88410038D01*
X102265581Y-88430250D01*
X102270797Y-88451074D01*
X102273947Y-88472309D01*
X102275000Y-88493750D01*
X102275000Y-88931250D01*
X102273947Y-88952691D01*
X102270797Y-88973926D01*
X102265581Y-88994750D01*
X102258349Y-89014962D01*
X102249170Y-89034368D01*
X102238134Y-89052781D01*
X102225346Y-89070024D01*
X102210930Y-89085930D01*
X102195024Y-89100346D01*
X102177781Y-89113134D01*
X102159368Y-89124170D01*
X102139962Y-89133349D01*
X102119750Y-89140581D01*
X102098926Y-89145797D01*
X102077691Y-89148947D01*
X102056250Y-89150000D01*
X101543750Y-89150000D01*
X101522309Y-89148947D01*
X101501074Y-89145797D01*
X101480250Y-89140581D01*
X101460038Y-89133349D01*
X101440632Y-89124170D01*
X101422219Y-89113134D01*
X101404976Y-89100346D01*
X101389070Y-89085930D01*
X101374654Y-89070024D01*
X101361866Y-89052781D01*
X101350830Y-89034368D01*
X101341651Y-89014962D01*
X101334419Y-88994750D01*
X101329203Y-88973926D01*
X101326053Y-88952691D01*
X101325000Y-88931250D01*
X101325000Y-88493750D01*
X101326053Y-88472309D01*
X101329203Y-88451074D01*
X101334419Y-88430250D01*
X101341651Y-88410038D01*
X101350830Y-88390632D01*
X101361866Y-88372219D01*
X101374654Y-88354976D01*
X101389070Y-88339070D01*
X101404976Y-88324654D01*
X101422219Y-88311866D01*
X101440632Y-88300830D01*
X101460038Y-88291651D01*
X101480250Y-88284419D01*
X101501074Y-88279203D01*
X101522309Y-88276053D01*
X101543750Y-88275000D01*
X102056250Y-88275000D01*
X102077691Y-88276053D01*
X102077691Y-88276053D01*
G37*
D11*
X101800000Y-88712500D03*
D10*
G36*
X102077691Y-89851053D02*
G01*
X102098926Y-89854203D01*
X102119750Y-89859419D01*
X102139962Y-89866651D01*
X102159368Y-89875830D01*
X102177781Y-89886866D01*
X102195024Y-89899654D01*
X102210930Y-89914070D01*
X102225346Y-89929976D01*
X102238134Y-89947219D01*
X102249170Y-89965632D01*
X102258349Y-89985038D01*
X102265581Y-90005250D01*
X102270797Y-90026074D01*
X102273947Y-90047309D01*
X102275000Y-90068750D01*
X102275000Y-90506250D01*
X102273947Y-90527691D01*
X102270797Y-90548926D01*
X102265581Y-90569750D01*
X102258349Y-90589962D01*
X102249170Y-90609368D01*
X102238134Y-90627781D01*
X102225346Y-90645024D01*
X102210930Y-90660930D01*
X102195024Y-90675346D01*
X102177781Y-90688134D01*
X102159368Y-90699170D01*
X102139962Y-90708349D01*
X102119750Y-90715581D01*
X102098926Y-90720797D01*
X102077691Y-90723947D01*
X102056250Y-90725000D01*
X101543750Y-90725000D01*
X101522309Y-90723947D01*
X101501074Y-90720797D01*
X101480250Y-90715581D01*
X101460038Y-90708349D01*
X101440632Y-90699170D01*
X101422219Y-90688134D01*
X101404976Y-90675346D01*
X101389070Y-90660930D01*
X101374654Y-90645024D01*
X101361866Y-90627781D01*
X101350830Y-90609368D01*
X101341651Y-90589962D01*
X101334419Y-90569750D01*
X101329203Y-90548926D01*
X101326053Y-90527691D01*
X101325000Y-90506250D01*
X101325000Y-90068750D01*
X101326053Y-90047309D01*
X101329203Y-90026074D01*
X101334419Y-90005250D01*
X101341651Y-89985038D01*
X101350830Y-89965632D01*
X101361866Y-89947219D01*
X101374654Y-89929976D01*
X101389070Y-89914070D01*
X101404976Y-89899654D01*
X101422219Y-89886866D01*
X101440632Y-89875830D01*
X101460038Y-89866651D01*
X101480250Y-89859419D01*
X101501074Y-89854203D01*
X101522309Y-89851053D01*
X101543750Y-89850000D01*
X102056250Y-89850000D01*
X102077691Y-89851053D01*
X102077691Y-89851053D01*
G37*
D11*
X101800000Y-90287500D03*
D10*
G36*
X92967642Y-96751174D02*
G01*
X92991303Y-96754684D01*
X93014507Y-96760496D01*
X93037029Y-96768554D01*
X93058653Y-96778782D01*
X93079170Y-96791079D01*
X93098383Y-96805329D01*
X93116107Y-96821393D01*
X93132171Y-96839117D01*
X93146421Y-96858330D01*
X93158718Y-96878847D01*
X93168946Y-96900471D01*
X93177004Y-96922993D01*
X93182816Y-96946197D01*
X93186326Y-96969858D01*
X93187500Y-96993750D01*
X93187500Y-97906250D01*
X93186326Y-97930142D01*
X93182816Y-97953803D01*
X93177004Y-97977007D01*
X93168946Y-97999529D01*
X93158718Y-98021153D01*
X93146421Y-98041670D01*
X93132171Y-98060883D01*
X93116107Y-98078607D01*
X93098383Y-98094671D01*
X93079170Y-98108921D01*
X93058653Y-98121218D01*
X93037029Y-98131446D01*
X93014507Y-98139504D01*
X92991303Y-98145316D01*
X92967642Y-98148826D01*
X92943750Y-98150000D01*
X92456250Y-98150000D01*
X92432358Y-98148826D01*
X92408697Y-98145316D01*
X92385493Y-98139504D01*
X92362971Y-98131446D01*
X92341347Y-98121218D01*
X92320830Y-98108921D01*
X92301617Y-98094671D01*
X92283893Y-98078607D01*
X92267829Y-98060883D01*
X92253579Y-98041670D01*
X92241282Y-98021153D01*
X92231054Y-97999529D01*
X92222996Y-97977007D01*
X92217184Y-97953803D01*
X92213674Y-97930142D01*
X92212500Y-97906250D01*
X92212500Y-96993750D01*
X92213674Y-96969858D01*
X92217184Y-96946197D01*
X92222996Y-96922993D01*
X92231054Y-96900471D01*
X92241282Y-96878847D01*
X92253579Y-96858330D01*
X92267829Y-96839117D01*
X92283893Y-96821393D01*
X92301617Y-96805329D01*
X92320830Y-96791079D01*
X92341347Y-96778782D01*
X92362971Y-96768554D01*
X92385493Y-96760496D01*
X92408697Y-96754684D01*
X92432358Y-96751174D01*
X92456250Y-96750000D01*
X92943750Y-96750000D01*
X92967642Y-96751174D01*
X92967642Y-96751174D01*
G37*
D13*
X92700000Y-97450000D03*
D10*
G36*
X94842642Y-96751174D02*
G01*
X94866303Y-96754684D01*
X94889507Y-96760496D01*
X94912029Y-96768554D01*
X94933653Y-96778782D01*
X94954170Y-96791079D01*
X94973383Y-96805329D01*
X94991107Y-96821393D01*
X95007171Y-96839117D01*
X95021421Y-96858330D01*
X95033718Y-96878847D01*
X95043946Y-96900471D01*
X95052004Y-96922993D01*
X95057816Y-96946197D01*
X95061326Y-96969858D01*
X95062500Y-96993750D01*
X95062500Y-97906250D01*
X95061326Y-97930142D01*
X95057816Y-97953803D01*
X95052004Y-97977007D01*
X95043946Y-97999529D01*
X95033718Y-98021153D01*
X95021421Y-98041670D01*
X95007171Y-98060883D01*
X94991107Y-98078607D01*
X94973383Y-98094671D01*
X94954170Y-98108921D01*
X94933653Y-98121218D01*
X94912029Y-98131446D01*
X94889507Y-98139504D01*
X94866303Y-98145316D01*
X94842642Y-98148826D01*
X94818750Y-98150000D01*
X94331250Y-98150000D01*
X94307358Y-98148826D01*
X94283697Y-98145316D01*
X94260493Y-98139504D01*
X94237971Y-98131446D01*
X94216347Y-98121218D01*
X94195830Y-98108921D01*
X94176617Y-98094671D01*
X94158893Y-98078607D01*
X94142829Y-98060883D01*
X94128579Y-98041670D01*
X94116282Y-98021153D01*
X94106054Y-97999529D01*
X94097996Y-97977007D01*
X94092184Y-97953803D01*
X94088674Y-97930142D01*
X94087500Y-97906250D01*
X94087500Y-96993750D01*
X94088674Y-96969858D01*
X94092184Y-96946197D01*
X94097996Y-96922993D01*
X94106054Y-96900471D01*
X94116282Y-96878847D01*
X94128579Y-96858330D01*
X94142829Y-96839117D01*
X94158893Y-96821393D01*
X94176617Y-96805329D01*
X94195830Y-96791079D01*
X94216347Y-96778782D01*
X94237971Y-96768554D01*
X94260493Y-96760496D01*
X94283697Y-96754684D01*
X94307358Y-96751174D01*
X94331250Y-96750000D01*
X94818750Y-96750000D01*
X94842642Y-96751174D01*
X94842642Y-96751174D01*
G37*
D13*
X94575000Y-97450000D03*
D14*
X77700000Y-95100000D03*
X77700000Y-92600000D03*
X77700000Y-90600000D03*
X77700000Y-88100000D03*
D15*
X75300000Y-85700000D03*
X75300000Y-97500000D03*
D16*
X75300000Y-89350000D03*
X75300000Y-93850000D03*
D17*
X104240000Y-100200000D03*
X101700000Y-100200000D03*
D18*
X99160000Y-100200000D03*
D17*
X95560000Y-100200000D03*
X93020000Y-100200000D03*
X90480000Y-100200000D03*
X87940000Y-100200000D03*
D18*
X85400000Y-100200000D03*
D10*
G36*
X80940191Y-96076053D02*
G01*
X80961426Y-96079203D01*
X80982250Y-96084419D01*
X81002462Y-96091651D01*
X81021868Y-96100830D01*
X81040281Y-96111866D01*
X81057524Y-96124654D01*
X81073430Y-96139070D01*
X81087846Y-96154976D01*
X81100634Y-96172219D01*
X81111670Y-96190632D01*
X81120849Y-96210038D01*
X81128081Y-96230250D01*
X81133297Y-96251074D01*
X81136447Y-96272309D01*
X81137500Y-96293750D01*
X81137500Y-96806250D01*
X81136447Y-96827691D01*
X81133297Y-96848926D01*
X81128081Y-96869750D01*
X81120849Y-96889962D01*
X81111670Y-96909368D01*
X81100634Y-96927781D01*
X81087846Y-96945024D01*
X81073430Y-96960930D01*
X81057524Y-96975346D01*
X81040281Y-96988134D01*
X81021868Y-96999170D01*
X81002462Y-97008349D01*
X80982250Y-97015581D01*
X80961426Y-97020797D01*
X80940191Y-97023947D01*
X80918750Y-97025000D01*
X80481250Y-97025000D01*
X80459809Y-97023947D01*
X80438574Y-97020797D01*
X80417750Y-97015581D01*
X80397538Y-97008349D01*
X80378132Y-96999170D01*
X80359719Y-96988134D01*
X80342476Y-96975346D01*
X80326570Y-96960930D01*
X80312154Y-96945024D01*
X80299366Y-96927781D01*
X80288330Y-96909368D01*
X80279151Y-96889962D01*
X80271919Y-96869750D01*
X80266703Y-96848926D01*
X80263553Y-96827691D01*
X80262500Y-96806250D01*
X80262500Y-96293750D01*
X80263553Y-96272309D01*
X80266703Y-96251074D01*
X80271919Y-96230250D01*
X80279151Y-96210038D01*
X80288330Y-96190632D01*
X80299366Y-96172219D01*
X80312154Y-96154976D01*
X80326570Y-96139070D01*
X80342476Y-96124654D01*
X80359719Y-96111866D01*
X80378132Y-96100830D01*
X80397538Y-96091651D01*
X80417750Y-96084419D01*
X80438574Y-96079203D01*
X80459809Y-96076053D01*
X80481250Y-96075000D01*
X80918750Y-96075000D01*
X80940191Y-96076053D01*
X80940191Y-96076053D01*
G37*
D11*
X80700000Y-96550000D03*
D10*
G36*
X82515191Y-96076053D02*
G01*
X82536426Y-96079203D01*
X82557250Y-96084419D01*
X82577462Y-96091651D01*
X82596868Y-96100830D01*
X82615281Y-96111866D01*
X82632524Y-96124654D01*
X82648430Y-96139070D01*
X82662846Y-96154976D01*
X82675634Y-96172219D01*
X82686670Y-96190632D01*
X82695849Y-96210038D01*
X82703081Y-96230250D01*
X82708297Y-96251074D01*
X82711447Y-96272309D01*
X82712500Y-96293750D01*
X82712500Y-96806250D01*
X82711447Y-96827691D01*
X82708297Y-96848926D01*
X82703081Y-96869750D01*
X82695849Y-96889962D01*
X82686670Y-96909368D01*
X82675634Y-96927781D01*
X82662846Y-96945024D01*
X82648430Y-96960930D01*
X82632524Y-96975346D01*
X82615281Y-96988134D01*
X82596868Y-96999170D01*
X82577462Y-97008349D01*
X82557250Y-97015581D01*
X82536426Y-97020797D01*
X82515191Y-97023947D01*
X82493750Y-97025000D01*
X82056250Y-97025000D01*
X82034809Y-97023947D01*
X82013574Y-97020797D01*
X81992750Y-97015581D01*
X81972538Y-97008349D01*
X81953132Y-96999170D01*
X81934719Y-96988134D01*
X81917476Y-96975346D01*
X81901570Y-96960930D01*
X81887154Y-96945024D01*
X81874366Y-96927781D01*
X81863330Y-96909368D01*
X81854151Y-96889962D01*
X81846919Y-96869750D01*
X81841703Y-96848926D01*
X81838553Y-96827691D01*
X81837500Y-96806250D01*
X81837500Y-96293750D01*
X81838553Y-96272309D01*
X81841703Y-96251074D01*
X81846919Y-96230250D01*
X81854151Y-96210038D01*
X81863330Y-96190632D01*
X81874366Y-96172219D01*
X81887154Y-96154976D01*
X81901570Y-96139070D01*
X81917476Y-96124654D01*
X81934719Y-96111866D01*
X81953132Y-96100830D01*
X81972538Y-96091651D01*
X81992750Y-96084419D01*
X82013574Y-96079203D01*
X82034809Y-96076053D01*
X82056250Y-96075000D01*
X82493750Y-96075000D01*
X82515191Y-96076053D01*
X82515191Y-96076053D01*
G37*
D11*
X82275000Y-96550000D03*
D10*
G36*
X89677691Y-88288553D02*
G01*
X89698926Y-88291703D01*
X89719750Y-88296919D01*
X89739962Y-88304151D01*
X89759368Y-88313330D01*
X89777781Y-88324366D01*
X89795024Y-88337154D01*
X89810930Y-88351570D01*
X89825346Y-88367476D01*
X89838134Y-88384719D01*
X89849170Y-88403132D01*
X89858349Y-88422538D01*
X89865581Y-88442750D01*
X89870797Y-88463574D01*
X89873947Y-88484809D01*
X89875000Y-88506250D01*
X89875000Y-88943750D01*
X89873947Y-88965191D01*
X89870797Y-88986426D01*
X89865581Y-89007250D01*
X89858349Y-89027462D01*
X89849170Y-89046868D01*
X89838134Y-89065281D01*
X89825346Y-89082524D01*
X89810930Y-89098430D01*
X89795024Y-89112846D01*
X89777781Y-89125634D01*
X89759368Y-89136670D01*
X89739962Y-89145849D01*
X89719750Y-89153081D01*
X89698926Y-89158297D01*
X89677691Y-89161447D01*
X89656250Y-89162500D01*
X89143750Y-89162500D01*
X89122309Y-89161447D01*
X89101074Y-89158297D01*
X89080250Y-89153081D01*
X89060038Y-89145849D01*
X89040632Y-89136670D01*
X89022219Y-89125634D01*
X89004976Y-89112846D01*
X88989070Y-89098430D01*
X88974654Y-89082524D01*
X88961866Y-89065281D01*
X88950830Y-89046868D01*
X88941651Y-89027462D01*
X88934419Y-89007250D01*
X88929203Y-88986426D01*
X88926053Y-88965191D01*
X88925000Y-88943750D01*
X88925000Y-88506250D01*
X88926053Y-88484809D01*
X88929203Y-88463574D01*
X88934419Y-88442750D01*
X88941651Y-88422538D01*
X88950830Y-88403132D01*
X88961866Y-88384719D01*
X88974654Y-88367476D01*
X88989070Y-88351570D01*
X89004976Y-88337154D01*
X89022219Y-88324366D01*
X89040632Y-88313330D01*
X89060038Y-88304151D01*
X89080250Y-88296919D01*
X89101074Y-88291703D01*
X89122309Y-88288553D01*
X89143750Y-88287500D01*
X89656250Y-88287500D01*
X89677691Y-88288553D01*
X89677691Y-88288553D01*
G37*
D11*
X89400000Y-88725000D03*
D10*
G36*
X89677691Y-89863553D02*
G01*
X89698926Y-89866703D01*
X89719750Y-89871919D01*
X89739962Y-89879151D01*
X89759368Y-89888330D01*
X89777781Y-89899366D01*
X89795024Y-89912154D01*
X89810930Y-89926570D01*
X89825346Y-89942476D01*
X89838134Y-89959719D01*
X89849170Y-89978132D01*
X89858349Y-89997538D01*
X89865581Y-90017750D01*
X89870797Y-90038574D01*
X89873947Y-90059809D01*
X89875000Y-90081250D01*
X89875000Y-90518750D01*
X89873947Y-90540191D01*
X89870797Y-90561426D01*
X89865581Y-90582250D01*
X89858349Y-90602462D01*
X89849170Y-90621868D01*
X89838134Y-90640281D01*
X89825346Y-90657524D01*
X89810930Y-90673430D01*
X89795024Y-90687846D01*
X89777781Y-90700634D01*
X89759368Y-90711670D01*
X89739962Y-90720849D01*
X89719750Y-90728081D01*
X89698926Y-90733297D01*
X89677691Y-90736447D01*
X89656250Y-90737500D01*
X89143750Y-90737500D01*
X89122309Y-90736447D01*
X89101074Y-90733297D01*
X89080250Y-90728081D01*
X89060038Y-90720849D01*
X89040632Y-90711670D01*
X89022219Y-90700634D01*
X89004976Y-90687846D01*
X88989070Y-90673430D01*
X88974654Y-90657524D01*
X88961866Y-90640281D01*
X88950830Y-90621868D01*
X88941651Y-90602462D01*
X88934419Y-90582250D01*
X88929203Y-90561426D01*
X88926053Y-90540191D01*
X88925000Y-90518750D01*
X88925000Y-90081250D01*
X88926053Y-90059809D01*
X88929203Y-90038574D01*
X88934419Y-90017750D01*
X88941651Y-89997538D01*
X88950830Y-89978132D01*
X88961866Y-89959719D01*
X88974654Y-89942476D01*
X88989070Y-89926570D01*
X89004976Y-89912154D01*
X89022219Y-89899366D01*
X89040632Y-89888330D01*
X89060038Y-89879151D01*
X89080250Y-89871919D01*
X89101074Y-89866703D01*
X89122309Y-89863553D01*
X89143750Y-89862500D01*
X89656250Y-89862500D01*
X89677691Y-89863553D01*
X89677691Y-89863553D01*
G37*
D11*
X89400000Y-90300000D03*
D10*
G36*
X98715191Y-97126053D02*
G01*
X98736426Y-97129203D01*
X98757250Y-97134419D01*
X98777462Y-97141651D01*
X98796868Y-97150830D01*
X98815281Y-97161866D01*
X98832524Y-97174654D01*
X98848430Y-97189070D01*
X98862846Y-97204976D01*
X98875634Y-97222219D01*
X98886670Y-97240632D01*
X98895849Y-97260038D01*
X98903081Y-97280250D01*
X98908297Y-97301074D01*
X98911447Y-97322309D01*
X98912500Y-97343750D01*
X98912500Y-97856250D01*
X98911447Y-97877691D01*
X98908297Y-97898926D01*
X98903081Y-97919750D01*
X98895849Y-97939962D01*
X98886670Y-97959368D01*
X98875634Y-97977781D01*
X98862846Y-97995024D01*
X98848430Y-98010930D01*
X98832524Y-98025346D01*
X98815281Y-98038134D01*
X98796868Y-98049170D01*
X98777462Y-98058349D01*
X98757250Y-98065581D01*
X98736426Y-98070797D01*
X98715191Y-98073947D01*
X98693750Y-98075000D01*
X98256250Y-98075000D01*
X98234809Y-98073947D01*
X98213574Y-98070797D01*
X98192750Y-98065581D01*
X98172538Y-98058349D01*
X98153132Y-98049170D01*
X98134719Y-98038134D01*
X98117476Y-98025346D01*
X98101570Y-98010930D01*
X98087154Y-97995024D01*
X98074366Y-97977781D01*
X98063330Y-97959368D01*
X98054151Y-97939962D01*
X98046919Y-97919750D01*
X98041703Y-97898926D01*
X98038553Y-97877691D01*
X98037500Y-97856250D01*
X98037500Y-97343750D01*
X98038553Y-97322309D01*
X98041703Y-97301074D01*
X98046919Y-97280250D01*
X98054151Y-97260038D01*
X98063330Y-97240632D01*
X98074366Y-97222219D01*
X98087154Y-97204976D01*
X98101570Y-97189070D01*
X98117476Y-97174654D01*
X98134719Y-97161866D01*
X98153132Y-97150830D01*
X98172538Y-97141651D01*
X98192750Y-97134419D01*
X98213574Y-97129203D01*
X98234809Y-97126053D01*
X98256250Y-97125000D01*
X98693750Y-97125000D01*
X98715191Y-97126053D01*
X98715191Y-97126053D01*
G37*
D11*
X98475000Y-97600000D03*
D10*
G36*
X97140191Y-97126053D02*
G01*
X97161426Y-97129203D01*
X97182250Y-97134419D01*
X97202462Y-97141651D01*
X97221868Y-97150830D01*
X97240281Y-97161866D01*
X97257524Y-97174654D01*
X97273430Y-97189070D01*
X97287846Y-97204976D01*
X97300634Y-97222219D01*
X97311670Y-97240632D01*
X97320849Y-97260038D01*
X97328081Y-97280250D01*
X97333297Y-97301074D01*
X97336447Y-97322309D01*
X97337500Y-97343750D01*
X97337500Y-97856250D01*
X97336447Y-97877691D01*
X97333297Y-97898926D01*
X97328081Y-97919750D01*
X97320849Y-97939962D01*
X97311670Y-97959368D01*
X97300634Y-97977781D01*
X97287846Y-97995024D01*
X97273430Y-98010930D01*
X97257524Y-98025346D01*
X97240281Y-98038134D01*
X97221868Y-98049170D01*
X97202462Y-98058349D01*
X97182250Y-98065581D01*
X97161426Y-98070797D01*
X97140191Y-98073947D01*
X97118750Y-98075000D01*
X96681250Y-98075000D01*
X96659809Y-98073947D01*
X96638574Y-98070797D01*
X96617750Y-98065581D01*
X96597538Y-98058349D01*
X96578132Y-98049170D01*
X96559719Y-98038134D01*
X96542476Y-98025346D01*
X96526570Y-98010930D01*
X96512154Y-97995024D01*
X96499366Y-97977781D01*
X96488330Y-97959368D01*
X96479151Y-97939962D01*
X96471919Y-97919750D01*
X96466703Y-97898926D01*
X96463553Y-97877691D01*
X96462500Y-97856250D01*
X96462500Y-97343750D01*
X96463553Y-97322309D01*
X96466703Y-97301074D01*
X96471919Y-97280250D01*
X96479151Y-97260038D01*
X96488330Y-97240632D01*
X96499366Y-97222219D01*
X96512154Y-97204976D01*
X96526570Y-97189070D01*
X96542476Y-97174654D01*
X96559719Y-97161866D01*
X96578132Y-97150830D01*
X96597538Y-97141651D01*
X96617750Y-97134419D01*
X96638574Y-97129203D01*
X96659809Y-97126053D01*
X96681250Y-97125000D01*
X97118750Y-97125000D01*
X97140191Y-97126053D01*
X97140191Y-97126053D01*
G37*
D11*
X96900000Y-97600000D03*
D10*
G36*
X89727691Y-92626053D02*
G01*
X89748926Y-92629203D01*
X89769750Y-92634419D01*
X89789962Y-92641651D01*
X89809368Y-92650830D01*
X89827781Y-92661866D01*
X89845024Y-92674654D01*
X89860930Y-92689070D01*
X89875346Y-92704976D01*
X89888134Y-92722219D01*
X89899170Y-92740632D01*
X89908349Y-92760038D01*
X89915581Y-92780250D01*
X89920797Y-92801074D01*
X89923947Y-92822309D01*
X89925000Y-92843750D01*
X89925000Y-93281250D01*
X89923947Y-93302691D01*
X89920797Y-93323926D01*
X89915581Y-93344750D01*
X89908349Y-93364962D01*
X89899170Y-93384368D01*
X89888134Y-93402781D01*
X89875346Y-93420024D01*
X89860930Y-93435930D01*
X89845024Y-93450346D01*
X89827781Y-93463134D01*
X89809368Y-93474170D01*
X89789962Y-93483349D01*
X89769750Y-93490581D01*
X89748926Y-93495797D01*
X89727691Y-93498947D01*
X89706250Y-93500000D01*
X89193750Y-93500000D01*
X89172309Y-93498947D01*
X89151074Y-93495797D01*
X89130250Y-93490581D01*
X89110038Y-93483349D01*
X89090632Y-93474170D01*
X89072219Y-93463134D01*
X89054976Y-93450346D01*
X89039070Y-93435930D01*
X89024654Y-93420024D01*
X89011866Y-93402781D01*
X89000830Y-93384368D01*
X88991651Y-93364962D01*
X88984419Y-93344750D01*
X88979203Y-93323926D01*
X88976053Y-93302691D01*
X88975000Y-93281250D01*
X88975000Y-92843750D01*
X88976053Y-92822309D01*
X88979203Y-92801074D01*
X88984419Y-92780250D01*
X88991651Y-92760038D01*
X89000830Y-92740632D01*
X89011866Y-92722219D01*
X89024654Y-92704976D01*
X89039070Y-92689070D01*
X89054976Y-92674654D01*
X89072219Y-92661866D01*
X89090632Y-92650830D01*
X89110038Y-92641651D01*
X89130250Y-92634419D01*
X89151074Y-92629203D01*
X89172309Y-92626053D01*
X89193750Y-92625000D01*
X89706250Y-92625000D01*
X89727691Y-92626053D01*
X89727691Y-92626053D01*
G37*
D11*
X89450000Y-93062500D03*
D10*
G36*
X89727691Y-94201053D02*
G01*
X89748926Y-94204203D01*
X89769750Y-94209419D01*
X89789962Y-94216651D01*
X89809368Y-94225830D01*
X89827781Y-94236866D01*
X89845024Y-94249654D01*
X89860930Y-94264070D01*
X89875346Y-94279976D01*
X89888134Y-94297219D01*
X89899170Y-94315632D01*
X89908349Y-94335038D01*
X89915581Y-94355250D01*
X89920797Y-94376074D01*
X89923947Y-94397309D01*
X89925000Y-94418750D01*
X89925000Y-94856250D01*
X89923947Y-94877691D01*
X89920797Y-94898926D01*
X89915581Y-94919750D01*
X89908349Y-94939962D01*
X89899170Y-94959368D01*
X89888134Y-94977781D01*
X89875346Y-94995024D01*
X89860930Y-95010930D01*
X89845024Y-95025346D01*
X89827781Y-95038134D01*
X89809368Y-95049170D01*
X89789962Y-95058349D01*
X89769750Y-95065581D01*
X89748926Y-95070797D01*
X89727691Y-95073947D01*
X89706250Y-95075000D01*
X89193750Y-95075000D01*
X89172309Y-95073947D01*
X89151074Y-95070797D01*
X89130250Y-95065581D01*
X89110038Y-95058349D01*
X89090632Y-95049170D01*
X89072219Y-95038134D01*
X89054976Y-95025346D01*
X89039070Y-95010930D01*
X89024654Y-94995024D01*
X89011866Y-94977781D01*
X89000830Y-94959368D01*
X88991651Y-94939962D01*
X88984419Y-94919750D01*
X88979203Y-94898926D01*
X88976053Y-94877691D01*
X88975000Y-94856250D01*
X88975000Y-94418750D01*
X88976053Y-94397309D01*
X88979203Y-94376074D01*
X88984419Y-94355250D01*
X88991651Y-94335038D01*
X89000830Y-94315632D01*
X89011866Y-94297219D01*
X89024654Y-94279976D01*
X89039070Y-94264070D01*
X89054976Y-94249654D01*
X89072219Y-94236866D01*
X89090632Y-94225830D01*
X89110038Y-94216651D01*
X89130250Y-94209419D01*
X89151074Y-94204203D01*
X89172309Y-94201053D01*
X89193750Y-94200000D01*
X89706250Y-94200000D01*
X89727691Y-94201053D01*
X89727691Y-94201053D01*
G37*
D11*
X89450000Y-94637500D03*
D10*
G36*
X82565191Y-85226053D02*
G01*
X82586426Y-85229203D01*
X82607250Y-85234419D01*
X82627462Y-85241651D01*
X82646868Y-85250830D01*
X82665281Y-85261866D01*
X82682524Y-85274654D01*
X82698430Y-85289070D01*
X82712846Y-85304976D01*
X82725634Y-85322219D01*
X82736670Y-85340632D01*
X82745849Y-85360038D01*
X82753081Y-85380250D01*
X82758297Y-85401074D01*
X82761447Y-85422309D01*
X82762500Y-85443750D01*
X82762500Y-85956250D01*
X82761447Y-85977691D01*
X82758297Y-85998926D01*
X82753081Y-86019750D01*
X82745849Y-86039962D01*
X82736670Y-86059368D01*
X82725634Y-86077781D01*
X82712846Y-86095024D01*
X82698430Y-86110930D01*
X82682524Y-86125346D01*
X82665281Y-86138134D01*
X82646868Y-86149170D01*
X82627462Y-86158349D01*
X82607250Y-86165581D01*
X82586426Y-86170797D01*
X82565191Y-86173947D01*
X82543750Y-86175000D01*
X82106250Y-86175000D01*
X82084809Y-86173947D01*
X82063574Y-86170797D01*
X82042750Y-86165581D01*
X82022538Y-86158349D01*
X82003132Y-86149170D01*
X81984719Y-86138134D01*
X81967476Y-86125346D01*
X81951570Y-86110930D01*
X81937154Y-86095024D01*
X81924366Y-86077781D01*
X81913330Y-86059368D01*
X81904151Y-86039962D01*
X81896919Y-86019750D01*
X81891703Y-85998926D01*
X81888553Y-85977691D01*
X81887500Y-85956250D01*
X81887500Y-85443750D01*
X81888553Y-85422309D01*
X81891703Y-85401074D01*
X81896919Y-85380250D01*
X81904151Y-85360038D01*
X81913330Y-85340632D01*
X81924366Y-85322219D01*
X81937154Y-85304976D01*
X81951570Y-85289070D01*
X81967476Y-85274654D01*
X81984719Y-85261866D01*
X82003132Y-85250830D01*
X82022538Y-85241651D01*
X82042750Y-85234419D01*
X82063574Y-85229203D01*
X82084809Y-85226053D01*
X82106250Y-85225000D01*
X82543750Y-85225000D01*
X82565191Y-85226053D01*
X82565191Y-85226053D01*
G37*
D11*
X82325000Y-85700000D03*
D10*
G36*
X80990191Y-85226053D02*
G01*
X81011426Y-85229203D01*
X81032250Y-85234419D01*
X81052462Y-85241651D01*
X81071868Y-85250830D01*
X81090281Y-85261866D01*
X81107524Y-85274654D01*
X81123430Y-85289070D01*
X81137846Y-85304976D01*
X81150634Y-85322219D01*
X81161670Y-85340632D01*
X81170849Y-85360038D01*
X81178081Y-85380250D01*
X81183297Y-85401074D01*
X81186447Y-85422309D01*
X81187500Y-85443750D01*
X81187500Y-85956250D01*
X81186447Y-85977691D01*
X81183297Y-85998926D01*
X81178081Y-86019750D01*
X81170849Y-86039962D01*
X81161670Y-86059368D01*
X81150634Y-86077781D01*
X81137846Y-86095024D01*
X81123430Y-86110930D01*
X81107524Y-86125346D01*
X81090281Y-86138134D01*
X81071868Y-86149170D01*
X81052462Y-86158349D01*
X81032250Y-86165581D01*
X81011426Y-86170797D01*
X80990191Y-86173947D01*
X80968750Y-86175000D01*
X80531250Y-86175000D01*
X80509809Y-86173947D01*
X80488574Y-86170797D01*
X80467750Y-86165581D01*
X80447538Y-86158349D01*
X80428132Y-86149170D01*
X80409719Y-86138134D01*
X80392476Y-86125346D01*
X80376570Y-86110930D01*
X80362154Y-86095024D01*
X80349366Y-86077781D01*
X80338330Y-86059368D01*
X80329151Y-86039962D01*
X80321919Y-86019750D01*
X80316703Y-85998926D01*
X80313553Y-85977691D01*
X80312500Y-85956250D01*
X80312500Y-85443750D01*
X80313553Y-85422309D01*
X80316703Y-85401074D01*
X80321919Y-85380250D01*
X80329151Y-85360038D01*
X80338330Y-85340632D01*
X80349366Y-85322219D01*
X80362154Y-85304976D01*
X80376570Y-85289070D01*
X80392476Y-85274654D01*
X80409719Y-85261866D01*
X80428132Y-85250830D01*
X80447538Y-85241651D01*
X80467750Y-85234419D01*
X80488574Y-85229203D01*
X80509809Y-85226053D01*
X80531250Y-85225000D01*
X80968750Y-85225000D01*
X80990191Y-85226053D01*
X80990191Y-85226053D01*
G37*
D11*
X80750000Y-85700000D03*
D10*
G36*
X86490191Y-87026053D02*
G01*
X86511426Y-87029203D01*
X86532250Y-87034419D01*
X86552462Y-87041651D01*
X86571868Y-87050830D01*
X86590281Y-87061866D01*
X86607524Y-87074654D01*
X86623430Y-87089070D01*
X86637846Y-87104976D01*
X86650634Y-87122219D01*
X86661670Y-87140632D01*
X86670849Y-87160038D01*
X86678081Y-87180250D01*
X86683297Y-87201074D01*
X86686447Y-87222309D01*
X86687500Y-87243750D01*
X86687500Y-87756250D01*
X86686447Y-87777691D01*
X86683297Y-87798926D01*
X86678081Y-87819750D01*
X86670849Y-87839962D01*
X86661670Y-87859368D01*
X86650634Y-87877781D01*
X86637846Y-87895024D01*
X86623430Y-87910930D01*
X86607524Y-87925346D01*
X86590281Y-87938134D01*
X86571868Y-87949170D01*
X86552462Y-87958349D01*
X86532250Y-87965581D01*
X86511426Y-87970797D01*
X86490191Y-87973947D01*
X86468750Y-87975000D01*
X86031250Y-87975000D01*
X86009809Y-87973947D01*
X85988574Y-87970797D01*
X85967750Y-87965581D01*
X85947538Y-87958349D01*
X85928132Y-87949170D01*
X85909719Y-87938134D01*
X85892476Y-87925346D01*
X85876570Y-87910930D01*
X85862154Y-87895024D01*
X85849366Y-87877781D01*
X85838330Y-87859368D01*
X85829151Y-87839962D01*
X85821919Y-87819750D01*
X85816703Y-87798926D01*
X85813553Y-87777691D01*
X85812500Y-87756250D01*
X85812500Y-87243750D01*
X85813553Y-87222309D01*
X85816703Y-87201074D01*
X85821919Y-87180250D01*
X85829151Y-87160038D01*
X85838330Y-87140632D01*
X85849366Y-87122219D01*
X85862154Y-87104976D01*
X85876570Y-87089070D01*
X85892476Y-87074654D01*
X85909719Y-87061866D01*
X85928132Y-87050830D01*
X85947538Y-87041651D01*
X85967750Y-87034419D01*
X85988574Y-87029203D01*
X86009809Y-87026053D01*
X86031250Y-87025000D01*
X86468750Y-87025000D01*
X86490191Y-87026053D01*
X86490191Y-87026053D01*
G37*
D11*
X86250000Y-87500000D03*
D10*
G36*
X84915191Y-87026053D02*
G01*
X84936426Y-87029203D01*
X84957250Y-87034419D01*
X84977462Y-87041651D01*
X84996868Y-87050830D01*
X85015281Y-87061866D01*
X85032524Y-87074654D01*
X85048430Y-87089070D01*
X85062846Y-87104976D01*
X85075634Y-87122219D01*
X85086670Y-87140632D01*
X85095849Y-87160038D01*
X85103081Y-87180250D01*
X85108297Y-87201074D01*
X85111447Y-87222309D01*
X85112500Y-87243750D01*
X85112500Y-87756250D01*
X85111447Y-87777691D01*
X85108297Y-87798926D01*
X85103081Y-87819750D01*
X85095849Y-87839962D01*
X85086670Y-87859368D01*
X85075634Y-87877781D01*
X85062846Y-87895024D01*
X85048430Y-87910930D01*
X85032524Y-87925346D01*
X85015281Y-87938134D01*
X84996868Y-87949170D01*
X84977462Y-87958349D01*
X84957250Y-87965581D01*
X84936426Y-87970797D01*
X84915191Y-87973947D01*
X84893750Y-87975000D01*
X84456250Y-87975000D01*
X84434809Y-87973947D01*
X84413574Y-87970797D01*
X84392750Y-87965581D01*
X84372538Y-87958349D01*
X84353132Y-87949170D01*
X84334719Y-87938134D01*
X84317476Y-87925346D01*
X84301570Y-87910930D01*
X84287154Y-87895024D01*
X84274366Y-87877781D01*
X84263330Y-87859368D01*
X84254151Y-87839962D01*
X84246919Y-87819750D01*
X84241703Y-87798926D01*
X84238553Y-87777691D01*
X84237500Y-87756250D01*
X84237500Y-87243750D01*
X84238553Y-87222309D01*
X84241703Y-87201074D01*
X84246919Y-87180250D01*
X84254151Y-87160038D01*
X84263330Y-87140632D01*
X84274366Y-87122219D01*
X84287154Y-87104976D01*
X84301570Y-87089070D01*
X84317476Y-87074654D01*
X84334719Y-87061866D01*
X84353132Y-87050830D01*
X84372538Y-87041651D01*
X84392750Y-87034419D01*
X84413574Y-87029203D01*
X84434809Y-87026053D01*
X84456250Y-87025000D01*
X84893750Y-87025000D01*
X84915191Y-87026053D01*
X84915191Y-87026053D01*
G37*
D11*
X84675000Y-87500000D03*
D10*
G36*
X82515191Y-91076053D02*
G01*
X82536426Y-91079203D01*
X82557250Y-91084419D01*
X82577462Y-91091651D01*
X82596868Y-91100830D01*
X82615281Y-91111866D01*
X82632524Y-91124654D01*
X82648430Y-91139070D01*
X82662846Y-91154976D01*
X82675634Y-91172219D01*
X82686670Y-91190632D01*
X82695849Y-91210038D01*
X82703081Y-91230250D01*
X82708297Y-91251074D01*
X82711447Y-91272309D01*
X82712500Y-91293750D01*
X82712500Y-91806250D01*
X82711447Y-91827691D01*
X82708297Y-91848926D01*
X82703081Y-91869750D01*
X82695849Y-91889962D01*
X82686670Y-91909368D01*
X82675634Y-91927781D01*
X82662846Y-91945024D01*
X82648430Y-91960930D01*
X82632524Y-91975346D01*
X82615281Y-91988134D01*
X82596868Y-91999170D01*
X82577462Y-92008349D01*
X82557250Y-92015581D01*
X82536426Y-92020797D01*
X82515191Y-92023947D01*
X82493750Y-92025000D01*
X82056250Y-92025000D01*
X82034809Y-92023947D01*
X82013574Y-92020797D01*
X81992750Y-92015581D01*
X81972538Y-92008349D01*
X81953132Y-91999170D01*
X81934719Y-91988134D01*
X81917476Y-91975346D01*
X81901570Y-91960930D01*
X81887154Y-91945024D01*
X81874366Y-91927781D01*
X81863330Y-91909368D01*
X81854151Y-91889962D01*
X81846919Y-91869750D01*
X81841703Y-91848926D01*
X81838553Y-91827691D01*
X81837500Y-91806250D01*
X81837500Y-91293750D01*
X81838553Y-91272309D01*
X81841703Y-91251074D01*
X81846919Y-91230250D01*
X81854151Y-91210038D01*
X81863330Y-91190632D01*
X81874366Y-91172219D01*
X81887154Y-91154976D01*
X81901570Y-91139070D01*
X81917476Y-91124654D01*
X81934719Y-91111866D01*
X81953132Y-91100830D01*
X81972538Y-91091651D01*
X81992750Y-91084419D01*
X82013574Y-91079203D01*
X82034809Y-91076053D01*
X82056250Y-91075000D01*
X82493750Y-91075000D01*
X82515191Y-91076053D01*
X82515191Y-91076053D01*
G37*
D11*
X82275000Y-91550000D03*
D10*
G36*
X80940191Y-91076053D02*
G01*
X80961426Y-91079203D01*
X80982250Y-91084419D01*
X81002462Y-91091651D01*
X81021868Y-91100830D01*
X81040281Y-91111866D01*
X81057524Y-91124654D01*
X81073430Y-91139070D01*
X81087846Y-91154976D01*
X81100634Y-91172219D01*
X81111670Y-91190632D01*
X81120849Y-91210038D01*
X81128081Y-91230250D01*
X81133297Y-91251074D01*
X81136447Y-91272309D01*
X81137500Y-91293750D01*
X81137500Y-91806250D01*
X81136447Y-91827691D01*
X81133297Y-91848926D01*
X81128081Y-91869750D01*
X81120849Y-91889962D01*
X81111670Y-91909368D01*
X81100634Y-91927781D01*
X81087846Y-91945024D01*
X81073430Y-91960930D01*
X81057524Y-91975346D01*
X81040281Y-91988134D01*
X81021868Y-91999170D01*
X81002462Y-92008349D01*
X80982250Y-92015581D01*
X80961426Y-92020797D01*
X80940191Y-92023947D01*
X80918750Y-92025000D01*
X80481250Y-92025000D01*
X80459809Y-92023947D01*
X80438574Y-92020797D01*
X80417750Y-92015581D01*
X80397538Y-92008349D01*
X80378132Y-91999170D01*
X80359719Y-91988134D01*
X80342476Y-91975346D01*
X80326570Y-91960930D01*
X80312154Y-91945024D01*
X80299366Y-91927781D01*
X80288330Y-91909368D01*
X80279151Y-91889962D01*
X80271919Y-91869750D01*
X80266703Y-91848926D01*
X80263553Y-91827691D01*
X80262500Y-91806250D01*
X80262500Y-91293750D01*
X80263553Y-91272309D01*
X80266703Y-91251074D01*
X80271919Y-91230250D01*
X80279151Y-91210038D01*
X80288330Y-91190632D01*
X80299366Y-91172219D01*
X80312154Y-91154976D01*
X80326570Y-91139070D01*
X80342476Y-91124654D01*
X80359719Y-91111866D01*
X80378132Y-91100830D01*
X80397538Y-91091651D01*
X80417750Y-91084419D01*
X80438574Y-91079203D01*
X80459809Y-91076053D01*
X80481250Y-91075000D01*
X80918750Y-91075000D01*
X80940191Y-91076053D01*
X80940191Y-91076053D01*
G37*
D11*
X80700000Y-91550000D03*
D10*
G36*
X91677691Y-82663553D02*
G01*
X91698926Y-82666703D01*
X91719750Y-82671919D01*
X91739962Y-82679151D01*
X91759368Y-82688330D01*
X91777781Y-82699366D01*
X91795024Y-82712154D01*
X91810930Y-82726570D01*
X91825346Y-82742476D01*
X91838134Y-82759719D01*
X91849170Y-82778132D01*
X91858349Y-82797538D01*
X91865581Y-82817750D01*
X91870797Y-82838574D01*
X91873947Y-82859809D01*
X91875000Y-82881250D01*
X91875000Y-83318750D01*
X91873947Y-83340191D01*
X91870797Y-83361426D01*
X91865581Y-83382250D01*
X91858349Y-83402462D01*
X91849170Y-83421868D01*
X91838134Y-83440281D01*
X91825346Y-83457524D01*
X91810930Y-83473430D01*
X91795024Y-83487846D01*
X91777781Y-83500634D01*
X91759368Y-83511670D01*
X91739962Y-83520849D01*
X91719750Y-83528081D01*
X91698926Y-83533297D01*
X91677691Y-83536447D01*
X91656250Y-83537500D01*
X91143750Y-83537500D01*
X91122309Y-83536447D01*
X91101074Y-83533297D01*
X91080250Y-83528081D01*
X91060038Y-83520849D01*
X91040632Y-83511670D01*
X91022219Y-83500634D01*
X91004976Y-83487846D01*
X90989070Y-83473430D01*
X90974654Y-83457524D01*
X90961866Y-83440281D01*
X90950830Y-83421868D01*
X90941651Y-83402462D01*
X90934419Y-83382250D01*
X90929203Y-83361426D01*
X90926053Y-83340191D01*
X90925000Y-83318750D01*
X90925000Y-82881250D01*
X90926053Y-82859809D01*
X90929203Y-82838574D01*
X90934419Y-82817750D01*
X90941651Y-82797538D01*
X90950830Y-82778132D01*
X90961866Y-82759719D01*
X90974654Y-82742476D01*
X90989070Y-82726570D01*
X91004976Y-82712154D01*
X91022219Y-82699366D01*
X91040632Y-82688330D01*
X91060038Y-82679151D01*
X91080250Y-82671919D01*
X91101074Y-82666703D01*
X91122309Y-82663553D01*
X91143750Y-82662500D01*
X91656250Y-82662500D01*
X91677691Y-82663553D01*
X91677691Y-82663553D01*
G37*
D11*
X91400000Y-83100000D03*
D10*
G36*
X91677691Y-84238553D02*
G01*
X91698926Y-84241703D01*
X91719750Y-84246919D01*
X91739962Y-84254151D01*
X91759368Y-84263330D01*
X91777781Y-84274366D01*
X91795024Y-84287154D01*
X91810930Y-84301570D01*
X91825346Y-84317476D01*
X91838134Y-84334719D01*
X91849170Y-84353132D01*
X91858349Y-84372538D01*
X91865581Y-84392750D01*
X91870797Y-84413574D01*
X91873947Y-84434809D01*
X91875000Y-84456250D01*
X91875000Y-84893750D01*
X91873947Y-84915191D01*
X91870797Y-84936426D01*
X91865581Y-84957250D01*
X91858349Y-84977462D01*
X91849170Y-84996868D01*
X91838134Y-85015281D01*
X91825346Y-85032524D01*
X91810930Y-85048430D01*
X91795024Y-85062846D01*
X91777781Y-85075634D01*
X91759368Y-85086670D01*
X91739962Y-85095849D01*
X91719750Y-85103081D01*
X91698926Y-85108297D01*
X91677691Y-85111447D01*
X91656250Y-85112500D01*
X91143750Y-85112500D01*
X91122309Y-85111447D01*
X91101074Y-85108297D01*
X91080250Y-85103081D01*
X91060038Y-85095849D01*
X91040632Y-85086670D01*
X91022219Y-85075634D01*
X91004976Y-85062846D01*
X90989070Y-85048430D01*
X90974654Y-85032524D01*
X90961866Y-85015281D01*
X90950830Y-84996868D01*
X90941651Y-84977462D01*
X90934419Y-84957250D01*
X90929203Y-84936426D01*
X90926053Y-84915191D01*
X90925000Y-84893750D01*
X90925000Y-84456250D01*
X90926053Y-84434809D01*
X90929203Y-84413574D01*
X90934419Y-84392750D01*
X90941651Y-84372538D01*
X90950830Y-84353132D01*
X90961866Y-84334719D01*
X90974654Y-84317476D01*
X90989070Y-84301570D01*
X91004976Y-84287154D01*
X91022219Y-84274366D01*
X91040632Y-84263330D01*
X91060038Y-84254151D01*
X91080250Y-84246919D01*
X91101074Y-84241703D01*
X91122309Y-84238553D01*
X91143750Y-84237500D01*
X91656250Y-84237500D01*
X91677691Y-84238553D01*
X91677691Y-84238553D01*
G37*
D11*
X91400000Y-84675000D03*
D10*
G36*
X98077691Y-84251053D02*
G01*
X98098926Y-84254203D01*
X98119750Y-84259419D01*
X98139962Y-84266651D01*
X98159368Y-84275830D01*
X98177781Y-84286866D01*
X98195024Y-84299654D01*
X98210930Y-84314070D01*
X98225346Y-84329976D01*
X98238134Y-84347219D01*
X98249170Y-84365632D01*
X98258349Y-84385038D01*
X98265581Y-84405250D01*
X98270797Y-84426074D01*
X98273947Y-84447309D01*
X98275000Y-84468750D01*
X98275000Y-84906250D01*
X98273947Y-84927691D01*
X98270797Y-84948926D01*
X98265581Y-84969750D01*
X98258349Y-84989962D01*
X98249170Y-85009368D01*
X98238134Y-85027781D01*
X98225346Y-85045024D01*
X98210930Y-85060930D01*
X98195024Y-85075346D01*
X98177781Y-85088134D01*
X98159368Y-85099170D01*
X98139962Y-85108349D01*
X98119750Y-85115581D01*
X98098926Y-85120797D01*
X98077691Y-85123947D01*
X98056250Y-85125000D01*
X97543750Y-85125000D01*
X97522309Y-85123947D01*
X97501074Y-85120797D01*
X97480250Y-85115581D01*
X97460038Y-85108349D01*
X97440632Y-85099170D01*
X97422219Y-85088134D01*
X97404976Y-85075346D01*
X97389070Y-85060930D01*
X97374654Y-85045024D01*
X97361866Y-85027781D01*
X97350830Y-85009368D01*
X97341651Y-84989962D01*
X97334419Y-84969750D01*
X97329203Y-84948926D01*
X97326053Y-84927691D01*
X97325000Y-84906250D01*
X97325000Y-84468750D01*
X97326053Y-84447309D01*
X97329203Y-84426074D01*
X97334419Y-84405250D01*
X97341651Y-84385038D01*
X97350830Y-84365632D01*
X97361866Y-84347219D01*
X97374654Y-84329976D01*
X97389070Y-84314070D01*
X97404976Y-84299654D01*
X97422219Y-84286866D01*
X97440632Y-84275830D01*
X97460038Y-84266651D01*
X97480250Y-84259419D01*
X97501074Y-84254203D01*
X97522309Y-84251053D01*
X97543750Y-84250000D01*
X98056250Y-84250000D01*
X98077691Y-84251053D01*
X98077691Y-84251053D01*
G37*
D11*
X97800000Y-84687500D03*
D10*
G36*
X98077691Y-82676053D02*
G01*
X98098926Y-82679203D01*
X98119750Y-82684419D01*
X98139962Y-82691651D01*
X98159368Y-82700830D01*
X98177781Y-82711866D01*
X98195024Y-82724654D01*
X98210930Y-82739070D01*
X98225346Y-82754976D01*
X98238134Y-82772219D01*
X98249170Y-82790632D01*
X98258349Y-82810038D01*
X98265581Y-82830250D01*
X98270797Y-82851074D01*
X98273947Y-82872309D01*
X98275000Y-82893750D01*
X98275000Y-83331250D01*
X98273947Y-83352691D01*
X98270797Y-83373926D01*
X98265581Y-83394750D01*
X98258349Y-83414962D01*
X98249170Y-83434368D01*
X98238134Y-83452781D01*
X98225346Y-83470024D01*
X98210930Y-83485930D01*
X98195024Y-83500346D01*
X98177781Y-83513134D01*
X98159368Y-83524170D01*
X98139962Y-83533349D01*
X98119750Y-83540581D01*
X98098926Y-83545797D01*
X98077691Y-83548947D01*
X98056250Y-83550000D01*
X97543750Y-83550000D01*
X97522309Y-83548947D01*
X97501074Y-83545797D01*
X97480250Y-83540581D01*
X97460038Y-83533349D01*
X97440632Y-83524170D01*
X97422219Y-83513134D01*
X97404976Y-83500346D01*
X97389070Y-83485930D01*
X97374654Y-83470024D01*
X97361866Y-83452781D01*
X97350830Y-83434368D01*
X97341651Y-83414962D01*
X97334419Y-83394750D01*
X97329203Y-83373926D01*
X97326053Y-83352691D01*
X97325000Y-83331250D01*
X97325000Y-82893750D01*
X97326053Y-82872309D01*
X97329203Y-82851074D01*
X97334419Y-82830250D01*
X97341651Y-82810038D01*
X97350830Y-82790632D01*
X97361866Y-82772219D01*
X97374654Y-82754976D01*
X97389070Y-82739070D01*
X97404976Y-82724654D01*
X97422219Y-82711866D01*
X97440632Y-82700830D01*
X97460038Y-82691651D01*
X97480250Y-82684419D01*
X97501074Y-82679203D01*
X97522309Y-82676053D01*
X97543750Y-82675000D01*
X98056250Y-82675000D01*
X98077691Y-82676053D01*
X98077691Y-82676053D01*
G37*
D11*
X97800000Y-83112500D03*
D14*
X107000000Y-95000000D03*
X107000000Y-92500000D03*
X107000000Y-90500000D03*
X107000000Y-88000000D03*
D19*
X109600000Y-98070000D03*
X109600000Y-84930000D03*
D10*
G36*
X77502691Y-82026053D02*
G01*
X77523926Y-82029203D01*
X77544750Y-82034419D01*
X77564962Y-82041651D01*
X77584368Y-82050830D01*
X77602781Y-82061866D01*
X77620024Y-82074654D01*
X77635930Y-82089070D01*
X77650346Y-82104976D01*
X77663134Y-82122219D01*
X77674170Y-82140632D01*
X77683349Y-82160038D01*
X77690581Y-82180250D01*
X77695797Y-82201074D01*
X77698947Y-82222309D01*
X77700000Y-82243750D01*
X77700000Y-82756250D01*
X77698947Y-82777691D01*
X77695797Y-82798926D01*
X77690581Y-82819750D01*
X77683349Y-82839962D01*
X77674170Y-82859368D01*
X77663134Y-82877781D01*
X77650346Y-82895024D01*
X77635930Y-82910930D01*
X77620024Y-82925346D01*
X77602781Y-82938134D01*
X77584368Y-82949170D01*
X77564962Y-82958349D01*
X77544750Y-82965581D01*
X77523926Y-82970797D01*
X77502691Y-82973947D01*
X77481250Y-82975000D01*
X77043750Y-82975000D01*
X77022309Y-82973947D01*
X77001074Y-82970797D01*
X76980250Y-82965581D01*
X76960038Y-82958349D01*
X76940632Y-82949170D01*
X76922219Y-82938134D01*
X76904976Y-82925346D01*
X76889070Y-82910930D01*
X76874654Y-82895024D01*
X76861866Y-82877781D01*
X76850830Y-82859368D01*
X76841651Y-82839962D01*
X76834419Y-82819750D01*
X76829203Y-82798926D01*
X76826053Y-82777691D01*
X76825000Y-82756250D01*
X76825000Y-82243750D01*
X76826053Y-82222309D01*
X76829203Y-82201074D01*
X76834419Y-82180250D01*
X76841651Y-82160038D01*
X76850830Y-82140632D01*
X76861866Y-82122219D01*
X76874654Y-82104976D01*
X76889070Y-82089070D01*
X76904976Y-82074654D01*
X76922219Y-82061866D01*
X76940632Y-82050830D01*
X76960038Y-82041651D01*
X76980250Y-82034419D01*
X77001074Y-82029203D01*
X77022309Y-82026053D01*
X77043750Y-82025000D01*
X77481250Y-82025000D01*
X77502691Y-82026053D01*
X77502691Y-82026053D01*
G37*
D11*
X77262500Y-82500000D03*
D10*
G36*
X79077691Y-82026053D02*
G01*
X79098926Y-82029203D01*
X79119750Y-82034419D01*
X79139962Y-82041651D01*
X79159368Y-82050830D01*
X79177781Y-82061866D01*
X79195024Y-82074654D01*
X79210930Y-82089070D01*
X79225346Y-82104976D01*
X79238134Y-82122219D01*
X79249170Y-82140632D01*
X79258349Y-82160038D01*
X79265581Y-82180250D01*
X79270797Y-82201074D01*
X79273947Y-82222309D01*
X79275000Y-82243750D01*
X79275000Y-82756250D01*
X79273947Y-82777691D01*
X79270797Y-82798926D01*
X79265581Y-82819750D01*
X79258349Y-82839962D01*
X79249170Y-82859368D01*
X79238134Y-82877781D01*
X79225346Y-82895024D01*
X79210930Y-82910930D01*
X79195024Y-82925346D01*
X79177781Y-82938134D01*
X79159368Y-82949170D01*
X79139962Y-82958349D01*
X79119750Y-82965581D01*
X79098926Y-82970797D01*
X79077691Y-82973947D01*
X79056250Y-82975000D01*
X78618750Y-82975000D01*
X78597309Y-82973947D01*
X78576074Y-82970797D01*
X78555250Y-82965581D01*
X78535038Y-82958349D01*
X78515632Y-82949170D01*
X78497219Y-82938134D01*
X78479976Y-82925346D01*
X78464070Y-82910930D01*
X78449654Y-82895024D01*
X78436866Y-82877781D01*
X78425830Y-82859368D01*
X78416651Y-82839962D01*
X78409419Y-82819750D01*
X78404203Y-82798926D01*
X78401053Y-82777691D01*
X78400000Y-82756250D01*
X78400000Y-82243750D01*
X78401053Y-82222309D01*
X78404203Y-82201074D01*
X78409419Y-82180250D01*
X78416651Y-82160038D01*
X78425830Y-82140632D01*
X78436866Y-82122219D01*
X78449654Y-82104976D01*
X78464070Y-82089070D01*
X78479976Y-82074654D01*
X78497219Y-82061866D01*
X78515632Y-82050830D01*
X78535038Y-82041651D01*
X78555250Y-82034419D01*
X78576074Y-82029203D01*
X78597309Y-82026053D01*
X78618750Y-82025000D01*
X79056250Y-82025000D01*
X79077691Y-82026053D01*
X79077691Y-82026053D01*
G37*
D11*
X78837500Y-82500000D03*
D10*
G36*
X104277691Y-88963553D02*
G01*
X104298926Y-88966703D01*
X104319750Y-88971919D01*
X104339962Y-88979151D01*
X104359368Y-88988330D01*
X104377781Y-88999366D01*
X104395024Y-89012154D01*
X104410930Y-89026570D01*
X104425346Y-89042476D01*
X104438134Y-89059719D01*
X104449170Y-89078132D01*
X104458349Y-89097538D01*
X104465581Y-89117750D01*
X104470797Y-89138574D01*
X104473947Y-89159809D01*
X104475000Y-89181250D01*
X104475000Y-89618750D01*
X104473947Y-89640191D01*
X104470797Y-89661426D01*
X104465581Y-89682250D01*
X104458349Y-89702462D01*
X104449170Y-89721868D01*
X104438134Y-89740281D01*
X104425346Y-89757524D01*
X104410930Y-89773430D01*
X104395024Y-89787846D01*
X104377781Y-89800634D01*
X104359368Y-89811670D01*
X104339962Y-89820849D01*
X104319750Y-89828081D01*
X104298926Y-89833297D01*
X104277691Y-89836447D01*
X104256250Y-89837500D01*
X103743750Y-89837500D01*
X103722309Y-89836447D01*
X103701074Y-89833297D01*
X103680250Y-89828081D01*
X103660038Y-89820849D01*
X103640632Y-89811670D01*
X103622219Y-89800634D01*
X103604976Y-89787846D01*
X103589070Y-89773430D01*
X103574654Y-89757524D01*
X103561866Y-89740281D01*
X103550830Y-89721868D01*
X103541651Y-89702462D01*
X103534419Y-89682250D01*
X103529203Y-89661426D01*
X103526053Y-89640191D01*
X103525000Y-89618750D01*
X103525000Y-89181250D01*
X103526053Y-89159809D01*
X103529203Y-89138574D01*
X103534419Y-89117750D01*
X103541651Y-89097538D01*
X103550830Y-89078132D01*
X103561866Y-89059719D01*
X103574654Y-89042476D01*
X103589070Y-89026570D01*
X103604976Y-89012154D01*
X103622219Y-88999366D01*
X103640632Y-88988330D01*
X103660038Y-88979151D01*
X103680250Y-88971919D01*
X103701074Y-88966703D01*
X103722309Y-88963553D01*
X103743750Y-88962500D01*
X104256250Y-88962500D01*
X104277691Y-88963553D01*
X104277691Y-88963553D01*
G37*
D11*
X104000000Y-89400000D03*
D10*
G36*
X104277691Y-90538553D02*
G01*
X104298926Y-90541703D01*
X104319750Y-90546919D01*
X104339962Y-90554151D01*
X104359368Y-90563330D01*
X104377781Y-90574366D01*
X104395024Y-90587154D01*
X104410930Y-90601570D01*
X104425346Y-90617476D01*
X104438134Y-90634719D01*
X104449170Y-90653132D01*
X104458349Y-90672538D01*
X104465581Y-90692750D01*
X104470797Y-90713574D01*
X104473947Y-90734809D01*
X104475000Y-90756250D01*
X104475000Y-91193750D01*
X104473947Y-91215191D01*
X104470797Y-91236426D01*
X104465581Y-91257250D01*
X104458349Y-91277462D01*
X104449170Y-91296868D01*
X104438134Y-91315281D01*
X104425346Y-91332524D01*
X104410930Y-91348430D01*
X104395024Y-91362846D01*
X104377781Y-91375634D01*
X104359368Y-91386670D01*
X104339962Y-91395849D01*
X104319750Y-91403081D01*
X104298926Y-91408297D01*
X104277691Y-91411447D01*
X104256250Y-91412500D01*
X103743750Y-91412500D01*
X103722309Y-91411447D01*
X103701074Y-91408297D01*
X103680250Y-91403081D01*
X103660038Y-91395849D01*
X103640632Y-91386670D01*
X103622219Y-91375634D01*
X103604976Y-91362846D01*
X103589070Y-91348430D01*
X103574654Y-91332524D01*
X103561866Y-91315281D01*
X103550830Y-91296868D01*
X103541651Y-91277462D01*
X103534419Y-91257250D01*
X103529203Y-91236426D01*
X103526053Y-91215191D01*
X103525000Y-91193750D01*
X103525000Y-90756250D01*
X103526053Y-90734809D01*
X103529203Y-90713574D01*
X103534419Y-90692750D01*
X103541651Y-90672538D01*
X103550830Y-90653132D01*
X103561866Y-90634719D01*
X103574654Y-90617476D01*
X103589070Y-90601570D01*
X103604976Y-90587154D01*
X103622219Y-90574366D01*
X103640632Y-90563330D01*
X103660038Y-90554151D01*
X103680250Y-90546919D01*
X103701074Y-90541703D01*
X103722309Y-90538553D01*
X103743750Y-90537500D01*
X104256250Y-90537500D01*
X104277691Y-90538553D01*
X104277691Y-90538553D01*
G37*
D11*
X104000000Y-90975000D03*
D10*
G36*
X80965191Y-94376053D02*
G01*
X80986426Y-94379203D01*
X81007250Y-94384419D01*
X81027462Y-94391651D01*
X81046868Y-94400830D01*
X81065281Y-94411866D01*
X81082524Y-94424654D01*
X81098430Y-94439070D01*
X81112846Y-94454976D01*
X81125634Y-94472219D01*
X81136670Y-94490632D01*
X81145849Y-94510038D01*
X81153081Y-94530250D01*
X81158297Y-94551074D01*
X81161447Y-94572309D01*
X81162500Y-94593750D01*
X81162500Y-95106250D01*
X81161447Y-95127691D01*
X81158297Y-95148926D01*
X81153081Y-95169750D01*
X81145849Y-95189962D01*
X81136670Y-95209368D01*
X81125634Y-95227781D01*
X81112846Y-95245024D01*
X81098430Y-95260930D01*
X81082524Y-95275346D01*
X81065281Y-95288134D01*
X81046868Y-95299170D01*
X81027462Y-95308349D01*
X81007250Y-95315581D01*
X80986426Y-95320797D01*
X80965191Y-95323947D01*
X80943750Y-95325000D01*
X80506250Y-95325000D01*
X80484809Y-95323947D01*
X80463574Y-95320797D01*
X80442750Y-95315581D01*
X80422538Y-95308349D01*
X80403132Y-95299170D01*
X80384719Y-95288134D01*
X80367476Y-95275346D01*
X80351570Y-95260930D01*
X80337154Y-95245024D01*
X80324366Y-95227781D01*
X80313330Y-95209368D01*
X80304151Y-95189962D01*
X80296919Y-95169750D01*
X80291703Y-95148926D01*
X80288553Y-95127691D01*
X80287500Y-95106250D01*
X80287500Y-94593750D01*
X80288553Y-94572309D01*
X80291703Y-94551074D01*
X80296919Y-94530250D01*
X80304151Y-94510038D01*
X80313330Y-94490632D01*
X80324366Y-94472219D01*
X80337154Y-94454976D01*
X80351570Y-94439070D01*
X80367476Y-94424654D01*
X80384719Y-94411866D01*
X80403132Y-94400830D01*
X80422538Y-94391651D01*
X80442750Y-94384419D01*
X80463574Y-94379203D01*
X80484809Y-94376053D01*
X80506250Y-94375000D01*
X80943750Y-94375000D01*
X80965191Y-94376053D01*
X80965191Y-94376053D01*
G37*
D11*
X80725000Y-94850000D03*
D10*
G36*
X82540191Y-94376053D02*
G01*
X82561426Y-94379203D01*
X82582250Y-94384419D01*
X82602462Y-94391651D01*
X82621868Y-94400830D01*
X82640281Y-94411866D01*
X82657524Y-94424654D01*
X82673430Y-94439070D01*
X82687846Y-94454976D01*
X82700634Y-94472219D01*
X82711670Y-94490632D01*
X82720849Y-94510038D01*
X82728081Y-94530250D01*
X82733297Y-94551074D01*
X82736447Y-94572309D01*
X82737500Y-94593750D01*
X82737500Y-95106250D01*
X82736447Y-95127691D01*
X82733297Y-95148926D01*
X82728081Y-95169750D01*
X82720849Y-95189962D01*
X82711670Y-95209368D01*
X82700634Y-95227781D01*
X82687846Y-95245024D01*
X82673430Y-95260930D01*
X82657524Y-95275346D01*
X82640281Y-95288134D01*
X82621868Y-95299170D01*
X82602462Y-95308349D01*
X82582250Y-95315581D01*
X82561426Y-95320797D01*
X82540191Y-95323947D01*
X82518750Y-95325000D01*
X82081250Y-95325000D01*
X82059809Y-95323947D01*
X82038574Y-95320797D01*
X82017750Y-95315581D01*
X81997538Y-95308349D01*
X81978132Y-95299170D01*
X81959719Y-95288134D01*
X81942476Y-95275346D01*
X81926570Y-95260930D01*
X81912154Y-95245024D01*
X81899366Y-95227781D01*
X81888330Y-95209368D01*
X81879151Y-95189962D01*
X81871919Y-95169750D01*
X81866703Y-95148926D01*
X81863553Y-95127691D01*
X81862500Y-95106250D01*
X81862500Y-94593750D01*
X81863553Y-94572309D01*
X81866703Y-94551074D01*
X81871919Y-94530250D01*
X81879151Y-94510038D01*
X81888330Y-94490632D01*
X81899366Y-94472219D01*
X81912154Y-94454976D01*
X81926570Y-94439070D01*
X81942476Y-94424654D01*
X81959719Y-94411866D01*
X81978132Y-94400830D01*
X81997538Y-94391651D01*
X82017750Y-94384419D01*
X82038574Y-94379203D01*
X82059809Y-94376053D01*
X82081250Y-94375000D01*
X82518750Y-94375000D01*
X82540191Y-94376053D01*
X82540191Y-94376053D01*
G37*
D11*
X82300000Y-94850000D03*
D10*
G36*
X80965191Y-92726053D02*
G01*
X80986426Y-92729203D01*
X81007250Y-92734419D01*
X81027462Y-92741651D01*
X81046868Y-92750830D01*
X81065281Y-92761866D01*
X81082524Y-92774654D01*
X81098430Y-92789070D01*
X81112846Y-92804976D01*
X81125634Y-92822219D01*
X81136670Y-92840632D01*
X81145849Y-92860038D01*
X81153081Y-92880250D01*
X81158297Y-92901074D01*
X81161447Y-92922309D01*
X81162500Y-92943750D01*
X81162500Y-93456250D01*
X81161447Y-93477691D01*
X81158297Y-93498926D01*
X81153081Y-93519750D01*
X81145849Y-93539962D01*
X81136670Y-93559368D01*
X81125634Y-93577781D01*
X81112846Y-93595024D01*
X81098430Y-93610930D01*
X81082524Y-93625346D01*
X81065281Y-93638134D01*
X81046868Y-93649170D01*
X81027462Y-93658349D01*
X81007250Y-93665581D01*
X80986426Y-93670797D01*
X80965191Y-93673947D01*
X80943750Y-93675000D01*
X80506250Y-93675000D01*
X80484809Y-93673947D01*
X80463574Y-93670797D01*
X80442750Y-93665581D01*
X80422538Y-93658349D01*
X80403132Y-93649170D01*
X80384719Y-93638134D01*
X80367476Y-93625346D01*
X80351570Y-93610930D01*
X80337154Y-93595024D01*
X80324366Y-93577781D01*
X80313330Y-93559368D01*
X80304151Y-93539962D01*
X80296919Y-93519750D01*
X80291703Y-93498926D01*
X80288553Y-93477691D01*
X80287500Y-93456250D01*
X80287500Y-92943750D01*
X80288553Y-92922309D01*
X80291703Y-92901074D01*
X80296919Y-92880250D01*
X80304151Y-92860038D01*
X80313330Y-92840632D01*
X80324366Y-92822219D01*
X80337154Y-92804976D01*
X80351570Y-92789070D01*
X80367476Y-92774654D01*
X80384719Y-92761866D01*
X80403132Y-92750830D01*
X80422538Y-92741651D01*
X80442750Y-92734419D01*
X80463574Y-92729203D01*
X80484809Y-92726053D01*
X80506250Y-92725000D01*
X80943750Y-92725000D01*
X80965191Y-92726053D01*
X80965191Y-92726053D01*
G37*
D11*
X80725000Y-93200000D03*
D10*
G36*
X82540191Y-92726053D02*
G01*
X82561426Y-92729203D01*
X82582250Y-92734419D01*
X82602462Y-92741651D01*
X82621868Y-92750830D01*
X82640281Y-92761866D01*
X82657524Y-92774654D01*
X82673430Y-92789070D01*
X82687846Y-92804976D01*
X82700634Y-92822219D01*
X82711670Y-92840632D01*
X82720849Y-92860038D01*
X82728081Y-92880250D01*
X82733297Y-92901074D01*
X82736447Y-92922309D01*
X82737500Y-92943750D01*
X82737500Y-93456250D01*
X82736447Y-93477691D01*
X82733297Y-93498926D01*
X82728081Y-93519750D01*
X82720849Y-93539962D01*
X82711670Y-93559368D01*
X82700634Y-93577781D01*
X82687846Y-93595024D01*
X82673430Y-93610930D01*
X82657524Y-93625346D01*
X82640281Y-93638134D01*
X82621868Y-93649170D01*
X82602462Y-93658349D01*
X82582250Y-93665581D01*
X82561426Y-93670797D01*
X82540191Y-93673947D01*
X82518750Y-93675000D01*
X82081250Y-93675000D01*
X82059809Y-93673947D01*
X82038574Y-93670797D01*
X82017750Y-93665581D01*
X81997538Y-93658349D01*
X81978132Y-93649170D01*
X81959719Y-93638134D01*
X81942476Y-93625346D01*
X81926570Y-93610930D01*
X81912154Y-93595024D01*
X81899366Y-93577781D01*
X81888330Y-93559368D01*
X81879151Y-93539962D01*
X81871919Y-93519750D01*
X81866703Y-93498926D01*
X81863553Y-93477691D01*
X81862500Y-93456250D01*
X81862500Y-92943750D01*
X81863553Y-92922309D01*
X81866703Y-92901074D01*
X81871919Y-92880250D01*
X81879151Y-92860038D01*
X81888330Y-92840632D01*
X81899366Y-92822219D01*
X81912154Y-92804976D01*
X81926570Y-92789070D01*
X81942476Y-92774654D01*
X81959719Y-92761866D01*
X81978132Y-92750830D01*
X81997538Y-92741651D01*
X82017750Y-92734419D01*
X82038574Y-92729203D01*
X82059809Y-92726053D01*
X82081250Y-92725000D01*
X82518750Y-92725000D01*
X82540191Y-92726053D01*
X82540191Y-92726053D01*
G37*
D11*
X82300000Y-93200000D03*
D20*
X95900000Y-82900000D03*
X93500000Y-84800000D03*
X93500000Y-82900000D03*
X95900000Y-84800000D03*
D21*
X99800000Y-87400000D03*
X99150000Y-87400000D03*
X98500000Y-87400000D03*
X97850000Y-87400000D03*
X97200000Y-87400000D03*
X96550000Y-87400000D03*
X95900000Y-87400000D03*
X95250000Y-87400000D03*
X94600000Y-87400000D03*
X93950000Y-87400000D03*
X93300000Y-87400000D03*
X92650000Y-87400000D03*
X92000000Y-87400000D03*
X91350000Y-87400000D03*
X91350000Y-94600000D03*
X92000000Y-94600000D03*
X92650000Y-94600000D03*
X93300000Y-94600000D03*
X93950000Y-94600000D03*
X94600000Y-94600000D03*
X95250000Y-94600000D03*
X95900000Y-94600000D03*
X96550000Y-94600000D03*
X97200000Y-94600000D03*
X97850000Y-94600000D03*
X98500000Y-94600000D03*
X99150000Y-94600000D03*
X99800000Y-94600000D03*
D22*
X85061000Y-86260300D03*
X100527000Y-88809000D03*
X93894900Y-91703200D03*
X95278300Y-88879800D03*
X94006800Y-89109800D03*
X110663400Y-94402500D03*
X80295800Y-84603000D03*
X92675800Y-88883400D03*
X103052600Y-88673800D03*
X92671100Y-91452100D03*
X90519500Y-89758900D03*
X88344300Y-92101000D03*
X83145600Y-92364500D03*
X79342800Y-89585600D03*
X96027000Y-92762100D03*
X95024600Y-93023700D03*
X90220400Y-97303200D03*
X85672700Y-97172400D03*
X92567700Y-89936700D03*
X101514300Y-83481600D03*
X105596100Y-86338000D03*
X100042100Y-91126300D03*
X102270000Y-98049990D03*
X100782400Y-98045700D03*
X91589400Y-97007000D03*
X95685500Y-96886600D03*
D23*
X85035700Y-86285600D02*
X84450000Y-85700000D01*
X84450000Y-85700000D02*
X82325000Y-85700000D01*
X86250000Y-87500000D02*
X85035700Y-86285600D01*
X85035700Y-86285600D02*
X85061000Y-86260300D01*
X86250000Y-88049600D02*
X86250000Y-87500000D01*
X93500000Y-82900000D02*
X91600000Y-82900000D01*
X91600000Y-82900000D02*
X91400000Y-83100000D01*
X82275000Y-91337500D02*
X82962100Y-91337500D01*
X82962100Y-91337500D02*
X86250000Y-88049600D01*
X81850000Y-89750000D02*
X81850000Y-90912500D01*
X81850000Y-90912500D02*
X82275000Y-91337500D01*
X82275000Y-91550000D02*
X82275000Y-91337500D01*
X77150300Y-85700000D02*
X77150300Y-83939400D01*
X77150300Y-83939400D02*
X77262500Y-83827200D01*
X77262500Y-83827200D02*
X77262500Y-82500000D01*
X92700000Y-97450000D02*
X93950000Y-96200000D01*
X93950000Y-96200000D02*
X93950000Y-94600000D01*
X90480000Y-98999700D02*
X91150300Y-98999700D01*
X91150300Y-98999700D02*
X92700000Y-97450000D01*
X75300000Y-85700000D02*
X77150300Y-85700000D01*
X97800000Y-84687500D02*
X97062800Y-84687500D01*
X97062800Y-84687500D02*
X96950300Y-84800000D01*
X95900000Y-84800000D02*
X96950300Y-84800000D01*
X109600000Y-84930000D02*
X107503300Y-82833300D01*
X107503300Y-82833300D02*
X101927100Y-82833300D01*
X101927100Y-82833300D02*
X101825100Y-82731300D01*
X101825100Y-82731300D02*
X101203600Y-82731300D01*
X101203600Y-82731300D02*
X101101600Y-82833300D01*
X101101600Y-82833300D02*
X98845100Y-82833300D01*
X99150000Y-94600000D02*
X99150000Y-95825400D01*
X94550300Y-82900000D02*
X94550300Y-82454300D01*
X94550300Y-82454300D02*
X95057400Y-81947200D01*
X95057400Y-81947200D02*
X97958900Y-81947200D01*
X97958900Y-81947200D02*
X98845100Y-82833300D01*
X104826200Y-90200000D02*
X107000000Y-88026200D01*
X107000000Y-88026200D02*
X107000000Y-88000000D01*
X75300000Y-97500000D02*
X77150300Y-97500000D01*
X90480000Y-98999700D02*
X78650000Y-98999700D01*
X78650000Y-98999700D02*
X77150300Y-97500000D01*
X93500000Y-82900000D02*
X94550300Y-82900000D01*
X95250000Y-87400000D02*
X95250000Y-86174700D01*
X95900000Y-84800000D02*
X95900000Y-85750300D01*
X95250000Y-86174700D02*
X95475600Y-86174700D01*
X95475600Y-86174700D02*
X95900000Y-85750300D01*
X90480000Y-100200000D02*
X90480000Y-98999700D01*
X88100000Y-90744700D02*
X88100000Y-88725000D01*
X89450000Y-93062500D02*
X89450000Y-92094700D01*
X89450000Y-92094700D02*
X88100000Y-90744700D01*
X86325000Y-88725000D02*
X89400000Y-88725000D01*
X86300000Y-88700000D02*
X86325000Y-88725000D01*
X86250000Y-88049600D02*
X86300000Y-88099600D01*
X86300000Y-88099600D02*
X86300000Y-88700000D01*
X98726200Y-84687500D02*
X97800000Y-84687500D01*
X98845100Y-82833300D02*
X98726200Y-82952200D01*
X98726200Y-82952200D02*
X98726200Y-84687500D01*
X105313100Y-89713100D02*
X104826200Y-90200000D01*
X104000000Y-89400000D02*
X105000000Y-89400000D01*
X105000000Y-89400000D02*
X105313100Y-89713100D01*
X104826200Y-90200000D02*
X105213100Y-89813100D01*
X105228950Y-94328950D02*
X105228950Y-95271050D01*
X105300000Y-90673800D02*
X104826200Y-90200000D01*
X105300000Y-95200000D02*
X105300000Y-90673800D01*
X105228950Y-95271050D02*
X105300000Y-95200000D01*
X105228950Y-95428950D02*
X105228950Y-95271050D01*
X106200000Y-96400000D02*
X105228950Y-95428950D01*
X107900000Y-96400000D02*
X106200000Y-96400000D01*
X109600000Y-98070000D02*
X109570000Y-98070000D01*
X109570000Y-98070000D02*
X107900000Y-96400000D01*
X99624600Y-96300000D02*
X99150000Y-95825400D01*
X105228950Y-95271050D02*
X104200000Y-96300000D01*
X104200000Y-96300000D02*
X99624600Y-96300000D01*
X98500000Y-97575000D02*
X98475000Y-97600000D01*
X99150000Y-95825400D02*
X98500000Y-96475400D01*
X98500000Y-96475400D02*
X98500000Y-97575000D01*
X82375000Y-84075000D02*
X82375000Y-82500000D01*
X80750000Y-85700000D02*
X82375000Y-84075000D01*
X92000000Y-86174700D02*
X86457500Y-86174700D01*
X86457500Y-86174700D02*
X84357800Y-84075000D01*
X84357800Y-84075000D02*
X82375000Y-84075000D01*
X92000000Y-87400000D02*
X92000000Y-86174700D01*
X90712300Y-90627200D02*
X91850400Y-89489100D01*
X91850400Y-89489100D02*
X91850400Y-88630500D01*
X91850400Y-88630500D02*
X92000000Y-88480900D01*
X92000000Y-88480900D02*
X92000000Y-87400000D01*
X80900000Y-86669700D02*
X80750000Y-86519700D01*
X80750000Y-86519700D02*
X80750000Y-85700000D01*
X80900000Y-87550000D02*
X80900000Y-86669700D01*
X89400000Y-90300000D02*
X89727200Y-90627200D01*
X89727200Y-90627200D02*
X90712300Y-90627200D01*
X90712300Y-90627200D02*
X90712300Y-91238600D01*
X90712300Y-91238600D02*
X92099200Y-92625500D01*
X92099200Y-92625500D02*
X92972600Y-92625500D01*
X92972600Y-92625500D02*
X93894900Y-91703200D01*
X91350000Y-93374700D02*
X92099200Y-92625500D01*
X100527000Y-90326400D02*
X100675500Y-90474900D01*
X100675500Y-90474900D02*
X100816100Y-90474900D01*
X100527000Y-88809000D02*
X100527000Y-90326400D01*
X93894900Y-91703200D02*
X94303300Y-91294800D01*
X94303300Y-91294800D02*
X97360400Y-91294800D01*
X97360400Y-91294800D02*
X98328800Y-90326400D01*
X98328800Y-90326400D02*
X100527000Y-90326400D01*
X100816100Y-90474900D02*
X101612600Y-90474900D01*
X101612600Y-90474900D02*
X101800000Y-90287500D01*
X99800000Y-93374700D02*
X100816100Y-92358600D01*
X100816100Y-92358600D02*
X100816100Y-90474900D01*
X96550000Y-93374700D02*
X99800000Y-93374700D01*
X96900000Y-97600000D02*
X96550000Y-97250000D01*
X96550000Y-97250000D02*
X96550000Y-94600000D01*
X91350000Y-94600000D02*
X91350000Y-93374700D01*
X91350000Y-94600000D02*
X89487500Y-94600000D01*
X89487500Y-94600000D02*
X89450000Y-94637500D01*
X96550000Y-94600000D02*
X96550000Y-93374700D01*
X99800000Y-94600000D02*
X99800000Y-93374700D01*
X94600000Y-87400000D02*
X94600000Y-88625300D01*
X94600000Y-88625300D02*
X95023800Y-88625300D01*
X95023800Y-88625300D02*
X95278300Y-88879800D01*
X95900000Y-83112500D02*
X95687500Y-83112500D01*
X95687500Y-83112500D02*
X94600000Y-84200000D01*
X94600000Y-84200000D02*
X94600000Y-87400000D01*
X95900000Y-83112500D02*
X95900000Y-82900000D01*
X95900000Y-83112500D02*
X97800000Y-83112500D01*
X93950000Y-87400000D02*
X93950000Y-86174700D01*
X93500000Y-84800000D02*
X93500000Y-85750300D01*
X93950000Y-86174700D02*
X93924400Y-86174700D01*
X93924400Y-86174700D02*
X93500000Y-85750300D01*
X93950000Y-88012600D02*
X93950000Y-87400000D01*
X93950000Y-88012600D02*
X93950000Y-88625300D01*
X93950000Y-88625300D02*
X94006800Y-88682100D01*
X94006800Y-88682100D02*
X94006800Y-89109800D01*
X91400000Y-84675000D02*
X91525000Y-84800000D01*
X91525000Y-84800000D02*
X93500000Y-84800000D01*
X80900000Y-88869700D02*
X80845900Y-88869700D01*
X80845900Y-88869700D02*
X79944200Y-87968000D01*
X79944200Y-87968000D02*
X79944200Y-84954600D01*
X79944200Y-84954600D02*
X80295800Y-84603000D01*
X107000000Y-95000000D02*
X107597500Y-94402500D01*
X107597500Y-94402500D02*
X110663400Y-94402500D01*
X82800000Y-88869700D02*
X80900000Y-88869700D01*
X82800000Y-89750000D02*
X82800000Y-88869700D01*
X80900000Y-89750000D02*
X80900000Y-88869700D01*
X80900000Y-90190100D02*
X80900000Y-89750000D01*
X80900000Y-90190100D02*
X80900000Y-90630300D01*
X80725000Y-94850000D02*
X80700000Y-94875000D01*
X80700000Y-94875000D02*
X80700000Y-96550000D01*
X80725000Y-93200000D02*
X80725000Y-94850000D01*
X80700000Y-91550000D02*
X80700000Y-93175000D01*
X80700000Y-93175000D02*
X80725000Y-93200000D01*
X80900000Y-90630300D02*
X80700000Y-90830300D01*
X80700000Y-90830300D02*
X80700000Y-91550000D01*
X82800000Y-87550000D02*
X82800000Y-86669700D01*
X84675000Y-87500000D02*
X83844700Y-86669700D01*
X83844700Y-86669700D02*
X82800000Y-86669700D01*
X92650000Y-87400000D02*
X92650000Y-88857600D01*
X92650000Y-88857600D02*
X92675800Y-88883400D01*
X104000000Y-94250000D02*
X103052600Y-93302600D01*
X103052600Y-93302600D02*
X103052600Y-88673800D01*
X100021300Y-87998100D02*
X100021300Y-88132100D01*
X100021300Y-88132100D02*
X99528000Y-88625400D01*
X99528000Y-88625400D02*
X98865200Y-88625400D01*
X98865200Y-88625400D02*
X96806100Y-90684500D01*
X96806100Y-90684500D02*
X93438700Y-90684500D01*
X93438700Y-90684500D02*
X92671100Y-91452100D01*
X99800000Y-87400000D02*
X100021300Y-87621300D01*
X100021300Y-87621300D02*
X100021300Y-87998100D01*
X101800000Y-88712500D02*
X101085600Y-87998100D01*
X101085600Y-87998100D02*
X100021300Y-87998100D01*
X91350000Y-87400000D02*
X91350000Y-88625300D01*
X91350000Y-88625300D02*
X90519500Y-89455800D01*
X90519500Y-89455800D02*
X90519500Y-89758900D01*
X88344300Y-92101000D02*
X83409100Y-92101000D01*
X83409100Y-92101000D02*
X83145600Y-92364500D01*
X83145600Y-92364500D02*
X82310100Y-93200000D01*
X82310100Y-93200000D02*
X82300000Y-93200000D01*
X79342800Y-89585600D02*
X79342800Y-90957200D01*
X79342800Y-90957200D02*
X77700000Y-92600000D01*
X83275300Y-95825300D02*
X92000000Y-95825300D01*
X82300000Y-94850000D02*
X83275300Y-95825300D01*
X83275300Y-95825300D02*
X83275300Y-96860300D01*
X83275300Y-96860300D02*
X82213500Y-97922100D01*
X82213500Y-97922100D02*
X78909200Y-97922100D01*
X78909200Y-97922100D02*
X76584100Y-95597000D01*
X76584100Y-95597000D02*
X76584100Y-94642700D01*
X76584100Y-94642700D02*
X77700000Y-93526800D01*
X77700000Y-93526800D02*
X77700000Y-92600000D01*
X92000000Y-94600000D02*
X92000000Y-95825300D01*
X95900000Y-94600000D02*
X95900000Y-92889100D01*
X95900000Y-92889100D02*
X96027000Y-92762100D01*
X95250000Y-94600000D02*
X95250000Y-93249100D01*
X95250000Y-93249100D02*
X95024600Y-93023700D01*
X77700000Y-95100000D02*
X79995100Y-97395100D01*
X79995100Y-97395100D02*
X81429900Y-97395100D01*
X81429900Y-97395100D02*
X82275000Y-96550000D01*
X97200000Y-88625300D02*
X95888600Y-89936700D01*
X95888600Y-89936700D02*
X92567700Y-89936700D01*
X90220400Y-97303200D02*
X85803500Y-97303200D01*
X85803500Y-97303200D02*
X85672700Y-97172400D01*
X97200000Y-87400000D02*
X97200000Y-88625300D01*
X101514300Y-83481600D02*
X105121100Y-87088400D01*
X105121100Y-87088400D02*
X105907000Y-87088400D01*
X105907000Y-87088400D02*
X106157000Y-86838400D01*
X106157000Y-86838400D02*
X107423700Y-86838400D01*
X107423700Y-86838400D02*
X111484100Y-90898800D01*
X111484100Y-90898800D02*
X111484100Y-98828800D01*
X111484100Y-98828800D02*
X110384300Y-99928600D01*
X110384300Y-99928600D02*
X108723000Y-99928600D01*
X108723000Y-99928600D02*
X106089800Y-97295400D01*
X106089800Y-97295400D02*
X100156600Y-97295400D01*
X100156600Y-97295400D02*
X98523400Y-98928600D01*
X98523400Y-98928600D02*
X95118600Y-98928600D01*
X95118600Y-98928600D02*
X94220300Y-99826900D01*
X94220300Y-99826900D02*
X94220300Y-100200000D01*
X93020000Y-100200000D02*
X94220300Y-100200000D01*
X97850000Y-86174700D02*
X98821200Y-86174700D01*
X98821200Y-86174700D02*
X101514300Y-83481600D01*
X97850000Y-87400000D02*
X97850000Y-86174700D01*
X92650000Y-93374700D02*
X93421100Y-93374700D01*
X93421100Y-93374700D02*
X95000700Y-91795100D01*
X95000700Y-91795100D02*
X99373300Y-91795100D01*
X99373300Y-91795100D02*
X100042100Y-91126300D01*
X92650000Y-94600000D02*
X92650000Y-93374700D01*
X105843690Y-98049990D02*
X102835685Y-98049990D01*
X102835685Y-98049990D02*
X102270000Y-98049990D01*
X101700000Y-98619990D02*
X101870001Y-98449989D01*
X101870001Y-98449989D02*
X102270000Y-98049990D01*
X105596100Y-86338000D02*
X107631000Y-86338000D01*
X111984500Y-99036100D02*
X110541300Y-100479300D01*
X108273000Y-100479300D02*
X105843690Y-98049990D01*
X110541300Y-100479300D02*
X108273000Y-100479300D01*
X111984500Y-90691500D02*
X111984500Y-99036100D01*
X107631000Y-86338000D02*
X111984500Y-90691500D01*
X101700000Y-100200000D02*
X101700000Y-98619990D01*
X99160000Y-100200000D02*
X99160000Y-98999700D01*
X99160000Y-98999700D02*
X99828400Y-98999700D01*
X99828400Y-98999700D02*
X100782400Y-98045700D01*
X93300000Y-95825300D02*
X92771100Y-95825300D01*
X92771100Y-95825300D02*
X91589400Y-97007000D01*
X93300000Y-94600000D02*
X93300000Y-95825300D01*
X78837500Y-82500000D02*
X80800000Y-82500000D01*
X104000000Y-90975000D02*
X104000000Y-92675000D01*
X94600000Y-96886600D02*
X94600000Y-97425000D01*
X94600000Y-97425000D02*
X94575000Y-97450000D01*
X94600000Y-94600000D02*
X94600000Y-96886600D01*
X94600000Y-96886600D02*
X95685500Y-96886600D01*
D24*
G36*
X76235498Y-81780820D02*
G01*
X76199188Y-81900518D01*
X76186928Y-82025000D01*
X76190000Y-82214250D01*
X76348750Y-82373000D01*
X77135500Y-82373000D01*
X77135500Y-82353000D01*
X77389500Y-82353000D01*
X77389500Y-82373000D01*
X77409500Y-82373000D01*
X77409500Y-82627000D01*
X77389500Y-82627000D01*
X77389500Y-83451250D01*
X77548250Y-83610000D01*
X77700000Y-83613072D01*
X77824482Y-83600812D01*
X77944180Y-83564502D01*
X78054494Y-83505537D01*
X78121070Y-83450900D01*
X78142725Y-83468671D01*
X78290858Y-83547850D01*
X78451592Y-83596608D01*
X78618750Y-83613072D01*
X79056250Y-83613072D01*
X79223408Y-83596608D01*
X79384142Y-83547850D01*
X79532275Y-83468671D01*
X79662115Y-83362115D01*
X79725401Y-83285000D01*
X79912099Y-83285000D01*
X79975385Y-83362115D01*
X80105225Y-83468671D01*
X80253358Y-83547850D01*
X80319784Y-83568000D01*
X80193861Y-83568000D01*
X79993902Y-83607774D01*
X79805544Y-83685795D01*
X79636026Y-83799063D01*
X79491863Y-83943226D01*
X79378595Y-84112744D01*
X79300574Y-84301102D01*
X79260800Y-84501061D01*
X79260800Y-84567890D01*
X79215446Y-84652741D01*
X79170559Y-84800714D01*
X79155403Y-84954600D01*
X79159201Y-84993163D01*
X79159200Y-87929447D01*
X79155403Y-87968000D01*
X79159200Y-88006553D01*
X79159200Y-88006560D01*
X79170559Y-88121886D01*
X79215446Y-88269859D01*
X79288338Y-88406232D01*
X79386436Y-88525764D01*
X79416390Y-88550347D01*
X79416643Y-88550600D01*
X79240861Y-88550600D01*
X79040902Y-88590374D01*
X79006441Y-88604648D01*
X79022756Y-88569952D01*
X79089023Y-88302865D01*
X79101910Y-88027983D01*
X79060922Y-87755867D01*
X78967636Y-87496977D01*
X78905656Y-87381020D01*
X78665565Y-87314040D01*
X77879605Y-88100000D01*
X77893748Y-88114143D01*
X77714143Y-88293748D01*
X77700000Y-88279605D01*
X77685858Y-88293748D01*
X77506253Y-88114143D01*
X77520395Y-88100000D01*
X76734435Y-87314040D01*
X76494344Y-87381020D01*
X76377244Y-87630048D01*
X76310977Y-87897135D01*
X76303614Y-88054196D01*
X76074463Y-87901082D01*
X75776912Y-87777832D01*
X75461033Y-87715000D01*
X75138967Y-87715000D01*
X74823088Y-87777832D01*
X74525537Y-87901082D01*
X74257748Y-88080013D01*
X74030013Y-88307748D01*
X73851082Y-88575537D01*
X73727832Y-88873088D01*
X73665000Y-89188967D01*
X73665000Y-89511033D01*
X73727832Y-89826912D01*
X73851082Y-90124463D01*
X74030013Y-90392252D01*
X74257748Y-90619987D01*
X74525537Y-90798918D01*
X74823088Y-90922168D01*
X75138967Y-90985000D01*
X75461033Y-90985000D01*
X75776912Y-90922168D01*
X76074463Y-90798918D01*
X76303000Y-90646214D01*
X76303000Y-90737592D01*
X76356686Y-91007490D01*
X76461995Y-91261727D01*
X76614880Y-91490535D01*
X76724345Y-91600000D01*
X76614880Y-91709465D01*
X76461995Y-91938273D01*
X76356686Y-92192510D01*
X76303000Y-92462408D01*
X76303000Y-92553786D01*
X76074463Y-92401082D01*
X75776912Y-92277832D01*
X75461033Y-92215000D01*
X75138967Y-92215000D01*
X74823088Y-92277832D01*
X74525537Y-92401082D01*
X74257748Y-92580013D01*
X74030013Y-92807748D01*
X73851082Y-93075537D01*
X73727832Y-93373088D01*
X73665000Y-93688967D01*
X73665000Y-94011033D01*
X73727832Y-94326912D01*
X73851082Y-94624463D01*
X74030013Y-94892252D01*
X74257748Y-95119987D01*
X74525537Y-95298918D01*
X74823088Y-95422168D01*
X75138967Y-95485000D01*
X75461033Y-95485000D01*
X75776912Y-95422168D01*
X75799100Y-95412977D01*
X75799100Y-95558447D01*
X75795303Y-95597000D01*
X75799100Y-95635553D01*
X75799100Y-95635560D01*
X75810459Y-95750886D01*
X75855346Y-95898859D01*
X75928238Y-96035232D01*
X75993702Y-96115000D01*
X75427000Y-96115000D01*
X75427000Y-97373000D01*
X75447000Y-97373000D01*
X75447000Y-97627000D01*
X75427000Y-97627000D01*
X75427000Y-98885000D01*
X76177000Y-98885000D01*
X76444760Y-98833611D01*
X76697349Y-98730972D01*
X76925061Y-98581028D01*
X77119145Y-98389540D01*
X77272142Y-98163868D01*
X77378173Y-97912684D01*
X77392318Y-97841185D01*
X77269657Y-97627002D01*
X77435000Y-97627002D01*
X77435000Y-97558058D01*
X78326858Y-98449916D01*
X78351436Y-98479864D01*
X78381384Y-98504442D01*
X78381387Y-98504445D01*
X78381447Y-98504494D01*
X78470967Y-98577962D01*
X78601720Y-98647850D01*
X78607340Y-98650854D01*
X78755313Y-98695742D01*
X78830226Y-98703120D01*
X78870639Y-98707100D01*
X78870644Y-98707100D01*
X78909200Y-98710897D01*
X78947755Y-98707100D01*
X82174947Y-98707100D01*
X82213500Y-98710897D01*
X82252053Y-98707100D01*
X82252061Y-98707100D01*
X82367387Y-98695741D01*
X82515360Y-98650854D01*
X82651733Y-98577962D01*
X82771264Y-98479864D01*
X82795847Y-98449910D01*
X83803115Y-97442643D01*
X83833064Y-97418064D01*
X83859440Y-97385926D01*
X83908385Y-97326286D01*
X83931162Y-97298533D01*
X84004054Y-97162160D01*
X84014266Y-97128495D01*
X84048942Y-97014187D01*
X84056320Y-96939274D01*
X84060300Y-96898861D01*
X84060300Y-96898856D01*
X84064097Y-96860300D01*
X84060300Y-96821745D01*
X84060300Y-96610300D01*
X84803499Y-96610300D01*
X84755495Y-96682144D01*
X84677474Y-96870502D01*
X84637700Y-97070461D01*
X84637700Y-97274339D01*
X84677474Y-97474298D01*
X84755495Y-97662656D01*
X84868763Y-97832174D01*
X85012926Y-97976337D01*
X85182444Y-98089605D01*
X85370802Y-98167626D01*
X85570761Y-98207400D01*
X85774639Y-98207400D01*
X85974598Y-98167626D01*
X86162956Y-98089605D01*
X86165059Y-98088200D01*
X89541689Y-98088200D01*
X89560626Y-98107137D01*
X89730144Y-98220405D01*
X89918502Y-98298426D01*
X90118461Y-98338200D01*
X90322339Y-98338200D01*
X90522298Y-98298426D01*
X90710656Y-98220405D01*
X90880174Y-98107137D01*
X91024337Y-97962974D01*
X91065336Y-97901615D01*
X91099144Y-97924205D01*
X91287502Y-98002226D01*
X91487461Y-98042000D01*
X91575229Y-98042000D01*
X91574428Y-98150000D01*
X91586688Y-98274482D01*
X91622998Y-98394180D01*
X91681963Y-98504494D01*
X91761315Y-98601185D01*
X91858006Y-98680537D01*
X91968320Y-98739502D01*
X92088018Y-98775812D01*
X92212500Y-98788072D01*
X92414250Y-98785000D01*
X92572998Y-98626252D01*
X92572998Y-98783776D01*
X92448966Y-98821401D01*
X92190986Y-98959294D01*
X91964866Y-99144866D01*
X91779294Y-99370986D01*
X91744799Y-99435523D01*
X91675178Y-99318645D01*
X91480269Y-99102412D01*
X91246920Y-98928359D01*
X90984099Y-98803175D01*
X90836890Y-98758524D01*
X90607000Y-98879845D01*
X90607000Y-100073000D01*
X90627000Y-100073000D01*
X90627000Y-100327000D01*
X90607000Y-100327000D01*
X90607000Y-100347000D01*
X90353000Y-100347000D01*
X90353000Y-100327000D01*
X90333000Y-100327000D01*
X90333000Y-100073000D01*
X90353000Y-100073000D01*
X90353000Y-98879845D01*
X90123110Y-98758524D01*
X89975901Y-98803175D01*
X89713080Y-98928359D01*
X89479731Y-99102412D01*
X89284822Y-99318645D01*
X89215201Y-99435523D01*
X89180706Y-99370986D01*
X88995134Y-99144866D01*
X88769014Y-98959294D01*
X88511034Y-98821401D01*
X88231111Y-98736487D01*
X88012950Y-98715000D01*
X87867050Y-98715000D01*
X87648889Y-98736487D01*
X87368966Y-98821401D01*
X87110986Y-98959294D01*
X86884866Y-99144866D01*
X86860393Y-99174687D01*
X86839502Y-99105820D01*
X86780537Y-98995506D01*
X86701185Y-98898815D01*
X86604494Y-98819463D01*
X86494180Y-98760498D01*
X86374482Y-98724188D01*
X86250000Y-98711928D01*
X84550000Y-98711928D01*
X84425518Y-98724188D01*
X84305820Y-98760498D01*
X84195506Y-98819463D01*
X84098815Y-98898815D01*
X84019463Y-98995506D01*
X83960498Y-99105820D01*
X83924188Y-99225518D01*
X83911928Y-99350000D01*
X83911928Y-101050000D01*
X83924188Y-101174482D01*
X83959230Y-101290000D01*
X73534721Y-101290000D01*
X73444336Y-101281138D01*
X73390786Y-101264970D01*
X73341403Y-101238712D01*
X73298053Y-101203357D01*
X73262401Y-101160261D01*
X73235799Y-101111063D01*
X73219258Y-101057625D01*
X73210000Y-100969545D01*
X73210000Y-97852902D01*
X73221827Y-97912684D01*
X73327858Y-98163868D01*
X73480855Y-98389540D01*
X73674939Y-98581028D01*
X73902651Y-98730972D01*
X74155240Y-98833611D01*
X74423000Y-98885000D01*
X75173000Y-98885000D01*
X75173000Y-97627000D01*
X75153000Y-97627000D01*
X75153000Y-97373000D01*
X75173000Y-97373000D01*
X75173000Y-96115000D01*
X74423000Y-96115000D01*
X74155240Y-96166389D01*
X73902651Y-96269028D01*
X73674939Y-96418972D01*
X73480855Y-96610460D01*
X73327858Y-96836132D01*
X73221827Y-97087316D01*
X73210000Y-97147098D01*
X73210000Y-87134435D01*
X76914040Y-87134435D01*
X77700000Y-87920395D01*
X78485960Y-87134435D01*
X78418980Y-86894344D01*
X78169952Y-86777244D01*
X77902865Y-86710977D01*
X77627983Y-86698090D01*
X77355867Y-86739078D01*
X77096977Y-86832364D01*
X76981020Y-86894344D01*
X76914040Y-87134435D01*
X73210000Y-87134435D01*
X73210000Y-86052902D01*
X73221827Y-86112684D01*
X73327858Y-86363868D01*
X73480855Y-86589540D01*
X73674939Y-86781028D01*
X73902651Y-86930972D01*
X74155240Y-87033611D01*
X74423000Y-87085000D01*
X75173000Y-87085000D01*
X75173000Y-85827000D01*
X75427000Y-85827000D01*
X75427000Y-87085000D01*
X76177000Y-87085000D01*
X76444760Y-87033611D01*
X76697349Y-86930972D01*
X76925061Y-86781028D01*
X77119145Y-86589540D01*
X77272142Y-86363868D01*
X77378173Y-86112684D01*
X77392318Y-86041185D01*
X77269656Y-85827000D01*
X75427000Y-85827000D01*
X75173000Y-85827000D01*
X75153000Y-85827000D01*
X75153000Y-85573000D01*
X75173000Y-85573000D01*
X75173000Y-84315000D01*
X75427000Y-84315000D01*
X75427000Y-85573000D01*
X77269656Y-85573000D01*
X77392318Y-85358815D01*
X77378173Y-85287316D01*
X77272142Y-85036132D01*
X77119145Y-84810460D01*
X76925061Y-84618972D01*
X76697349Y-84469028D01*
X76444760Y-84366389D01*
X76177000Y-84315000D01*
X75427000Y-84315000D01*
X75173000Y-84315000D01*
X74423000Y-84315000D01*
X74155240Y-84366389D01*
X73902651Y-84469028D01*
X73674939Y-84618972D01*
X73480855Y-84810460D01*
X73327858Y-85036132D01*
X73221827Y-85287316D01*
X73210000Y-85347098D01*
X73210000Y-82975000D01*
X76186928Y-82975000D01*
X76199188Y-83099482D01*
X76235498Y-83219180D01*
X76294463Y-83329494D01*
X76373815Y-83426185D01*
X76470506Y-83505537D01*
X76580820Y-83564502D01*
X76700518Y-83600812D01*
X76825000Y-83613072D01*
X76976750Y-83610000D01*
X77135500Y-83451250D01*
X77135500Y-82627000D01*
X76348750Y-82627000D01*
X76190000Y-82785750D01*
X76186928Y-82975000D01*
X73210000Y-82975000D01*
X73210000Y-82034722D01*
X73218863Y-81944335D01*
X73235030Y-81890786D01*
X73261288Y-81841403D01*
X73296641Y-81798055D01*
X73339740Y-81762400D01*
X73388937Y-81735799D01*
X73442375Y-81719258D01*
X73530455Y-81710000D01*
X76273353Y-81710000D01*
X76235498Y-81780820D01*
X76235498Y-81780820D01*
G37*
X76235498Y-81780820D02*
X76199188Y-81900518D01*
X76186928Y-82025000D01*
X76190000Y-82214250D01*
X76348750Y-82373000D01*
X77135500Y-82373000D01*
X77135500Y-82353000D01*
X77389500Y-82353000D01*
X77389500Y-82373000D01*
X77409500Y-82373000D01*
X77409500Y-82627000D01*
X77389500Y-82627000D01*
X77389500Y-83451250D01*
X77548250Y-83610000D01*
X77700000Y-83613072D01*
X77824482Y-83600812D01*
X77944180Y-83564502D01*
X78054494Y-83505537D01*
X78121070Y-83450900D01*
X78142725Y-83468671D01*
X78290858Y-83547850D01*
X78451592Y-83596608D01*
X78618750Y-83613072D01*
X79056250Y-83613072D01*
X79223408Y-83596608D01*
X79384142Y-83547850D01*
X79532275Y-83468671D01*
X79662115Y-83362115D01*
X79725401Y-83285000D01*
X79912099Y-83285000D01*
X79975385Y-83362115D01*
X80105225Y-83468671D01*
X80253358Y-83547850D01*
X80319784Y-83568000D01*
X80193861Y-83568000D01*
X79993902Y-83607774D01*
X79805544Y-83685795D01*
X79636026Y-83799063D01*
X79491863Y-83943226D01*
X79378595Y-84112744D01*
X79300574Y-84301102D01*
X79260800Y-84501061D01*
X79260800Y-84567890D01*
X79215446Y-84652741D01*
X79170559Y-84800714D01*
X79155403Y-84954600D01*
X79159201Y-84993163D01*
X79159200Y-87929447D01*
X79155403Y-87968000D01*
X79159200Y-88006553D01*
X79159200Y-88006560D01*
X79170559Y-88121886D01*
X79215446Y-88269859D01*
X79288338Y-88406232D01*
X79386436Y-88525764D01*
X79416390Y-88550347D01*
X79416643Y-88550600D01*
X79240861Y-88550600D01*
X79040902Y-88590374D01*
X79006441Y-88604648D01*
X79022756Y-88569952D01*
X79089023Y-88302865D01*
X79101910Y-88027983D01*
X79060922Y-87755867D01*
X78967636Y-87496977D01*
X78905656Y-87381020D01*
X78665565Y-87314040D01*
X77879605Y-88100000D01*
X77893748Y-88114143D01*
X77714143Y-88293748D01*
X77700000Y-88279605D01*
X77685858Y-88293748D01*
X77506253Y-88114143D01*
X77520395Y-88100000D01*
X76734435Y-87314040D01*
X76494344Y-87381020D01*
X76377244Y-87630048D01*
X76310977Y-87897135D01*
X76303614Y-88054196D01*
X76074463Y-87901082D01*
X75776912Y-87777832D01*
X75461033Y-87715000D01*
X75138967Y-87715000D01*
X74823088Y-87777832D01*
X74525537Y-87901082D01*
X74257748Y-88080013D01*
X74030013Y-88307748D01*
X73851082Y-88575537D01*
X73727832Y-88873088D01*
X73665000Y-89188967D01*
X73665000Y-89511033D01*
X73727832Y-89826912D01*
X73851082Y-90124463D01*
X74030013Y-90392252D01*
X74257748Y-90619987D01*
X74525537Y-90798918D01*
X74823088Y-90922168D01*
X75138967Y-90985000D01*
X75461033Y-90985000D01*
X75776912Y-90922168D01*
X76074463Y-90798918D01*
X76303000Y-90646214D01*
X76303000Y-90737592D01*
X76356686Y-91007490D01*
X76461995Y-91261727D01*
X76614880Y-91490535D01*
X76724345Y-91600000D01*
X76614880Y-91709465D01*
X76461995Y-91938273D01*
X76356686Y-92192510D01*
X76303000Y-92462408D01*
X76303000Y-92553786D01*
X76074463Y-92401082D01*
X75776912Y-92277832D01*
X75461033Y-92215000D01*
X75138967Y-92215000D01*
X74823088Y-92277832D01*
X74525537Y-92401082D01*
X74257748Y-92580013D01*
X74030013Y-92807748D01*
X73851082Y-93075537D01*
X73727832Y-93373088D01*
X73665000Y-93688967D01*
X73665000Y-94011033D01*
X73727832Y-94326912D01*
X73851082Y-94624463D01*
X74030013Y-94892252D01*
X74257748Y-95119987D01*
X74525537Y-95298918D01*
X74823088Y-95422168D01*
X75138967Y-95485000D01*
X75461033Y-95485000D01*
X75776912Y-95422168D01*
X75799100Y-95412977D01*
X75799100Y-95558447D01*
X75795303Y-95597000D01*
X75799100Y-95635553D01*
X75799100Y-95635560D01*
X75810459Y-95750886D01*
X75855346Y-95898859D01*
X75928238Y-96035232D01*
X75993702Y-96115000D01*
X75427000Y-96115000D01*
X75427000Y-97373000D01*
X75447000Y-97373000D01*
X75447000Y-97627000D01*
X75427000Y-97627000D01*
X75427000Y-98885000D01*
X76177000Y-98885000D01*
X76444760Y-98833611D01*
X76697349Y-98730972D01*
X76925061Y-98581028D01*
X77119145Y-98389540D01*
X77272142Y-98163868D01*
X77378173Y-97912684D01*
X77392318Y-97841185D01*
X77269657Y-97627002D01*
X77435000Y-97627002D01*
X77435000Y-97558058D01*
X78326858Y-98449916D01*
X78351436Y-98479864D01*
X78381384Y-98504442D01*
X78381387Y-98504445D01*
X78381447Y-98504494D01*
X78470967Y-98577962D01*
X78601720Y-98647850D01*
X78607340Y-98650854D01*
X78755313Y-98695742D01*
X78830226Y-98703120D01*
X78870639Y-98707100D01*
X78870644Y-98707100D01*
X78909200Y-98710897D01*
X78947755Y-98707100D01*
X82174947Y-98707100D01*
X82213500Y-98710897D01*
X82252053Y-98707100D01*
X82252061Y-98707100D01*
X82367387Y-98695741D01*
X82515360Y-98650854D01*
X82651733Y-98577962D01*
X82771264Y-98479864D01*
X82795847Y-98449910D01*
X83803115Y-97442643D01*
X83833064Y-97418064D01*
X83859440Y-97385926D01*
X83908385Y-97326286D01*
X83931162Y-97298533D01*
X84004054Y-97162160D01*
X84014266Y-97128495D01*
X84048942Y-97014187D01*
X84056320Y-96939274D01*
X84060300Y-96898861D01*
X84060300Y-96898856D01*
X84064097Y-96860300D01*
X84060300Y-96821745D01*
X84060300Y-96610300D01*
X84803499Y-96610300D01*
X84755495Y-96682144D01*
X84677474Y-96870502D01*
X84637700Y-97070461D01*
X84637700Y-97274339D01*
X84677474Y-97474298D01*
X84755495Y-97662656D01*
X84868763Y-97832174D01*
X85012926Y-97976337D01*
X85182444Y-98089605D01*
X85370802Y-98167626D01*
X85570761Y-98207400D01*
X85774639Y-98207400D01*
X85974598Y-98167626D01*
X86162956Y-98089605D01*
X86165059Y-98088200D01*
X89541689Y-98088200D01*
X89560626Y-98107137D01*
X89730144Y-98220405D01*
X89918502Y-98298426D01*
X90118461Y-98338200D01*
X90322339Y-98338200D01*
X90522298Y-98298426D01*
X90710656Y-98220405D01*
X90880174Y-98107137D01*
X91024337Y-97962974D01*
X91065336Y-97901615D01*
X91099144Y-97924205D01*
X91287502Y-98002226D01*
X91487461Y-98042000D01*
X91575229Y-98042000D01*
X91574428Y-98150000D01*
X91586688Y-98274482D01*
X91622998Y-98394180D01*
X91681963Y-98504494D01*
X91761315Y-98601185D01*
X91858006Y-98680537D01*
X91968320Y-98739502D01*
X92088018Y-98775812D01*
X92212500Y-98788072D01*
X92414250Y-98785000D01*
X92572998Y-98626252D01*
X92572998Y-98783776D01*
X92448966Y-98821401D01*
X92190986Y-98959294D01*
X91964866Y-99144866D01*
X91779294Y-99370986D01*
X91744799Y-99435523D01*
X91675178Y-99318645D01*
X91480269Y-99102412D01*
X91246920Y-98928359D01*
X90984099Y-98803175D01*
X90836890Y-98758524D01*
X90607000Y-98879845D01*
X90607000Y-100073000D01*
X90627000Y-100073000D01*
X90627000Y-100327000D01*
X90607000Y-100327000D01*
X90607000Y-100347000D01*
X90353000Y-100347000D01*
X90353000Y-100327000D01*
X90333000Y-100327000D01*
X90333000Y-100073000D01*
X90353000Y-100073000D01*
X90353000Y-98879845D01*
X90123110Y-98758524D01*
X89975901Y-98803175D01*
X89713080Y-98928359D01*
X89479731Y-99102412D01*
X89284822Y-99318645D01*
X89215201Y-99435523D01*
X89180706Y-99370986D01*
X88995134Y-99144866D01*
X88769014Y-98959294D01*
X88511034Y-98821401D01*
X88231111Y-98736487D01*
X88012950Y-98715000D01*
X87867050Y-98715000D01*
X87648889Y-98736487D01*
X87368966Y-98821401D01*
X87110986Y-98959294D01*
X86884866Y-99144866D01*
X86860393Y-99174687D01*
X86839502Y-99105820D01*
X86780537Y-98995506D01*
X86701185Y-98898815D01*
X86604494Y-98819463D01*
X86494180Y-98760498D01*
X86374482Y-98724188D01*
X86250000Y-98711928D01*
X84550000Y-98711928D01*
X84425518Y-98724188D01*
X84305820Y-98760498D01*
X84195506Y-98819463D01*
X84098815Y-98898815D01*
X84019463Y-98995506D01*
X83960498Y-99105820D01*
X83924188Y-99225518D01*
X83911928Y-99350000D01*
X83911928Y-101050000D01*
X83924188Y-101174482D01*
X83959230Y-101290000D01*
X73534721Y-101290000D01*
X73444336Y-101281138D01*
X73390786Y-101264970D01*
X73341403Y-101238712D01*
X73298053Y-101203357D01*
X73262401Y-101160261D01*
X73235799Y-101111063D01*
X73219258Y-101057625D01*
X73210000Y-100969545D01*
X73210000Y-97852902D01*
X73221827Y-97912684D01*
X73327858Y-98163868D01*
X73480855Y-98389540D01*
X73674939Y-98581028D01*
X73902651Y-98730972D01*
X74155240Y-98833611D01*
X74423000Y-98885000D01*
X75173000Y-98885000D01*
X75173000Y-97627000D01*
X75153000Y-97627000D01*
X75153000Y-97373000D01*
X75173000Y-97373000D01*
X75173000Y-96115000D01*
X74423000Y-96115000D01*
X74155240Y-96166389D01*
X73902651Y-96269028D01*
X73674939Y-96418972D01*
X73480855Y-96610460D01*
X73327858Y-96836132D01*
X73221827Y-97087316D01*
X73210000Y-97147098D01*
X73210000Y-87134435D01*
X76914040Y-87134435D01*
X77700000Y-87920395D01*
X78485960Y-87134435D01*
X78418980Y-86894344D01*
X78169952Y-86777244D01*
X77902865Y-86710977D01*
X77627983Y-86698090D01*
X77355867Y-86739078D01*
X77096977Y-86832364D01*
X76981020Y-86894344D01*
X76914040Y-87134435D01*
X73210000Y-87134435D01*
X73210000Y-86052902D01*
X73221827Y-86112684D01*
X73327858Y-86363868D01*
X73480855Y-86589540D01*
X73674939Y-86781028D01*
X73902651Y-86930972D01*
X74155240Y-87033611D01*
X74423000Y-87085000D01*
X75173000Y-87085000D01*
X75173000Y-85827000D01*
X75427000Y-85827000D01*
X75427000Y-87085000D01*
X76177000Y-87085000D01*
X76444760Y-87033611D01*
X76697349Y-86930972D01*
X76925061Y-86781028D01*
X77119145Y-86589540D01*
X77272142Y-86363868D01*
X77378173Y-86112684D01*
X77392318Y-86041185D01*
X77269656Y-85827000D01*
X75427000Y-85827000D01*
X75173000Y-85827000D01*
X75153000Y-85827000D01*
X75153000Y-85573000D01*
X75173000Y-85573000D01*
X75173000Y-84315000D01*
X75427000Y-84315000D01*
X75427000Y-85573000D01*
X77269656Y-85573000D01*
X77392318Y-85358815D01*
X77378173Y-85287316D01*
X77272142Y-85036132D01*
X77119145Y-84810460D01*
X76925061Y-84618972D01*
X76697349Y-84469028D01*
X76444760Y-84366389D01*
X76177000Y-84315000D01*
X75427000Y-84315000D01*
X75173000Y-84315000D01*
X74423000Y-84315000D01*
X74155240Y-84366389D01*
X73902651Y-84469028D01*
X73674939Y-84618972D01*
X73480855Y-84810460D01*
X73327858Y-85036132D01*
X73221827Y-85287316D01*
X73210000Y-85347098D01*
X73210000Y-82975000D01*
X76186928Y-82975000D01*
X76199188Y-83099482D01*
X76235498Y-83219180D01*
X76294463Y-83329494D01*
X76373815Y-83426185D01*
X76470506Y-83505537D01*
X76580820Y-83564502D01*
X76700518Y-83600812D01*
X76825000Y-83613072D01*
X76976750Y-83610000D01*
X77135500Y-83451250D01*
X77135500Y-82627000D01*
X76348750Y-82627000D01*
X76190000Y-82785750D01*
X76186928Y-82975000D01*
X73210000Y-82975000D01*
X73210000Y-82034722D01*
X73218863Y-81944335D01*
X73235030Y-81890786D01*
X73261288Y-81841403D01*
X73296641Y-81798055D01*
X73339740Y-81762400D01*
X73388937Y-81735799D01*
X73442375Y-81719258D01*
X73530455Y-81710000D01*
X76273353Y-81710000D01*
X76235498Y-81780820D01*
G36*
X114055665Y-81718863D02*
G01*
X114109214Y-81735030D01*
X114158597Y-81761288D01*
X114201945Y-81796641D01*
X114237600Y-81839740D01*
X114264201Y-81888937D01*
X114280742Y-81942375D01*
X114290001Y-82030464D01*
X114290000Y-100965279D01*
X114281138Y-101055664D01*
X114264970Y-101109214D01*
X114238712Y-101158597D01*
X114203357Y-101201947D01*
X114160261Y-101237599D01*
X114111063Y-101264201D01*
X114057625Y-101280742D01*
X113969545Y-101290000D01*
X105247109Y-101290000D01*
X105435178Y-101081355D01*
X105584157Y-100831252D01*
X105681481Y-100556891D01*
X105560814Y-100327000D01*
X104367000Y-100327000D01*
X104367000Y-100347000D01*
X104113000Y-100347000D01*
X104113000Y-100327000D01*
X104093000Y-100327000D01*
X104093000Y-100073000D01*
X104113000Y-100073000D01*
X104113000Y-100053000D01*
X104367000Y-100053000D01*
X104367000Y-100073000D01*
X105560814Y-100073000D01*
X105681481Y-99843109D01*
X105584157Y-99568748D01*
X105435178Y-99318645D01*
X105240269Y-99102412D01*
X105006920Y-98928359D01*
X104810894Y-98834990D01*
X105518533Y-98834990D01*
X107690658Y-101007116D01*
X107715236Y-101037064D01*
X107745184Y-101061642D01*
X107745187Y-101061645D01*
X107756991Y-101071332D01*
X107834767Y-101135162D01*
X107964467Y-101204487D01*
X107971140Y-101208054D01*
X108119112Y-101252941D01*
X108133490Y-101254357D01*
X108234439Y-101264300D01*
X108234446Y-101264300D01*
X108272999Y-101268097D01*
X108311552Y-101264300D01*
X110502747Y-101264300D01*
X110541300Y-101268097D01*
X110579853Y-101264300D01*
X110579861Y-101264300D01*
X110695187Y-101252941D01*
X110843160Y-101208054D01*
X110979533Y-101135162D01*
X111099064Y-101037064D01*
X111123647Y-101007110D01*
X112512316Y-99618442D01*
X112542264Y-99593864D01*
X112568700Y-99561653D01*
X112598747Y-99525040D01*
X112640362Y-99474333D01*
X112713254Y-99337960D01*
X112758141Y-99189987D01*
X112769500Y-99074661D01*
X112769500Y-99074654D01*
X112773297Y-99036101D01*
X112769500Y-98997548D01*
X112769500Y-90730056D01*
X112773297Y-90691500D01*
X112769500Y-90652940D01*
X112769500Y-90652939D01*
X112764163Y-90598750D01*
X112758142Y-90537613D01*
X112713254Y-90389640D01*
X112705393Y-90374933D01*
X112640362Y-90253267D01*
X112542264Y-90133736D01*
X112512311Y-90109154D01*
X109464049Y-87060892D01*
X109642824Y-87074902D01*
X110060451Y-87025334D01*
X110460383Y-86895243D01*
X110756038Y-86737214D01*
X110912048Y-86421653D01*
X109600000Y-85109605D01*
X109585858Y-85123748D01*
X109406253Y-84944143D01*
X109420395Y-84930000D01*
X109779605Y-84930000D01*
X111091653Y-86242048D01*
X111407214Y-86086038D01*
X111598020Y-85711255D01*
X111712044Y-85306449D01*
X111744902Y-84887176D01*
X111695334Y-84469549D01*
X111565243Y-84069617D01*
X111407214Y-83773962D01*
X111091653Y-83617952D01*
X109779605Y-84930000D01*
X109420395Y-84930000D01*
X108108347Y-83617952D01*
X107792786Y-83773962D01*
X107601980Y-84148745D01*
X107487956Y-84553551D01*
X107455098Y-84972824D01*
X107504666Y-85390451D01*
X107557540Y-85553000D01*
X106274811Y-85553000D01*
X106255874Y-85534063D01*
X106086356Y-85420795D01*
X105897998Y-85342774D01*
X105698039Y-85303000D01*
X105494161Y-85303000D01*
X105294202Y-85342774D01*
X105105844Y-85420795D01*
X104936326Y-85534063D01*
X104806623Y-85663766D01*
X102581204Y-83438347D01*
X108287952Y-83438347D01*
X109600000Y-84750395D01*
X110912048Y-83438347D01*
X110756038Y-83122786D01*
X110381255Y-82931980D01*
X109976449Y-82817956D01*
X109557176Y-82785098D01*
X109139549Y-82834666D01*
X108739617Y-82964757D01*
X108443962Y-83122786D01*
X108287952Y-83438347D01*
X102581204Y-83438347D01*
X102549300Y-83406443D01*
X102549300Y-83379661D01*
X102509526Y-83179702D01*
X102431505Y-82991344D01*
X102318237Y-82821826D01*
X102174074Y-82677663D01*
X102004556Y-82564395D01*
X101816198Y-82486374D01*
X101616239Y-82446600D01*
X101412361Y-82446600D01*
X101212402Y-82486374D01*
X101024044Y-82564395D01*
X100854526Y-82677663D01*
X100710363Y-82821826D01*
X100597095Y-82991344D01*
X100519074Y-83179702D01*
X100479300Y-83379661D01*
X100479300Y-83406443D01*
X98910049Y-84975694D01*
X98910000Y-84973250D01*
X98751250Y-84814500D01*
X97927000Y-84814500D01*
X97927000Y-84834500D01*
X97673000Y-84834500D01*
X97673000Y-84814500D01*
X96848750Y-84814500D01*
X96736250Y-84927000D01*
X96027000Y-84927000D01*
X96027000Y-84947000D01*
X95773000Y-84947000D01*
X95773000Y-84927000D01*
X95753000Y-84927000D01*
X95753000Y-84673000D01*
X95773000Y-84673000D01*
X95773000Y-84653000D01*
X96027000Y-84653000D01*
X96027000Y-84673000D01*
X97076250Y-84673000D01*
X97188750Y-84560500D01*
X97673000Y-84560500D01*
X97673000Y-84540500D01*
X97927000Y-84540500D01*
X97927000Y-84560500D01*
X98751250Y-84560500D01*
X98910000Y-84401750D01*
X98913072Y-84250000D01*
X98900812Y-84125518D01*
X98864502Y-84005820D01*
X98805537Y-83895506D01*
X98750900Y-83828930D01*
X98768671Y-83807275D01*
X98847850Y-83659142D01*
X98896608Y-83498408D01*
X98913072Y-83331250D01*
X98913072Y-82893750D01*
X98896608Y-82726592D01*
X98847850Y-82565858D01*
X98768671Y-82417725D01*
X98662115Y-82287885D01*
X98532275Y-82181329D01*
X98384142Y-82102150D01*
X98223408Y-82053392D01*
X98056250Y-82036928D01*
X97543750Y-82036928D01*
X97376592Y-82053392D01*
X97215858Y-82102150D01*
X97205272Y-82107808D01*
X97189502Y-82055820D01*
X97130537Y-81945506D01*
X97051185Y-81848815D01*
X96954494Y-81769463D01*
X96844180Y-81710498D01*
X96842538Y-81710000D01*
X113965278Y-81710000D01*
X114055665Y-81718863D01*
X114055665Y-81718863D01*
G37*
X114055665Y-81718863D02*
X114109214Y-81735030D01*
X114158597Y-81761288D01*
X114201945Y-81796641D01*
X114237600Y-81839740D01*
X114264201Y-81888937D01*
X114280742Y-81942375D01*
X114290001Y-82030464D01*
X114290000Y-100965279D01*
X114281138Y-101055664D01*
X114264970Y-101109214D01*
X114238712Y-101158597D01*
X114203357Y-101201947D01*
X114160261Y-101237599D01*
X114111063Y-101264201D01*
X114057625Y-101280742D01*
X113969545Y-101290000D01*
X105247109Y-101290000D01*
X105435178Y-101081355D01*
X105584157Y-100831252D01*
X105681481Y-100556891D01*
X105560814Y-100327000D01*
X104367000Y-100327000D01*
X104367000Y-100347000D01*
X104113000Y-100347000D01*
X104113000Y-100327000D01*
X104093000Y-100327000D01*
X104093000Y-100073000D01*
X104113000Y-100073000D01*
X104113000Y-100053000D01*
X104367000Y-100053000D01*
X104367000Y-100073000D01*
X105560814Y-100073000D01*
X105681481Y-99843109D01*
X105584157Y-99568748D01*
X105435178Y-99318645D01*
X105240269Y-99102412D01*
X105006920Y-98928359D01*
X104810894Y-98834990D01*
X105518533Y-98834990D01*
X107690658Y-101007116D01*
X107715236Y-101037064D01*
X107745184Y-101061642D01*
X107745187Y-101061645D01*
X107756991Y-101071332D01*
X107834767Y-101135162D01*
X107964467Y-101204487D01*
X107971140Y-101208054D01*
X108119112Y-101252941D01*
X108133490Y-101254357D01*
X108234439Y-101264300D01*
X108234446Y-101264300D01*
X108272999Y-101268097D01*
X108311552Y-101264300D01*
X110502747Y-101264300D01*
X110541300Y-101268097D01*
X110579853Y-101264300D01*
X110579861Y-101264300D01*
X110695187Y-101252941D01*
X110843160Y-101208054D01*
X110979533Y-101135162D01*
X111099064Y-101037064D01*
X111123647Y-101007110D01*
X112512316Y-99618442D01*
X112542264Y-99593864D01*
X112568700Y-99561653D01*
X112598747Y-99525040D01*
X112640362Y-99474333D01*
X112713254Y-99337960D01*
X112758141Y-99189987D01*
X112769500Y-99074661D01*
X112769500Y-99074654D01*
X112773297Y-99036101D01*
X112769500Y-98997548D01*
X112769500Y-90730056D01*
X112773297Y-90691500D01*
X112769500Y-90652940D01*
X112769500Y-90652939D01*
X112764163Y-90598750D01*
X112758142Y-90537613D01*
X112713254Y-90389640D01*
X112705393Y-90374933D01*
X112640362Y-90253267D01*
X112542264Y-90133736D01*
X112512311Y-90109154D01*
X109464049Y-87060892D01*
X109642824Y-87074902D01*
X110060451Y-87025334D01*
X110460383Y-86895243D01*
X110756038Y-86737214D01*
X110912048Y-86421653D01*
X109600000Y-85109605D01*
X109585858Y-85123748D01*
X109406253Y-84944143D01*
X109420395Y-84930000D01*
X109779605Y-84930000D01*
X111091653Y-86242048D01*
X111407214Y-86086038D01*
X111598020Y-85711255D01*
X111712044Y-85306449D01*
X111744902Y-84887176D01*
X111695334Y-84469549D01*
X111565243Y-84069617D01*
X111407214Y-83773962D01*
X111091653Y-83617952D01*
X109779605Y-84930000D01*
X109420395Y-84930000D01*
X108108347Y-83617952D01*
X107792786Y-83773962D01*
X107601980Y-84148745D01*
X107487956Y-84553551D01*
X107455098Y-84972824D01*
X107504666Y-85390451D01*
X107557540Y-85553000D01*
X106274811Y-85553000D01*
X106255874Y-85534063D01*
X106086356Y-85420795D01*
X105897998Y-85342774D01*
X105698039Y-85303000D01*
X105494161Y-85303000D01*
X105294202Y-85342774D01*
X105105844Y-85420795D01*
X104936326Y-85534063D01*
X104806623Y-85663766D01*
X102581204Y-83438347D01*
X108287952Y-83438347D01*
X109600000Y-84750395D01*
X110912048Y-83438347D01*
X110756038Y-83122786D01*
X110381255Y-82931980D01*
X109976449Y-82817956D01*
X109557176Y-82785098D01*
X109139549Y-82834666D01*
X108739617Y-82964757D01*
X108443962Y-83122786D01*
X108287952Y-83438347D01*
X102581204Y-83438347D01*
X102549300Y-83406443D01*
X102549300Y-83379661D01*
X102509526Y-83179702D01*
X102431505Y-82991344D01*
X102318237Y-82821826D01*
X102174074Y-82677663D01*
X102004556Y-82564395D01*
X101816198Y-82486374D01*
X101616239Y-82446600D01*
X101412361Y-82446600D01*
X101212402Y-82486374D01*
X101024044Y-82564395D01*
X100854526Y-82677663D01*
X100710363Y-82821826D01*
X100597095Y-82991344D01*
X100519074Y-83179702D01*
X100479300Y-83379661D01*
X100479300Y-83406443D01*
X98910049Y-84975694D01*
X98910000Y-84973250D01*
X98751250Y-84814500D01*
X97927000Y-84814500D01*
X97927000Y-84834500D01*
X97673000Y-84834500D01*
X97673000Y-84814500D01*
X96848750Y-84814500D01*
X96736250Y-84927000D01*
X96027000Y-84927000D01*
X96027000Y-84947000D01*
X95773000Y-84947000D01*
X95773000Y-84927000D01*
X95753000Y-84927000D01*
X95753000Y-84673000D01*
X95773000Y-84673000D01*
X95773000Y-84653000D01*
X96027000Y-84653000D01*
X96027000Y-84673000D01*
X97076250Y-84673000D01*
X97188750Y-84560500D01*
X97673000Y-84560500D01*
X97673000Y-84540500D01*
X97927000Y-84540500D01*
X97927000Y-84560500D01*
X98751250Y-84560500D01*
X98910000Y-84401750D01*
X98913072Y-84250000D01*
X98900812Y-84125518D01*
X98864502Y-84005820D01*
X98805537Y-83895506D01*
X98750900Y-83828930D01*
X98768671Y-83807275D01*
X98847850Y-83659142D01*
X98896608Y-83498408D01*
X98913072Y-83331250D01*
X98913072Y-82893750D01*
X98896608Y-82726592D01*
X98847850Y-82565858D01*
X98768671Y-82417725D01*
X98662115Y-82287885D01*
X98532275Y-82181329D01*
X98384142Y-82102150D01*
X98223408Y-82053392D01*
X98056250Y-82036928D01*
X97543750Y-82036928D01*
X97376592Y-82053392D01*
X97215858Y-82102150D01*
X97205272Y-82107808D01*
X97189502Y-82055820D01*
X97130537Y-81945506D01*
X97051185Y-81848815D01*
X96954494Y-81769463D01*
X96844180Y-81710498D01*
X96842538Y-81710000D01*
X113965278Y-81710000D01*
X114055665Y-81718863D01*
G36*
X104538758Y-87616216D02*
G01*
X104563336Y-87646164D01*
X104593284Y-87670742D01*
X104593287Y-87670745D01*
X104602827Y-87678574D01*
X104682867Y-87744262D01*
X104819240Y-87817154D01*
X104922245Y-87848400D01*
X104967212Y-87862041D01*
X104981590Y-87863457D01*
X105082539Y-87873400D01*
X105082546Y-87873400D01*
X105121099Y-87877197D01*
X105159652Y-87873400D01*
X105607402Y-87873400D01*
X105598090Y-88072017D01*
X105639078Y-88344133D01*
X105732364Y-88603023D01*
X105794344Y-88718980D01*
X106034435Y-88785960D01*
X106820395Y-88000000D01*
X106806253Y-87985858D01*
X106985858Y-87806253D01*
X107000000Y-87820395D01*
X107014143Y-87806253D01*
X107193748Y-87985858D01*
X107179605Y-88000000D01*
X107965565Y-88785960D01*
X108196639Y-88721496D01*
X110699100Y-91223957D01*
X110699100Y-93367500D01*
X110561461Y-93367500D01*
X110361502Y-93407274D01*
X110173144Y-93485295D01*
X110003626Y-93598563D01*
X109984689Y-93617500D01*
X107842075Y-93617500D01*
X107890535Y-93585120D01*
X108085120Y-93390535D01*
X108238005Y-93161727D01*
X108343314Y-92907490D01*
X108397000Y-92637592D01*
X108397000Y-92362408D01*
X108343314Y-92092510D01*
X108238005Y-91838273D01*
X108085120Y-91609465D01*
X107975655Y-91500000D01*
X108085120Y-91390535D01*
X108238005Y-91161727D01*
X108343314Y-90907490D01*
X108397000Y-90637592D01*
X108397000Y-90362408D01*
X108343314Y-90092510D01*
X108238005Y-89838273D01*
X108085120Y-89609465D01*
X107890535Y-89414880D01*
X107661727Y-89261995D01*
X107634599Y-89250758D01*
X107718980Y-89205656D01*
X107785960Y-88965565D01*
X107000000Y-88179605D01*
X106214040Y-88965565D01*
X106281020Y-89205656D01*
X106371533Y-89248218D01*
X106338273Y-89261995D01*
X106109465Y-89414880D01*
X105914880Y-89609465D01*
X105761995Y-89838273D01*
X105656686Y-90092510D01*
X105603000Y-90362408D01*
X105603000Y-90637592D01*
X105656686Y-90907490D01*
X105761995Y-91161727D01*
X105914880Y-91390535D01*
X106024345Y-91500000D01*
X105914880Y-91609465D01*
X105761995Y-91838273D01*
X105656686Y-92092510D01*
X105603000Y-92362408D01*
X105603000Y-92637592D01*
X105656686Y-92907490D01*
X105761995Y-93161727D01*
X105914880Y-93390535D01*
X106109465Y-93585120D01*
X106338273Y-93738005D01*
X106367231Y-93750000D01*
X106338273Y-93761995D01*
X106109465Y-93914880D01*
X105914880Y-94109465D01*
X105761995Y-94338273D01*
X105656686Y-94592510D01*
X105603000Y-94862408D01*
X105603000Y-95137592D01*
X105656686Y-95407490D01*
X105761995Y-95661727D01*
X105914880Y-95890535D01*
X106109465Y-96085120D01*
X106338273Y-96238005D01*
X106592510Y-96343314D01*
X106862408Y-96397000D01*
X107137592Y-96397000D01*
X107407490Y-96343314D01*
X107661727Y-96238005D01*
X107890535Y-96085120D01*
X108085120Y-95890535D01*
X108238005Y-95661727D01*
X108343314Y-95407490D01*
X108387073Y-95187500D01*
X109984689Y-95187500D01*
X110003626Y-95206437D01*
X110173144Y-95319705D01*
X110361502Y-95397726D01*
X110561461Y-95437500D01*
X110699101Y-95437500D01*
X110699101Y-96233799D01*
X110381255Y-96071980D01*
X109976449Y-95957956D01*
X109557176Y-95925098D01*
X109139549Y-95974666D01*
X108739617Y-96104757D01*
X108443962Y-96262786D01*
X108287952Y-96578347D01*
X109600000Y-97890395D01*
X109614143Y-97876253D01*
X109793748Y-98055858D01*
X109779605Y-98070000D01*
X109793748Y-98084143D01*
X109614143Y-98263748D01*
X109600000Y-98249605D01*
X109585858Y-98263748D01*
X109406253Y-98084143D01*
X109420395Y-98070000D01*
X108108347Y-96757952D01*
X107792786Y-96913962D01*
X107601980Y-97288745D01*
X107512164Y-97607607D01*
X106672147Y-96767590D01*
X106647564Y-96737636D01*
X106528033Y-96639538D01*
X106391660Y-96566646D01*
X106243687Y-96521759D01*
X106128361Y-96510400D01*
X106128353Y-96510400D01*
X106089800Y-96506603D01*
X106051247Y-96510400D01*
X100195156Y-96510400D01*
X100156600Y-96506603D01*
X100118044Y-96510400D01*
X100118039Y-96510400D01*
X100077626Y-96514380D01*
X100002713Y-96521758D01*
X99881788Y-96558441D01*
X99854740Y-96566646D01*
X99718367Y-96639538D01*
X99598836Y-96737636D01*
X99574253Y-96767590D01*
X99487728Y-96854115D01*
X99443037Y-96770506D01*
X99363685Y-96673815D01*
X99266994Y-96594463D01*
X99156680Y-96535498D01*
X99036982Y-96499188D01*
X98912500Y-96486928D01*
X98760750Y-96490000D01*
X98602000Y-96648750D01*
X98602000Y-97473000D01*
X98622000Y-97473000D01*
X98622000Y-97719843D01*
X98614843Y-97727000D01*
X98602000Y-97727000D01*
X98602000Y-97739843D01*
X98594843Y-97747000D01*
X98348000Y-97747000D01*
X98348000Y-97727000D01*
X98328000Y-97727000D01*
X98328000Y-97473000D01*
X98348000Y-97473000D01*
X98348000Y-96648750D01*
X98189250Y-96490000D01*
X98037500Y-96486928D01*
X97913018Y-96499188D01*
X97793320Y-96535498D01*
X97683006Y-96594463D01*
X97616430Y-96649100D01*
X97594775Y-96631329D01*
X97446642Y-96552150D01*
X97335000Y-96518284D01*
X97335000Y-96113072D01*
X97425000Y-96113072D01*
X97525000Y-96103223D01*
X97625000Y-96113072D01*
X98075000Y-96113072D01*
X98175000Y-96103223D01*
X98275000Y-96113072D01*
X98725000Y-96113072D01*
X98827838Y-96102944D01*
X98893250Y-96110000D01*
X98925497Y-96077753D01*
X98969180Y-96064502D01*
X99079494Y-96005537D01*
X99150000Y-95947674D01*
X99220506Y-96005537D01*
X99330820Y-96064502D01*
X99374503Y-96077753D01*
X99406750Y-96110000D01*
X99472162Y-96102944D01*
X99575000Y-96113072D01*
X100025000Y-96113072D01*
X100149482Y-96100812D01*
X100269180Y-96064502D01*
X100379494Y-96005537D01*
X100476185Y-95926185D01*
X100555537Y-95829494D01*
X100614502Y-95719180D01*
X100650812Y-95599482D01*
X100663072Y-95475000D01*
X100663072Y-93725000D01*
X100653818Y-93631039D01*
X101343917Y-92940941D01*
X101373864Y-92916364D01*
X101398784Y-92886000D01*
X101444944Y-92829754D01*
X101471962Y-92796833D01*
X101544854Y-92660460D01*
X101589741Y-92512487D01*
X101601100Y-92397161D01*
X101601100Y-92397154D01*
X101604897Y-92358601D01*
X101601100Y-92320048D01*
X101601100Y-91363072D01*
X102056250Y-91363072D01*
X102223408Y-91346608D01*
X102267600Y-91333202D01*
X102267600Y-93264047D01*
X102263803Y-93302600D01*
X102267600Y-93341153D01*
X102267600Y-93341160D01*
X102278959Y-93456486D01*
X102323846Y-93604459D01*
X102396738Y-93740832D01*
X102494836Y-93860364D01*
X102524790Y-93884947D01*
X102886928Y-94247085D01*
X102886928Y-94468750D01*
X102903392Y-94635908D01*
X102952150Y-94796642D01*
X103031329Y-94944775D01*
X103137885Y-95074615D01*
X103267725Y-95181171D01*
X103415858Y-95260350D01*
X103576592Y-95309108D01*
X103743750Y-95325572D01*
X104256250Y-95325572D01*
X104423408Y-95309108D01*
X104584142Y-95260350D01*
X104732275Y-95181171D01*
X104862115Y-95074615D01*
X104968671Y-94944775D01*
X105047850Y-94796642D01*
X105096608Y-94635908D01*
X105113072Y-94468750D01*
X105113072Y-94031250D01*
X105096608Y-93864092D01*
X105047850Y-93703358D01*
X104968671Y-93555225D01*
X104892574Y-93462500D01*
X104968671Y-93369775D01*
X105047850Y-93221642D01*
X105096608Y-93060908D01*
X105113072Y-92893750D01*
X105113072Y-92456250D01*
X105096608Y-92289092D01*
X105047850Y-92128358D01*
X104968671Y-91980225D01*
X104862115Y-91850385D01*
X104831183Y-91825000D01*
X104862115Y-91799615D01*
X104968671Y-91669775D01*
X105047850Y-91521642D01*
X105096608Y-91360908D01*
X105113072Y-91193750D01*
X105113072Y-90756250D01*
X105096608Y-90589092D01*
X105047850Y-90428358D01*
X104968671Y-90280225D01*
X104950900Y-90258570D01*
X105005537Y-90191994D01*
X105064502Y-90081680D01*
X105100812Y-89961982D01*
X105113072Y-89837500D01*
X105110000Y-89685750D01*
X104951250Y-89527000D01*
X104127000Y-89527000D01*
X104127000Y-89547000D01*
X103873000Y-89547000D01*
X103873000Y-89527000D01*
X103853000Y-89527000D01*
X103853000Y-89337111D01*
X103856537Y-89333574D01*
X103910375Y-89253000D01*
X104127000Y-89253000D01*
X104127000Y-89273000D01*
X104951250Y-89273000D01*
X105110000Y-89114250D01*
X105113072Y-88962500D01*
X105100812Y-88838018D01*
X105064502Y-88718320D01*
X105005537Y-88608006D01*
X104926185Y-88511315D01*
X104829494Y-88431963D01*
X104719180Y-88372998D01*
X104599482Y-88336688D01*
X104475000Y-88324428D01*
X104285750Y-88327500D01*
X104127002Y-88486248D01*
X104127002Y-88327500D01*
X104029434Y-88327500D01*
X103969805Y-88183544D01*
X103856537Y-88014026D01*
X103712374Y-87869863D01*
X103542856Y-87756595D01*
X103354498Y-87678574D01*
X103154539Y-87638800D01*
X102950661Y-87638800D01*
X102750702Y-87678574D01*
X102562344Y-87756595D01*
X102528415Y-87779266D01*
X102384142Y-87702150D01*
X102223408Y-87653392D01*
X102056250Y-87636928D01*
X101834585Y-87636928D01*
X101667947Y-87470289D01*
X101643364Y-87440336D01*
X101523833Y-87342238D01*
X101387460Y-87269346D01*
X101239487Y-87224459D01*
X101124161Y-87213100D01*
X101124153Y-87213100D01*
X101085600Y-87209303D01*
X101047047Y-87213100D01*
X100693215Y-87213100D01*
X100677162Y-87183067D01*
X100663072Y-87165899D01*
X100663072Y-86525000D01*
X100650812Y-86400518D01*
X100614502Y-86280820D01*
X100555537Y-86170506D01*
X100476185Y-86073815D01*
X100379494Y-85994463D01*
X100269180Y-85935498D01*
X100193512Y-85912545D01*
X101514300Y-84591757D01*
X104538758Y-87616216D01*
X104538758Y-87616216D01*
G37*
X104538758Y-87616216D02*
X104563336Y-87646164D01*
X104593284Y-87670742D01*
X104593287Y-87670745D01*
X104602827Y-87678574D01*
X104682867Y-87744262D01*
X104819240Y-87817154D01*
X104922245Y-87848400D01*
X104967212Y-87862041D01*
X104981590Y-87863457D01*
X105082539Y-87873400D01*
X105082546Y-87873400D01*
X105121099Y-87877197D01*
X105159652Y-87873400D01*
X105607402Y-87873400D01*
X105598090Y-88072017D01*
X105639078Y-88344133D01*
X105732364Y-88603023D01*
X105794344Y-88718980D01*
X106034435Y-88785960D01*
X106820395Y-88000000D01*
X106806253Y-87985858D01*
X106985858Y-87806253D01*
X107000000Y-87820395D01*
X107014143Y-87806253D01*
X107193748Y-87985858D01*
X107179605Y-88000000D01*
X107965565Y-88785960D01*
X108196639Y-88721496D01*
X110699100Y-91223957D01*
X110699100Y-93367500D01*
X110561461Y-93367500D01*
X110361502Y-93407274D01*
X110173144Y-93485295D01*
X110003626Y-93598563D01*
X109984689Y-93617500D01*
X107842075Y-93617500D01*
X107890535Y-93585120D01*
X108085120Y-93390535D01*
X108238005Y-93161727D01*
X108343314Y-92907490D01*
X108397000Y-92637592D01*
X108397000Y-92362408D01*
X108343314Y-92092510D01*
X108238005Y-91838273D01*
X108085120Y-91609465D01*
X107975655Y-91500000D01*
X108085120Y-91390535D01*
X108238005Y-91161727D01*
X108343314Y-90907490D01*
X108397000Y-90637592D01*
X108397000Y-90362408D01*
X108343314Y-90092510D01*
X108238005Y-89838273D01*
X108085120Y-89609465D01*
X107890535Y-89414880D01*
X107661727Y-89261995D01*
X107634599Y-89250758D01*
X107718980Y-89205656D01*
X107785960Y-88965565D01*
X107000000Y-88179605D01*
X106214040Y-88965565D01*
X106281020Y-89205656D01*
X106371533Y-89248218D01*
X106338273Y-89261995D01*
X106109465Y-89414880D01*
X105914880Y-89609465D01*
X105761995Y-89838273D01*
X105656686Y-90092510D01*
X105603000Y-90362408D01*
X105603000Y-90637592D01*
X105656686Y-90907490D01*
X105761995Y-91161727D01*
X105914880Y-91390535D01*
X106024345Y-91500000D01*
X105914880Y-91609465D01*
X105761995Y-91838273D01*
X105656686Y-92092510D01*
X105603000Y-92362408D01*
X105603000Y-92637592D01*
X105656686Y-92907490D01*
X105761995Y-93161727D01*
X105914880Y-93390535D01*
X106109465Y-93585120D01*
X106338273Y-93738005D01*
X106367231Y-93750000D01*
X106338273Y-93761995D01*
X106109465Y-93914880D01*
X105914880Y-94109465D01*
X105761995Y-94338273D01*
X105656686Y-94592510D01*
X105603000Y-94862408D01*
X105603000Y-95137592D01*
X105656686Y-95407490D01*
X105761995Y-95661727D01*
X105914880Y-95890535D01*
X106109465Y-96085120D01*
X106338273Y-96238005D01*
X106592510Y-96343314D01*
X106862408Y-96397000D01*
X107137592Y-96397000D01*
X107407490Y-96343314D01*
X107661727Y-96238005D01*
X107890535Y-96085120D01*
X108085120Y-95890535D01*
X108238005Y-95661727D01*
X108343314Y-95407490D01*
X108387073Y-95187500D01*
X109984689Y-95187500D01*
X110003626Y-95206437D01*
X110173144Y-95319705D01*
X110361502Y-95397726D01*
X110561461Y-95437500D01*
X110699101Y-95437500D01*
X110699101Y-96233799D01*
X110381255Y-96071980D01*
X109976449Y-95957956D01*
X109557176Y-95925098D01*
X109139549Y-95974666D01*
X108739617Y-96104757D01*
X108443962Y-96262786D01*
X108287952Y-96578347D01*
X109600000Y-97890395D01*
X109614143Y-97876253D01*
X109793748Y-98055858D01*
X109779605Y-98070000D01*
X109793748Y-98084143D01*
X109614143Y-98263748D01*
X109600000Y-98249605D01*
X109585858Y-98263748D01*
X109406253Y-98084143D01*
X109420395Y-98070000D01*
X108108347Y-96757952D01*
X107792786Y-96913962D01*
X107601980Y-97288745D01*
X107512164Y-97607607D01*
X106672147Y-96767590D01*
X106647564Y-96737636D01*
X106528033Y-96639538D01*
X106391660Y-96566646D01*
X106243687Y-96521759D01*
X106128361Y-96510400D01*
X106128353Y-96510400D01*
X106089800Y-96506603D01*
X106051247Y-96510400D01*
X100195156Y-96510400D01*
X100156600Y-96506603D01*
X100118044Y-96510400D01*
X100118039Y-96510400D01*
X100077626Y-96514380D01*
X100002713Y-96521758D01*
X99881788Y-96558441D01*
X99854740Y-96566646D01*
X99718367Y-96639538D01*
X99598836Y-96737636D01*
X99574253Y-96767590D01*
X99487728Y-96854115D01*
X99443037Y-96770506D01*
X99363685Y-96673815D01*
X99266994Y-96594463D01*
X99156680Y-96535498D01*
X99036982Y-96499188D01*
X98912500Y-96486928D01*
X98760750Y-96490000D01*
X98602000Y-96648750D01*
X98602000Y-97473000D01*
X98622000Y-97473000D01*
X98622000Y-97719843D01*
X98614843Y-97727000D01*
X98602000Y-97727000D01*
X98602000Y-97739843D01*
X98594843Y-97747000D01*
X98348000Y-97747000D01*
X98348000Y-97727000D01*
X98328000Y-97727000D01*
X98328000Y-97473000D01*
X98348000Y-97473000D01*
X98348000Y-96648750D01*
X98189250Y-96490000D01*
X98037500Y-96486928D01*
X97913018Y-96499188D01*
X97793320Y-96535498D01*
X97683006Y-96594463D01*
X97616430Y-96649100D01*
X97594775Y-96631329D01*
X97446642Y-96552150D01*
X97335000Y-96518284D01*
X97335000Y-96113072D01*
X97425000Y-96113072D01*
X97525000Y-96103223D01*
X97625000Y-96113072D01*
X98075000Y-96113072D01*
X98175000Y-96103223D01*
X98275000Y-96113072D01*
X98725000Y-96113072D01*
X98827838Y-96102944D01*
X98893250Y-96110000D01*
X98925497Y-96077753D01*
X98969180Y-96064502D01*
X99079494Y-96005537D01*
X99150000Y-95947674D01*
X99220506Y-96005537D01*
X99330820Y-96064502D01*
X99374503Y-96077753D01*
X99406750Y-96110000D01*
X99472162Y-96102944D01*
X99575000Y-96113072D01*
X100025000Y-96113072D01*
X100149482Y-96100812D01*
X100269180Y-96064502D01*
X100379494Y-96005537D01*
X100476185Y-95926185D01*
X100555537Y-95829494D01*
X100614502Y-95719180D01*
X100650812Y-95599482D01*
X100663072Y-95475000D01*
X100663072Y-93725000D01*
X100653818Y-93631039D01*
X101343917Y-92940941D01*
X101373864Y-92916364D01*
X101398784Y-92886000D01*
X101444944Y-92829754D01*
X101471962Y-92796833D01*
X101544854Y-92660460D01*
X101589741Y-92512487D01*
X101601100Y-92397161D01*
X101601100Y-92397154D01*
X101604897Y-92358601D01*
X101601100Y-92320048D01*
X101601100Y-91363072D01*
X102056250Y-91363072D01*
X102223408Y-91346608D01*
X102267600Y-91333202D01*
X102267600Y-93264047D01*
X102263803Y-93302600D01*
X102267600Y-93341153D01*
X102267600Y-93341160D01*
X102278959Y-93456486D01*
X102323846Y-93604459D01*
X102396738Y-93740832D01*
X102494836Y-93860364D01*
X102524790Y-93884947D01*
X102886928Y-94247085D01*
X102886928Y-94468750D01*
X102903392Y-94635908D01*
X102952150Y-94796642D01*
X103031329Y-94944775D01*
X103137885Y-95074615D01*
X103267725Y-95181171D01*
X103415858Y-95260350D01*
X103576592Y-95309108D01*
X103743750Y-95325572D01*
X104256250Y-95325572D01*
X104423408Y-95309108D01*
X104584142Y-95260350D01*
X104732275Y-95181171D01*
X104862115Y-95074615D01*
X104968671Y-94944775D01*
X105047850Y-94796642D01*
X105096608Y-94635908D01*
X105113072Y-94468750D01*
X105113072Y-94031250D01*
X105096608Y-93864092D01*
X105047850Y-93703358D01*
X104968671Y-93555225D01*
X104892574Y-93462500D01*
X104968671Y-93369775D01*
X105047850Y-93221642D01*
X105096608Y-93060908D01*
X105113072Y-92893750D01*
X105113072Y-92456250D01*
X105096608Y-92289092D01*
X105047850Y-92128358D01*
X104968671Y-91980225D01*
X104862115Y-91850385D01*
X104831183Y-91825000D01*
X104862115Y-91799615D01*
X104968671Y-91669775D01*
X105047850Y-91521642D01*
X105096608Y-91360908D01*
X105113072Y-91193750D01*
X105113072Y-90756250D01*
X105096608Y-90589092D01*
X105047850Y-90428358D01*
X104968671Y-90280225D01*
X104950900Y-90258570D01*
X105005537Y-90191994D01*
X105064502Y-90081680D01*
X105100812Y-89961982D01*
X105113072Y-89837500D01*
X105110000Y-89685750D01*
X104951250Y-89527000D01*
X104127000Y-89527000D01*
X104127000Y-89547000D01*
X103873000Y-89547000D01*
X103873000Y-89527000D01*
X103853000Y-89527000D01*
X103853000Y-89337111D01*
X103856537Y-89333574D01*
X103910375Y-89253000D01*
X104127000Y-89253000D01*
X104127000Y-89273000D01*
X104951250Y-89273000D01*
X105110000Y-89114250D01*
X105113072Y-88962500D01*
X105100812Y-88838018D01*
X105064502Y-88718320D01*
X105005537Y-88608006D01*
X104926185Y-88511315D01*
X104829494Y-88431963D01*
X104719180Y-88372998D01*
X104599482Y-88336688D01*
X104475000Y-88324428D01*
X104285750Y-88327500D01*
X104127002Y-88486248D01*
X104127002Y-88327500D01*
X104029434Y-88327500D01*
X103969805Y-88183544D01*
X103856537Y-88014026D01*
X103712374Y-87869863D01*
X103542856Y-87756595D01*
X103354498Y-87678574D01*
X103154539Y-87638800D01*
X102950661Y-87638800D01*
X102750702Y-87678574D01*
X102562344Y-87756595D01*
X102528415Y-87779266D01*
X102384142Y-87702150D01*
X102223408Y-87653392D01*
X102056250Y-87636928D01*
X101834585Y-87636928D01*
X101667947Y-87470289D01*
X101643364Y-87440336D01*
X101523833Y-87342238D01*
X101387460Y-87269346D01*
X101239487Y-87224459D01*
X101124161Y-87213100D01*
X101124153Y-87213100D01*
X101085600Y-87209303D01*
X101047047Y-87213100D01*
X100693215Y-87213100D01*
X100677162Y-87183067D01*
X100663072Y-87165899D01*
X100663072Y-86525000D01*
X100650812Y-86400518D01*
X100614502Y-86280820D01*
X100555537Y-86170506D01*
X100476185Y-86073815D01*
X100379494Y-85994463D01*
X100269180Y-85935498D01*
X100193512Y-85912545D01*
X101514300Y-84591757D01*
X104538758Y-87616216D01*
G36*
X92827000Y-97323000D02*
G01*
X92847000Y-97323000D01*
X92847000Y-97577000D01*
X92827000Y-97577000D01*
X92827000Y-97597000D01*
X92573000Y-97597000D01*
X92573000Y-97577000D01*
X92553000Y-97577000D01*
X92553000Y-97385249D01*
X92584626Y-97308898D01*
X92585799Y-97303000D01*
X92827000Y-97303000D01*
X92827000Y-97323000D01*
X92827000Y-97323000D01*
G37*
X92827000Y-97323000D02*
X92847000Y-97323000D01*
X92847000Y-97577000D01*
X92827000Y-97577000D01*
X92827000Y-97597000D01*
X92573000Y-97597000D01*
X92573000Y-97577000D01*
X92553000Y-97577000D01*
X92553000Y-97385249D01*
X92584626Y-97308898D01*
X92585799Y-97303000D01*
X92827000Y-97303000D01*
X92827000Y-97323000D01*
G36*
X89143750Y-91375572D02*
G01*
X89490011Y-91375572D01*
X89573313Y-91400842D01*
X89648226Y-91408220D01*
X89688639Y-91412200D01*
X89688644Y-91412200D01*
X89727200Y-91415997D01*
X89765756Y-91412200D01*
X89944639Y-91412200D01*
X89983546Y-91540460D01*
X90056439Y-91676833D01*
X90078079Y-91703201D01*
X90129955Y-91766412D01*
X90129959Y-91766416D01*
X90154537Y-91796364D01*
X90184485Y-91820942D01*
X90989043Y-92625500D01*
X90822185Y-92792358D01*
X90792237Y-92816936D01*
X90767659Y-92846884D01*
X90767655Y-92846888D01*
X90747917Y-92870939D01*
X90694139Y-92936467D01*
X90676731Y-92969036D01*
X90621246Y-93072841D01*
X90576359Y-93220814D01*
X90561203Y-93374700D01*
X90565001Y-93413262D01*
X90565001Y-93425625D01*
X90561692Y-93431816D01*
X90560000Y-93348250D01*
X90401250Y-93189500D01*
X89577000Y-93189500D01*
X89577000Y-93209500D01*
X89323000Y-93209500D01*
X89323000Y-93189500D01*
X89303000Y-93189500D01*
X89303000Y-92935500D01*
X89323000Y-92935500D01*
X89323000Y-92442795D01*
X89339526Y-92402898D01*
X89379300Y-92202939D01*
X89379300Y-92148750D01*
X89577000Y-92148750D01*
X89577000Y-92935500D01*
X90401250Y-92935500D01*
X90560000Y-92776750D01*
X90563072Y-92625000D01*
X90550812Y-92500518D01*
X90514502Y-92380820D01*
X90455537Y-92270506D01*
X90376185Y-92173815D01*
X90279494Y-92094463D01*
X90169180Y-92035498D01*
X90049482Y-91999188D01*
X89925000Y-91986928D01*
X89735750Y-91990000D01*
X89577000Y-92148750D01*
X89379300Y-92148750D01*
X89379300Y-91999061D01*
X89339526Y-91799102D01*
X89261505Y-91610744D01*
X89148237Y-91441226D01*
X89075900Y-91368889D01*
X89143750Y-91375572D01*
X89143750Y-91375572D01*
G37*
X89143750Y-91375572D02*
X89490011Y-91375572D01*
X89573313Y-91400842D01*
X89648226Y-91408220D01*
X89688639Y-91412200D01*
X89688644Y-91412200D01*
X89727200Y-91415997D01*
X89765756Y-91412200D01*
X89944639Y-91412200D01*
X89983546Y-91540460D01*
X90056439Y-91676833D01*
X90078079Y-91703201D01*
X90129955Y-91766412D01*
X90129959Y-91766416D01*
X90154537Y-91796364D01*
X90184485Y-91820942D01*
X90989043Y-92625500D01*
X90822185Y-92792358D01*
X90792237Y-92816936D01*
X90767659Y-92846884D01*
X90767655Y-92846888D01*
X90747917Y-92870939D01*
X90694139Y-92936467D01*
X90676731Y-92969036D01*
X90621246Y-93072841D01*
X90576359Y-93220814D01*
X90561203Y-93374700D01*
X90565001Y-93413262D01*
X90565001Y-93425625D01*
X90561692Y-93431816D01*
X90560000Y-93348250D01*
X90401250Y-93189500D01*
X89577000Y-93189500D01*
X89577000Y-93209500D01*
X89323000Y-93209500D01*
X89323000Y-93189500D01*
X89303000Y-93189500D01*
X89303000Y-92935500D01*
X89323000Y-92935500D01*
X89323000Y-92442795D01*
X89339526Y-92402898D01*
X89379300Y-92202939D01*
X89379300Y-92148750D01*
X89577000Y-92148750D01*
X89577000Y-92935500D01*
X90401250Y-92935500D01*
X90560000Y-92776750D01*
X90563072Y-92625000D01*
X90550812Y-92500518D01*
X90514502Y-92380820D01*
X90455537Y-92270506D01*
X90376185Y-92173815D01*
X90279494Y-92094463D01*
X90169180Y-92035498D01*
X90049482Y-91999188D01*
X89925000Y-91986928D01*
X89735750Y-91990000D01*
X89577000Y-92148750D01*
X89379300Y-92148750D01*
X89379300Y-91999061D01*
X89339526Y-91799102D01*
X89261505Y-91610744D01*
X89148237Y-91441226D01*
X89075900Y-91368889D01*
X89143750Y-91375572D01*
G36*
X82402000Y-91423000D02*
G01*
X82422000Y-91423000D01*
X82422000Y-91624389D01*
X82349389Y-91697000D01*
X82148000Y-91697000D01*
X82148000Y-91677000D01*
X82128000Y-91677000D01*
X82128000Y-91423000D01*
X82148000Y-91423000D01*
X82148000Y-91403000D01*
X82402000Y-91403000D01*
X82402000Y-91423000D01*
X82402000Y-91423000D01*
G37*
X82402000Y-91423000D02*
X82422000Y-91423000D01*
X82422000Y-91624389D01*
X82349389Y-91697000D01*
X82148000Y-91697000D01*
X82148000Y-91677000D01*
X82128000Y-91677000D01*
X82128000Y-91423000D01*
X82148000Y-91423000D01*
X82148000Y-91403000D01*
X82402000Y-91403000D01*
X82402000Y-91423000D01*
G36*
X90486928Y-88117249D02*
G01*
X90464502Y-88043320D01*
X90405537Y-87933006D01*
X90326185Y-87836315D01*
X90229494Y-87756963D01*
X90119180Y-87697998D01*
X89999482Y-87661688D01*
X89875000Y-87649428D01*
X89685750Y-87652500D01*
X89527000Y-87811250D01*
X89527000Y-88598000D01*
X89547000Y-88598000D01*
X89547000Y-88852000D01*
X89527000Y-88852000D01*
X89527000Y-88872000D01*
X89273000Y-88872000D01*
X89273000Y-88852000D01*
X88448750Y-88852000D01*
X88290000Y-89010750D01*
X88286928Y-89162500D01*
X88299188Y-89286982D01*
X88335498Y-89406680D01*
X88394463Y-89516994D01*
X88449100Y-89583570D01*
X88431329Y-89605225D01*
X88352150Y-89753358D01*
X88303392Y-89914092D01*
X88286928Y-90081250D01*
X88286928Y-90518750D01*
X88303392Y-90685908D01*
X88352150Y-90846642D01*
X88431329Y-90994775D01*
X88498276Y-91076351D01*
X88446239Y-91066000D01*
X88242361Y-91066000D01*
X88042402Y-91105774D01*
X87854044Y-91183795D01*
X87684526Y-91297063D01*
X87665589Y-91316000D01*
X83447652Y-91316000D01*
X83409099Y-91312203D01*
X83370546Y-91316000D01*
X83370539Y-91316000D01*
X83287579Y-91324171D01*
X83347500Y-91264250D01*
X83350572Y-91075000D01*
X83338312Y-90950518D01*
X83318408Y-90884904D01*
X83369180Y-90869502D01*
X83479494Y-90810537D01*
X83576185Y-90731185D01*
X83655537Y-90634494D01*
X83714502Y-90524180D01*
X83750812Y-90404482D01*
X83763072Y-90280000D01*
X83763072Y-89220000D01*
X83750812Y-89095518D01*
X83714502Y-88975820D01*
X83655537Y-88865506D01*
X83579226Y-88772521D01*
X83573641Y-88715813D01*
X83529305Y-88569658D01*
X83576185Y-88531185D01*
X83655537Y-88434494D01*
X83714502Y-88324180D01*
X83742905Y-88230547D01*
X83743829Y-88232275D01*
X83850385Y-88362115D01*
X83980225Y-88468671D01*
X84128358Y-88547850D01*
X84289092Y-88596608D01*
X84456250Y-88613072D01*
X84893750Y-88613072D01*
X85060908Y-88596608D01*
X85221642Y-88547850D01*
X85369775Y-88468671D01*
X85391430Y-88450900D01*
X85458006Y-88505537D01*
X85568320Y-88564502D01*
X85688018Y-88600812D01*
X85812500Y-88613072D01*
X85964250Y-88610000D01*
X86123000Y-88451250D01*
X86123000Y-87627000D01*
X86377000Y-87627000D01*
X86377000Y-88451250D01*
X86535750Y-88610000D01*
X86687500Y-88613072D01*
X86811982Y-88600812D01*
X86931680Y-88564502D01*
X87041994Y-88505537D01*
X87138685Y-88426185D01*
X87218037Y-88329494D01*
X87240483Y-88287500D01*
X88286928Y-88287500D01*
X88290000Y-88439250D01*
X88448750Y-88598000D01*
X89273000Y-88598000D01*
X89273000Y-87811250D01*
X89114250Y-87652500D01*
X88925000Y-87649428D01*
X88800518Y-87661688D01*
X88680820Y-87697998D01*
X88570506Y-87756963D01*
X88473815Y-87836315D01*
X88394463Y-87933006D01*
X88335498Y-88043320D01*
X88299188Y-88163018D01*
X88286928Y-88287500D01*
X87240483Y-88287500D01*
X87277002Y-88219180D01*
X87313312Y-88099482D01*
X87325572Y-87975000D01*
X87322500Y-87785750D01*
X87163750Y-87627000D01*
X86377000Y-87627000D01*
X86123000Y-87627000D01*
X86103000Y-87627000D01*
X86103000Y-87373000D01*
X86123000Y-87373000D01*
X86123000Y-87353000D01*
X86377000Y-87353000D01*
X86377000Y-87373000D01*
X87163750Y-87373000D01*
X87322500Y-87214250D01*
X87325572Y-87025000D01*
X87319141Y-86959700D01*
X90486928Y-86959700D01*
X90486928Y-88117249D01*
X90486928Y-88117249D01*
G37*
X90486928Y-88117249D02*
X90464502Y-88043320D01*
X90405537Y-87933006D01*
X90326185Y-87836315D01*
X90229494Y-87756963D01*
X90119180Y-87697998D01*
X89999482Y-87661688D01*
X89875000Y-87649428D01*
X89685750Y-87652500D01*
X89527000Y-87811250D01*
X89527000Y-88598000D01*
X89547000Y-88598000D01*
X89547000Y-88852000D01*
X89527000Y-88852000D01*
X89527000Y-88872000D01*
X89273000Y-88872000D01*
X89273000Y-88852000D01*
X88448750Y-88852000D01*
X88290000Y-89010750D01*
X88286928Y-89162500D01*
X88299188Y-89286982D01*
X88335498Y-89406680D01*
X88394463Y-89516994D01*
X88449100Y-89583570D01*
X88431329Y-89605225D01*
X88352150Y-89753358D01*
X88303392Y-89914092D01*
X88286928Y-90081250D01*
X88286928Y-90518750D01*
X88303392Y-90685908D01*
X88352150Y-90846642D01*
X88431329Y-90994775D01*
X88498276Y-91076351D01*
X88446239Y-91066000D01*
X88242361Y-91066000D01*
X88042402Y-91105774D01*
X87854044Y-91183795D01*
X87684526Y-91297063D01*
X87665589Y-91316000D01*
X83447652Y-91316000D01*
X83409099Y-91312203D01*
X83370546Y-91316000D01*
X83370539Y-91316000D01*
X83287579Y-91324171D01*
X83347500Y-91264250D01*
X83350572Y-91075000D01*
X83338312Y-90950518D01*
X83318408Y-90884904D01*
X83369180Y-90869502D01*
X83479494Y-90810537D01*
X83576185Y-90731185D01*
X83655537Y-90634494D01*
X83714502Y-90524180D01*
X83750812Y-90404482D01*
X83763072Y-90280000D01*
X83763072Y-89220000D01*
X83750812Y-89095518D01*
X83714502Y-88975820D01*
X83655537Y-88865506D01*
X83579226Y-88772521D01*
X83573641Y-88715813D01*
X83529305Y-88569658D01*
X83576185Y-88531185D01*
X83655537Y-88434494D01*
X83714502Y-88324180D01*
X83742905Y-88230547D01*
X83743829Y-88232275D01*
X83850385Y-88362115D01*
X83980225Y-88468671D01*
X84128358Y-88547850D01*
X84289092Y-88596608D01*
X84456250Y-88613072D01*
X84893750Y-88613072D01*
X85060908Y-88596608D01*
X85221642Y-88547850D01*
X85369775Y-88468671D01*
X85391430Y-88450900D01*
X85458006Y-88505537D01*
X85568320Y-88564502D01*
X85688018Y-88600812D01*
X85812500Y-88613072D01*
X85964250Y-88610000D01*
X86123000Y-88451250D01*
X86123000Y-87627000D01*
X86377000Y-87627000D01*
X86377000Y-88451250D01*
X86535750Y-88610000D01*
X86687500Y-88613072D01*
X86811982Y-88600812D01*
X86931680Y-88564502D01*
X87041994Y-88505537D01*
X87138685Y-88426185D01*
X87218037Y-88329494D01*
X87240483Y-88287500D01*
X88286928Y-88287500D01*
X88290000Y-88439250D01*
X88448750Y-88598000D01*
X89273000Y-88598000D01*
X89273000Y-87811250D01*
X89114250Y-87652500D01*
X88925000Y-87649428D01*
X88800518Y-87661688D01*
X88680820Y-87697998D01*
X88570506Y-87756963D01*
X88473815Y-87836315D01*
X88394463Y-87933006D01*
X88335498Y-88043320D01*
X88299188Y-88163018D01*
X88286928Y-88287500D01*
X87240483Y-88287500D01*
X87277002Y-88219180D01*
X87313312Y-88099482D01*
X87325572Y-87975000D01*
X87322500Y-87785750D01*
X87163750Y-87627000D01*
X86377000Y-87627000D01*
X86123000Y-87627000D01*
X86103000Y-87627000D01*
X86103000Y-87373000D01*
X86123000Y-87373000D01*
X86123000Y-87353000D01*
X86377000Y-87353000D01*
X86377000Y-87373000D01*
X87163750Y-87373000D01*
X87322500Y-87214250D01*
X87325572Y-87025000D01*
X87319141Y-86959700D01*
X90486928Y-86959700D01*
X90486928Y-88117249D01*
G36*
X85598872Y-86426230D02*
G01*
X85568320Y-86435498D01*
X85458006Y-86494463D01*
X85391430Y-86549100D01*
X85369775Y-86531329D01*
X85221642Y-86452150D01*
X85060908Y-86403392D01*
X84893750Y-86386928D01*
X84672085Y-86386928D01*
X84427045Y-86141888D01*
X84402464Y-86111936D01*
X84282933Y-86013838D01*
X84146560Y-85940946D01*
X83998587Y-85896059D01*
X83883261Y-85884700D01*
X83883253Y-85884700D01*
X83844700Y-85880903D01*
X83806147Y-85884700D01*
X83296450Y-85884700D01*
X83238750Y-85827000D01*
X82452000Y-85827000D01*
X82452000Y-85847000D01*
X82198000Y-85847000D01*
X82198000Y-85827000D01*
X82178000Y-85827000D01*
X82178000Y-85573000D01*
X82198000Y-85573000D01*
X82198000Y-85553000D01*
X82452000Y-85553000D01*
X82452000Y-85573000D01*
X83238750Y-85573000D01*
X83397500Y-85414250D01*
X83400572Y-85225000D01*
X83388312Y-85100518D01*
X83352002Y-84980820D01*
X83293037Y-84870506D01*
X83284415Y-84860000D01*
X84032643Y-84860000D01*
X85598872Y-86426230D01*
X85598872Y-86426230D01*
G37*
X85598872Y-86426230D02*
X85568320Y-86435498D01*
X85458006Y-86494463D01*
X85391430Y-86549100D01*
X85369775Y-86531329D01*
X85221642Y-86452150D01*
X85060908Y-86403392D01*
X84893750Y-86386928D01*
X84672085Y-86386928D01*
X84427045Y-86141888D01*
X84402464Y-86111936D01*
X84282933Y-86013838D01*
X84146560Y-85940946D01*
X83998587Y-85896059D01*
X83883261Y-85884700D01*
X83883253Y-85884700D01*
X83844700Y-85880903D01*
X83806147Y-85884700D01*
X83296450Y-85884700D01*
X83238750Y-85827000D01*
X82452000Y-85827000D01*
X82452000Y-85847000D01*
X82198000Y-85847000D01*
X82198000Y-85827000D01*
X82178000Y-85827000D01*
X82178000Y-85573000D01*
X82198000Y-85573000D01*
X82198000Y-85553000D01*
X82452000Y-85553000D01*
X82452000Y-85573000D01*
X83238750Y-85573000D01*
X83397500Y-85414250D01*
X83400572Y-85225000D01*
X83388312Y-85100518D01*
X83352002Y-84980820D01*
X83293037Y-84870506D01*
X83284415Y-84860000D01*
X84032643Y-84860000D01*
X85598872Y-86426230D01*
G36*
X95772998Y-85886928D02*
G01*
X95762322Y-85886928D01*
X95772998Y-85876252D01*
X95772998Y-85886928D01*
X95772998Y-85886928D01*
G37*
X95772998Y-85886928D02*
X95762322Y-85886928D01*
X95772998Y-85876252D01*
X95772998Y-85886928D01*
G36*
X96037678Y-85886928D02*
G01*
X96027002Y-85886928D01*
X96027002Y-85876252D01*
X96037678Y-85886928D01*
X96037678Y-85886928D01*
G37*
X96037678Y-85886928D02*
X96027002Y-85886928D01*
X96027002Y-85876252D01*
X96037678Y-85886928D01*
G36*
X92555820Y-81710498D02*
G01*
X92445506Y-81769463D01*
X92348815Y-81848815D01*
X92269463Y-81945506D01*
X92210498Y-82055820D01*
X92193273Y-82112602D01*
X92119180Y-82072998D01*
X91999482Y-82036688D01*
X91875000Y-82024428D01*
X91685750Y-82027500D01*
X91527000Y-82186250D01*
X91527000Y-82973000D01*
X91547000Y-82973000D01*
X91547000Y-83227000D01*
X91527000Y-83227000D01*
X91527000Y-83247000D01*
X91273000Y-83247000D01*
X91273000Y-83227000D01*
X90448750Y-83227000D01*
X90290000Y-83385750D01*
X90286928Y-83537500D01*
X90299188Y-83661982D01*
X90335498Y-83781680D01*
X90394463Y-83891994D01*
X90449100Y-83958570D01*
X90431329Y-83980225D01*
X90352150Y-84128358D01*
X90303392Y-84289092D01*
X90286928Y-84456250D01*
X90286928Y-84893750D01*
X90303392Y-85060908D01*
X90352150Y-85221642D01*
X90431329Y-85369775D01*
X90447681Y-85389700D01*
X86782658Y-85389700D01*
X84940147Y-83547190D01*
X84915564Y-83517236D01*
X84796033Y-83419138D01*
X84659660Y-83346246D01*
X84511687Y-83301359D01*
X84396361Y-83290000D01*
X84396353Y-83290000D01*
X84357800Y-83286203D01*
X84319247Y-83290000D01*
X83258798Y-83290000D01*
X83306171Y-83232275D01*
X83385350Y-83084142D01*
X83434108Y-82923408D01*
X83450572Y-82756250D01*
X83450572Y-82662500D01*
X90286928Y-82662500D01*
X90290000Y-82814250D01*
X90448750Y-82973000D01*
X91273000Y-82973000D01*
X91273000Y-82186250D01*
X91114250Y-82027500D01*
X90925000Y-82024428D01*
X90800518Y-82036688D01*
X90680820Y-82072998D01*
X90570506Y-82131963D01*
X90473815Y-82211315D01*
X90394463Y-82308006D01*
X90335498Y-82418320D01*
X90299188Y-82538018D01*
X90286928Y-82662500D01*
X83450572Y-82662500D01*
X83450572Y-82243750D01*
X83434108Y-82076592D01*
X83385350Y-81915858D01*
X83306171Y-81767725D01*
X83258798Y-81710000D01*
X92557462Y-81710000D01*
X92555820Y-81710498D01*
X92555820Y-81710498D01*
G37*
X92555820Y-81710498D02*
X92445506Y-81769463D01*
X92348815Y-81848815D01*
X92269463Y-81945506D01*
X92210498Y-82055820D01*
X92193273Y-82112602D01*
X92119180Y-82072998D01*
X91999482Y-82036688D01*
X91875000Y-82024428D01*
X91685750Y-82027500D01*
X91527000Y-82186250D01*
X91527000Y-82973000D01*
X91547000Y-82973000D01*
X91547000Y-83227000D01*
X91527000Y-83227000D01*
X91527000Y-83247000D01*
X91273000Y-83247000D01*
X91273000Y-83227000D01*
X90448750Y-83227000D01*
X90290000Y-83385750D01*
X90286928Y-83537500D01*
X90299188Y-83661982D01*
X90335498Y-83781680D01*
X90394463Y-83891994D01*
X90449100Y-83958570D01*
X90431329Y-83980225D01*
X90352150Y-84128358D01*
X90303392Y-84289092D01*
X90286928Y-84456250D01*
X90286928Y-84893750D01*
X90303392Y-85060908D01*
X90352150Y-85221642D01*
X90431329Y-85369775D01*
X90447681Y-85389700D01*
X86782658Y-85389700D01*
X84940147Y-83547190D01*
X84915564Y-83517236D01*
X84796033Y-83419138D01*
X84659660Y-83346246D01*
X84511687Y-83301359D01*
X84396361Y-83290000D01*
X84396353Y-83290000D01*
X84357800Y-83286203D01*
X84319247Y-83290000D01*
X83258798Y-83290000D01*
X83306171Y-83232275D01*
X83385350Y-83084142D01*
X83434108Y-82923408D01*
X83450572Y-82756250D01*
X83450572Y-82662500D01*
X90286928Y-82662500D01*
X90290000Y-82814250D01*
X90448750Y-82973000D01*
X91273000Y-82973000D01*
X91273000Y-82186250D01*
X91114250Y-82027500D01*
X90925000Y-82024428D01*
X90800518Y-82036688D01*
X90680820Y-82072998D01*
X90570506Y-82131963D01*
X90473815Y-82211315D01*
X90394463Y-82308006D01*
X90335498Y-82418320D01*
X90299188Y-82538018D01*
X90286928Y-82662500D01*
X83450572Y-82662500D01*
X83450572Y-82243750D01*
X83434108Y-82076592D01*
X83385350Y-81915858D01*
X83306171Y-81767725D01*
X83258798Y-81710000D01*
X92557462Y-81710000D01*
X92555820Y-81710498D01*
G36*
X93627000Y-82773000D02*
G01*
X93647000Y-82773000D01*
X93647000Y-83027000D01*
X93627000Y-83027000D01*
X93627000Y-83047000D01*
X93373000Y-83047000D01*
X93373000Y-83027000D01*
X93353000Y-83027000D01*
X93353000Y-82773000D01*
X93373000Y-82773000D01*
X93373000Y-82753000D01*
X93627000Y-82753000D01*
X93627000Y-82773000D01*
X93627000Y-82773000D01*
G37*
X93627000Y-82773000D02*
X93647000Y-82773000D01*
X93647000Y-83027000D01*
X93627000Y-83027000D01*
X93627000Y-83047000D01*
X93373000Y-83047000D01*
X93373000Y-83027000D01*
X93353000Y-83027000D01*
X93353000Y-82773000D01*
X93373000Y-82773000D01*
X93373000Y-82753000D01*
X93627000Y-82753000D01*
X93627000Y-82773000D01*
M02*
