M48
; DRILL file {KiCad (5.1.2)-1} date 2021/07/24 10:23:44
; FORMAT={-:-/ absolute / metric / decimal}
; #@! TF.CreationDate,2021-07-24T10:23:44+09:00
; #@! TF.GenerationSoftware,Kicad,Pcbnew,(5.1.2)-1
FMAT,2
METRIC
T1C0.400
T2C1.000
T3C1.200
T4C2.500
T5C1.500
%
G90
G05
T1
X79.343Y-89.586
X80.296Y-84.603
X83.146Y-92.364
X85.061Y-86.26
X85.673Y-97.172
X88.344Y-92.101
X90.22Y-97.303
X90.519Y-89.759
X91.589Y-97.007
X92.568Y-89.937
X92.671Y-91.452
X92.676Y-88.883
X93.895Y-91.703
X94.007Y-89.11
X95.025Y-93.024
X95.278Y-88.88
X95.685Y-96.887
X96.027Y-92.762
X100.042Y-91.126
X100.527Y-88.809
X100.782Y-98.046
X101.514Y-83.482
X102.27Y-98.05
X103.053Y-88.674
X105.596Y-86.338
X110.663Y-94.402
T2
X107.0Y-88.0
X107.0Y-90.5
X107.0Y-92.5
X107.0Y-95.0
X85.4Y-100.2
X87.94Y-100.2
X90.48Y-100.2
X93.02Y-100.2
X95.56Y-100.2
X99.16Y-100.2
X101.7Y-100.2
X104.24Y-100.2
X77.7Y-88.1
X77.7Y-90.6
X77.7Y-92.6
X77.7Y-95.1
T4
X109.6Y-84.93
X109.6Y-98.07
T5
X75.3Y-89.35
X75.3Y-93.85
T3
G00X74.65Y-85.7
M15
G01X75.95Y-85.7
M16
G05
G00X74.65Y-97.5
M15
G01X75.95Y-97.5
M16
G05
T0
M30
