G04 #@! TF.GenerationSoftware,KiCad,Pcbnew,(5.1.2)-1*
G04 #@! TF.CreationDate,2021-07-24T10:23:43+09:00*
G04 #@! TF.ProjectId,PS2USB,50533255-5342-42e6-9b69-6361645f7063,v2.1*
G04 #@! TF.SameCoordinates,Original*
G04 #@! TF.FileFunction,Paste,Top*
G04 #@! TF.FilePolarity,Positive*
%FSLAX46Y46*%
G04 Gerber Fmt 4.6, Leading zero omitted, Abs format (unit mm)*
G04 Created by KiCad (PCBNEW (5.1.2)-1) date 2021-07-24 10:23:43*
%MOMM*%
%LPD*%
G04 APERTURE LIST*
%ADD10C,0.050000*%
%ADD11C,0.875000*%
%ADD12R,0.650000X1.060000*%
%ADD13C,0.975000*%
%ADD14C,1.524000*%
%ADD15O,3.000000X1.500000*%
%ADD16C,3.000000*%
%ADD17R,1.400000X1.200000*%
%ADD18R,0.450000X1.750000*%
G04 APERTURE END LIST*
D10*
G36*
X104277691Y-93813553D02*
G01*
X104298926Y-93816703D01*
X104319750Y-93821919D01*
X104339962Y-93829151D01*
X104359368Y-93838330D01*
X104377781Y-93849366D01*
X104395024Y-93862154D01*
X104410930Y-93876570D01*
X104425346Y-93892476D01*
X104438134Y-93909719D01*
X104449170Y-93928132D01*
X104458349Y-93947538D01*
X104465581Y-93967750D01*
X104470797Y-93988574D01*
X104473947Y-94009809D01*
X104475000Y-94031250D01*
X104475000Y-94468750D01*
X104473947Y-94490191D01*
X104470797Y-94511426D01*
X104465581Y-94532250D01*
X104458349Y-94552462D01*
X104449170Y-94571868D01*
X104438134Y-94590281D01*
X104425346Y-94607524D01*
X104410930Y-94623430D01*
X104395024Y-94637846D01*
X104377781Y-94650634D01*
X104359368Y-94661670D01*
X104339962Y-94670849D01*
X104319750Y-94678081D01*
X104298926Y-94683297D01*
X104277691Y-94686447D01*
X104256250Y-94687500D01*
X103743750Y-94687500D01*
X103722309Y-94686447D01*
X103701074Y-94683297D01*
X103680250Y-94678081D01*
X103660038Y-94670849D01*
X103640632Y-94661670D01*
X103622219Y-94650634D01*
X103604976Y-94637846D01*
X103589070Y-94623430D01*
X103574654Y-94607524D01*
X103561866Y-94590281D01*
X103550830Y-94571868D01*
X103541651Y-94552462D01*
X103534419Y-94532250D01*
X103529203Y-94511426D01*
X103526053Y-94490191D01*
X103525000Y-94468750D01*
X103525000Y-94031250D01*
X103526053Y-94009809D01*
X103529203Y-93988574D01*
X103534419Y-93967750D01*
X103541651Y-93947538D01*
X103550830Y-93928132D01*
X103561866Y-93909719D01*
X103574654Y-93892476D01*
X103589070Y-93876570D01*
X103604976Y-93862154D01*
X103622219Y-93849366D01*
X103640632Y-93838330D01*
X103660038Y-93829151D01*
X103680250Y-93821919D01*
X103701074Y-93816703D01*
X103722309Y-93813553D01*
X103743750Y-93812500D01*
X104256250Y-93812500D01*
X104277691Y-93813553D01*
X104277691Y-93813553D01*
G37*
D11*
X104000000Y-94250000D03*
D10*
G36*
X104277691Y-92238553D02*
G01*
X104298926Y-92241703D01*
X104319750Y-92246919D01*
X104339962Y-92254151D01*
X104359368Y-92263330D01*
X104377781Y-92274366D01*
X104395024Y-92287154D01*
X104410930Y-92301570D01*
X104425346Y-92317476D01*
X104438134Y-92334719D01*
X104449170Y-92353132D01*
X104458349Y-92372538D01*
X104465581Y-92392750D01*
X104470797Y-92413574D01*
X104473947Y-92434809D01*
X104475000Y-92456250D01*
X104475000Y-92893750D01*
X104473947Y-92915191D01*
X104470797Y-92936426D01*
X104465581Y-92957250D01*
X104458349Y-92977462D01*
X104449170Y-92996868D01*
X104438134Y-93015281D01*
X104425346Y-93032524D01*
X104410930Y-93048430D01*
X104395024Y-93062846D01*
X104377781Y-93075634D01*
X104359368Y-93086670D01*
X104339962Y-93095849D01*
X104319750Y-93103081D01*
X104298926Y-93108297D01*
X104277691Y-93111447D01*
X104256250Y-93112500D01*
X103743750Y-93112500D01*
X103722309Y-93111447D01*
X103701074Y-93108297D01*
X103680250Y-93103081D01*
X103660038Y-93095849D01*
X103640632Y-93086670D01*
X103622219Y-93075634D01*
X103604976Y-93062846D01*
X103589070Y-93048430D01*
X103574654Y-93032524D01*
X103561866Y-93015281D01*
X103550830Y-92996868D01*
X103541651Y-92977462D01*
X103534419Y-92957250D01*
X103529203Y-92936426D01*
X103526053Y-92915191D01*
X103525000Y-92893750D01*
X103525000Y-92456250D01*
X103526053Y-92434809D01*
X103529203Y-92413574D01*
X103534419Y-92392750D01*
X103541651Y-92372538D01*
X103550830Y-92353132D01*
X103561866Y-92334719D01*
X103574654Y-92317476D01*
X103589070Y-92301570D01*
X103604976Y-92287154D01*
X103622219Y-92274366D01*
X103640632Y-92263330D01*
X103660038Y-92254151D01*
X103680250Y-92246919D01*
X103701074Y-92241703D01*
X103722309Y-92238553D01*
X103743750Y-92237500D01*
X104256250Y-92237500D01*
X104277691Y-92238553D01*
X104277691Y-92238553D01*
G37*
D11*
X104000000Y-92675000D03*
D10*
G36*
X82615191Y-82026053D02*
G01*
X82636426Y-82029203D01*
X82657250Y-82034419D01*
X82677462Y-82041651D01*
X82696868Y-82050830D01*
X82715281Y-82061866D01*
X82732524Y-82074654D01*
X82748430Y-82089070D01*
X82762846Y-82104976D01*
X82775634Y-82122219D01*
X82786670Y-82140632D01*
X82795849Y-82160038D01*
X82803081Y-82180250D01*
X82808297Y-82201074D01*
X82811447Y-82222309D01*
X82812500Y-82243750D01*
X82812500Y-82756250D01*
X82811447Y-82777691D01*
X82808297Y-82798926D01*
X82803081Y-82819750D01*
X82795849Y-82839962D01*
X82786670Y-82859368D01*
X82775634Y-82877781D01*
X82762846Y-82895024D01*
X82748430Y-82910930D01*
X82732524Y-82925346D01*
X82715281Y-82938134D01*
X82696868Y-82949170D01*
X82677462Y-82958349D01*
X82657250Y-82965581D01*
X82636426Y-82970797D01*
X82615191Y-82973947D01*
X82593750Y-82975000D01*
X82156250Y-82975000D01*
X82134809Y-82973947D01*
X82113574Y-82970797D01*
X82092750Y-82965581D01*
X82072538Y-82958349D01*
X82053132Y-82949170D01*
X82034719Y-82938134D01*
X82017476Y-82925346D01*
X82001570Y-82910930D01*
X81987154Y-82895024D01*
X81974366Y-82877781D01*
X81963330Y-82859368D01*
X81954151Y-82839962D01*
X81946919Y-82819750D01*
X81941703Y-82798926D01*
X81938553Y-82777691D01*
X81937500Y-82756250D01*
X81937500Y-82243750D01*
X81938553Y-82222309D01*
X81941703Y-82201074D01*
X81946919Y-82180250D01*
X81954151Y-82160038D01*
X81963330Y-82140632D01*
X81974366Y-82122219D01*
X81987154Y-82104976D01*
X82001570Y-82089070D01*
X82017476Y-82074654D01*
X82034719Y-82061866D01*
X82053132Y-82050830D01*
X82072538Y-82041651D01*
X82092750Y-82034419D01*
X82113574Y-82029203D01*
X82134809Y-82026053D01*
X82156250Y-82025000D01*
X82593750Y-82025000D01*
X82615191Y-82026053D01*
X82615191Y-82026053D01*
G37*
D11*
X82375000Y-82500000D03*
D10*
G36*
X81040191Y-82026053D02*
G01*
X81061426Y-82029203D01*
X81082250Y-82034419D01*
X81102462Y-82041651D01*
X81121868Y-82050830D01*
X81140281Y-82061866D01*
X81157524Y-82074654D01*
X81173430Y-82089070D01*
X81187846Y-82104976D01*
X81200634Y-82122219D01*
X81211670Y-82140632D01*
X81220849Y-82160038D01*
X81228081Y-82180250D01*
X81233297Y-82201074D01*
X81236447Y-82222309D01*
X81237500Y-82243750D01*
X81237500Y-82756250D01*
X81236447Y-82777691D01*
X81233297Y-82798926D01*
X81228081Y-82819750D01*
X81220849Y-82839962D01*
X81211670Y-82859368D01*
X81200634Y-82877781D01*
X81187846Y-82895024D01*
X81173430Y-82910930D01*
X81157524Y-82925346D01*
X81140281Y-82938134D01*
X81121868Y-82949170D01*
X81102462Y-82958349D01*
X81082250Y-82965581D01*
X81061426Y-82970797D01*
X81040191Y-82973947D01*
X81018750Y-82975000D01*
X80581250Y-82975000D01*
X80559809Y-82973947D01*
X80538574Y-82970797D01*
X80517750Y-82965581D01*
X80497538Y-82958349D01*
X80478132Y-82949170D01*
X80459719Y-82938134D01*
X80442476Y-82925346D01*
X80426570Y-82910930D01*
X80412154Y-82895024D01*
X80399366Y-82877781D01*
X80388330Y-82859368D01*
X80379151Y-82839962D01*
X80371919Y-82819750D01*
X80366703Y-82798926D01*
X80363553Y-82777691D01*
X80362500Y-82756250D01*
X80362500Y-82243750D01*
X80363553Y-82222309D01*
X80366703Y-82201074D01*
X80371919Y-82180250D01*
X80379151Y-82160038D01*
X80388330Y-82140632D01*
X80399366Y-82122219D01*
X80412154Y-82104976D01*
X80426570Y-82089070D01*
X80442476Y-82074654D01*
X80459719Y-82061866D01*
X80478132Y-82050830D01*
X80497538Y-82041651D01*
X80517750Y-82034419D01*
X80538574Y-82029203D01*
X80559809Y-82026053D01*
X80581250Y-82025000D01*
X81018750Y-82025000D01*
X81040191Y-82026053D01*
X81040191Y-82026053D01*
G37*
D11*
X80800000Y-82500000D03*
D12*
X80900000Y-87550000D03*
X82800000Y-87550000D03*
X82800000Y-89750000D03*
X81850000Y-89750000D03*
X80900000Y-89750000D03*
D10*
G36*
X102077691Y-88276053D02*
G01*
X102098926Y-88279203D01*
X102119750Y-88284419D01*
X102139962Y-88291651D01*
X102159368Y-88300830D01*
X102177781Y-88311866D01*
X102195024Y-88324654D01*
X102210930Y-88339070D01*
X102225346Y-88354976D01*
X102238134Y-88372219D01*
X102249170Y-88390632D01*
X102258349Y-88410038D01*
X102265581Y-88430250D01*
X102270797Y-88451074D01*
X102273947Y-88472309D01*
X102275000Y-88493750D01*
X102275000Y-88931250D01*
X102273947Y-88952691D01*
X102270797Y-88973926D01*
X102265581Y-88994750D01*
X102258349Y-89014962D01*
X102249170Y-89034368D01*
X102238134Y-89052781D01*
X102225346Y-89070024D01*
X102210930Y-89085930D01*
X102195024Y-89100346D01*
X102177781Y-89113134D01*
X102159368Y-89124170D01*
X102139962Y-89133349D01*
X102119750Y-89140581D01*
X102098926Y-89145797D01*
X102077691Y-89148947D01*
X102056250Y-89150000D01*
X101543750Y-89150000D01*
X101522309Y-89148947D01*
X101501074Y-89145797D01*
X101480250Y-89140581D01*
X101460038Y-89133349D01*
X101440632Y-89124170D01*
X101422219Y-89113134D01*
X101404976Y-89100346D01*
X101389070Y-89085930D01*
X101374654Y-89070024D01*
X101361866Y-89052781D01*
X101350830Y-89034368D01*
X101341651Y-89014962D01*
X101334419Y-88994750D01*
X101329203Y-88973926D01*
X101326053Y-88952691D01*
X101325000Y-88931250D01*
X101325000Y-88493750D01*
X101326053Y-88472309D01*
X101329203Y-88451074D01*
X101334419Y-88430250D01*
X101341651Y-88410038D01*
X101350830Y-88390632D01*
X101361866Y-88372219D01*
X101374654Y-88354976D01*
X101389070Y-88339070D01*
X101404976Y-88324654D01*
X101422219Y-88311866D01*
X101440632Y-88300830D01*
X101460038Y-88291651D01*
X101480250Y-88284419D01*
X101501074Y-88279203D01*
X101522309Y-88276053D01*
X101543750Y-88275000D01*
X102056250Y-88275000D01*
X102077691Y-88276053D01*
X102077691Y-88276053D01*
G37*
D11*
X101800000Y-88712500D03*
D10*
G36*
X102077691Y-89851053D02*
G01*
X102098926Y-89854203D01*
X102119750Y-89859419D01*
X102139962Y-89866651D01*
X102159368Y-89875830D01*
X102177781Y-89886866D01*
X102195024Y-89899654D01*
X102210930Y-89914070D01*
X102225346Y-89929976D01*
X102238134Y-89947219D01*
X102249170Y-89965632D01*
X102258349Y-89985038D01*
X102265581Y-90005250D01*
X102270797Y-90026074D01*
X102273947Y-90047309D01*
X102275000Y-90068750D01*
X102275000Y-90506250D01*
X102273947Y-90527691D01*
X102270797Y-90548926D01*
X102265581Y-90569750D01*
X102258349Y-90589962D01*
X102249170Y-90609368D01*
X102238134Y-90627781D01*
X102225346Y-90645024D01*
X102210930Y-90660930D01*
X102195024Y-90675346D01*
X102177781Y-90688134D01*
X102159368Y-90699170D01*
X102139962Y-90708349D01*
X102119750Y-90715581D01*
X102098926Y-90720797D01*
X102077691Y-90723947D01*
X102056250Y-90725000D01*
X101543750Y-90725000D01*
X101522309Y-90723947D01*
X101501074Y-90720797D01*
X101480250Y-90715581D01*
X101460038Y-90708349D01*
X101440632Y-90699170D01*
X101422219Y-90688134D01*
X101404976Y-90675346D01*
X101389070Y-90660930D01*
X101374654Y-90645024D01*
X101361866Y-90627781D01*
X101350830Y-90609368D01*
X101341651Y-90589962D01*
X101334419Y-90569750D01*
X101329203Y-90548926D01*
X101326053Y-90527691D01*
X101325000Y-90506250D01*
X101325000Y-90068750D01*
X101326053Y-90047309D01*
X101329203Y-90026074D01*
X101334419Y-90005250D01*
X101341651Y-89985038D01*
X101350830Y-89965632D01*
X101361866Y-89947219D01*
X101374654Y-89929976D01*
X101389070Y-89914070D01*
X101404976Y-89899654D01*
X101422219Y-89886866D01*
X101440632Y-89875830D01*
X101460038Y-89866651D01*
X101480250Y-89859419D01*
X101501074Y-89854203D01*
X101522309Y-89851053D01*
X101543750Y-89850000D01*
X102056250Y-89850000D01*
X102077691Y-89851053D01*
X102077691Y-89851053D01*
G37*
D11*
X101800000Y-90287500D03*
D10*
G36*
X92967642Y-96751174D02*
G01*
X92991303Y-96754684D01*
X93014507Y-96760496D01*
X93037029Y-96768554D01*
X93058653Y-96778782D01*
X93079170Y-96791079D01*
X93098383Y-96805329D01*
X93116107Y-96821393D01*
X93132171Y-96839117D01*
X93146421Y-96858330D01*
X93158718Y-96878847D01*
X93168946Y-96900471D01*
X93177004Y-96922993D01*
X93182816Y-96946197D01*
X93186326Y-96969858D01*
X93187500Y-96993750D01*
X93187500Y-97906250D01*
X93186326Y-97930142D01*
X93182816Y-97953803D01*
X93177004Y-97977007D01*
X93168946Y-97999529D01*
X93158718Y-98021153D01*
X93146421Y-98041670D01*
X93132171Y-98060883D01*
X93116107Y-98078607D01*
X93098383Y-98094671D01*
X93079170Y-98108921D01*
X93058653Y-98121218D01*
X93037029Y-98131446D01*
X93014507Y-98139504D01*
X92991303Y-98145316D01*
X92967642Y-98148826D01*
X92943750Y-98150000D01*
X92456250Y-98150000D01*
X92432358Y-98148826D01*
X92408697Y-98145316D01*
X92385493Y-98139504D01*
X92362971Y-98131446D01*
X92341347Y-98121218D01*
X92320830Y-98108921D01*
X92301617Y-98094671D01*
X92283893Y-98078607D01*
X92267829Y-98060883D01*
X92253579Y-98041670D01*
X92241282Y-98021153D01*
X92231054Y-97999529D01*
X92222996Y-97977007D01*
X92217184Y-97953803D01*
X92213674Y-97930142D01*
X92212500Y-97906250D01*
X92212500Y-96993750D01*
X92213674Y-96969858D01*
X92217184Y-96946197D01*
X92222996Y-96922993D01*
X92231054Y-96900471D01*
X92241282Y-96878847D01*
X92253579Y-96858330D01*
X92267829Y-96839117D01*
X92283893Y-96821393D01*
X92301617Y-96805329D01*
X92320830Y-96791079D01*
X92341347Y-96778782D01*
X92362971Y-96768554D01*
X92385493Y-96760496D01*
X92408697Y-96754684D01*
X92432358Y-96751174D01*
X92456250Y-96750000D01*
X92943750Y-96750000D01*
X92967642Y-96751174D01*
X92967642Y-96751174D01*
G37*
D13*
X92700000Y-97450000D03*
D10*
G36*
X94842642Y-96751174D02*
G01*
X94866303Y-96754684D01*
X94889507Y-96760496D01*
X94912029Y-96768554D01*
X94933653Y-96778782D01*
X94954170Y-96791079D01*
X94973383Y-96805329D01*
X94991107Y-96821393D01*
X95007171Y-96839117D01*
X95021421Y-96858330D01*
X95033718Y-96878847D01*
X95043946Y-96900471D01*
X95052004Y-96922993D01*
X95057816Y-96946197D01*
X95061326Y-96969858D01*
X95062500Y-96993750D01*
X95062500Y-97906250D01*
X95061326Y-97930142D01*
X95057816Y-97953803D01*
X95052004Y-97977007D01*
X95043946Y-97999529D01*
X95033718Y-98021153D01*
X95021421Y-98041670D01*
X95007171Y-98060883D01*
X94991107Y-98078607D01*
X94973383Y-98094671D01*
X94954170Y-98108921D01*
X94933653Y-98121218D01*
X94912029Y-98131446D01*
X94889507Y-98139504D01*
X94866303Y-98145316D01*
X94842642Y-98148826D01*
X94818750Y-98150000D01*
X94331250Y-98150000D01*
X94307358Y-98148826D01*
X94283697Y-98145316D01*
X94260493Y-98139504D01*
X94237971Y-98131446D01*
X94216347Y-98121218D01*
X94195830Y-98108921D01*
X94176617Y-98094671D01*
X94158893Y-98078607D01*
X94142829Y-98060883D01*
X94128579Y-98041670D01*
X94116282Y-98021153D01*
X94106054Y-97999529D01*
X94097996Y-97977007D01*
X94092184Y-97953803D01*
X94088674Y-97930142D01*
X94087500Y-97906250D01*
X94087500Y-96993750D01*
X94088674Y-96969858D01*
X94092184Y-96946197D01*
X94097996Y-96922993D01*
X94106054Y-96900471D01*
X94116282Y-96878847D01*
X94128579Y-96858330D01*
X94142829Y-96839117D01*
X94158893Y-96821393D01*
X94176617Y-96805329D01*
X94195830Y-96791079D01*
X94216347Y-96778782D01*
X94237971Y-96768554D01*
X94260493Y-96760496D01*
X94283697Y-96754684D01*
X94307358Y-96751174D01*
X94331250Y-96750000D01*
X94818750Y-96750000D01*
X94842642Y-96751174D01*
X94842642Y-96751174D01*
G37*
D13*
X94575000Y-97450000D03*
D14*
X77700000Y-95100000D03*
X77700000Y-92600000D03*
X77700000Y-90600000D03*
X77700000Y-88100000D03*
D15*
X75300000Y-85700000D03*
X75300000Y-97500000D03*
D10*
G36*
X80940191Y-96076053D02*
G01*
X80961426Y-96079203D01*
X80982250Y-96084419D01*
X81002462Y-96091651D01*
X81021868Y-96100830D01*
X81040281Y-96111866D01*
X81057524Y-96124654D01*
X81073430Y-96139070D01*
X81087846Y-96154976D01*
X81100634Y-96172219D01*
X81111670Y-96190632D01*
X81120849Y-96210038D01*
X81128081Y-96230250D01*
X81133297Y-96251074D01*
X81136447Y-96272309D01*
X81137500Y-96293750D01*
X81137500Y-96806250D01*
X81136447Y-96827691D01*
X81133297Y-96848926D01*
X81128081Y-96869750D01*
X81120849Y-96889962D01*
X81111670Y-96909368D01*
X81100634Y-96927781D01*
X81087846Y-96945024D01*
X81073430Y-96960930D01*
X81057524Y-96975346D01*
X81040281Y-96988134D01*
X81021868Y-96999170D01*
X81002462Y-97008349D01*
X80982250Y-97015581D01*
X80961426Y-97020797D01*
X80940191Y-97023947D01*
X80918750Y-97025000D01*
X80481250Y-97025000D01*
X80459809Y-97023947D01*
X80438574Y-97020797D01*
X80417750Y-97015581D01*
X80397538Y-97008349D01*
X80378132Y-96999170D01*
X80359719Y-96988134D01*
X80342476Y-96975346D01*
X80326570Y-96960930D01*
X80312154Y-96945024D01*
X80299366Y-96927781D01*
X80288330Y-96909368D01*
X80279151Y-96889962D01*
X80271919Y-96869750D01*
X80266703Y-96848926D01*
X80263553Y-96827691D01*
X80262500Y-96806250D01*
X80262500Y-96293750D01*
X80263553Y-96272309D01*
X80266703Y-96251074D01*
X80271919Y-96230250D01*
X80279151Y-96210038D01*
X80288330Y-96190632D01*
X80299366Y-96172219D01*
X80312154Y-96154976D01*
X80326570Y-96139070D01*
X80342476Y-96124654D01*
X80359719Y-96111866D01*
X80378132Y-96100830D01*
X80397538Y-96091651D01*
X80417750Y-96084419D01*
X80438574Y-96079203D01*
X80459809Y-96076053D01*
X80481250Y-96075000D01*
X80918750Y-96075000D01*
X80940191Y-96076053D01*
X80940191Y-96076053D01*
G37*
D11*
X80700000Y-96550000D03*
D10*
G36*
X82515191Y-96076053D02*
G01*
X82536426Y-96079203D01*
X82557250Y-96084419D01*
X82577462Y-96091651D01*
X82596868Y-96100830D01*
X82615281Y-96111866D01*
X82632524Y-96124654D01*
X82648430Y-96139070D01*
X82662846Y-96154976D01*
X82675634Y-96172219D01*
X82686670Y-96190632D01*
X82695849Y-96210038D01*
X82703081Y-96230250D01*
X82708297Y-96251074D01*
X82711447Y-96272309D01*
X82712500Y-96293750D01*
X82712500Y-96806250D01*
X82711447Y-96827691D01*
X82708297Y-96848926D01*
X82703081Y-96869750D01*
X82695849Y-96889962D01*
X82686670Y-96909368D01*
X82675634Y-96927781D01*
X82662846Y-96945024D01*
X82648430Y-96960930D01*
X82632524Y-96975346D01*
X82615281Y-96988134D01*
X82596868Y-96999170D01*
X82577462Y-97008349D01*
X82557250Y-97015581D01*
X82536426Y-97020797D01*
X82515191Y-97023947D01*
X82493750Y-97025000D01*
X82056250Y-97025000D01*
X82034809Y-97023947D01*
X82013574Y-97020797D01*
X81992750Y-97015581D01*
X81972538Y-97008349D01*
X81953132Y-96999170D01*
X81934719Y-96988134D01*
X81917476Y-96975346D01*
X81901570Y-96960930D01*
X81887154Y-96945024D01*
X81874366Y-96927781D01*
X81863330Y-96909368D01*
X81854151Y-96889962D01*
X81846919Y-96869750D01*
X81841703Y-96848926D01*
X81838553Y-96827691D01*
X81837500Y-96806250D01*
X81837500Y-96293750D01*
X81838553Y-96272309D01*
X81841703Y-96251074D01*
X81846919Y-96230250D01*
X81854151Y-96210038D01*
X81863330Y-96190632D01*
X81874366Y-96172219D01*
X81887154Y-96154976D01*
X81901570Y-96139070D01*
X81917476Y-96124654D01*
X81934719Y-96111866D01*
X81953132Y-96100830D01*
X81972538Y-96091651D01*
X81992750Y-96084419D01*
X82013574Y-96079203D01*
X82034809Y-96076053D01*
X82056250Y-96075000D01*
X82493750Y-96075000D01*
X82515191Y-96076053D01*
X82515191Y-96076053D01*
G37*
D11*
X82275000Y-96550000D03*
D10*
G36*
X89677691Y-88288553D02*
G01*
X89698926Y-88291703D01*
X89719750Y-88296919D01*
X89739962Y-88304151D01*
X89759368Y-88313330D01*
X89777781Y-88324366D01*
X89795024Y-88337154D01*
X89810930Y-88351570D01*
X89825346Y-88367476D01*
X89838134Y-88384719D01*
X89849170Y-88403132D01*
X89858349Y-88422538D01*
X89865581Y-88442750D01*
X89870797Y-88463574D01*
X89873947Y-88484809D01*
X89875000Y-88506250D01*
X89875000Y-88943750D01*
X89873947Y-88965191D01*
X89870797Y-88986426D01*
X89865581Y-89007250D01*
X89858349Y-89027462D01*
X89849170Y-89046868D01*
X89838134Y-89065281D01*
X89825346Y-89082524D01*
X89810930Y-89098430D01*
X89795024Y-89112846D01*
X89777781Y-89125634D01*
X89759368Y-89136670D01*
X89739962Y-89145849D01*
X89719750Y-89153081D01*
X89698926Y-89158297D01*
X89677691Y-89161447D01*
X89656250Y-89162500D01*
X89143750Y-89162500D01*
X89122309Y-89161447D01*
X89101074Y-89158297D01*
X89080250Y-89153081D01*
X89060038Y-89145849D01*
X89040632Y-89136670D01*
X89022219Y-89125634D01*
X89004976Y-89112846D01*
X88989070Y-89098430D01*
X88974654Y-89082524D01*
X88961866Y-89065281D01*
X88950830Y-89046868D01*
X88941651Y-89027462D01*
X88934419Y-89007250D01*
X88929203Y-88986426D01*
X88926053Y-88965191D01*
X88925000Y-88943750D01*
X88925000Y-88506250D01*
X88926053Y-88484809D01*
X88929203Y-88463574D01*
X88934419Y-88442750D01*
X88941651Y-88422538D01*
X88950830Y-88403132D01*
X88961866Y-88384719D01*
X88974654Y-88367476D01*
X88989070Y-88351570D01*
X89004976Y-88337154D01*
X89022219Y-88324366D01*
X89040632Y-88313330D01*
X89060038Y-88304151D01*
X89080250Y-88296919D01*
X89101074Y-88291703D01*
X89122309Y-88288553D01*
X89143750Y-88287500D01*
X89656250Y-88287500D01*
X89677691Y-88288553D01*
X89677691Y-88288553D01*
G37*
D11*
X89400000Y-88725000D03*
D10*
G36*
X89677691Y-89863553D02*
G01*
X89698926Y-89866703D01*
X89719750Y-89871919D01*
X89739962Y-89879151D01*
X89759368Y-89888330D01*
X89777781Y-89899366D01*
X89795024Y-89912154D01*
X89810930Y-89926570D01*
X89825346Y-89942476D01*
X89838134Y-89959719D01*
X89849170Y-89978132D01*
X89858349Y-89997538D01*
X89865581Y-90017750D01*
X89870797Y-90038574D01*
X89873947Y-90059809D01*
X89875000Y-90081250D01*
X89875000Y-90518750D01*
X89873947Y-90540191D01*
X89870797Y-90561426D01*
X89865581Y-90582250D01*
X89858349Y-90602462D01*
X89849170Y-90621868D01*
X89838134Y-90640281D01*
X89825346Y-90657524D01*
X89810930Y-90673430D01*
X89795024Y-90687846D01*
X89777781Y-90700634D01*
X89759368Y-90711670D01*
X89739962Y-90720849D01*
X89719750Y-90728081D01*
X89698926Y-90733297D01*
X89677691Y-90736447D01*
X89656250Y-90737500D01*
X89143750Y-90737500D01*
X89122309Y-90736447D01*
X89101074Y-90733297D01*
X89080250Y-90728081D01*
X89060038Y-90720849D01*
X89040632Y-90711670D01*
X89022219Y-90700634D01*
X89004976Y-90687846D01*
X88989070Y-90673430D01*
X88974654Y-90657524D01*
X88961866Y-90640281D01*
X88950830Y-90621868D01*
X88941651Y-90602462D01*
X88934419Y-90582250D01*
X88929203Y-90561426D01*
X88926053Y-90540191D01*
X88925000Y-90518750D01*
X88925000Y-90081250D01*
X88926053Y-90059809D01*
X88929203Y-90038574D01*
X88934419Y-90017750D01*
X88941651Y-89997538D01*
X88950830Y-89978132D01*
X88961866Y-89959719D01*
X88974654Y-89942476D01*
X88989070Y-89926570D01*
X89004976Y-89912154D01*
X89022219Y-89899366D01*
X89040632Y-89888330D01*
X89060038Y-89879151D01*
X89080250Y-89871919D01*
X89101074Y-89866703D01*
X89122309Y-89863553D01*
X89143750Y-89862500D01*
X89656250Y-89862500D01*
X89677691Y-89863553D01*
X89677691Y-89863553D01*
G37*
D11*
X89400000Y-90300000D03*
D10*
G36*
X98715191Y-97126053D02*
G01*
X98736426Y-97129203D01*
X98757250Y-97134419D01*
X98777462Y-97141651D01*
X98796868Y-97150830D01*
X98815281Y-97161866D01*
X98832524Y-97174654D01*
X98848430Y-97189070D01*
X98862846Y-97204976D01*
X98875634Y-97222219D01*
X98886670Y-97240632D01*
X98895849Y-97260038D01*
X98903081Y-97280250D01*
X98908297Y-97301074D01*
X98911447Y-97322309D01*
X98912500Y-97343750D01*
X98912500Y-97856250D01*
X98911447Y-97877691D01*
X98908297Y-97898926D01*
X98903081Y-97919750D01*
X98895849Y-97939962D01*
X98886670Y-97959368D01*
X98875634Y-97977781D01*
X98862846Y-97995024D01*
X98848430Y-98010930D01*
X98832524Y-98025346D01*
X98815281Y-98038134D01*
X98796868Y-98049170D01*
X98777462Y-98058349D01*
X98757250Y-98065581D01*
X98736426Y-98070797D01*
X98715191Y-98073947D01*
X98693750Y-98075000D01*
X98256250Y-98075000D01*
X98234809Y-98073947D01*
X98213574Y-98070797D01*
X98192750Y-98065581D01*
X98172538Y-98058349D01*
X98153132Y-98049170D01*
X98134719Y-98038134D01*
X98117476Y-98025346D01*
X98101570Y-98010930D01*
X98087154Y-97995024D01*
X98074366Y-97977781D01*
X98063330Y-97959368D01*
X98054151Y-97939962D01*
X98046919Y-97919750D01*
X98041703Y-97898926D01*
X98038553Y-97877691D01*
X98037500Y-97856250D01*
X98037500Y-97343750D01*
X98038553Y-97322309D01*
X98041703Y-97301074D01*
X98046919Y-97280250D01*
X98054151Y-97260038D01*
X98063330Y-97240632D01*
X98074366Y-97222219D01*
X98087154Y-97204976D01*
X98101570Y-97189070D01*
X98117476Y-97174654D01*
X98134719Y-97161866D01*
X98153132Y-97150830D01*
X98172538Y-97141651D01*
X98192750Y-97134419D01*
X98213574Y-97129203D01*
X98234809Y-97126053D01*
X98256250Y-97125000D01*
X98693750Y-97125000D01*
X98715191Y-97126053D01*
X98715191Y-97126053D01*
G37*
D11*
X98475000Y-97600000D03*
D10*
G36*
X97140191Y-97126053D02*
G01*
X97161426Y-97129203D01*
X97182250Y-97134419D01*
X97202462Y-97141651D01*
X97221868Y-97150830D01*
X97240281Y-97161866D01*
X97257524Y-97174654D01*
X97273430Y-97189070D01*
X97287846Y-97204976D01*
X97300634Y-97222219D01*
X97311670Y-97240632D01*
X97320849Y-97260038D01*
X97328081Y-97280250D01*
X97333297Y-97301074D01*
X97336447Y-97322309D01*
X97337500Y-97343750D01*
X97337500Y-97856250D01*
X97336447Y-97877691D01*
X97333297Y-97898926D01*
X97328081Y-97919750D01*
X97320849Y-97939962D01*
X97311670Y-97959368D01*
X97300634Y-97977781D01*
X97287846Y-97995024D01*
X97273430Y-98010930D01*
X97257524Y-98025346D01*
X97240281Y-98038134D01*
X97221868Y-98049170D01*
X97202462Y-98058349D01*
X97182250Y-98065581D01*
X97161426Y-98070797D01*
X97140191Y-98073947D01*
X97118750Y-98075000D01*
X96681250Y-98075000D01*
X96659809Y-98073947D01*
X96638574Y-98070797D01*
X96617750Y-98065581D01*
X96597538Y-98058349D01*
X96578132Y-98049170D01*
X96559719Y-98038134D01*
X96542476Y-98025346D01*
X96526570Y-98010930D01*
X96512154Y-97995024D01*
X96499366Y-97977781D01*
X96488330Y-97959368D01*
X96479151Y-97939962D01*
X96471919Y-97919750D01*
X96466703Y-97898926D01*
X96463553Y-97877691D01*
X96462500Y-97856250D01*
X96462500Y-97343750D01*
X96463553Y-97322309D01*
X96466703Y-97301074D01*
X96471919Y-97280250D01*
X96479151Y-97260038D01*
X96488330Y-97240632D01*
X96499366Y-97222219D01*
X96512154Y-97204976D01*
X96526570Y-97189070D01*
X96542476Y-97174654D01*
X96559719Y-97161866D01*
X96578132Y-97150830D01*
X96597538Y-97141651D01*
X96617750Y-97134419D01*
X96638574Y-97129203D01*
X96659809Y-97126053D01*
X96681250Y-97125000D01*
X97118750Y-97125000D01*
X97140191Y-97126053D01*
X97140191Y-97126053D01*
G37*
D11*
X96900000Y-97600000D03*
D10*
G36*
X89727691Y-92626053D02*
G01*
X89748926Y-92629203D01*
X89769750Y-92634419D01*
X89789962Y-92641651D01*
X89809368Y-92650830D01*
X89827781Y-92661866D01*
X89845024Y-92674654D01*
X89860930Y-92689070D01*
X89875346Y-92704976D01*
X89888134Y-92722219D01*
X89899170Y-92740632D01*
X89908349Y-92760038D01*
X89915581Y-92780250D01*
X89920797Y-92801074D01*
X89923947Y-92822309D01*
X89925000Y-92843750D01*
X89925000Y-93281250D01*
X89923947Y-93302691D01*
X89920797Y-93323926D01*
X89915581Y-93344750D01*
X89908349Y-93364962D01*
X89899170Y-93384368D01*
X89888134Y-93402781D01*
X89875346Y-93420024D01*
X89860930Y-93435930D01*
X89845024Y-93450346D01*
X89827781Y-93463134D01*
X89809368Y-93474170D01*
X89789962Y-93483349D01*
X89769750Y-93490581D01*
X89748926Y-93495797D01*
X89727691Y-93498947D01*
X89706250Y-93500000D01*
X89193750Y-93500000D01*
X89172309Y-93498947D01*
X89151074Y-93495797D01*
X89130250Y-93490581D01*
X89110038Y-93483349D01*
X89090632Y-93474170D01*
X89072219Y-93463134D01*
X89054976Y-93450346D01*
X89039070Y-93435930D01*
X89024654Y-93420024D01*
X89011866Y-93402781D01*
X89000830Y-93384368D01*
X88991651Y-93364962D01*
X88984419Y-93344750D01*
X88979203Y-93323926D01*
X88976053Y-93302691D01*
X88975000Y-93281250D01*
X88975000Y-92843750D01*
X88976053Y-92822309D01*
X88979203Y-92801074D01*
X88984419Y-92780250D01*
X88991651Y-92760038D01*
X89000830Y-92740632D01*
X89011866Y-92722219D01*
X89024654Y-92704976D01*
X89039070Y-92689070D01*
X89054976Y-92674654D01*
X89072219Y-92661866D01*
X89090632Y-92650830D01*
X89110038Y-92641651D01*
X89130250Y-92634419D01*
X89151074Y-92629203D01*
X89172309Y-92626053D01*
X89193750Y-92625000D01*
X89706250Y-92625000D01*
X89727691Y-92626053D01*
X89727691Y-92626053D01*
G37*
D11*
X89450000Y-93062500D03*
D10*
G36*
X89727691Y-94201053D02*
G01*
X89748926Y-94204203D01*
X89769750Y-94209419D01*
X89789962Y-94216651D01*
X89809368Y-94225830D01*
X89827781Y-94236866D01*
X89845024Y-94249654D01*
X89860930Y-94264070D01*
X89875346Y-94279976D01*
X89888134Y-94297219D01*
X89899170Y-94315632D01*
X89908349Y-94335038D01*
X89915581Y-94355250D01*
X89920797Y-94376074D01*
X89923947Y-94397309D01*
X89925000Y-94418750D01*
X89925000Y-94856250D01*
X89923947Y-94877691D01*
X89920797Y-94898926D01*
X89915581Y-94919750D01*
X89908349Y-94939962D01*
X89899170Y-94959368D01*
X89888134Y-94977781D01*
X89875346Y-94995024D01*
X89860930Y-95010930D01*
X89845024Y-95025346D01*
X89827781Y-95038134D01*
X89809368Y-95049170D01*
X89789962Y-95058349D01*
X89769750Y-95065581D01*
X89748926Y-95070797D01*
X89727691Y-95073947D01*
X89706250Y-95075000D01*
X89193750Y-95075000D01*
X89172309Y-95073947D01*
X89151074Y-95070797D01*
X89130250Y-95065581D01*
X89110038Y-95058349D01*
X89090632Y-95049170D01*
X89072219Y-95038134D01*
X89054976Y-95025346D01*
X89039070Y-95010930D01*
X89024654Y-94995024D01*
X89011866Y-94977781D01*
X89000830Y-94959368D01*
X88991651Y-94939962D01*
X88984419Y-94919750D01*
X88979203Y-94898926D01*
X88976053Y-94877691D01*
X88975000Y-94856250D01*
X88975000Y-94418750D01*
X88976053Y-94397309D01*
X88979203Y-94376074D01*
X88984419Y-94355250D01*
X88991651Y-94335038D01*
X89000830Y-94315632D01*
X89011866Y-94297219D01*
X89024654Y-94279976D01*
X89039070Y-94264070D01*
X89054976Y-94249654D01*
X89072219Y-94236866D01*
X89090632Y-94225830D01*
X89110038Y-94216651D01*
X89130250Y-94209419D01*
X89151074Y-94204203D01*
X89172309Y-94201053D01*
X89193750Y-94200000D01*
X89706250Y-94200000D01*
X89727691Y-94201053D01*
X89727691Y-94201053D01*
G37*
D11*
X89450000Y-94637500D03*
D10*
G36*
X82565191Y-85226053D02*
G01*
X82586426Y-85229203D01*
X82607250Y-85234419D01*
X82627462Y-85241651D01*
X82646868Y-85250830D01*
X82665281Y-85261866D01*
X82682524Y-85274654D01*
X82698430Y-85289070D01*
X82712846Y-85304976D01*
X82725634Y-85322219D01*
X82736670Y-85340632D01*
X82745849Y-85360038D01*
X82753081Y-85380250D01*
X82758297Y-85401074D01*
X82761447Y-85422309D01*
X82762500Y-85443750D01*
X82762500Y-85956250D01*
X82761447Y-85977691D01*
X82758297Y-85998926D01*
X82753081Y-86019750D01*
X82745849Y-86039962D01*
X82736670Y-86059368D01*
X82725634Y-86077781D01*
X82712846Y-86095024D01*
X82698430Y-86110930D01*
X82682524Y-86125346D01*
X82665281Y-86138134D01*
X82646868Y-86149170D01*
X82627462Y-86158349D01*
X82607250Y-86165581D01*
X82586426Y-86170797D01*
X82565191Y-86173947D01*
X82543750Y-86175000D01*
X82106250Y-86175000D01*
X82084809Y-86173947D01*
X82063574Y-86170797D01*
X82042750Y-86165581D01*
X82022538Y-86158349D01*
X82003132Y-86149170D01*
X81984719Y-86138134D01*
X81967476Y-86125346D01*
X81951570Y-86110930D01*
X81937154Y-86095024D01*
X81924366Y-86077781D01*
X81913330Y-86059368D01*
X81904151Y-86039962D01*
X81896919Y-86019750D01*
X81891703Y-85998926D01*
X81888553Y-85977691D01*
X81887500Y-85956250D01*
X81887500Y-85443750D01*
X81888553Y-85422309D01*
X81891703Y-85401074D01*
X81896919Y-85380250D01*
X81904151Y-85360038D01*
X81913330Y-85340632D01*
X81924366Y-85322219D01*
X81937154Y-85304976D01*
X81951570Y-85289070D01*
X81967476Y-85274654D01*
X81984719Y-85261866D01*
X82003132Y-85250830D01*
X82022538Y-85241651D01*
X82042750Y-85234419D01*
X82063574Y-85229203D01*
X82084809Y-85226053D01*
X82106250Y-85225000D01*
X82543750Y-85225000D01*
X82565191Y-85226053D01*
X82565191Y-85226053D01*
G37*
D11*
X82325000Y-85700000D03*
D10*
G36*
X80990191Y-85226053D02*
G01*
X81011426Y-85229203D01*
X81032250Y-85234419D01*
X81052462Y-85241651D01*
X81071868Y-85250830D01*
X81090281Y-85261866D01*
X81107524Y-85274654D01*
X81123430Y-85289070D01*
X81137846Y-85304976D01*
X81150634Y-85322219D01*
X81161670Y-85340632D01*
X81170849Y-85360038D01*
X81178081Y-85380250D01*
X81183297Y-85401074D01*
X81186447Y-85422309D01*
X81187500Y-85443750D01*
X81187500Y-85956250D01*
X81186447Y-85977691D01*
X81183297Y-85998926D01*
X81178081Y-86019750D01*
X81170849Y-86039962D01*
X81161670Y-86059368D01*
X81150634Y-86077781D01*
X81137846Y-86095024D01*
X81123430Y-86110930D01*
X81107524Y-86125346D01*
X81090281Y-86138134D01*
X81071868Y-86149170D01*
X81052462Y-86158349D01*
X81032250Y-86165581D01*
X81011426Y-86170797D01*
X80990191Y-86173947D01*
X80968750Y-86175000D01*
X80531250Y-86175000D01*
X80509809Y-86173947D01*
X80488574Y-86170797D01*
X80467750Y-86165581D01*
X80447538Y-86158349D01*
X80428132Y-86149170D01*
X80409719Y-86138134D01*
X80392476Y-86125346D01*
X80376570Y-86110930D01*
X80362154Y-86095024D01*
X80349366Y-86077781D01*
X80338330Y-86059368D01*
X80329151Y-86039962D01*
X80321919Y-86019750D01*
X80316703Y-85998926D01*
X80313553Y-85977691D01*
X80312500Y-85956250D01*
X80312500Y-85443750D01*
X80313553Y-85422309D01*
X80316703Y-85401074D01*
X80321919Y-85380250D01*
X80329151Y-85360038D01*
X80338330Y-85340632D01*
X80349366Y-85322219D01*
X80362154Y-85304976D01*
X80376570Y-85289070D01*
X80392476Y-85274654D01*
X80409719Y-85261866D01*
X80428132Y-85250830D01*
X80447538Y-85241651D01*
X80467750Y-85234419D01*
X80488574Y-85229203D01*
X80509809Y-85226053D01*
X80531250Y-85225000D01*
X80968750Y-85225000D01*
X80990191Y-85226053D01*
X80990191Y-85226053D01*
G37*
D11*
X80750000Y-85700000D03*
D10*
G36*
X86490191Y-87026053D02*
G01*
X86511426Y-87029203D01*
X86532250Y-87034419D01*
X86552462Y-87041651D01*
X86571868Y-87050830D01*
X86590281Y-87061866D01*
X86607524Y-87074654D01*
X86623430Y-87089070D01*
X86637846Y-87104976D01*
X86650634Y-87122219D01*
X86661670Y-87140632D01*
X86670849Y-87160038D01*
X86678081Y-87180250D01*
X86683297Y-87201074D01*
X86686447Y-87222309D01*
X86687500Y-87243750D01*
X86687500Y-87756250D01*
X86686447Y-87777691D01*
X86683297Y-87798926D01*
X86678081Y-87819750D01*
X86670849Y-87839962D01*
X86661670Y-87859368D01*
X86650634Y-87877781D01*
X86637846Y-87895024D01*
X86623430Y-87910930D01*
X86607524Y-87925346D01*
X86590281Y-87938134D01*
X86571868Y-87949170D01*
X86552462Y-87958349D01*
X86532250Y-87965581D01*
X86511426Y-87970797D01*
X86490191Y-87973947D01*
X86468750Y-87975000D01*
X86031250Y-87975000D01*
X86009809Y-87973947D01*
X85988574Y-87970797D01*
X85967750Y-87965581D01*
X85947538Y-87958349D01*
X85928132Y-87949170D01*
X85909719Y-87938134D01*
X85892476Y-87925346D01*
X85876570Y-87910930D01*
X85862154Y-87895024D01*
X85849366Y-87877781D01*
X85838330Y-87859368D01*
X85829151Y-87839962D01*
X85821919Y-87819750D01*
X85816703Y-87798926D01*
X85813553Y-87777691D01*
X85812500Y-87756250D01*
X85812500Y-87243750D01*
X85813553Y-87222309D01*
X85816703Y-87201074D01*
X85821919Y-87180250D01*
X85829151Y-87160038D01*
X85838330Y-87140632D01*
X85849366Y-87122219D01*
X85862154Y-87104976D01*
X85876570Y-87089070D01*
X85892476Y-87074654D01*
X85909719Y-87061866D01*
X85928132Y-87050830D01*
X85947538Y-87041651D01*
X85967750Y-87034419D01*
X85988574Y-87029203D01*
X86009809Y-87026053D01*
X86031250Y-87025000D01*
X86468750Y-87025000D01*
X86490191Y-87026053D01*
X86490191Y-87026053D01*
G37*
D11*
X86250000Y-87500000D03*
D10*
G36*
X84915191Y-87026053D02*
G01*
X84936426Y-87029203D01*
X84957250Y-87034419D01*
X84977462Y-87041651D01*
X84996868Y-87050830D01*
X85015281Y-87061866D01*
X85032524Y-87074654D01*
X85048430Y-87089070D01*
X85062846Y-87104976D01*
X85075634Y-87122219D01*
X85086670Y-87140632D01*
X85095849Y-87160038D01*
X85103081Y-87180250D01*
X85108297Y-87201074D01*
X85111447Y-87222309D01*
X85112500Y-87243750D01*
X85112500Y-87756250D01*
X85111447Y-87777691D01*
X85108297Y-87798926D01*
X85103081Y-87819750D01*
X85095849Y-87839962D01*
X85086670Y-87859368D01*
X85075634Y-87877781D01*
X85062846Y-87895024D01*
X85048430Y-87910930D01*
X85032524Y-87925346D01*
X85015281Y-87938134D01*
X84996868Y-87949170D01*
X84977462Y-87958349D01*
X84957250Y-87965581D01*
X84936426Y-87970797D01*
X84915191Y-87973947D01*
X84893750Y-87975000D01*
X84456250Y-87975000D01*
X84434809Y-87973947D01*
X84413574Y-87970797D01*
X84392750Y-87965581D01*
X84372538Y-87958349D01*
X84353132Y-87949170D01*
X84334719Y-87938134D01*
X84317476Y-87925346D01*
X84301570Y-87910930D01*
X84287154Y-87895024D01*
X84274366Y-87877781D01*
X84263330Y-87859368D01*
X84254151Y-87839962D01*
X84246919Y-87819750D01*
X84241703Y-87798926D01*
X84238553Y-87777691D01*
X84237500Y-87756250D01*
X84237500Y-87243750D01*
X84238553Y-87222309D01*
X84241703Y-87201074D01*
X84246919Y-87180250D01*
X84254151Y-87160038D01*
X84263330Y-87140632D01*
X84274366Y-87122219D01*
X84287154Y-87104976D01*
X84301570Y-87089070D01*
X84317476Y-87074654D01*
X84334719Y-87061866D01*
X84353132Y-87050830D01*
X84372538Y-87041651D01*
X84392750Y-87034419D01*
X84413574Y-87029203D01*
X84434809Y-87026053D01*
X84456250Y-87025000D01*
X84893750Y-87025000D01*
X84915191Y-87026053D01*
X84915191Y-87026053D01*
G37*
D11*
X84675000Y-87500000D03*
D10*
G36*
X82515191Y-91076053D02*
G01*
X82536426Y-91079203D01*
X82557250Y-91084419D01*
X82577462Y-91091651D01*
X82596868Y-91100830D01*
X82615281Y-91111866D01*
X82632524Y-91124654D01*
X82648430Y-91139070D01*
X82662846Y-91154976D01*
X82675634Y-91172219D01*
X82686670Y-91190632D01*
X82695849Y-91210038D01*
X82703081Y-91230250D01*
X82708297Y-91251074D01*
X82711447Y-91272309D01*
X82712500Y-91293750D01*
X82712500Y-91806250D01*
X82711447Y-91827691D01*
X82708297Y-91848926D01*
X82703081Y-91869750D01*
X82695849Y-91889962D01*
X82686670Y-91909368D01*
X82675634Y-91927781D01*
X82662846Y-91945024D01*
X82648430Y-91960930D01*
X82632524Y-91975346D01*
X82615281Y-91988134D01*
X82596868Y-91999170D01*
X82577462Y-92008349D01*
X82557250Y-92015581D01*
X82536426Y-92020797D01*
X82515191Y-92023947D01*
X82493750Y-92025000D01*
X82056250Y-92025000D01*
X82034809Y-92023947D01*
X82013574Y-92020797D01*
X81992750Y-92015581D01*
X81972538Y-92008349D01*
X81953132Y-91999170D01*
X81934719Y-91988134D01*
X81917476Y-91975346D01*
X81901570Y-91960930D01*
X81887154Y-91945024D01*
X81874366Y-91927781D01*
X81863330Y-91909368D01*
X81854151Y-91889962D01*
X81846919Y-91869750D01*
X81841703Y-91848926D01*
X81838553Y-91827691D01*
X81837500Y-91806250D01*
X81837500Y-91293750D01*
X81838553Y-91272309D01*
X81841703Y-91251074D01*
X81846919Y-91230250D01*
X81854151Y-91210038D01*
X81863330Y-91190632D01*
X81874366Y-91172219D01*
X81887154Y-91154976D01*
X81901570Y-91139070D01*
X81917476Y-91124654D01*
X81934719Y-91111866D01*
X81953132Y-91100830D01*
X81972538Y-91091651D01*
X81992750Y-91084419D01*
X82013574Y-91079203D01*
X82034809Y-91076053D01*
X82056250Y-91075000D01*
X82493750Y-91075000D01*
X82515191Y-91076053D01*
X82515191Y-91076053D01*
G37*
D11*
X82275000Y-91550000D03*
D10*
G36*
X80940191Y-91076053D02*
G01*
X80961426Y-91079203D01*
X80982250Y-91084419D01*
X81002462Y-91091651D01*
X81021868Y-91100830D01*
X81040281Y-91111866D01*
X81057524Y-91124654D01*
X81073430Y-91139070D01*
X81087846Y-91154976D01*
X81100634Y-91172219D01*
X81111670Y-91190632D01*
X81120849Y-91210038D01*
X81128081Y-91230250D01*
X81133297Y-91251074D01*
X81136447Y-91272309D01*
X81137500Y-91293750D01*
X81137500Y-91806250D01*
X81136447Y-91827691D01*
X81133297Y-91848926D01*
X81128081Y-91869750D01*
X81120849Y-91889962D01*
X81111670Y-91909368D01*
X81100634Y-91927781D01*
X81087846Y-91945024D01*
X81073430Y-91960930D01*
X81057524Y-91975346D01*
X81040281Y-91988134D01*
X81021868Y-91999170D01*
X81002462Y-92008349D01*
X80982250Y-92015581D01*
X80961426Y-92020797D01*
X80940191Y-92023947D01*
X80918750Y-92025000D01*
X80481250Y-92025000D01*
X80459809Y-92023947D01*
X80438574Y-92020797D01*
X80417750Y-92015581D01*
X80397538Y-92008349D01*
X80378132Y-91999170D01*
X80359719Y-91988134D01*
X80342476Y-91975346D01*
X80326570Y-91960930D01*
X80312154Y-91945024D01*
X80299366Y-91927781D01*
X80288330Y-91909368D01*
X80279151Y-91889962D01*
X80271919Y-91869750D01*
X80266703Y-91848926D01*
X80263553Y-91827691D01*
X80262500Y-91806250D01*
X80262500Y-91293750D01*
X80263553Y-91272309D01*
X80266703Y-91251074D01*
X80271919Y-91230250D01*
X80279151Y-91210038D01*
X80288330Y-91190632D01*
X80299366Y-91172219D01*
X80312154Y-91154976D01*
X80326570Y-91139070D01*
X80342476Y-91124654D01*
X80359719Y-91111866D01*
X80378132Y-91100830D01*
X80397538Y-91091651D01*
X80417750Y-91084419D01*
X80438574Y-91079203D01*
X80459809Y-91076053D01*
X80481250Y-91075000D01*
X80918750Y-91075000D01*
X80940191Y-91076053D01*
X80940191Y-91076053D01*
G37*
D11*
X80700000Y-91550000D03*
D10*
G36*
X91677691Y-82663553D02*
G01*
X91698926Y-82666703D01*
X91719750Y-82671919D01*
X91739962Y-82679151D01*
X91759368Y-82688330D01*
X91777781Y-82699366D01*
X91795024Y-82712154D01*
X91810930Y-82726570D01*
X91825346Y-82742476D01*
X91838134Y-82759719D01*
X91849170Y-82778132D01*
X91858349Y-82797538D01*
X91865581Y-82817750D01*
X91870797Y-82838574D01*
X91873947Y-82859809D01*
X91875000Y-82881250D01*
X91875000Y-83318750D01*
X91873947Y-83340191D01*
X91870797Y-83361426D01*
X91865581Y-83382250D01*
X91858349Y-83402462D01*
X91849170Y-83421868D01*
X91838134Y-83440281D01*
X91825346Y-83457524D01*
X91810930Y-83473430D01*
X91795024Y-83487846D01*
X91777781Y-83500634D01*
X91759368Y-83511670D01*
X91739962Y-83520849D01*
X91719750Y-83528081D01*
X91698926Y-83533297D01*
X91677691Y-83536447D01*
X91656250Y-83537500D01*
X91143750Y-83537500D01*
X91122309Y-83536447D01*
X91101074Y-83533297D01*
X91080250Y-83528081D01*
X91060038Y-83520849D01*
X91040632Y-83511670D01*
X91022219Y-83500634D01*
X91004976Y-83487846D01*
X90989070Y-83473430D01*
X90974654Y-83457524D01*
X90961866Y-83440281D01*
X90950830Y-83421868D01*
X90941651Y-83402462D01*
X90934419Y-83382250D01*
X90929203Y-83361426D01*
X90926053Y-83340191D01*
X90925000Y-83318750D01*
X90925000Y-82881250D01*
X90926053Y-82859809D01*
X90929203Y-82838574D01*
X90934419Y-82817750D01*
X90941651Y-82797538D01*
X90950830Y-82778132D01*
X90961866Y-82759719D01*
X90974654Y-82742476D01*
X90989070Y-82726570D01*
X91004976Y-82712154D01*
X91022219Y-82699366D01*
X91040632Y-82688330D01*
X91060038Y-82679151D01*
X91080250Y-82671919D01*
X91101074Y-82666703D01*
X91122309Y-82663553D01*
X91143750Y-82662500D01*
X91656250Y-82662500D01*
X91677691Y-82663553D01*
X91677691Y-82663553D01*
G37*
D11*
X91400000Y-83100000D03*
D10*
G36*
X91677691Y-84238553D02*
G01*
X91698926Y-84241703D01*
X91719750Y-84246919D01*
X91739962Y-84254151D01*
X91759368Y-84263330D01*
X91777781Y-84274366D01*
X91795024Y-84287154D01*
X91810930Y-84301570D01*
X91825346Y-84317476D01*
X91838134Y-84334719D01*
X91849170Y-84353132D01*
X91858349Y-84372538D01*
X91865581Y-84392750D01*
X91870797Y-84413574D01*
X91873947Y-84434809D01*
X91875000Y-84456250D01*
X91875000Y-84893750D01*
X91873947Y-84915191D01*
X91870797Y-84936426D01*
X91865581Y-84957250D01*
X91858349Y-84977462D01*
X91849170Y-84996868D01*
X91838134Y-85015281D01*
X91825346Y-85032524D01*
X91810930Y-85048430D01*
X91795024Y-85062846D01*
X91777781Y-85075634D01*
X91759368Y-85086670D01*
X91739962Y-85095849D01*
X91719750Y-85103081D01*
X91698926Y-85108297D01*
X91677691Y-85111447D01*
X91656250Y-85112500D01*
X91143750Y-85112500D01*
X91122309Y-85111447D01*
X91101074Y-85108297D01*
X91080250Y-85103081D01*
X91060038Y-85095849D01*
X91040632Y-85086670D01*
X91022219Y-85075634D01*
X91004976Y-85062846D01*
X90989070Y-85048430D01*
X90974654Y-85032524D01*
X90961866Y-85015281D01*
X90950830Y-84996868D01*
X90941651Y-84977462D01*
X90934419Y-84957250D01*
X90929203Y-84936426D01*
X90926053Y-84915191D01*
X90925000Y-84893750D01*
X90925000Y-84456250D01*
X90926053Y-84434809D01*
X90929203Y-84413574D01*
X90934419Y-84392750D01*
X90941651Y-84372538D01*
X90950830Y-84353132D01*
X90961866Y-84334719D01*
X90974654Y-84317476D01*
X90989070Y-84301570D01*
X91004976Y-84287154D01*
X91022219Y-84274366D01*
X91040632Y-84263330D01*
X91060038Y-84254151D01*
X91080250Y-84246919D01*
X91101074Y-84241703D01*
X91122309Y-84238553D01*
X91143750Y-84237500D01*
X91656250Y-84237500D01*
X91677691Y-84238553D01*
X91677691Y-84238553D01*
G37*
D11*
X91400000Y-84675000D03*
D10*
G36*
X98077691Y-84251053D02*
G01*
X98098926Y-84254203D01*
X98119750Y-84259419D01*
X98139962Y-84266651D01*
X98159368Y-84275830D01*
X98177781Y-84286866D01*
X98195024Y-84299654D01*
X98210930Y-84314070D01*
X98225346Y-84329976D01*
X98238134Y-84347219D01*
X98249170Y-84365632D01*
X98258349Y-84385038D01*
X98265581Y-84405250D01*
X98270797Y-84426074D01*
X98273947Y-84447309D01*
X98275000Y-84468750D01*
X98275000Y-84906250D01*
X98273947Y-84927691D01*
X98270797Y-84948926D01*
X98265581Y-84969750D01*
X98258349Y-84989962D01*
X98249170Y-85009368D01*
X98238134Y-85027781D01*
X98225346Y-85045024D01*
X98210930Y-85060930D01*
X98195024Y-85075346D01*
X98177781Y-85088134D01*
X98159368Y-85099170D01*
X98139962Y-85108349D01*
X98119750Y-85115581D01*
X98098926Y-85120797D01*
X98077691Y-85123947D01*
X98056250Y-85125000D01*
X97543750Y-85125000D01*
X97522309Y-85123947D01*
X97501074Y-85120797D01*
X97480250Y-85115581D01*
X97460038Y-85108349D01*
X97440632Y-85099170D01*
X97422219Y-85088134D01*
X97404976Y-85075346D01*
X97389070Y-85060930D01*
X97374654Y-85045024D01*
X97361866Y-85027781D01*
X97350830Y-85009368D01*
X97341651Y-84989962D01*
X97334419Y-84969750D01*
X97329203Y-84948926D01*
X97326053Y-84927691D01*
X97325000Y-84906250D01*
X97325000Y-84468750D01*
X97326053Y-84447309D01*
X97329203Y-84426074D01*
X97334419Y-84405250D01*
X97341651Y-84385038D01*
X97350830Y-84365632D01*
X97361866Y-84347219D01*
X97374654Y-84329976D01*
X97389070Y-84314070D01*
X97404976Y-84299654D01*
X97422219Y-84286866D01*
X97440632Y-84275830D01*
X97460038Y-84266651D01*
X97480250Y-84259419D01*
X97501074Y-84254203D01*
X97522309Y-84251053D01*
X97543750Y-84250000D01*
X98056250Y-84250000D01*
X98077691Y-84251053D01*
X98077691Y-84251053D01*
G37*
D11*
X97800000Y-84687500D03*
D10*
G36*
X98077691Y-82676053D02*
G01*
X98098926Y-82679203D01*
X98119750Y-82684419D01*
X98139962Y-82691651D01*
X98159368Y-82700830D01*
X98177781Y-82711866D01*
X98195024Y-82724654D01*
X98210930Y-82739070D01*
X98225346Y-82754976D01*
X98238134Y-82772219D01*
X98249170Y-82790632D01*
X98258349Y-82810038D01*
X98265581Y-82830250D01*
X98270797Y-82851074D01*
X98273947Y-82872309D01*
X98275000Y-82893750D01*
X98275000Y-83331250D01*
X98273947Y-83352691D01*
X98270797Y-83373926D01*
X98265581Y-83394750D01*
X98258349Y-83414962D01*
X98249170Y-83434368D01*
X98238134Y-83452781D01*
X98225346Y-83470024D01*
X98210930Y-83485930D01*
X98195024Y-83500346D01*
X98177781Y-83513134D01*
X98159368Y-83524170D01*
X98139962Y-83533349D01*
X98119750Y-83540581D01*
X98098926Y-83545797D01*
X98077691Y-83548947D01*
X98056250Y-83550000D01*
X97543750Y-83550000D01*
X97522309Y-83548947D01*
X97501074Y-83545797D01*
X97480250Y-83540581D01*
X97460038Y-83533349D01*
X97440632Y-83524170D01*
X97422219Y-83513134D01*
X97404976Y-83500346D01*
X97389070Y-83485930D01*
X97374654Y-83470024D01*
X97361866Y-83452781D01*
X97350830Y-83434368D01*
X97341651Y-83414962D01*
X97334419Y-83394750D01*
X97329203Y-83373926D01*
X97326053Y-83352691D01*
X97325000Y-83331250D01*
X97325000Y-82893750D01*
X97326053Y-82872309D01*
X97329203Y-82851074D01*
X97334419Y-82830250D01*
X97341651Y-82810038D01*
X97350830Y-82790632D01*
X97361866Y-82772219D01*
X97374654Y-82754976D01*
X97389070Y-82739070D01*
X97404976Y-82724654D01*
X97422219Y-82711866D01*
X97440632Y-82700830D01*
X97460038Y-82691651D01*
X97480250Y-82684419D01*
X97501074Y-82679203D01*
X97522309Y-82676053D01*
X97543750Y-82675000D01*
X98056250Y-82675000D01*
X98077691Y-82676053D01*
X98077691Y-82676053D01*
G37*
D11*
X97800000Y-83112500D03*
D14*
X107000000Y-95000000D03*
X107000000Y-92500000D03*
X107000000Y-90500000D03*
X107000000Y-88000000D03*
D16*
X109600000Y-98070000D03*
X109600000Y-84930000D03*
D10*
G36*
X77502691Y-82026053D02*
G01*
X77523926Y-82029203D01*
X77544750Y-82034419D01*
X77564962Y-82041651D01*
X77584368Y-82050830D01*
X77602781Y-82061866D01*
X77620024Y-82074654D01*
X77635930Y-82089070D01*
X77650346Y-82104976D01*
X77663134Y-82122219D01*
X77674170Y-82140632D01*
X77683349Y-82160038D01*
X77690581Y-82180250D01*
X77695797Y-82201074D01*
X77698947Y-82222309D01*
X77700000Y-82243750D01*
X77700000Y-82756250D01*
X77698947Y-82777691D01*
X77695797Y-82798926D01*
X77690581Y-82819750D01*
X77683349Y-82839962D01*
X77674170Y-82859368D01*
X77663134Y-82877781D01*
X77650346Y-82895024D01*
X77635930Y-82910930D01*
X77620024Y-82925346D01*
X77602781Y-82938134D01*
X77584368Y-82949170D01*
X77564962Y-82958349D01*
X77544750Y-82965581D01*
X77523926Y-82970797D01*
X77502691Y-82973947D01*
X77481250Y-82975000D01*
X77043750Y-82975000D01*
X77022309Y-82973947D01*
X77001074Y-82970797D01*
X76980250Y-82965581D01*
X76960038Y-82958349D01*
X76940632Y-82949170D01*
X76922219Y-82938134D01*
X76904976Y-82925346D01*
X76889070Y-82910930D01*
X76874654Y-82895024D01*
X76861866Y-82877781D01*
X76850830Y-82859368D01*
X76841651Y-82839962D01*
X76834419Y-82819750D01*
X76829203Y-82798926D01*
X76826053Y-82777691D01*
X76825000Y-82756250D01*
X76825000Y-82243750D01*
X76826053Y-82222309D01*
X76829203Y-82201074D01*
X76834419Y-82180250D01*
X76841651Y-82160038D01*
X76850830Y-82140632D01*
X76861866Y-82122219D01*
X76874654Y-82104976D01*
X76889070Y-82089070D01*
X76904976Y-82074654D01*
X76922219Y-82061866D01*
X76940632Y-82050830D01*
X76960038Y-82041651D01*
X76980250Y-82034419D01*
X77001074Y-82029203D01*
X77022309Y-82026053D01*
X77043750Y-82025000D01*
X77481250Y-82025000D01*
X77502691Y-82026053D01*
X77502691Y-82026053D01*
G37*
D11*
X77262500Y-82500000D03*
D10*
G36*
X79077691Y-82026053D02*
G01*
X79098926Y-82029203D01*
X79119750Y-82034419D01*
X79139962Y-82041651D01*
X79159368Y-82050830D01*
X79177781Y-82061866D01*
X79195024Y-82074654D01*
X79210930Y-82089070D01*
X79225346Y-82104976D01*
X79238134Y-82122219D01*
X79249170Y-82140632D01*
X79258349Y-82160038D01*
X79265581Y-82180250D01*
X79270797Y-82201074D01*
X79273947Y-82222309D01*
X79275000Y-82243750D01*
X79275000Y-82756250D01*
X79273947Y-82777691D01*
X79270797Y-82798926D01*
X79265581Y-82819750D01*
X79258349Y-82839962D01*
X79249170Y-82859368D01*
X79238134Y-82877781D01*
X79225346Y-82895024D01*
X79210930Y-82910930D01*
X79195024Y-82925346D01*
X79177781Y-82938134D01*
X79159368Y-82949170D01*
X79139962Y-82958349D01*
X79119750Y-82965581D01*
X79098926Y-82970797D01*
X79077691Y-82973947D01*
X79056250Y-82975000D01*
X78618750Y-82975000D01*
X78597309Y-82973947D01*
X78576074Y-82970797D01*
X78555250Y-82965581D01*
X78535038Y-82958349D01*
X78515632Y-82949170D01*
X78497219Y-82938134D01*
X78479976Y-82925346D01*
X78464070Y-82910930D01*
X78449654Y-82895024D01*
X78436866Y-82877781D01*
X78425830Y-82859368D01*
X78416651Y-82839962D01*
X78409419Y-82819750D01*
X78404203Y-82798926D01*
X78401053Y-82777691D01*
X78400000Y-82756250D01*
X78400000Y-82243750D01*
X78401053Y-82222309D01*
X78404203Y-82201074D01*
X78409419Y-82180250D01*
X78416651Y-82160038D01*
X78425830Y-82140632D01*
X78436866Y-82122219D01*
X78449654Y-82104976D01*
X78464070Y-82089070D01*
X78479976Y-82074654D01*
X78497219Y-82061866D01*
X78515632Y-82050830D01*
X78535038Y-82041651D01*
X78555250Y-82034419D01*
X78576074Y-82029203D01*
X78597309Y-82026053D01*
X78618750Y-82025000D01*
X79056250Y-82025000D01*
X79077691Y-82026053D01*
X79077691Y-82026053D01*
G37*
D11*
X78837500Y-82500000D03*
D10*
G36*
X104277691Y-88963553D02*
G01*
X104298926Y-88966703D01*
X104319750Y-88971919D01*
X104339962Y-88979151D01*
X104359368Y-88988330D01*
X104377781Y-88999366D01*
X104395024Y-89012154D01*
X104410930Y-89026570D01*
X104425346Y-89042476D01*
X104438134Y-89059719D01*
X104449170Y-89078132D01*
X104458349Y-89097538D01*
X104465581Y-89117750D01*
X104470797Y-89138574D01*
X104473947Y-89159809D01*
X104475000Y-89181250D01*
X104475000Y-89618750D01*
X104473947Y-89640191D01*
X104470797Y-89661426D01*
X104465581Y-89682250D01*
X104458349Y-89702462D01*
X104449170Y-89721868D01*
X104438134Y-89740281D01*
X104425346Y-89757524D01*
X104410930Y-89773430D01*
X104395024Y-89787846D01*
X104377781Y-89800634D01*
X104359368Y-89811670D01*
X104339962Y-89820849D01*
X104319750Y-89828081D01*
X104298926Y-89833297D01*
X104277691Y-89836447D01*
X104256250Y-89837500D01*
X103743750Y-89837500D01*
X103722309Y-89836447D01*
X103701074Y-89833297D01*
X103680250Y-89828081D01*
X103660038Y-89820849D01*
X103640632Y-89811670D01*
X103622219Y-89800634D01*
X103604976Y-89787846D01*
X103589070Y-89773430D01*
X103574654Y-89757524D01*
X103561866Y-89740281D01*
X103550830Y-89721868D01*
X103541651Y-89702462D01*
X103534419Y-89682250D01*
X103529203Y-89661426D01*
X103526053Y-89640191D01*
X103525000Y-89618750D01*
X103525000Y-89181250D01*
X103526053Y-89159809D01*
X103529203Y-89138574D01*
X103534419Y-89117750D01*
X103541651Y-89097538D01*
X103550830Y-89078132D01*
X103561866Y-89059719D01*
X103574654Y-89042476D01*
X103589070Y-89026570D01*
X103604976Y-89012154D01*
X103622219Y-88999366D01*
X103640632Y-88988330D01*
X103660038Y-88979151D01*
X103680250Y-88971919D01*
X103701074Y-88966703D01*
X103722309Y-88963553D01*
X103743750Y-88962500D01*
X104256250Y-88962500D01*
X104277691Y-88963553D01*
X104277691Y-88963553D01*
G37*
D11*
X104000000Y-89400000D03*
D10*
G36*
X104277691Y-90538553D02*
G01*
X104298926Y-90541703D01*
X104319750Y-90546919D01*
X104339962Y-90554151D01*
X104359368Y-90563330D01*
X104377781Y-90574366D01*
X104395024Y-90587154D01*
X104410930Y-90601570D01*
X104425346Y-90617476D01*
X104438134Y-90634719D01*
X104449170Y-90653132D01*
X104458349Y-90672538D01*
X104465581Y-90692750D01*
X104470797Y-90713574D01*
X104473947Y-90734809D01*
X104475000Y-90756250D01*
X104475000Y-91193750D01*
X104473947Y-91215191D01*
X104470797Y-91236426D01*
X104465581Y-91257250D01*
X104458349Y-91277462D01*
X104449170Y-91296868D01*
X104438134Y-91315281D01*
X104425346Y-91332524D01*
X104410930Y-91348430D01*
X104395024Y-91362846D01*
X104377781Y-91375634D01*
X104359368Y-91386670D01*
X104339962Y-91395849D01*
X104319750Y-91403081D01*
X104298926Y-91408297D01*
X104277691Y-91411447D01*
X104256250Y-91412500D01*
X103743750Y-91412500D01*
X103722309Y-91411447D01*
X103701074Y-91408297D01*
X103680250Y-91403081D01*
X103660038Y-91395849D01*
X103640632Y-91386670D01*
X103622219Y-91375634D01*
X103604976Y-91362846D01*
X103589070Y-91348430D01*
X103574654Y-91332524D01*
X103561866Y-91315281D01*
X103550830Y-91296868D01*
X103541651Y-91277462D01*
X103534419Y-91257250D01*
X103529203Y-91236426D01*
X103526053Y-91215191D01*
X103525000Y-91193750D01*
X103525000Y-90756250D01*
X103526053Y-90734809D01*
X103529203Y-90713574D01*
X103534419Y-90692750D01*
X103541651Y-90672538D01*
X103550830Y-90653132D01*
X103561866Y-90634719D01*
X103574654Y-90617476D01*
X103589070Y-90601570D01*
X103604976Y-90587154D01*
X103622219Y-90574366D01*
X103640632Y-90563330D01*
X103660038Y-90554151D01*
X103680250Y-90546919D01*
X103701074Y-90541703D01*
X103722309Y-90538553D01*
X103743750Y-90537500D01*
X104256250Y-90537500D01*
X104277691Y-90538553D01*
X104277691Y-90538553D01*
G37*
D11*
X104000000Y-90975000D03*
D10*
G36*
X80965191Y-94376053D02*
G01*
X80986426Y-94379203D01*
X81007250Y-94384419D01*
X81027462Y-94391651D01*
X81046868Y-94400830D01*
X81065281Y-94411866D01*
X81082524Y-94424654D01*
X81098430Y-94439070D01*
X81112846Y-94454976D01*
X81125634Y-94472219D01*
X81136670Y-94490632D01*
X81145849Y-94510038D01*
X81153081Y-94530250D01*
X81158297Y-94551074D01*
X81161447Y-94572309D01*
X81162500Y-94593750D01*
X81162500Y-95106250D01*
X81161447Y-95127691D01*
X81158297Y-95148926D01*
X81153081Y-95169750D01*
X81145849Y-95189962D01*
X81136670Y-95209368D01*
X81125634Y-95227781D01*
X81112846Y-95245024D01*
X81098430Y-95260930D01*
X81082524Y-95275346D01*
X81065281Y-95288134D01*
X81046868Y-95299170D01*
X81027462Y-95308349D01*
X81007250Y-95315581D01*
X80986426Y-95320797D01*
X80965191Y-95323947D01*
X80943750Y-95325000D01*
X80506250Y-95325000D01*
X80484809Y-95323947D01*
X80463574Y-95320797D01*
X80442750Y-95315581D01*
X80422538Y-95308349D01*
X80403132Y-95299170D01*
X80384719Y-95288134D01*
X80367476Y-95275346D01*
X80351570Y-95260930D01*
X80337154Y-95245024D01*
X80324366Y-95227781D01*
X80313330Y-95209368D01*
X80304151Y-95189962D01*
X80296919Y-95169750D01*
X80291703Y-95148926D01*
X80288553Y-95127691D01*
X80287500Y-95106250D01*
X80287500Y-94593750D01*
X80288553Y-94572309D01*
X80291703Y-94551074D01*
X80296919Y-94530250D01*
X80304151Y-94510038D01*
X80313330Y-94490632D01*
X80324366Y-94472219D01*
X80337154Y-94454976D01*
X80351570Y-94439070D01*
X80367476Y-94424654D01*
X80384719Y-94411866D01*
X80403132Y-94400830D01*
X80422538Y-94391651D01*
X80442750Y-94384419D01*
X80463574Y-94379203D01*
X80484809Y-94376053D01*
X80506250Y-94375000D01*
X80943750Y-94375000D01*
X80965191Y-94376053D01*
X80965191Y-94376053D01*
G37*
D11*
X80725000Y-94850000D03*
D10*
G36*
X82540191Y-94376053D02*
G01*
X82561426Y-94379203D01*
X82582250Y-94384419D01*
X82602462Y-94391651D01*
X82621868Y-94400830D01*
X82640281Y-94411866D01*
X82657524Y-94424654D01*
X82673430Y-94439070D01*
X82687846Y-94454976D01*
X82700634Y-94472219D01*
X82711670Y-94490632D01*
X82720849Y-94510038D01*
X82728081Y-94530250D01*
X82733297Y-94551074D01*
X82736447Y-94572309D01*
X82737500Y-94593750D01*
X82737500Y-95106250D01*
X82736447Y-95127691D01*
X82733297Y-95148926D01*
X82728081Y-95169750D01*
X82720849Y-95189962D01*
X82711670Y-95209368D01*
X82700634Y-95227781D01*
X82687846Y-95245024D01*
X82673430Y-95260930D01*
X82657524Y-95275346D01*
X82640281Y-95288134D01*
X82621868Y-95299170D01*
X82602462Y-95308349D01*
X82582250Y-95315581D01*
X82561426Y-95320797D01*
X82540191Y-95323947D01*
X82518750Y-95325000D01*
X82081250Y-95325000D01*
X82059809Y-95323947D01*
X82038574Y-95320797D01*
X82017750Y-95315581D01*
X81997538Y-95308349D01*
X81978132Y-95299170D01*
X81959719Y-95288134D01*
X81942476Y-95275346D01*
X81926570Y-95260930D01*
X81912154Y-95245024D01*
X81899366Y-95227781D01*
X81888330Y-95209368D01*
X81879151Y-95189962D01*
X81871919Y-95169750D01*
X81866703Y-95148926D01*
X81863553Y-95127691D01*
X81862500Y-95106250D01*
X81862500Y-94593750D01*
X81863553Y-94572309D01*
X81866703Y-94551074D01*
X81871919Y-94530250D01*
X81879151Y-94510038D01*
X81888330Y-94490632D01*
X81899366Y-94472219D01*
X81912154Y-94454976D01*
X81926570Y-94439070D01*
X81942476Y-94424654D01*
X81959719Y-94411866D01*
X81978132Y-94400830D01*
X81997538Y-94391651D01*
X82017750Y-94384419D01*
X82038574Y-94379203D01*
X82059809Y-94376053D01*
X82081250Y-94375000D01*
X82518750Y-94375000D01*
X82540191Y-94376053D01*
X82540191Y-94376053D01*
G37*
D11*
X82300000Y-94850000D03*
D10*
G36*
X80965191Y-92726053D02*
G01*
X80986426Y-92729203D01*
X81007250Y-92734419D01*
X81027462Y-92741651D01*
X81046868Y-92750830D01*
X81065281Y-92761866D01*
X81082524Y-92774654D01*
X81098430Y-92789070D01*
X81112846Y-92804976D01*
X81125634Y-92822219D01*
X81136670Y-92840632D01*
X81145849Y-92860038D01*
X81153081Y-92880250D01*
X81158297Y-92901074D01*
X81161447Y-92922309D01*
X81162500Y-92943750D01*
X81162500Y-93456250D01*
X81161447Y-93477691D01*
X81158297Y-93498926D01*
X81153081Y-93519750D01*
X81145849Y-93539962D01*
X81136670Y-93559368D01*
X81125634Y-93577781D01*
X81112846Y-93595024D01*
X81098430Y-93610930D01*
X81082524Y-93625346D01*
X81065281Y-93638134D01*
X81046868Y-93649170D01*
X81027462Y-93658349D01*
X81007250Y-93665581D01*
X80986426Y-93670797D01*
X80965191Y-93673947D01*
X80943750Y-93675000D01*
X80506250Y-93675000D01*
X80484809Y-93673947D01*
X80463574Y-93670797D01*
X80442750Y-93665581D01*
X80422538Y-93658349D01*
X80403132Y-93649170D01*
X80384719Y-93638134D01*
X80367476Y-93625346D01*
X80351570Y-93610930D01*
X80337154Y-93595024D01*
X80324366Y-93577781D01*
X80313330Y-93559368D01*
X80304151Y-93539962D01*
X80296919Y-93519750D01*
X80291703Y-93498926D01*
X80288553Y-93477691D01*
X80287500Y-93456250D01*
X80287500Y-92943750D01*
X80288553Y-92922309D01*
X80291703Y-92901074D01*
X80296919Y-92880250D01*
X80304151Y-92860038D01*
X80313330Y-92840632D01*
X80324366Y-92822219D01*
X80337154Y-92804976D01*
X80351570Y-92789070D01*
X80367476Y-92774654D01*
X80384719Y-92761866D01*
X80403132Y-92750830D01*
X80422538Y-92741651D01*
X80442750Y-92734419D01*
X80463574Y-92729203D01*
X80484809Y-92726053D01*
X80506250Y-92725000D01*
X80943750Y-92725000D01*
X80965191Y-92726053D01*
X80965191Y-92726053D01*
G37*
D11*
X80725000Y-93200000D03*
D10*
G36*
X82540191Y-92726053D02*
G01*
X82561426Y-92729203D01*
X82582250Y-92734419D01*
X82602462Y-92741651D01*
X82621868Y-92750830D01*
X82640281Y-92761866D01*
X82657524Y-92774654D01*
X82673430Y-92789070D01*
X82687846Y-92804976D01*
X82700634Y-92822219D01*
X82711670Y-92840632D01*
X82720849Y-92860038D01*
X82728081Y-92880250D01*
X82733297Y-92901074D01*
X82736447Y-92922309D01*
X82737500Y-92943750D01*
X82737500Y-93456250D01*
X82736447Y-93477691D01*
X82733297Y-93498926D01*
X82728081Y-93519750D01*
X82720849Y-93539962D01*
X82711670Y-93559368D01*
X82700634Y-93577781D01*
X82687846Y-93595024D01*
X82673430Y-93610930D01*
X82657524Y-93625346D01*
X82640281Y-93638134D01*
X82621868Y-93649170D01*
X82602462Y-93658349D01*
X82582250Y-93665581D01*
X82561426Y-93670797D01*
X82540191Y-93673947D01*
X82518750Y-93675000D01*
X82081250Y-93675000D01*
X82059809Y-93673947D01*
X82038574Y-93670797D01*
X82017750Y-93665581D01*
X81997538Y-93658349D01*
X81978132Y-93649170D01*
X81959719Y-93638134D01*
X81942476Y-93625346D01*
X81926570Y-93610930D01*
X81912154Y-93595024D01*
X81899366Y-93577781D01*
X81888330Y-93559368D01*
X81879151Y-93539962D01*
X81871919Y-93519750D01*
X81866703Y-93498926D01*
X81863553Y-93477691D01*
X81862500Y-93456250D01*
X81862500Y-92943750D01*
X81863553Y-92922309D01*
X81866703Y-92901074D01*
X81871919Y-92880250D01*
X81879151Y-92860038D01*
X81888330Y-92840632D01*
X81899366Y-92822219D01*
X81912154Y-92804976D01*
X81926570Y-92789070D01*
X81942476Y-92774654D01*
X81959719Y-92761866D01*
X81978132Y-92750830D01*
X81997538Y-92741651D01*
X82017750Y-92734419D01*
X82038574Y-92729203D01*
X82059809Y-92726053D01*
X82081250Y-92725000D01*
X82518750Y-92725000D01*
X82540191Y-92726053D01*
X82540191Y-92726053D01*
G37*
D11*
X82300000Y-93200000D03*
D17*
X95900000Y-82900000D03*
X93500000Y-84800000D03*
X93500000Y-82900000D03*
X95900000Y-84800000D03*
D18*
X99800000Y-87400000D03*
X99150000Y-87400000D03*
X98500000Y-87400000D03*
X97850000Y-87400000D03*
X97200000Y-87400000D03*
X96550000Y-87400000D03*
X95900000Y-87400000D03*
X95250000Y-87400000D03*
X94600000Y-87400000D03*
X93950000Y-87400000D03*
X93300000Y-87400000D03*
X92650000Y-87400000D03*
X92000000Y-87400000D03*
X91350000Y-87400000D03*
X91350000Y-94600000D03*
X92000000Y-94600000D03*
X92650000Y-94600000D03*
X93300000Y-94600000D03*
X93950000Y-94600000D03*
X94600000Y-94600000D03*
X95250000Y-94600000D03*
X95900000Y-94600000D03*
X96550000Y-94600000D03*
X97200000Y-94600000D03*
X97850000Y-94600000D03*
X98500000Y-94600000D03*
X99150000Y-94600000D03*
X99800000Y-94600000D03*
M02*
